<svg width="662" height="674" viewBox="0 0 662 674" fill="none" xmlns="http://www.w3.org/2000/svg">
<g opacity="0.4">
<path d="M675.62 286.561C687.443 307.038 690.396 332.436 681.516 356.274C668.834 390.307 630.829 407.68 596.793 394.995C569.443 384.803 555.485 354.263 565.675 326.909C573.873 304.905 598.442 293.677 620.443 301.876C638.17 308.481 647.214 328.277 640.61 346C638.029 352.926 632.904 358.437 626.18 361.51C619.456 364.583 611.935 364.853 605.009 362.273C599.406 360.187 594.954 356.045 592.471 350.606C589.985 345.169 589.766 339.089 591.854 333.487C593.545 328.946 596.905 325.339 601.312 323.324C605.719 321.308 610.646 321.131 615.187 322.826C620.756 324.9 624.517 330.077 624.775 336.009C624.804 336.659 624.298 337.214 623.643 337.241C622.989 337.271 622.438 336.763 622.409 336.113C622.193 331.13 619.032 326.785 614.357 325.043C606.206 322.005 597.103 326.167 594.066 334.317C592.201 339.328 592.394 344.764 594.618 349.624C596.84 354.489 600.822 358.191 605.832 360.06C612.166 362.421 619.042 362.173 625.194 359.363C631.344 356.55 636.029 351.516 638.39 345.179C644.538 328.675 636.117 310.248 619.612 304.099C598.833 296.354 575.628 306.96 567.884 327.741C558.149 353.867 571.485 383.046 597.613 392.784C630.425 405.01 667.066 388.261 679.291 355.451C694.628 314.283 673.616 268.31 632.449 252.967C580.836 233.735 523.2 260.08 503.967 311.69C503.739 312.302 503.058 312.615 502.446 312.386C501.834 312.157 501.522 311.479 501.751 310.867C521.436 258.032 580.437 231.067 633.273 250.754C651.826 257.668 666.407 270.627 675.61 286.567L675.62 286.561Z" fill="#6EA8D8"/>
<path d="M659.73 112.637C679.047 104.961 700.077 108.431 715.68 119.96C716.948 120.895 718.178 121.878 719.363 122.915C726.1 128.782 731.566 136.295 735.087 145.149C744.59 169.064 732.86 196.267 708.931 205.766C689.665 213.422 667.756 203.968 660.101 184.699C657.104 177.161 657.225 168.916 660.437 161.474C663.651 154.03 669.562 148.288 677.1 145.293C683.188 142.88 689.857 142.982 695.872 145.568C701.886 148.167 706.531 152.95 708.96 159.042C710.92 163.983 710.835 169.384 708.735 174.264C706.624 179.141 702.755 182.904 697.816 184.867C691.758 187.271 684.896 185.827 680.328 181.192C679.825 180.682 679.828 179.858 680.341 179.353C680.843 178.854 681.668 178.858 682.173 179.371C686.014 183.261 691.776 184.477 696.865 182.459C705.721 178.938 710.073 168.864 706.546 160C704.385 154.557 700.229 150.275 694.847 147.955C689.461 145.628 683.505 145.546 678.056 147.71C671.164 150.44 665.758 155.703 662.821 162.503C659.882 169.316 659.773 176.852 662.503 183.743C669.636 201.692 690.032 210.489 707.974 203.362C730.565 194.386 741.644 168.702 732.676 146.105C721.393 117.697 689.097 103.763 660.684 115.051C650.739 119.001 642.211 124.997 635.39 132.366C635.054 131.467 634.703 130.576 634.352 129.698L634.348 129.691C641.278 122.459 649.827 116.567 659.728 112.634L659.73 112.637Z" fill="#3B7FB7"/>
<path d="M646.141 2.08572C665.958 -4.70994 687.265 2.64967 699.021 18.756L699.033 18.776C701.242 21.8171 703.117 25.1575 704.575 28.7832L704.586 28.8033C704.885 29.5597 705.171 30.3238 705.441 31.1062C715.816 61.3721 699.635 94.4475 669.371 104.822C652.432 110.623 634.779 109.755 619.312 103.602L619.308 103.595C618.143 102.085 616.937 100.603 615.69 99.1757C631.633 106.877 650.497 108.548 668.528 102.37C697.443 92.4591 712.903 60.8667 702.989 31.9528C695.098 8.95209 669.976 -3.34456 646.982 4.54286C628.713 10.8012 618.952 30.7592 625.216 49.0182C627.618 56.0331 632.612 61.6895 639.264 64.9479C645.923 68.2025 653.45 68.6753 660.463 66.2714C666.011 64.3706 670.478 60.427 673.057 55.1598C675.632 49.8945 676.004 43.9451 674.102 38.3972C671.012 29.3747 661.156 24.5521 652.139 27.6467C646.967 29.4233 643.372 34.0908 642.99 39.5475C642.951 40.2638 642.323 40.7997 641.612 40.7526C640.898 40.7021 640.359 40.084 640.409 39.362C640.864 32.8627 645.134 27.303 651.299 25.1928C656.323 23.4751 661.714 23.8117 666.494 26.1422C671.263 28.4785 674.835 32.5332 676.56 37.5519C678.683 43.7539 678.268 50.4129 675.392 56.2963C672.509 62.1836 667.507 66.5921 661.311 68.7248C653.641 71.3525 645.412 70.8405 638.123 67.2735C630.849 63.7073 625.39 57.5287 622.762 49.8616C616.037 30.2506 626.521 8.82138 646.14 2.09099L646.141 2.08572Z" fill="#3B7FB7"/>
<path d="M612.028 -43.543C613.183 -43.2896 614.335 -43.017 615.479 -42.7215C582.454 -21.4854 566.802 20.3225 580.093 59.0936C582.311 65.5521 585.381 71.47 589.154 76.7733C587.529 75.7908 585.876 74.8514 584.203 73.9685C581.563 69.6201 579.355 64.9251 577.64 59.9231C568.592 33.5493 572.559 5.79607 586.116 -16.3048C592.641 -26.9624 601.412 -36.3073 612.026 -43.5464L612.028 -43.543Z" fill="#3B7FB7"/>
<path d="M520.613 -32.1639C521.392 -32.5605 522.174 -32.9452 522.958 -33.318C530.3 -21.5179 530.815 -6.07469 522.981 6.48569C518.695 13.3656 511.99 18.1655 504.096 20.0031C496.207 21.8368 488.062 20.4852 481.182 16.2022C475.624 12.7387 471.746 7.31399 470.261 0.925483C470.189 0.593491 470.114 0.263429 470.059 -0.0695907C471.32 1.10537 472.568 2.30517 473.786 3.53091C475.505 7.8464 478.538 11.4919 482.559 13.9936C488.85 17.9186 496.287 19.1504 503.51 17.4736C510.727 15.8007 516.869 11.4105 520.781 5.11508C528.125 -6.66409 527.587 -21.1609 520.613 -32.1639Z" fill="#3B7FB7"/>
<path d="M571.894 -46.4699C572.776 -46.5347 573.664 -46.5895 574.543 -46.6438C581.592 -22.8322 578.824 3.76643 564.687 26.4555C545.312 57.5524 505.978 68.815 473.487 54.003L473.483 53.9963C471.86 52.1463 470.205 50.3189 468.509 48.5199C500.837 67.258 542.58 57.0224 562.487 25.0763C576.32 2.86929 578.936 -23.2012 571.894 -46.4699Z" fill="#3B7FB7"/>
<path d="M441.661 -20.3564C442.436 -19.9457 443.199 -19.524 443.961 -19.097C437.82 -2.69562 439.947 15.4932 449.046 29.9286C447.259 28.3953 445.448 26.8981 443.603 25.4338L443.599 25.4271C436.848 11.3257 435.897 -5.25717 441.663 -20.3532L441.661 -20.3564Z" fill="#3B7FB7"/>
<path d="M688.639 497.999C689.327 498.184 689.741 498.901 689.557 499.589C689.366 500.282 688.652 500.685 687.964 500.5C682.685 499.067 677.089 500.915 673.72 505.221C667.832 512.728 669.149 523.619 676.642 529.503C679.218 531.519 682.145 532.919 685.234 533.629C684.794 534.412 684.345 535.182 683.886 535.963C680.715 535.127 677.71 533.639 675.045 531.546C670.864 528.26 668.211 523.556 667.577 518.281C666.942 513.002 668.398 507.8 671.677 503.622C675.7 498.494 682.354 496.293 688.639 497.999Z" fill="#3B7FB7"/>
<path d="M645.115 537.73C645.676 536.762 646.224 535.788 646.766 534.803C649.465 542.394 654.27 549.332 661.061 554.662C662.961 556.152 664.92 557.498 666.947 558.692C666.352 559.347 665.751 559.992 665.124 560.629C663.177 559.451 661.283 558.139 659.454 556.702C652.883 551.547 648.072 544.967 645.117 537.733L645.115 537.73Z" fill="#3B7FB7"/>
<path d="M702.023 483.102C701.903 484.064 701.774 485.019 701.631 485.986C689.232 477.013 672.709 477.341 660.748 485.901C660.773 484.86 660.778 483.807 660.76 482.751C673.093 474.821 689.379 474.629 702.024 483.096L702.023 483.102Z" fill="#3B7FB7"/>
<path d="M644.498 431.025C647.594 429.985 650.742 429.114 653.928 428.422C678.965 422.959 706.125 428.145 727.942 444.897C726.97 445.258 725.992 445.605 725.015 445.943C701.528 428.599 671.939 424.771 645.892 433.293C645.441 432.544 644.975 431.782 644.5 431.029L644.498 431.025Z" fill="#3B7FB7"/>
<path d="M647.377 486.157C647.516 486.397 647.573 486.688 647.514 486.985C642.045 513.747 626.483 536.774 603.691 551.827C580.9 566.883 553.614 572.159 526.854 566.69C505.382 562.301 486.908 549.816 474.832 531.53C462.753 513.24 458.52 491.351 462.907 469.881C466.429 452.644 476.456 437.809 491.136 428.111C505.816 418.413 523.395 415.012 540.632 418.538C569.227 424.385 587.736 452.404 581.892 481C577.19 504.003 554.65 518.893 531.648 514.192C513.117 510.403 501.124 492.247 504.911 473.715C506.393 466.472 510.605 460.239 516.772 456.163C522.941 452.09 530.329 450.661 537.571 452.139C549.659 454.61 557.486 466.459 555.015 478.545C553.01 488.345 543.411 494.687 533.611 492.686C527.792 491.493 523.271 486.964 522.103 481.14C521.973 480.499 522.39 479.876 523.027 479.748C523.668 479.618 524.291 480.036 524.419 480.674C525.402 485.561 529.196 489.371 534.085 490.367C542.608 492.11 550.955 486.593 552.698 478.07C554.909 467.258 547.909 456.665 537.098 454.452C530.474 453.097 523.718 454.406 518.076 458.13C512.437 461.858 508.584 467.558 507.229 474.182C503.702 491.434 514.872 508.341 532.123 511.868C553.851 516.309 575.136 502.247 579.579 480.518C585.16 453.198 567.481 426.432 540.161 420.846C523.543 417.447 506.597 420.727 492.444 430.076C478.291 439.426 468.627 453.727 465.228 470.345C460.967 491.196 465.078 512.458 476.811 530.218C488.542 547.974 506.486 560.103 527.335 564.367C553.475 569.71 580.134 564.556 602.394 549.851C624.657 535.143 639.86 512.647 645.202 486.506C645.334 485.865 645.958 485.452 646.598 485.584C646.945 485.655 647.22 485.869 647.384 486.153L647.377 486.157Z" fill="#6EA8D8"/>
<path d="M435.252 421.234C446.211 440.215 449.121 462.321 443.448 483.489C437.776 504.656 424.201 522.349 405.224 533.306C373.768 551.466 333.405 540.648 315.246 509.195C308.176 496.949 306.297 482.684 309.957 469.026C313.618 455.369 322.376 443.955 334.62 436.886C354.954 425.146 381.048 432.139 392.787 452.473C402.244 468.853 396.611 489.873 380.232 499.329C367.015 506.96 350.056 502.416 342.424 489.196C336.252 478.508 339.927 464.797 350.615 458.626C359.278 453.625 370.394 456.605 375.394 465.266C378.365 470.411 377.971 476.799 374.39 481.538C373.997 482.059 373.253 482.163 372.733 481.77C372.213 481.377 372.108 480.633 372.5 480.113C375.507 476.133 375.84 470.77 373.345 466.449C368.997 458.918 359.33 456.324 351.797 460.673C342.242 466.19 338.954 478.455 344.473 488.013C351.452 500.102 366.964 504.256 379.052 497.277C394.301 488.473 399.544 468.9 390.74 453.65C379.653 434.447 355.008 427.84 335.804 438.928C324.106 445.681 315.741 456.583 312.243 469.631C308.75 482.677 310.54 496.304 317.294 508.003C334.803 538.329 373.719 548.757 404.041 531.25C422.473 520.609 435.654 503.428 441.163 482.87C446.673 462.313 443.844 440.839 433.203 422.409C405.662 374.706 344.451 358.302 296.75 385.842C296.184 386.17 295.462 385.973 295.136 385.409C294.811 384.846 295.005 384.121 295.568 383.795C344.399 355.603 407.06 372.396 435.252 421.226L435.252 421.234Z" fill="#6EA8D8"/>
<path d="M398.238 565.273C410.806 558.017 426.94 562.34 434.197 574.909C438.508 582.378 437.935 591.648 432.742 598.527C432.167 599.286 431.09 599.436 430.331 598.861C429.581 598.285 429.434 597.214 430 596.456C434.366 590.677 434.849 582.895 431.226 576.62C424.915 565.688 410.883 561.929 399.952 568.24C386.078 576.25 381.309 594.051 389.319 607.923C399.445 625.464 421.964 631.497 439.503 621.371C458.434 610.441 466.743 588.076 460.739 567.983C462.156 569.129 463.617 570.206 465.096 571.228C469.268 591.651 460.232 613.364 441.218 624.342C422.203 635.32 397.424 628.818 386.35 609.637C377.394 594.124 382.727 574.224 398.237 565.269L398.238 565.273Z" fill="#78B2E2"/>
<path d="M348.331 559.414C349.494 559.743 350.655 560.046 351.815 560.323C347.693 566.681 344.558 573.723 342.544 581.252C338.155 597.633 339.516 614.633 346.31 629.918C344.745 629.208 343.194 628.46 341.665 627.675C335.884 612.645 334.983 596.219 339.233 580.358C341.244 572.854 344.319 565.815 348.331 559.414Z" fill="#78B2E2"/>
<path d="M300.383 446.85C299.307 443.285 298.033 439.833 296.573 436.497C297.692 436.042 298.746 435.589 299.728 435.151C300.706 437.383 301.601 439.657 302.413 441.994C301.758 443.492 301.073 445.114 300.383 446.85Z" fill="#78B2E2"/>
<path d="M210.256 438.185C231.736 432.785 253.603 445.876 259.002 467.355C263.368 484.727 252.784 502.404 235.415 506.769C221.334 510.302 207.003 501.724 203.469 487.654C201.372 479.29 204.459 470.524 211.342 465.341C212.102 464.765 213.173 464.92 213.746 465.674C214.319 466.428 214.168 467.506 213.408 468.082C207.629 472.437 205.036 479.788 206.803 486.819C209.876 499.065 222.339 506.526 234.581 503.446C250.117 499.548 259.581 483.731 255.678 468.198C250.742 448.546 230.74 436.578 211.102 441.52C186.316 447.748 171.215 472.976 177.442 497.765C185.285 528.977 217.054 547.994 248.273 540.149C267.278 535.373 283.292 523.483 293.362 506.662C293.365 506.652 293.372 506.648 293.374 506.637C293.726 508.146 294.125 509.653 294.589 511.15L294.593 511.157C283.995 527.318 267.961 538.74 249.108 543.481C216.06 551.781 182.419 531.654 174.112 498.598C167.428 471.98 183.641 444.878 210.263 438.19L210.256 438.185Z" fill="#78B2E2"/>
<path d="M188.876 380.826C192.726 379.861 196.579 379.139 200.42 378.668C200.672 379.781 200.956 380.889 201.271 382.018C197.425 382.483 193.572 383.187 189.715 384.156C178.76 386.911 168.434 391.161 158.981 396.748C158.004 396.018 157.043 395.253 156.107 394.464C166.154 388.374 177.166 383.764 188.876 380.826Z" fill="#78B2E2"/>
<path d="M143.249 303.704C148.45 310.552 155.225 316.122 163.18 319.998C177.817 327.123 193.755 328.652 208.544 325.413C207.983 326.381 207.44 327.379 206.919 328.4C192.201 331.146 176.509 329.381 162.04 322.341C154.011 318.428 147.124 312.855 141.761 306.03C142.236 305.244 142.734 304.468 143.249 303.704Z" fill="#78B2E2"/>
<path d="M197.761 222.928C216.462 232.029 224.274 254.648 215.174 273.349C207.828 288.441 189.58 294.736 174.493 287.394C162.288 281.451 157.191 266.698 163.13 254.502C167.941 244.608 179.901 240.477 189.791 245.289C195.668 248.15 199.238 254.211 198.899 260.732C198.863 261.455 198.249 262.001 197.528 261.968C196.812 261.928 196.26 261.318 196.299 260.593C196.59 255.117 193.587 250.032 188.658 247.627C180.062 243.442 169.655 247.037 165.472 255.635C160.164 266.546 164.715 279.739 175.629 285.053C189.43 291.768 206.118 286.001 212.833 272.202C221.306 254.792 214.037 233.739 196.625 225.255C179.653 217.002 159.92 220.62 146.931 232.853C146.961 231.644 147.011 230.438 147.1 229.222L147.096 229.215C160.824 217.675 180.623 214.575 197.762 222.923L197.761 222.928Z" fill="#78B2E2"/>
<path d="M183.62 158.056C195.006 159.648 206.331 163.023 217.216 168.318C229.361 174.234 239.803 182.594 248.027 192.814C247.318 193.334 246.615 193.855 245.945 194.38C237.974 184.482 227.844 176.385 216.083 170.657C204.71 165.115 192.831 161.731 180.934 160.336C181.812 159.557 182.711 158.798 183.623 158.054L183.62 158.056Z" fill="#78B2E2"/>
<path d="M483.453 230.685C497.279 254.633 490.278 285.618 466.95 301.167C457.487 307.475 446.131 309.719 434.979 307.485C423.828 305.251 414.21 298.81 407.902 289.347C402.821 281.723 401.012 272.574 402.81 263.592C404.606 254.607 409.797 246.863 417.422 241.78C430.122 233.315 447.341 236.763 455.805 249.461C459.122 254.437 460.3 260.402 459.126 266.263C457.952 272.124 454.566 277.177 449.594 280.492C445.562 283.18 440.726 284.137 435.974 283.186C431.223 282.235 427.129 279.491 424.441 275.46C421.147 270.516 421.13 264.115 424.398 259.157C424.758 258.611 425.489 258.461 426.034 258.821C426.58 259.182 426.731 259.913 426.371 260.458C423.628 264.625 423.645 270.002 426.407 274.147C428.742 277.653 432.306 280.041 436.438 280.865C440.572 281.692 444.778 280.86 448.281 278.526C452.731 275.561 455.758 271.039 456.805 265.798C457.853 260.557 456.8 255.217 453.834 250.772C446.094 239.158 430.348 236.007 418.732 243.749C411.632 248.479 406.8 255.692 405.128 264.059C403.453 272.423 405.139 280.945 409.869 288.038C415.827 296.979 424.909 303.062 435.441 305.169C445.974 307.276 456.699 305.156 465.637 299.2C488.836 283.735 495.123 252.268 479.669 229.078C460.247 199.94 420.742 192.032 391.606 211.454C355.048 235.819 345.139 285.398 369.494 321.942C384.295 344.145 406.852 359.256 433.012 364.494C459.176 369.73 485.811 364.466 508.012 349.665C508.554 349.304 509.292 349.451 509.65 349.995C510.004 350.524 509.867 351.27 509.322 351.634C486.594 366.783 459.328 372.172 432.547 366.812C405.766 361.452 382.673 345.984 367.524 323.253C342.414 285.579 352.649 234.573 390.291 209.484C420.513 189.341 461.489 197.543 481.634 227.765C482.273 228.726 482.88 229.7 483.45 230.687L483.453 230.685Z" fill="#6EA8D8"/>
<path d="M439.539 64.3072C448.197 79.3035 451.862 96.6004 449.939 114.136C447.549 135.92 436.819 155.469 419.725 169.179C391.394 191.906 349.855 187.345 327.128 159.014C318.279 147.981 314.259 134.17 315.8 120.118C317.343 106.065 324.265 93.4536 335.295 84.6048C344.166 77.4871 355.28 74.2536 366.585 75.4922C377.893 76.7342 388.037 82.3017 395.156 91.1766C406.992 105.93 404.617 127.562 389.864 139.396C384.099 144.023 376.874 146.127 369.526 145.319C362.179 144.512 355.584 140.891 350.958 135.125C343.235 125.496 344.786 111.385 354.41 103.664C362.212 97.403 373.654 98.6611 379.91 106.465C383.628 111.097 384.207 117.471 381.385 122.701C381.076 123.275 380.357 123.49 379.783 123.181C379.209 122.872 378.995 122.156 379.302 121.579C381.671 117.188 381.185 111.836 378.063 107.944C372.622 101.159 362.671 100.067 355.888 105.508C347.282 112.415 345.897 125.035 352.799 133.644C357.03 138.918 363.06 142.229 369.781 142.967C376.502 143.706 383.108 141.781 388.381 137.55C402.116 126.53 404.327 106.392 393.307 92.6529C386.586 84.2734 377.001 79.0138 366.325 77.8427C355.648 76.6683 345.153 79.727 336.773 86.4497C326.238 94.9016 319.622 106.949 318.151 120.375C316.676 133.802 320.522 147.002 328.974 157.534C350.884 184.848 390.932 189.243 418.246 167.334C434.848 154.015 445.269 135.032 447.591 113.878C449.911 92.7213 443.855 71.9286 430.539 55.3275C413.845 34.5152 390.042 21.4483 363.518 18.5357C336.995 15.6231 310.926 23.2149 290.117 39.9099C289.607 40.3197 288.863 40.2382 288.456 39.7262C288.05 39.2228 288.129 38.4748 288.639 38.065C309.943 20.9731 336.629 13.203 363.778 16.1851C390.928 19.1672 415.295 32.5403 432.385 53.8479C435.06 57.1802 437.446 60.6746 439.542 64.3053L439.539 64.3072Z" fill="#6EA8D8"/>
<path d="M620.36 119.022C624.208 125.686 627.002 132.995 628.609 140.749C631.777 156.047 628.797 171.668 620.219 184.725C611.64 197.782 598.49 206.721 583.192 209.886C570.89 212.431 558.334 210.034 547.835 203.138C537.335 196.238 530.152 185.666 527.603 173.366C523.37 152.921 536.559 132.846 557.002 128.614C573.485 125.201 589.67 135.838 593.081 152.317C595.837 165.631 587.251 178.705 573.938 181.462C563.16 183.692 552.573 176.735 550.343 165.963C548.53 157.212 554.176 148.618 562.926 146.807C568.132 145.73 573.45 147.861 576.473 152.237C576.844 152.77 576.71 153.509 576.171 153.883C575.635 154.254 574.899 154.119 574.527 153.583C572.049 149.99 567.68 148.24 563.407 149.125C555.936 150.674 551.11 158.012 552.66 165.483C554.63 174.988 563.96 181.115 573.459 179.147C585.495 176.656 593.258 164.835 590.769 152.798C587.621 137.59 572.687 127.782 557.483 130.932C538.319 134.902 525.955 153.722 529.923 172.889C532.34 184.572 539.166 194.616 549.137 201.168C559.108 207.72 571.033 209.993 582.716 207.577C597.398 204.537 610.017 195.963 618.246 183.432C626.476 170.902 629.337 155.914 626.295 141.235C622.48 122.808 611.716 106.965 595.986 96.6332C580.257 86.3017 561.445 82.711 543.018 86.5265C519.905 91.3135 500.039 104.81 487.081 124.538C474.123 144.267 469.62 167.862 474.408 190.974C474.541 191.612 474.131 192.24 473.491 192.37C472.852 192.503 472.224 192.092 472.094 191.452C467.179 167.719 471.802 143.495 485.108 123.237C498.414 102.979 518.811 89.1181 542.542 84.2096C561.589 80.2674 581.032 83.9739 597.288 94.6551C606.927 100.986 614.761 109.323 620.367 119.026L620.36 119.022Z" fill="#6EA8D8"/>
<path d="M330.982 206.216C333.088 209.863 334.69 213.824 335.738 218.024C340.605 237.587 328.652 257.464 309.087 262.332C293.309 266.259 277.282 256.619 273.355 240.838C271.819 234.662 272.777 228.258 276.056 222.804C279.336 217.35 284.546 213.502 290.721 211.964C295.725 210.72 300.909 211.496 305.325 214.152C309.743 216.811 312.863 221.029 314.105 226.028C316.194 234.416 311.068 242.936 302.682 245.022C299.368 245.846 295.934 245.33 293.013 243.572C290.089 241.815 288.027 239.022 287.198 235.709C286.18 231.62 287.701 227.346 291.07 224.818C291.595 224.426 292.336 224.532 292.726 225.054C293.108 225.562 293.01 226.316 292.491 226.709C289.885 228.667 288.707 231.975 289.495 235.139C290.164 237.837 291.846 240.111 294.229 241.545C296.611 242.979 299.412 243.398 302.107 242.726C309.227 240.954 313.58 233.72 311.809 226.598C310.719 222.209 307.982 218.508 304.104 216.177C300.23 213.844 295.679 213.164 291.289 214.254C285.726 215.639 281.035 219.108 278.081 224.018C275.128 228.928 274.262 234.7 275.647 240.262C279.26 254.775 294.003 263.644 308.514 260.032C326.812 255.477 337.994 236.89 333.44 218.591C330.664 207.435 323.708 198.026 313.858 192.098C304.007 186.17 292.437 184.435 281.279 187.214C267.257 190.704 255.43 199.444 247.985 211.824C240.536 224.206 238.355 238.748 241.848 252.77C246.228 270.374 257.202 285.22 272.748 294.572C288.294 303.925 306.552 306.662 324.155 302.282C324.789 302.125 325.431 302.515 325.59 303.143C325.747 303.777 325.362 304.417 324.728 304.574C306.511 309.108 287.621 306.274 271.533 296.599C255.445 286.923 244.091 271.559 239.557 253.341C235.915 238.707 238.191 223.529 245.965 210.603C253.736 197.679 266.079 188.557 280.716 184.916C292.486 181.988 304.692 183.818 315.085 190.069C321.77 194.091 327.191 199.634 330.987 206.209L330.982 206.216Z" fill="#6EA8D8"/>
</g>
</svg>
