<svg width="165" height="53" viewBox="0 0 165 53" fill="none" xmlns="http://www.w3.org/2000/svg">
<g clip-path="url(#clip0_36_2055)">
<path d="M12.0269 5.92422C12.3422 6.34337 12.503 6.84384 12.503 7.4319C12.503 8.30147 12.1443 8.97711 11.4394 9.45881C10.7283 9.94051 9.70187 10.1782 8.35387 10.1782H2.82584V0.225098H8.07561C9.38651 0.225098 10.3759 0.462822 11.0437 0.938271C11.7115 1.41372 12.0454 2.03931 12.0454 2.82755C12.0454 3.29049 11.9279 3.70964 11.6991 4.07873C11.4703 4.44783 11.1303 4.74811 10.6789 4.97333C11.2601 5.19228 11.7053 5.51134 12.0269 5.92422ZM6.07835 2.57106V4.04745H7.62422C8.3415 4.04745 8.70633 3.80347 8.70633 3.30926C8.70633 2.81504 8.34768 2.57106 7.62422 2.57106H6.07835ZM9.1639 7.05029C9.1639 6.53105 8.79908 6.2683 8.06943 6.2683H6.07835V7.83227H8.06943C8.79908 7.83227 9.1639 7.56953 9.1639 7.05029Z" fill="#026EC2"/>
<path d="M19.4223 7.67588H18.5257V10.1782H15.2176V0.225098H19.9479C20.8569 0.225098 21.6484 0.375239 22.3162 0.681779C22.9902 0.982062 23.5096 1.41998 23.8744 1.98926C24.2393 2.55855 24.4186 3.22167 24.4186 3.97864C24.4186 4.69181 24.2578 5.31115 23.9425 5.8429C23.6271 6.37465 23.1633 6.79379 22.5697 7.10659L24.635 10.1782H21.098L19.4285 7.67588H19.4223ZM20.7394 3.12158C20.5168 2.91514 20.1767 2.81504 19.7315 2.81504H18.5257V5.14849H19.7315C20.1829 5.14849 20.5168 5.0484 20.7394 4.84195C20.962 4.63551 21.0733 4.35399 21.0733 3.98489C21.0733 3.6158 20.962 3.32803 20.7394 3.12784V3.12158Z" fill="#026EC2"/>
<path d="M33.8978 8.44535H30.163L29.5014 10.1782H26.1314L30.4351 0.225098H33.6876L37.9789 10.1782H34.5533L33.8916 8.44535H33.8978ZM32.9889 6.02432L32.0366 3.52196L31.0843 6.02432H32.995H32.9889Z" fill="#026EC2"/>
<path d="M41.3428 10.1283C40.5698 9.94063 39.9391 9.69665 39.4444 9.38385L40.508 6.93779C40.9779 7.21305 41.4973 7.43201 42.0786 7.60092C42.6598 7.76983 43.2164 7.85116 43.7481 7.85116C44.2057 7.85116 44.5334 7.80736 44.7313 7.71353C44.9292 7.62594 45.0281 7.48831 45.0281 7.30689C45.0281 7.10045 44.8983 6.94405 44.6447 6.8377C44.385 6.73135 43.9646 6.61874 43.3771 6.49363C42.6166 6.33097 41.9858 6.16206 41.485 5.97439C40.9779 5.78671 40.5389 5.48643 40.1679 5.06728C39.7907 4.64814 39.6052 4.07259 39.6052 3.35316C39.6052 2.72757 39.7783 2.15829 40.1246 1.6453C40.4709 1.13232 40.9903 0.73194 41.6767 0.437913C42.363 0.143886 43.1978 0 44.181 0C44.855 0 45.5166 0.0750708 46.1659 0.218957C46.8151 0.369098 47.3902 0.581799 47.8849 0.863314L46.8893 3.29686C45.9247 2.80264 45.0157 2.55866 44.1562 2.55866C43.2967 2.55866 42.8824 2.76511 42.8824 3.18425C42.8824 3.38444 43.0061 3.53458 43.2596 3.63468C43.5132 3.73477 43.9275 3.84112 44.5087 3.95373C45.2569 4.09762 45.8876 4.26027 46.4008 4.44169C46.9141 4.62937 47.3593 4.92965 47.7427 5.34254C48.1198 5.76169 48.3115 6.33097 48.3115 7.0504C48.3115 7.67599 48.1384 8.24528 47.7921 8.75201C47.4459 9.25873 46.9264 9.65911 46.2401 9.9594C45.5537 10.2597 44.7189 10.4098 43.7358 10.4098C42.9195 10.4098 42.1281 10.316 41.3551 10.1346L41.3428 10.1283Z" fill="#026EC2"/>
<path d="M50.822 0.225098H54.1302V10.1782H50.822V0.225098Z" fill="#026EC2"/>
<path d="M57.2714 0.225098H60.5796V7.57578H65.0131V10.1782H57.2714V0.225098Z" fill="#026EC2"/>
<path d="M82.432 5.92422C82.7473 6.34337 82.9081 6.84384 82.9081 7.4319C82.9081 8.30147 82.5556 8.97711 81.8445 9.45881C81.1334 9.94051 80.107 10.1782 78.759 10.1782H73.231V0.225098H78.4807C79.7916 0.225098 80.781 0.462822 81.4488 0.938271C82.1166 1.41372 82.4505 2.03931 82.4505 2.82755C82.4505 3.29049 82.333 3.70964 82.1043 4.07873C81.8755 4.44783 81.5354 4.74811 81.0902 4.97333C81.6714 5.19228 82.1166 5.51134 82.4382 5.92422H82.432ZM76.4835 2.57106V4.04745H78.0293C78.7466 4.04745 79.1114 3.80347 79.1114 3.30926C79.1114 2.81504 78.7528 2.57106 78.0293 2.57106H76.4835ZM79.569 7.05029C79.569 6.53105 79.2042 6.2683 78.4746 6.2683H76.4835V7.83227H78.4746C79.2042 7.83227 79.569 7.56953 79.569 7.05029Z" fill="#026EC2"/>
<path d="M93.7787 7.6446V10.172H85.6103V0.225098H93.5932V2.75248H88.8628V3.91608H93.0181V6.33086H88.8628V7.63834H93.7725L93.7787 7.6446Z" fill="#026EC2"/>
<path d="M105.367 10.1782L105.336 5.64271L103.202 9.28364H101.743L99.6097 5.79911V10.1782H96.5922V0.225098H99.3129L102.51 5.5301L105.626 0.225098H108.347L108.378 10.1782H105.36H105.367Z" fill="#026EC2"/>
<path d="M8.48372 52.1617V49.2277L7.04297 51.6737H6.78327L5.34252 49.2465V52.168H4.79837V48.1392H5.26213L6.9193 50.9731L8.55793 48.1392H9.02169V52.168H8.48372V52.1617Z" fill="#026EC2"/>
<path d="M13.8943 51.1544H11.7795L11.3405 52.1616H10.7531L12.5525 48.1328H13.1152L14.9207 52.1616H14.3271L13.8881 51.1544H13.8943ZM13.6964 50.6915L12.8369 48.7146L11.9774 50.6915H13.6964Z" fill="#026EC2"/>
<path d="M16.6583 48.1328H17.2272V52.1616H16.6583V48.1328Z" fill="#026EC2"/>
<path d="M19.849 52.0681C19.5707 51.9743 19.3543 51.8554 19.1935 51.7053L19.4037 51.2548C19.5583 51.3925 19.75 51.5051 19.985 51.5927C20.22 51.6802 20.4673 51.724 20.7146 51.724C21.0424 51.724 21.2897 51.6677 21.4505 51.5551C21.6113 51.4425 21.6978 51.2924 21.6978 51.1047C21.6978 50.9671 21.6545 50.8545 21.5618 50.7669C21.469 50.6793 21.3639 50.6167 21.2341 50.5667C21.1042 50.5229 20.9187 50.4666 20.6775 50.4103C20.3807 50.3352 20.1396 50.2664 19.9541 50.1913C19.7686 50.1163 19.614 50.0037 19.4841 49.8535C19.3543 49.7034 19.2863 49.4969 19.2863 49.2404C19.2863 49.0277 19.3419 48.8338 19.4532 48.6586C19.5645 48.4835 19.7315 48.3458 19.9603 48.2458C20.1891 48.1394 20.4673 48.0894 20.8074 48.0894C21.0424 48.0894 21.2712 48.1206 21.4999 48.1832C21.7287 48.2457 21.9204 48.3333 22.0874 48.4459L21.9019 48.9089C21.7349 48.8025 21.5556 48.7212 21.3701 48.6649C21.1784 48.6086 20.9929 48.5836 20.8136 48.5836C20.492 48.5836 20.2509 48.6461 20.0901 48.765C19.9293 48.8839 19.849 49.0403 19.849 49.2279C19.849 49.3656 19.8922 49.4782 19.985 49.5657C20.0777 49.6533 20.1891 49.7221 20.3251 49.7659C20.4611 49.816 20.6404 49.866 20.8754 49.9161C21.1722 49.9911 21.4134 50.06 21.5989 50.135C21.7782 50.2101 21.939 50.3165 22.0688 50.4666C22.1987 50.6167 22.2667 50.8169 22.2667 51.0734C22.2667 51.2861 22.211 51.4801 22.0936 51.6552C21.9823 51.8304 21.8091 51.968 21.5742 52.0681C21.3454 52.1682 21.0609 52.2182 20.7208 52.2182C20.424 52.2182 20.1334 52.1682 19.8551 52.0744L19.849 52.0681Z" fill="#026EC2"/>
<path d="M27.1826 52.0681C26.9043 51.9743 26.6879 51.8554 26.5271 51.7053L26.7374 51.2548C26.892 51.3925 27.0836 51.5051 27.3186 51.5927C27.5536 51.6802 27.8009 51.724 28.0483 51.724C28.376 51.724 28.6233 51.6677 28.7841 51.5551C28.9449 51.4425 29.0314 51.2924 29.0314 51.1047C29.0314 50.9671 28.9882 50.8545 28.8954 50.7669C28.8026 50.6793 28.6975 50.6167 28.5677 50.5667C28.4378 50.5229 28.2523 50.4666 28.0112 50.4103C27.7144 50.3352 27.4732 50.2664 27.2877 50.1913C27.1022 50.1163 26.9476 50.0037 26.8178 49.8535C26.6879 49.7034 26.6199 49.4969 26.6199 49.2404C26.6199 49.0277 26.6755 48.8338 26.7868 48.6586C26.8981 48.4835 27.0651 48.3458 27.2939 48.2458C27.5227 48.1394 27.8009 48.0894 28.141 48.0894C28.376 48.0894 28.6048 48.1206 28.8336 48.1832C29.0624 48.2457 29.254 48.3333 29.421 48.4459L29.2355 48.9089C29.0685 48.8025 28.8892 48.7212 28.7037 48.6649C28.512 48.6086 28.3265 48.5836 28.1472 48.5836C27.8257 48.5836 27.5845 48.6461 27.4237 48.765C27.263 48.8839 27.1826 49.0403 27.1826 49.2279C27.1826 49.3656 27.2259 49.4782 27.3186 49.5657C27.4114 49.6533 27.5227 49.7221 27.6587 49.7659C27.7947 49.816 27.9741 49.866 28.209 49.9161C28.5058 49.9911 28.747 50.06 28.9325 50.135C29.1118 50.2101 29.2726 50.3165 29.4024 50.4666C29.5323 50.6167 29.6003 50.8169 29.6003 51.0734C29.6003 51.2861 29.5447 51.4801 29.4272 51.6552C29.3097 51.8304 29.1427 51.968 28.9078 52.0681C28.679 52.1682 28.3945 52.2182 28.0544 52.2182C27.7576 52.2182 27.467 52.1682 27.1888 52.0744L27.1826 52.0681Z" fill="#026EC2"/>
<path d="M34.0895 51.1544H31.9748L31.5358 52.1616H30.9483L32.7477 48.1328H33.3104L35.116 52.1616H34.5224L34.0834 51.1544H34.0895ZM33.8917 50.6915L33.0322 48.7146L32.1727 50.6915H33.8917Z" fill="#026EC2"/>
<path d="M37.2616 51.7491C36.9648 51.4425 36.8164 50.9983 36.8164 50.4228V48.1331H37.3853V50.404C37.3853 51.2674 37.7563 51.699 38.5045 51.699C38.8694 51.699 39.1476 51.5927 39.3393 51.38C39.531 51.1673 39.6299 50.8419 39.6299 50.404V48.1331H40.1803V50.4228C40.1803 51.0046 40.0318 51.4425 39.735 51.7491C39.4382 52.0556 39.0239 52.2057 38.4983 52.2057C37.9727 52.2057 37.5523 52.0493 37.2616 51.7428V51.7491ZM38.8508 47.0571H39.5434L38.5911 47.8078H38.0779L38.8508 47.0571Z" fill="#026EC2"/>
<path d="M42.4867 48.1328H44.1624C44.5829 48.1328 44.9539 48.2141 45.2816 48.383C45.6094 48.552 45.8629 48.7897 46.0422 49.0962C46.2215 49.4028 46.3143 49.7531 46.3143 50.1472C46.3143 50.5413 46.2215 50.8917 46.0422 51.1982C45.8629 51.5047 45.6094 51.7425 45.2816 51.9114C44.9539 52.0803 44.5829 52.1616 44.1624 52.1616H42.4867V48.1328ZM44.1253 51.6611C44.4469 51.6611 44.7313 51.5986 44.9725 51.4735C45.2136 51.3483 45.4053 51.1669 45.5352 50.9417C45.665 50.7165 45.733 50.4475 45.733 50.1472C45.733 49.8469 45.665 49.5842 45.5352 49.3527C45.4053 49.1212 45.2136 48.9461 44.9725 48.821C44.7251 48.6958 44.4469 48.6333 44.1253 48.6333H43.0494V51.6611H44.1253Z" fill="#026EC2"/>
<path d="M51.1992 51.6611V52.1616H48.3115V48.1328H51.1188V48.6333H48.8804V49.872H50.8777V50.3599H48.8804V51.6611H51.1992Z" fill="#026EC2"/>
<path d="M58.6936 48.5083C58.9904 48.7585 59.1388 49.1026 59.1388 49.5405C59.1388 49.9784 58.9904 50.3225 58.6936 50.5727C58.3968 50.8229 57.9949 50.9481 57.4755 50.9481H56.4923V52.168H55.9234V48.1392H57.4755C57.9887 48.1392 58.3968 48.2643 58.6936 48.5145V48.5083ZM58.2855 50.2099C58.4772 50.0535 58.5699 49.8283 58.5699 49.5405C58.5699 49.2527 58.4772 49.0275 58.2855 48.8711C58.0938 48.7147 57.8217 48.6396 57.4631 48.6396H56.4985V50.4476H57.4631C57.8217 50.4476 58.1 50.3725 58.2855 50.2161V50.2099Z" fill="#026EC2"/>
<path d="M63.7022 51.1544H61.5875L61.1484 52.1616H60.561L62.3604 48.1328H62.9231L64.7287 52.1616H64.1351L63.696 51.1544H63.7022ZM63.4982 50.6915L62.6387 48.7146L61.7792 50.6915H63.4982Z" fill="#026EC2"/>
<path d="M69.1189 52.1616L68.2594 50.9229C68.1543 50.9292 68.0678 50.9355 68.0121 50.9355H67.0289V52.1616H66.4601V48.1328H68.0121C68.5253 48.1328 68.9334 48.2579 69.2302 48.5082C69.5271 48.7584 69.6755 49.1025 69.6755 49.5404C69.6755 49.8532 69.6013 50.1159 69.4467 50.3349C69.2921 50.5538 69.0818 50.7102 68.7974 50.8103L69.7435 52.1616H69.1251H69.1189ZM68.8221 50.2098C69.0138 50.0534 69.1066 49.8282 69.1066 49.5341C69.1066 49.2401 69.0138 49.0211 68.8221 48.8648C68.6305 48.7084 68.3584 48.6333 67.9997 48.6333H67.0351V50.4475H67.9997C68.3584 50.4475 68.6366 50.3662 68.8221 50.2098Z" fill="#026EC2"/>
<path d="M74.2636 51.1544H72.1489L71.7098 52.1616H71.1224L72.9218 48.1328H73.4845L75.2901 52.1616H74.6965L74.2574 51.1544H74.2636ZM74.0657 50.6915L73.2062 48.7146L72.3467 50.6915H74.0657Z" fill="#026EC2"/>
<path d="M83.7924 52.531C83.6625 52.6874 83.5141 52.8 83.341 52.8814C83.1678 52.9627 82.9885 53.0002 82.7906 53.0002C82.5433 53.0002 82.3083 52.9377 82.0857 52.8188C81.8693 52.7 81.6158 52.4935 81.3375 52.1995C80.9603 52.1807 80.6264 52.0806 80.3234 51.8929C80.0204 51.7115 79.7855 51.4613 79.6185 51.161C79.4516 50.8545 79.365 50.5166 79.365 50.1475C79.365 49.7784 79.4577 49.4094 79.6432 49.0966C79.8287 48.7838 80.0823 48.5335 80.4038 48.3584C80.7254 48.1769 81.0902 48.0894 81.4921 48.0894C81.894 48.0894 82.2527 48.1769 82.5742 48.3584C82.8957 48.5398 83.1493 48.7838 83.3286 49.0966C83.5079 49.4094 83.6007 49.7597 83.6007 50.1538C83.6007 50.4854 83.5327 50.7856 83.4028 51.0609C83.2729 51.3362 83.0874 51.5676 82.8525 51.7553C82.6175 51.943 82.3454 52.0744 82.0362 52.1494C82.1661 52.2933 82.296 52.3934 82.4196 52.456C82.5433 52.5185 82.667 52.5498 82.7968 52.5498C83.0751 52.5498 83.3224 52.4372 83.5265 52.2057L83.7924 52.531ZM80.1379 50.942C80.274 51.1798 80.4595 51.3612 80.6944 51.4988C80.9294 51.6302 81.1953 51.699 81.4859 51.699C81.7765 51.699 82.0363 51.6302 82.2712 51.4988C82.5062 51.3674 82.6917 51.1798 82.8277 50.942C82.9638 50.7043 83.0318 50.4416 83.0318 50.1475C83.0318 49.8535 82.9638 49.5908 82.8277 49.353C82.6917 49.1153 82.5062 48.9339 82.2712 48.7963C82.0363 48.6649 81.7765 48.5961 81.4859 48.5961C81.1953 48.5961 80.9294 48.6649 80.6944 48.7963C80.4595 48.9276 80.274 49.1153 80.1379 49.353C80.0019 49.5908 79.9339 49.8535 79.9339 50.1475C79.9339 50.4416 80.0019 50.7043 80.1379 50.942Z" fill="#026EC2"/>
<path d="M86.0122 51.7487C85.7154 51.4422 85.567 50.998 85.567 50.4225V48.1328H86.1359V50.4037C86.1359 51.267 86.5069 51.6987 87.2551 51.6987C87.6199 51.6987 87.8982 51.5923 88.0899 51.3796C88.2816 51.1669 88.3805 50.8416 88.3805 50.4037V48.1328H88.9308V50.4225C88.9308 51.0043 88.7824 51.4422 88.4856 51.7487C88.1888 52.0553 87.7745 52.2054 87.2489 52.2054C86.7233 52.2054 86.3029 52.049 86.0122 51.7425V51.7487Z" fill="#026EC2"/>
<path d="M94.1249 51.6611V52.1616H91.2372V48.1328H94.0445V48.6333H91.8061V49.872H93.8034V50.3599H91.8061V51.6611H94.1249Z" fill="#026EC2"/>
<path d="M99.8694 52.1617V49.2277L98.4286 51.6737H98.1689L96.7282 49.2465V52.168H96.1841V48.1392H96.6478L98.305 50.9731L99.9436 48.1392H100.407V52.168H99.8694V52.1617Z" fill="#026EC2"/>
<path d="M109.095 52.1617V49.2277L107.654 51.6737H107.395L105.954 49.2465V52.168H105.41V48.1392H105.874L107.531 50.9731L109.169 48.1392H109.633V52.168H109.095V52.1617Z" fill="#026EC2"/>
<path d="M114.506 51.1544H112.391L111.952 52.1616H111.365L113.164 48.1328H113.727L115.532 52.1616H114.939L114.5 51.1544H114.506ZM114.308 50.6915L113.448 48.7146L112.589 50.6915H114.308Z" fill="#026EC2"/>
<path d="M117.27 48.1328H117.839V52.1616H117.27V48.1328Z" fill="#026EC2"/>
<path d="M120.46 52.0681C120.182 51.9743 119.966 51.8554 119.805 51.7053L120.015 51.2548C120.17 51.3925 120.361 51.5051 120.596 51.5927C120.831 51.6802 121.079 51.724 121.326 51.724C121.654 51.724 121.901 51.6677 122.062 51.5551C122.223 51.4425 122.309 51.2924 122.309 51.1047C122.309 50.9671 122.266 50.8545 122.173 50.7669C122.087 50.6793 121.975 50.6167 121.845 50.5667C121.716 50.5229 121.53 50.4666 121.289 50.4103C120.992 50.3352 120.751 50.2664 120.565 50.1913C120.38 50.1163 120.225 50.0037 120.096 49.8535C119.966 49.7034 119.898 49.4969 119.898 49.2404C119.898 49.0277 119.953 48.8338 120.065 48.6586C120.176 48.4835 120.349 48.3458 120.572 48.2458C120.8 48.1394 121.079 48.0894 121.419 48.0894C121.654 48.0894 121.883 48.1206 122.111 48.1832C122.34 48.2457 122.532 48.3333 122.699 48.4459L122.513 48.9089C122.346 48.8025 122.167 48.7212 121.982 48.6649C121.79 48.6086 121.604 48.5836 121.425 48.5836C121.103 48.5836 120.862 48.6461 120.702 48.765C120.541 48.8839 120.46 49.0403 120.46 49.2279C120.46 49.3656 120.504 49.4782 120.596 49.5657C120.689 49.6533 120.8 49.7221 120.937 49.7659C121.073 49.816 121.252 49.866 121.487 49.9161C121.784 49.9911 122.025 50.06 122.21 50.135C122.39 50.2101 122.55 50.3165 122.68 50.4666C122.81 50.6167 122.878 50.8169 122.878 51.0734C122.878 51.2861 122.822 51.4801 122.705 51.6552C122.594 51.8304 122.421 51.968 122.186 52.0681C121.957 52.1682 121.672 52.2182 121.332 52.2182C121.035 52.2182 120.745 52.1682 120.467 52.0744L120.46 52.0681Z" fill="#026EC2"/>
<path d="M130.267 48.5083C130.564 48.7585 130.713 49.1026 130.713 49.5405C130.713 49.9784 130.564 50.3225 130.267 50.5727C129.971 50.8229 129.569 50.9481 129.049 50.9481H128.066V52.168H127.497V48.1392H129.049C129.562 48.1392 129.971 48.2643 130.267 48.5145V48.5083ZM129.859 50.2099C130.051 50.0535 130.144 49.8283 130.144 49.5405C130.144 49.2527 130.051 49.0275 129.859 48.8711C129.668 48.7147 129.396 48.6396 129.037 48.6396H128.072V50.4476H129.037C129.396 50.4476 129.674 50.3725 129.859 50.2161V50.2099Z" fill="#026EC2"/>
<path d="M135.4 52.1616L134.54 50.9229C134.435 50.9292 134.348 50.9355 134.293 50.9355H133.31V52.1616H132.741V48.1328H134.293C134.806 48.1328 135.214 48.2579 135.511 48.5082C135.808 48.7584 135.956 49.1025 135.956 49.5404C135.956 49.8532 135.882 50.1159 135.727 50.3349C135.573 50.5538 135.363 50.7102 135.078 50.8103L136.024 52.1616H135.406H135.4ZM135.097 50.2098C135.288 50.0534 135.381 49.8282 135.381 49.5341C135.381 49.2401 135.288 49.0211 135.097 48.8648C134.905 48.7084 134.633 48.6333 134.274 48.6333H133.31V50.4475H134.274C134.633 50.4475 134.911 50.3662 135.097 50.2098Z" fill="#026EC2"/>
<path d="M140.897 51.6611V52.1616H138.009V48.1328H140.816V48.6333H138.578V49.872H140.575V50.3599H138.578V51.6611H140.897Z" fill="#026EC2"/>
<path d="M143.655 51.9429C143.333 51.7615 143.086 51.5175 142.9 51.2047C142.721 50.8919 142.628 50.5416 142.628 50.1475C142.628 49.7533 142.721 49.403 142.9 49.0902C143.08 48.7774 143.333 48.5334 143.655 48.352C143.976 48.1706 144.335 48.083 144.737 48.083C145.046 48.083 145.33 48.1331 145.59 48.2394C145.85 48.3458 146.066 48.5022 146.252 48.7086L145.881 49.0714C145.584 48.7524 145.207 48.596 144.761 48.596C144.465 48.596 144.199 48.6648 143.958 48.7962C143.716 48.9276 143.531 49.1152 143.395 49.353C143.259 49.5907 143.191 49.8534 143.191 50.1475C143.191 50.4415 143.259 50.7042 143.395 50.942C143.531 51.1797 143.716 51.3611 143.958 51.4987C144.199 51.6301 144.465 51.6989 144.761 51.6989C145.207 51.6989 145.578 51.5363 145.881 51.2172L146.252 51.5801C146.072 51.7865 145.85 51.9429 145.59 52.0492C145.33 52.1556 145.046 52.2119 144.737 52.2119C144.341 52.2119 143.982 52.1243 143.661 51.9429H143.655Z" fill="#026EC2"/>
<path d="M148.199 48.1328H148.768V52.1616H148.199V48.1328Z" fill="#026EC2"/>
<path d="M151.39 52.0681C151.112 51.9743 150.896 51.8554 150.735 51.7053L150.945 51.2548C151.1 51.3925 151.291 51.5051 151.526 51.5927C151.761 51.6802 152.009 51.724 152.256 51.724C152.584 51.724 152.831 51.6677 152.992 51.5551C153.152 51.4425 153.239 51.2924 153.239 51.1047C153.239 50.9671 153.196 50.8545 153.103 50.7669C153.016 50.6793 152.905 50.6167 152.775 50.5667C152.645 50.5229 152.46 50.4666 152.219 50.4103C151.922 50.3352 151.681 50.2664 151.495 50.1913C151.31 50.1163 151.155 50.0037 151.025 49.8535C150.896 49.7034 150.827 49.4969 150.827 49.2404C150.827 49.0277 150.883 48.8338 150.994 48.6586C151.106 48.4835 151.279 48.3458 151.501 48.2458C151.73 48.1394 152.009 48.0894 152.349 48.0894C152.584 48.0894 152.812 48.1206 153.041 48.1832C153.27 48.2457 153.462 48.3333 153.629 48.4459L153.443 48.9089C153.276 48.8025 153.097 48.7212 152.911 48.6649C152.72 48.6086 152.534 48.5836 152.355 48.5836C152.033 48.5836 151.792 48.6461 151.631 48.765C151.471 48.8839 151.39 49.0403 151.39 49.2279C151.39 49.3656 151.433 49.4782 151.526 49.5657C151.619 49.6533 151.73 49.7221 151.866 49.7659C152.002 49.816 152.182 49.866 152.417 49.9161C152.713 49.9911 152.955 50.06 153.14 50.135C153.319 50.2101 153.48 50.3165 153.61 50.4666C153.74 50.6167 153.808 50.8169 153.808 51.0734C153.808 51.2861 153.752 51.4801 153.635 51.6552C153.523 51.8304 153.35 51.968 153.115 52.0681C152.887 52.1682 152.602 52.2182 152.262 52.2182C151.965 52.2182 151.675 52.1682 151.396 52.0744L151.39 52.0681Z" fill="#026EC2"/>
<path d="M158.297 51.1544H156.182L155.743 52.1616H155.156L156.955 48.1328H157.518L159.324 52.1616H158.73L158.291 51.1544H158.297ZM158.099 50.6915L157.24 48.7146L156.38 50.6915H158.099Z" fill="#026EC2"/>
<path d="M115.823 33.9322L115.878 33.9697C115.192 34.8581 114.376 35.6275 113.454 36.2531C111.828 37.3604 109.868 38.0173 107.685 38.0486V14.9268C109.157 15.0269 110.554 15.4085 111.822 16.0215C113.343 16.7535 114.679 17.817 115.736 19.1182L115.65 19.1745C117.239 21.1889 118.191 23.7413 118.191 26.4939C118.191 29.2465 117.313 31.9303 115.817 33.9322H115.823Z" fill="#026EC2"/>
<path d="M106.844 14.9076V38.0545H99.8941V14.9014L106.844 14.9076Z" fill="#026EC2"/>
<path d="M134.806 7.48825L134.775 7.41943L134.738 7.44446L134.701 7.41943V7.46323L116.509 18.9178C118.142 21.0073 119.119 23.641 119.119 26.4874C119.119 29.3339 118.216 32.1052 116.682 34.1759L134.707 45.5241V45.5679L134.744 45.5429L134.781 45.5679L134.812 45.4991L165.006 26.4874L134.812 7.47574L134.806 7.48825ZM134.67 39.8625H134.46H134.163C127.052 39.6999 121.27 33.7067 121.27 26.4999C121.27 19.2931 126.935 13.4251 133.947 13.1436L134.404 13.1311H134.676C141.806 13.2875 147.587 19.2556 147.587 26.4937C147.587 33.7318 141.806 39.7061 134.676 39.8563L134.67 39.8625Z" fill="#026EC2"/>
<path d="M146.802 26.5564C146.802 33.4504 141.262 39.0932 134.447 39.1245H134.398C127.59 39.087 122.056 33.4504 122.056 26.5564C122.056 19.6624 127.596 14.0196 134.404 13.9883H134.466C141.274 14.0258 146.808 19.6624 146.808 26.5564H146.802Z" fill="#026EC2"/>
<path d="M76.4154 26.4998C76.4154 33.0935 71.9633 38.4486 65.7366 38.5549V14.4697C71.7036 14.8826 76.4154 20.1126 76.4154 26.4998Z" fill="#026EC2"/>
<path d="M64.8647 14.4511V38.5613H57.191V14.4448" fill="#026EC2"/>
<path d="M54.9588 14.4448H47.0254V38.5613H54.9588V14.4448Z" fill="#026EC2"/>
<path fill-rule="evenodd" clip-rule="evenodd" d="M92.5296 27.5324H79.5938L80.2863 26.0247L86.0617 13.4629L91.837 26.0247L92.5296 27.5324Z" fill="#026EC2"/>
<path fill-rule="evenodd" clip-rule="evenodd" d="M97.6124 38.5928H74.5109L79.3835 28.377H92.7398L97.6124 38.5928Z" fill="#026EC2"/>
<path fill-rule="evenodd" clip-rule="evenodd" d="M92.5296 27.5324H79.5938L80.2863 26.0247L86.0617 13.4629L91.837 26.0247L92.5296 27.5324Z" fill="#026EC2"/>
<path fill-rule="evenodd" clip-rule="evenodd" d="M45.1642 26.5V28.896C45.1642 34.2073 40.8728 38.5551 35.6292 38.5551C30.3856 38.5551 26.0943 34.2073 26.0943 28.896V26.5H45.1642Z" fill="#026EC2"/>
<path d="M45.1642 14.4448H26.0943V25.6179H45.1642V14.4448Z" fill="#026EC2"/>
<path d="M4.61907 16.334C4.36555 16.5592 4.11203 16.7907 3.87087 17.0346C1.6139 19.3306 0.333921 22.2583 0.0556641 25.2612C0.327737 22.2521 1.60772 19.318 3.87087 17.0221C4.11203 16.7782 4.35937 16.5529 4.61907 16.334Z" fill="#026EC2"/>
<path d="M23.6271 34.7452C23.2994 35.1706 22.9531 35.5835 22.5697 35.9713C17.8888 40.7133 10.5985 41.145 5.44147 37.3289L15.805 26.8252L23.6271 34.7452Z" fill="#026EC2"/>
<path d="M23.3859 17.9481L15.2175 26.2247L4.77982 36.8034C4.46446 36.5469 4.16147 36.2779 3.87085 35.9839C1.59533 33.6755 0.327714 30.7477 0.0556408 27.7511C0.0494573 27.651 0.0370904 27.5572 0.0309069 27.4634C-0.0123775 26.8253 -0.0123775 26.1872 0.0309069 25.5553C0.0370904 25.4552 0.0432738 25.3614 0.0556408 25.2675C0.333897 22.2647 1.60769 19.3369 3.87085 17.041C4.112 16.797 4.35934 16.5593 4.61905 16.3404C4.69325 16.2778 4.76745 16.2152 4.84165 16.1527C4.91586 16.0839 4.99624 16.0213 5.07663 15.9588C10.2769 11.8299 17.8022 12.2115 22.5697 17.0473C22.8603 17.3413 23.1262 17.6478 23.3797 17.9606L23.3859 17.9481Z" fill="#026EC2"/>
</g>
<defs>
<clipPath id="clip0_36_2055">
<rect width="165" height="53" fill="white"/>
</clipPath>
</defs>
</svg>
