<svg width="158" height="29" viewBox="0 0 158 29" fill="none" xmlns="http://www.w3.org/2000/svg">
<g clip-path="url(#clip0_36_2113)">
<path d="M39.7425 11.4278H31.022C30.8139 11.4278 30.6922 11.5506 30.6922 11.7606V28.366C30.6922 28.5759 30.8139 28.6987 31.022 28.6987H32.2431C32.4512 28.6987 32.5729 28.5759 32.5729 28.366L32.5808 20.804H37.3945C37.6026 20.804 37.7243 20.6812 37.7243 20.4713V19.4533C37.7243 19.2433 37.6026 19.1205 37.3945 19.1205L32.5729 19.1126L32.5808 13.1034H39.7425C39.9506 13.1034 40.0723 12.9806 40.0723 12.7707V11.7527C40.0723 11.5427 39.9506 11.4199 39.7425 11.4199V11.4278Z" fill="#026EC2"/>
<path d="M41.1677 11.4277H42.3888C42.5694 11.4277 42.7186 11.5783 42.7186 11.7605V28.3698C42.7186 28.552 42.5694 28.7026 42.3888 28.7026H41.1677C40.9871 28.7026 40.8379 28.552 40.8379 28.3698V11.7605C40.8379 11.5783 40.9871 11.4277 41.1677 11.4277Z" fill="#026EC2"/>
<path d="M52.4795 12.0141C51.7257 11.5982 50.5478 11.3843 49.5622 11.3843C48.5767 11.3843 47.548 11.5942 46.7942 12.0141C46.0403 12.434 45.4474 13.0321 45.0352 13.7927C44.6229 14.5532 44.4148 15.4326 44.4148 16.415V23.7432C44.4148 24.7217 44.6229 25.6011 45.0352 26.3537C45.4474 27.1063 46.0403 27.7005 46.7942 28.1204C47.548 28.5363 48.5767 28.7502 49.5622 28.7502C50.5478 28.7502 51.7257 28.5403 52.4795 28.1204C53.2334 27.7045 53.8302 27.1103 54.2503 26.3537C54.6704 25.6011 54.8864 24.7217 54.8864 23.7432V16.415C54.8864 15.4366 54.6743 14.5532 54.2503 13.7927C53.8302 13.0321 53.2334 12.434 52.4795 12.0141ZM53.0056 16.3635V23.8106C53.0056 24.7811 52.7151 25.5733 52.1458 26.1675C51.5765 26.7577 50.5085 27.0588 49.5622 27.0588C48.616 27.0588 47.7247 26.7577 47.1554 26.1675C46.5822 25.5733 46.2955 24.7811 46.2955 23.8106V16.3635C46.2955 15.3772 46.5861 14.5691 47.1554 13.9709C47.7247 13.3728 48.6356 13.0678 49.5622 13.0678C50.4889 13.0678 51.5725 13.3728 52.1458 13.9709C52.719 14.5731 53.0056 15.3772 53.0056 16.3635Z" fill="#026EC2"/>
<path d="M61.5062 11.3843C60.0377 11.3843 58.6871 11.8279 57.784 12.7034C56.8849 13.5788 56.4255 14.7632 56.4255 16.217V23.8819C56.4255 25.3357 56.8809 26.524 57.7801 27.4074C58.6792 28.2907 60.3283 28.7383 61.8007 28.7383C63.273 28.7383 64.4981 28.2947 65.3972 27.4192C66.2963 26.5438 66.7557 25.3673 66.7557 23.9294V23.7591C66.7557 23.5491 66.6379 23.4263 66.4337 23.4263L65.2087 23.355C65.0006 23.355 64.8789 23.466 64.8789 23.664V24.0047C64.8789 24.9118 64.5923 25.6565 64.0308 26.215C63.4694 26.7775 62.7194 27.0588 61.8046 27.0588C60.8897 27.0588 59.7001 26.7775 59.1425 26.2269C58.5889 25.6763 58.3062 24.9276 58.3062 24.0047V16.1219C58.3062 15.1989 58.5889 14.4503 59.1425 13.8996C59.6961 13.3451 60.5913 13.0678 61.5062 13.0678C62.421 13.0678 63.4654 13.353 64.0308 13.9115C64.5923 14.474 64.8789 15.2148 64.8789 16.1219V16.4625C64.8789 16.6566 64.9967 16.7715 65.2126 16.7715L66.4298 16.724C66.6379 16.724 66.7596 16.6012 66.7596 16.3912V16.1734C66.7596 14.7355 66.3042 13.5629 65.4011 12.6954C64.502 11.8279 62.9943 11.3882 61.5062 11.3882V11.3843Z" fill="#026EC2"/>
<path d="M75.7863 20.7841C76.709 20.5187 77.4471 19.9879 77.9811 19.1996C78.5151 18.4113 78.786 17.3022 78.786 16.1891C78.786 15.2582 78.6015 14.4224 78.2363 13.7054C77.8712 12.9845 77.3529 12.418 76.6933 12.0219C76.0376 11.6298 75.2759 11.4277 74.4317 11.4277H68.7581C68.55 11.4277 68.4283 11.5505 68.4283 11.7605V28.3659C68.4283 28.5758 68.55 28.6986 68.7581 28.6986H69.9792C70.1873 28.6986 70.309 28.5758 70.309 28.3659L70.3169 20.9544H74.0037L74.0155 20.9703L76.9838 28.449C77.0466 28.6154 77.1644 28.6986 77.3293 28.6986H78.5975C78.7899 28.6986 78.9038 28.5956 78.9038 28.4134L78.8724 28.2827L75.7824 20.7801L75.7863 20.7841ZM76.9092 16.1891C76.9092 17.0962 76.6579 17.9954 76.1632 18.5539C75.6724 19.1125 75.0167 19.3937 74.2197 19.3937L70.309 19.3858V13.1112L70.3169 13.1033H74.2197C75.0206 13.1033 75.6724 13.3846 76.1632 13.9431C76.6579 14.5056 76.9092 15.2582 76.9092 16.1812V16.1891Z" fill="#026EC2"/>
<path d="M90.4316 11.4277H89.2105C89.0024 11.4277 88.8806 11.5505 88.8806 11.7605V23.7154C88.8806 24.7176 88.5901 25.5376 88.0208 26.1476C87.4515 26.7536 86.4659 27.0626 85.5393 27.0626C84.6127 27.0626 83.6272 26.7536 83.0579 26.1476C82.4846 25.5376 82.198 24.7215 82.198 23.7154V11.7605C82.198 11.5505 82.0763 11.4277 81.8682 11.4277H80.6471C80.439 11.4277 80.3173 11.5505 80.3173 11.7605V23.6203C80.3173 24.6304 80.5254 25.5336 80.9377 26.3021C81.3499 27.0705 81.9428 27.6766 82.6967 28.1044C83.4505 28.5283 84.5538 28.7461 85.5393 28.7461C86.5248 28.7461 87.6281 28.5322 88.382 28.1044C89.1359 27.6766 89.7287 27.0705 90.141 26.3021C90.5533 25.5336 90.7614 24.6304 90.7614 23.6203V11.7605C90.7614 11.5505 90.6397 11.4277 90.4316 11.4277Z" fill="#026EC2"/>
<path d="M100.989 12.8973V11.7605C100.989 11.5505 100.868 11.4277 100.66 11.4277H91.8686C91.6605 11.4277 91.5388 11.5505 91.5388 11.7605V12.7785C91.5388 12.9884 91.6605 13.1112 91.8686 13.1112H98.8968L91.6173 26.7299C91.5663 26.8527 91.5388 27.122 91.5388 27.229V28.3659C91.5388 28.5758 91.6605 28.6986 91.8686 28.6986H100.66C100.868 28.6986 100.989 28.5758 100.989 28.3659V27.3478C100.989 27.1379 100.868 27.0151 100.66 27.0151H93.6315L100.911 13.242C100.962 13.1033 100.989 12.9885 100.989 12.8973Z" fill="#026EC2"/>
<path d="M26.4088 26.4607C26.4088 26.4607 26.3931 26.4251 26.3774 26.3973L26.3656 26.3775C26.3499 26.3538 26.3303 26.3339 26.3106 26.3102L25.7963 25.7992V13.9076L26.2203 13.4838V12.0459C26.2243 11.8953 26.2125 11.7725 26.1379 11.6656C26.0476 11.5428 25.9062 11.4715 25.757 11.4715H25.0306V6.86065C25.0306 6.7022 24.9482 6.55167 24.8147 6.46056L24.7597 6.42491L24.7951 6.36946C25.0817 5.89411 25.2348 5.35143 25.2348 4.80082C25.2348 3.51343 24.3828 2.33299 23.1656 1.9329L23.1264 1.92102L22.9026 0.550443C22.8398 0.182051 22.5374 0.0117188 22.2626 0.0117188C22.0034 0.0196412 21.705 0.186012 21.6383 0.542521L21.3909 1.91706L21.3517 1.92894C20.1227 2.32506 19.2668 3.5055 19.2668 4.80478C19.2668 5.35143 19.416 5.89015 19.7026 6.3655L19.734 6.42095L19.679 6.4566C19.5495 6.54375 19.4749 6.69428 19.4749 6.85272V10.5089H18.5051V8.16388L18.8349 7.84303V6.6507C18.8349 6.38926 18.6229 6.17536 18.3598 6.17536H16.9895C16.8874 6.17536 16.7736 6.18724 16.7029 6.27439L16.428 6.59525H16.004L16.1178 6.23478C16.1493 6.08821 16.1139 5.93372 16.0158 5.81885C15.9215 5.69605 15.7802 5.62871 15.6271 5.62871H10.8408C10.6916 5.62871 10.5385 5.70001 10.4521 5.81885C10.354 5.94165 10.3186 6.1001 10.3579 6.26251L10.4129 6.59921H9.97312L9.73361 6.27835C9.66294 6.19516 9.54908 6.17536 9.44306 6.17536H8.07277C7.80971 6.17536 7.59768 6.38926 7.59768 6.65466V7.85095L7.93142 8.17181V10.5168H6.95376V6.87649C6.95376 6.71408 6.87524 6.56356 6.74174 6.47641L6.68677 6.44076L6.72211 6.3853C7.00873 5.90996 7.16186 5.36727 7.16186 4.81666C7.16186 3.52927 6.30984 2.34883 5.09268 1.94479L5.05341 1.9329L4.82569 0.562327C4.76286 0.189973 4.45268 0.0236024 4.18962 0.0236024C3.86373 0.0315248 3.61637 0.237508 3.5614 0.554404L3.31012 1.9329L3.27085 1.94479C2.04191 2.34091 1.18596 3.52135 1.18596 4.82063C1.18596 5.36727 1.33517 5.90996 1.62179 6.38134L1.6532 6.4368L1.59823 6.47245C1.46866 6.56356 1.39406 6.70616 1.39406 6.86857V11.5032H0.679466C0.526339 11.5032 0.388917 11.5745 0.294685 11.6973C0.216158 11.8042 0.204379 11.927 0.208305 12.0617V13.5076L0.616645 13.8958V25.823L0.137631 26.3498C0.0512513 26.4369 0.00413513 26.5558 0.00413513 26.6825V28.3106C0.00413513 28.576 0.216158 28.7939 0.479223 28.7939H6.58076L7.59376 27.7481H18.8231L19.84 28.7939H25.969C26.2282 28.7939 26.4441 28.576 26.4441 28.3106V26.8331C26.4441 26.7657 26.4324 26.5518 26.4088 26.4924M25.1995 27.3837H20.4015L19.3689 26.3379H6.98125L5.94862 27.3837H1.3548V26.9757L1.97516 26.3379V13.6581L1.57075 13.2818V12.644H2.74865V7.51028L3.14128 7.10624V6.1001C3.09024 6.05652 3.04313 6.01295 2.99601 5.96145C2.89 5.85846 2.79969 5.73963 2.73687 5.60494C2.61515 5.37519 2.54448 5.10979 2.54448 4.82855C2.54448 3.92143 3.27085 3.18861 4.16999 3.18861C5.06912 3.18861 5.79549 3.92539 5.79549 4.82855C5.79549 5.19298 5.6777 5.52968 5.47746 5.79904C5.46175 5.82281 5.44605 5.84262 5.43034 5.86242C5.42642 5.87035 5.42249 5.87431 5.41464 5.87827C5.39108 5.90996 5.36359 5.94165 5.33218 5.96938C5.28899 6.01295 5.2458 6.05256 5.19869 6.09217V7.10228L5.58347 7.4984V11.8557H8.54786L9.27816 11.0952V7.83114H11.8853V6.98741H14.5238V7.83907L17.1308 7.82718V11.0239L17.9318 11.8518H20.8216V7.48652L21.2103 7.0904V6.09217C21.1514 6.04068 21.0925 5.98918 21.0415 5.92976C20.9473 5.84262 20.8727 5.73566 20.8177 5.62079C20.6842 5.38312 20.6096 5.10979 20.6096 4.81666C20.6096 3.90955 21.336 3.17672 22.2351 3.17672C23.1342 3.17672 23.8606 3.91351 23.8606 4.81666C23.8606 5.17713 23.7428 5.50988 23.5504 5.77924C23.5347 5.80697 23.5151 5.83073 23.4954 5.8545C23.4954 5.85846 23.4876 5.86242 23.4837 5.86638C23.4601 5.89411 23.4326 5.9258 23.4051 5.95353C23.362 5.9971 23.3188 6.04068 23.2716 6.08029V7.0904L23.6604 7.46275V12.6242H24.8618V13.3412L24.4299 13.7769V26.3736L25.1995 27.1539V27.3757V27.3837Z" fill="#026EC2"/>
<path d="M106.518 28.9999C106.357 28.9999 106.231 28.8692 106.231 28.7068V11.4201C106.231 11.2577 106.361 11.127 106.518 11.127C106.675 11.127 106.804 11.2577 106.804 11.4201V28.7068C106.804 28.8692 106.675 28.9999 106.518 28.9999Z" fill="#026EC2"/>
<path d="M118.12 27.7957C117.504 28.3542 116.687 28.6315 115.674 28.6315H112.235C112.125 28.6315 112.07 28.576 112.07 28.4651V17.1044C112.07 16.9934 112.125 16.938 112.235 16.938H115.493C116.561 16.938 117.402 17.2034 118.006 17.7302C118.611 18.261 118.917 19.0295 118.917 20.0436C118.917 21.2359 118.43 22.0638 117.461 22.5312C117.406 22.5629 117.406 22.5906 117.461 22.6144C117.967 22.8798 118.356 23.2482 118.627 23.7156C118.898 24.183 119.031 24.7535 119.031 25.4189C119.043 26.4449 118.741 27.2332 118.12 27.7917V27.7957ZM113.656 18.3918V21.9172C113.656 21.9608 113.679 21.9846 113.723 21.9846H115.509C116.082 21.9846 116.53 21.8261 116.856 21.5092C117.182 21.1923 117.343 20.7566 117.343 20.1981C117.343 19.6078 117.182 19.1483 116.856 18.8196C116.53 18.4908 116.082 18.3284 115.509 18.3284H113.723C113.679 18.3284 113.656 18.3521 113.656 18.3957V18.3918ZM116.954 26.7024C117.28 26.3498 117.441 25.8705 117.441 25.2565C117.441 24.6425 117.276 24.1553 116.946 23.7948C116.616 23.4344 116.165 23.2522 115.592 23.2522H113.723C113.679 23.2522 113.656 23.2759 113.656 23.3195V27.1619C113.656 27.2054 113.679 27.2292 113.723 27.2292H115.607C116.181 27.2292 116.628 27.0549 116.954 26.7024Z" fill="#026EC2"/>
<path d="M125.144 20.2459C125.223 20.2775 125.25 20.3449 125.227 20.4479L124.979 21.7194C124.968 21.8303 124.901 21.866 124.779 21.8185C124.614 21.763 124.434 21.7353 124.233 21.7353C124.088 21.7353 123.986 21.7392 123.919 21.7511C123.487 21.7828 123.13 21.9809 122.844 22.3453C122.557 22.7058 122.412 23.1375 122.412 23.6406V28.4693C122.412 28.5802 122.357 28.6357 122.247 28.6357H120.99C120.88 28.6357 120.825 28.5802 120.825 28.4693V20.3013C120.825 20.1904 120.88 20.1349 120.99 20.1349H122.247C122.357 20.1349 122.412 20.1904 122.412 20.3013V21.3708C122.412 21.4025 122.419 21.4223 122.435 21.4303C122.451 21.4382 122.467 21.4303 122.474 21.4065C122.871 20.5033 123.476 20.0518 124.292 20.0518C124.622 20.0518 124.905 20.1191 125.137 20.2538L125.144 20.2459Z" fill="#026EC2"/>
<path d="M131.497 20.7724C132.047 21.2914 132.326 21.9687 132.326 22.8006V28.4651C132.326 28.576 132.271 28.6315 132.161 28.6315H130.904C130.794 28.6315 130.739 28.576 130.739 28.4651V27.9818C130.739 27.962 130.732 27.9462 130.716 27.9422C130.7 27.9383 130.681 27.9422 130.657 27.966C130.162 28.5007 129.471 28.7662 128.592 28.7662C127.873 28.7662 127.265 28.5681 126.758 28.172C126.252 27.7759 125.996 27.1381 125.996 26.2587C125.996 25.3793 126.291 24.6544 126.88 24.1791C127.469 23.7077 128.27 23.47 129.287 23.47H130.677C130.72 23.47 130.743 23.4463 130.743 23.4027V22.9353C130.743 22.4559 130.618 22.0796 130.37 21.7984C130.123 21.5211 129.766 21.3825 129.302 21.3825C128.937 21.3825 128.639 21.4736 128.399 21.6597C128.164 21.8459 128.015 22.0915 127.96 22.4045C127.948 22.5035 127.889 22.555 127.779 22.555L126.424 22.4718C126.381 22.4718 126.342 22.4599 126.311 22.4282C126.279 22.4005 126.267 22.3648 126.279 22.3213C126.346 21.632 126.656 21.0695 127.214 20.6417C127.771 20.2139 128.466 20 129.306 20C130.221 20 130.955 20.2575 131.505 20.7764L131.497 20.7724ZM130.198 26.9796C130.555 26.7024 130.735 26.33 130.735 25.8586V24.7891C130.735 24.7455 130.712 24.7218 130.669 24.7218H129.397C128.855 24.7218 128.423 24.8446 128.097 25.0902C127.771 25.3357 127.61 25.6923 127.61 26.1597C127.61 26.5716 127.732 26.8806 127.975 27.0866C128.219 27.2926 128.537 27.3956 128.933 27.3956C129.42 27.3956 129.84 27.2569 130.198 26.9796Z" fill="#026EC2"/>
<path d="M134.697 28.0966C134.151 27.6728 133.877 27.1262 133.877 26.4607V26.2943C133.877 26.1834 133.932 26.1279 134.041 26.1279H135.215C135.325 26.1279 135.38 26.1834 135.38 26.2943V26.3933C135.38 26.6944 135.522 26.9558 135.812 27.1776C136.099 27.3995 136.452 27.5104 136.872 27.5104C137.292 27.5104 137.63 27.4034 137.889 27.1935C138.148 26.9835 138.278 26.7181 138.278 26.4092C138.278 26.1636 138.203 25.9655 138.054 25.8071C137.905 25.6486 137.724 25.5258 137.508 25.4308C137.292 25.3357 136.978 25.2168 136.558 25.0703C136.04 24.9039 135.6 24.7296 135.243 24.5434C134.886 24.3612 134.579 24.0958 134.324 23.7591C134.069 23.4185 133.943 22.9867 133.943 22.4638C133.943 21.7191 134.206 21.1289 134.729 20.6932C135.251 20.2574 135.95 20.0396 136.821 20.0396C137.693 20.0396 138.411 20.2614 138.945 20.709C139.479 21.1566 139.746 21.7389 139.746 22.4638V22.4955C139.746 22.6064 139.691 22.6619 139.582 22.6619H138.423C138.313 22.6619 138.258 22.6064 138.258 22.4955V22.4282C138.258 22.1073 138.125 21.8379 137.862 21.624C137.599 21.4141 137.249 21.3071 136.821 21.3071C136.393 21.3071 136.087 21.4062 135.836 21.6082C135.588 21.8102 135.463 22.0637 135.463 22.3767C135.463 22.6104 135.533 22.8045 135.679 22.951C135.82 23.1016 136.001 23.2283 136.217 23.3274C136.433 23.4264 136.747 23.5492 137.167 23.6957C137.717 23.8859 138.172 24.0681 138.529 24.2464C138.887 24.4246 139.201 24.6821 139.464 25.0148C139.727 25.3476 139.86 25.7793 139.86 26.3022C139.86 27.0469 139.589 27.6371 139.051 28.0729C138.514 28.5086 137.783 28.7265 136.868 28.7265C135.954 28.7265 135.239 28.5165 134.693 28.0927L134.697 28.0966Z" fill="#026EC2"/>
<path d="M141.235 19.0018C141.211 18.9622 141.219 18.9146 141.25 18.8592L142.224 17.0529C142.255 16.9736 142.322 16.938 142.424 16.938H143.484C143.551 16.938 143.594 16.9578 143.618 16.9974C143.641 17.037 143.634 17.0846 143.602 17.14L142.412 18.9622C142.357 19.0295 142.291 19.0612 142.212 19.0612H141.368C141.301 19.0612 141.258 19.0414 141.235 19.0018ZM141.25 28.4651V20.2971C141.25 20.1862 141.305 20.1307 141.415 20.1307H142.672C142.782 20.1307 142.836 20.1862 142.836 20.2971V28.4651C142.836 28.576 142.782 28.6315 142.672 28.6315H141.415C141.305 28.6315 141.25 28.576 141.25 28.4651Z" fill="#026EC2"/>
<path d="M144.674 28.4651V17.1044C144.674 16.9934 144.729 16.938 144.839 16.938H146.095C146.205 16.938 146.26 16.9934 146.26 17.1044V28.4651C146.26 28.576 146.205 28.6315 146.095 28.6315H144.839C144.729 28.6315 144.674 28.576 144.674 28.4651Z" fill="#026EC2"/>
<path d="M148.396 18.4908C148.196 18.2888 148.098 18.0353 148.098 17.7224C148.098 17.4094 148.196 17.1401 148.396 16.946C148.596 16.7519 148.848 16.6528 149.158 16.6528C149.468 16.6528 149.719 16.7519 149.92 16.9539C150.12 17.1559 150.218 17.4094 150.218 17.7224C150.218 18.0353 150.116 18.2888 149.912 18.4908C149.708 18.6929 149.456 18.7919 149.158 18.7919C148.859 18.7919 148.596 18.6929 148.396 18.4908ZM148.345 28.4652V20.2971C148.345 20.1862 148.4 20.1308 148.51 20.1308H149.766C149.876 20.1308 149.931 20.1862 149.931 20.2971V28.4652C149.931 28.5761 149.876 28.6315 149.766 28.6315H148.51C148.4 28.6315 148.345 28.5761 148.345 28.4652Z" fill="#026EC2"/>
<path d="M157.175 20.7724C157.725 21.2914 158.004 21.9687 158.004 22.8006V28.4651C158.004 28.576 157.949 28.6315 157.839 28.6315H156.583C156.473 28.6315 156.418 28.576 156.418 28.4651V27.9818C156.418 27.962 156.41 27.9462 156.394 27.9422C156.378 27.9383 156.359 27.9422 156.335 27.966C155.841 28.5007 155.15 28.7662 154.27 28.7662C153.555 28.7662 152.943 28.5681 152.436 28.172C151.93 27.7759 151.675 27.1381 151.675 26.2587C151.675 25.3793 151.969 24.6544 152.558 24.1791C153.147 23.7077 153.952 23.47 154.965 23.47H156.355C156.398 23.47 156.422 23.4463 156.422 23.4027V22.9353C156.422 22.4559 156.296 22.0796 156.049 21.7984C155.801 21.5171 155.444 21.3825 154.981 21.3825C154.616 21.3825 154.317 21.4736 154.082 21.6597C153.846 21.8459 153.697 22.0915 153.642 22.4045C153.63 22.5035 153.571 22.555 153.461 22.555L152.107 22.4718C152.063 22.4718 152.024 22.4599 151.993 22.4282C151.961 22.4005 151.95 22.3648 151.961 22.3213C152.028 21.632 152.338 21.0695 152.896 20.6417C153.453 20.2139 154.148 20 154.989 20C155.903 20 156.638 20.2575 157.187 20.7764L157.175 20.7724ZM155.876 26.9796C156.233 26.7024 156.414 26.33 156.414 25.8586V24.7891C156.414 24.7455 156.39 24.7218 156.347 24.7218H155.075C154.533 24.7218 154.101 24.8446 153.775 25.0902C153.449 25.3357 153.288 25.6923 153.288 26.1597C153.288 26.5716 153.41 26.8806 153.654 27.0866C153.897 27.2926 154.215 27.3956 154.612 27.3956C155.095 27.3956 155.519 27.2569 155.876 26.9796Z" fill="#026EC2"/>
</g>
<defs>
<clipPath id="clip0_36_2113">
<rect width="158" height="29" fill="white"/>
</clipPath>
</defs>
</svg>
