<svg width="188" height="48" viewBox="0 0 188 48" fill="none" xmlns="http://www.w3.org/2000/svg">
<path d="M4.29904 19.4864C4.29904 18.5523 4.31029 17.5994 4.32905 17.0705H4.30279C4.08895 17.8883 3.27489 20.0491 2.69717 21.636H2.10069C1.66552 20.3455 0.821445 17.9221 0.596358 17.063H0.573849C0.611364 17.6445 0.630121 18.7624 0.630121 19.629V21.6398H-0.00012207V16.6016H0.994011C1.56423 18.1659 2.262 20.1804 2.43457 20.8219H2.44582C2.56587 20.338 3.39119 18.1209 3.98016 16.6016H4.94804V21.6398H4.29528V19.4939L4.29904 19.4864Z" fill="#026EC2"/>
<path d="M8.43308 16.5938V21.6319H7.76532V16.5938H8.43308Z" fill="#026EC2"/>
<path d="M11.2429 21.6319V16.5938H12.1245C12.8448 17.7717 14.4167 20.2777 14.698 20.8254H14.7093C14.6605 20.1801 14.6643 19.3848 14.6643 18.5595V16.5938H15.2945V21.6319H14.4654C13.8014 20.5365 12.1658 17.843 11.8469 17.2765H11.8357C11.8732 17.8505 11.8732 18.7058 11.8732 19.6137V21.6319H11.2392H11.2429Z" fill="#026EC2"/>
<path d="M18.7796 16.5938V21.6319H18.1119V16.5938H18.7796Z" fill="#026EC2"/>
<path d="M21.8484 20.2328C21.9834 20.8368 22.3961 21.1632 23.1276 21.1632C23.9117 21.1632 24.223 20.7955 24.223 20.3191C24.223 19.8126 23.9754 19.5313 22.9663 19.2874C21.7808 18.9986 21.3682 18.5934 21.3682 17.8844C21.3682 17.1341 21.9196 16.5264 23.0413 16.5264C24.238 16.5264 24.7332 17.2204 24.8007 17.8806H24.1217C24.0317 17.4342 23.7503 17.0666 23.0188 17.0666C22.4073 17.0666 22.0622 17.3442 22.0622 17.8244C22.0622 18.3046 22.3473 18.4846 23.2289 18.6985C24.6619 19.0473 24.917 19.6063 24.917 20.2553C24.917 21.0694 24.3168 21.7034 23.0863 21.7034C21.8559 21.7034 21.2781 21.0093 21.1731 20.2365H21.8521L21.8484 20.2328Z" fill="#026EC2"/>
<path d="M28.3646 17.1677H26.7402V16.5938H30.6642V17.1677H29.0361V21.6319H28.3646V17.1677Z" fill="#026EC2"/>
<path d="M35.9837 19.2802H33.4815V21.0621H36.2276L36.1413 21.6361H32.825V16.5979H36.1V17.1719H33.4778V18.71H35.98V19.284L35.9837 19.2802ZM35.95 15.0898L34.7082 16.0877H34.0517L35.1171 15.0898H35.95Z" fill="#026EC2"/>
<path d="M39.2439 19.415V21.6358H38.5836V16.5977H40.5494C41.581 16.5977 42.1325 17.1604 42.1325 17.9444C42.1325 18.6009 41.7573 18.9948 41.2734 19.1299C41.6823 19.2387 42.0425 19.5463 42.0425 20.4204V20.638C42.0425 20.9868 42.0274 21.4258 42.11 21.6358H41.461C41.3709 21.4183 41.3747 21.0244 41.3747 20.5517V20.4429C41.3747 19.7264 41.1721 19.415 40.2718 19.415H39.2439ZM39.2439 18.8523H40.3393C41.1083 18.8523 41.446 18.5634 41.446 17.9969C41.446 17.4605 41.0971 17.1566 40.4143 17.1566H39.2439V18.8523Z" fill="#026EC2"/>
<path d="M45.3774 16.5938V21.6319H44.7096V16.5938H45.3774Z" fill="#026EC2"/>
<path d="M52.5314 19.085C52.5314 20.4693 51.7548 21.7035 50.1717 21.7035C48.6899 21.7035 47.8646 20.5556 47.8646 19.1113C47.8646 17.667 48.7086 16.519 50.228 16.519C51.646 16.519 52.5314 17.5845 52.5314 19.0813V19.085ZM48.5623 19.0925C48.5623 20.1805 49.1176 21.1371 50.2017 21.1371C51.3684 21.1371 51.8336 20.173 51.8336 19.0963C51.8336 18.0196 51.3084 17.093 50.2017 17.093C49.095 17.093 48.5623 18.0196 48.5623 19.0925Z" fill="#026EC2"/>
<path d="M58.2974 16.5938H60.0943C61.5086 16.5938 62.4652 17.5579 62.4652 19.0622C62.4652 20.5665 61.5349 21.6319 60.0718 21.6319H58.2974V16.5938ZM58.9614 21.0655H60.0155C61.201 21.0655 61.7637 20.2176 61.7637 19.0772C61.7637 18.0831 61.2498 17.164 60.0193 17.164H58.9614V21.0692V21.0655Z" fill="#026EC2"/>
<path d="M65.579 20.124L65.0388 21.6358H64.3748L66.168 16.5977H66.9896L68.8578 21.6358H68.1488L67.5898 20.124H65.5828H65.579ZM67.4135 19.55C66.9333 18.2258 66.6707 17.5243 66.5619 17.1379H66.5544C66.4306 17.5655 66.138 18.4171 65.7516 19.55H67.4135Z" fill="#026EC2"/>
<path d="M40.1779 30.3542C40.2979 30.8907 40.6768 31.1458 41.3071 31.1458C41.9373 31.1458 42.2224 30.8682 42.2224 30.4668C42.2224 30.0279 41.9786 29.814 41.0745 29.6002C39.7765 29.2926 39.4163 28.8274 39.4163 28.1409C39.4163 27.3118 40.0316 26.7153 41.1945 26.7153C42.4738 26.7153 42.9915 27.4206 43.0627 28.1296H42.1174C42.0536 27.7732 41.8435 27.4281 41.172 27.4281C40.6731 27.4281 40.3842 27.6419 40.3842 28.0396C40.3842 28.4372 40.6206 28.5873 41.4534 28.7824C42.8977 29.1275 43.194 29.6752 43.194 30.358C43.194 31.2358 42.5338 31.8661 41.247 31.8661C39.9603 31.8661 39.3563 31.2171 39.2438 30.3542H40.1891H40.1779Z" fill="#026EC2"/>
<path d="M46.4466 30.5227L46.0077 31.7982H45.0848L46.8105 26.79H47.981L49.7816 31.7982H48.7913L48.3298 30.5227H46.4466ZM48.1198 29.7462C47.7221 28.602 47.4858 27.9155 47.3695 27.4916H47.362C47.2382 27.9605 46.9756 28.7671 46.6567 29.7462H48.1198Z" fill="#026EC2"/>
<path d="M52.6627 26.7903V29.784C52.6627 30.8194 53.2105 31.1195 53.7844 31.1195C54.4484 31.1195 54.8836 30.7781 54.8836 29.784V26.7903H55.8252V29.739C55.8252 31.4196 54.8611 31.866 53.7694 31.866C52.6778 31.866 51.7211 31.3933 51.7211 29.7652V26.7903H52.6627ZM55.39 25.3535L54.1258 26.3552H53.263L54.2796 25.3535H55.39Z" fill="#026EC2"/>
<path d="M58.4662 26.79H60.3832C61.8238 26.79 62.7729 27.7504 62.7729 29.236C62.7729 30.7216 61.8501 31.7982 60.3457 31.7982H58.4662V26.79ZM59.4041 31.0292H60.2969C61.3286 31.0292 61.8013 30.2714 61.8013 29.2397C61.8013 28.3619 61.3661 27.5553 60.3007 27.5553H59.4041V31.0254V31.0292Z" fill="#026EC2"/>
<path d="M68.5351 29.5775H66.1117V31.0218H68.7827L68.6702 31.8021H65.2001V26.7939H68.6477V27.5742H66.1154V28.8047H68.5389V29.5813L68.5351 29.5775Z" fill="#026EC2"/>
<path d="M95.1589 44.6772C95.1589 44.8197 95.1477 44.9548 95.1289 45.0823C95.1102 45.2099 95.0727 45.3337 95.0239 45.4537C94.9714 45.5738 94.9076 45.6751 94.8326 45.7614C94.7538 45.8476 94.6562 45.9152 94.5362 45.9677C94.4161 46.0202 94.2736 46.0465 94.1198 46.0465C93.966 46.0465 93.8272 46.0202 93.7071 45.9714C93.5871 45.9189 93.4858 45.8514 93.4108 45.7689C93.332 45.6863 93.2682 45.5813 93.2157 45.465C93.1632 45.3449 93.1294 45.2211 93.1069 45.0936C93.0844 44.9661 93.0769 44.8272 93.0769 44.6809V42.7414H92.4729V44.6809C92.4729 44.8873 92.4917 45.0786 92.5254 45.2624C92.5629 45.4425 92.6192 45.6188 92.7017 45.7839C92.7843 45.9489 92.8856 46.0915 93.0131 46.2078C93.1369 46.3241 93.2945 46.4179 93.482 46.4891C93.6696 46.5604 93.8834 46.5942 94.1198 46.5942C94.4049 46.5942 94.6562 46.5454 94.8738 46.4441C95.0914 46.3428 95.264 46.204 95.3915 46.0277C95.5191 45.8514 95.6166 45.6488 95.6804 45.4237C95.7442 45.1986 95.7742 44.951 95.7742 44.6847V42.7452H95.1664V44.6847L95.1589 44.6772ZM100.306 45.5025L98.1413 42.7377H97.6461V46.5642H98.2464V43.8594L100.381 46.5642H100.91V42.7452H100.302V45.5063L100.306 45.5025ZM102.849 46.5642H103.45V42.7377H102.849V46.5642ZM106.492 42.7377L104.995 46.5642H105.637L106.034 45.525H107.509L107.91 46.5642H108.544L107.059 42.7377H106.488H106.492ZM106.143 45.0786L106.777 43.4017L107.392 45.0786H106.143ZM106.166 42.2312C106.169 42.2087 106.181 42.1825 106.196 42.1487C106.211 42.115 106.237 42.0849 106.278 42.0624C106.316 42.0399 106.365 42.0287 106.421 42.0287C106.485 42.0287 106.552 42.0474 106.623 42.0849C106.695 42.1225 106.773 42.1637 106.856 42.2012C106.938 42.2387 107.029 42.2575 107.122 42.2575C107.216 42.2575 107.295 42.2387 107.37 42.2012C107.445 42.1637 107.505 42.1187 107.546 42.0662C107.591 42.0137 107.629 41.9574 107.659 41.8936C107.689 41.8336 107.711 41.7811 107.723 41.7361C107.734 41.691 107.741 41.6573 107.741 41.6348H107.404C107.404 41.6348 107.404 41.6573 107.4 41.6723C107.396 41.6873 107.389 41.7098 107.377 41.7361C107.366 41.7623 107.347 41.7886 107.329 41.8111C107.31 41.8336 107.28 41.8524 107.242 41.8711C107.205 41.8899 107.16 41.8974 107.111 41.8974C107.04 41.8974 106.968 41.8786 106.893 41.8373C106.818 41.7961 106.743 41.7586 106.661 41.7173C106.582 41.676 106.496 41.6573 106.406 41.6573C106.323 41.6573 106.244 41.676 106.177 41.7098C106.109 41.7473 106.053 41.7886 106.012 41.8411C105.971 41.8936 105.937 41.9499 105.907 42.0099C105.877 42.0699 105.858 42.1225 105.847 42.1675C105.836 42.2125 105.832 42.25 105.832 42.2763H106.166C106.166 42.2763 106.166 42.2463 106.173 42.2237L106.166 42.2312ZM112.87 43.3229C112.716 43.1391 112.521 42.9928 112.292 42.8802C112.059 42.7677 111.812 42.7114 111.549 42.7114C111.286 42.7114 111.046 42.764 110.817 42.8727C110.589 42.9815 110.394 43.1203 110.232 43.3004C110.071 43.4767 109.943 43.6831 109.85 43.9194C109.756 44.1557 109.711 44.3996 109.711 44.6509C109.711 44.846 109.737 45.0373 109.793 45.2287C109.85 45.42 109.932 45.5963 110.037 45.7576C110.146 45.9189 110.274 46.0652 110.42 46.189C110.566 46.3128 110.735 46.4104 110.926 46.4816C111.118 46.5529 111.324 46.5867 111.534 46.5867C111.793 46.5867 112.037 46.5342 112.266 46.4291C112.494 46.3241 112.689 46.1815 112.851 46.0052C113.008 45.8289 113.136 45.6226 113.23 45.3862C113.323 45.1499 113.368 44.906 113.368 44.6547C113.368 44.4033 113.323 44.1782 113.233 43.9457C113.143 43.7131 113.023 43.5067 112.866 43.3229H112.87ZM112.671 45.1611C112.614 45.3262 112.539 45.4762 112.438 45.6075C112.337 45.7388 112.209 45.8476 112.055 45.9264C111.898 46.009 111.729 46.0465 111.542 46.0465C111.301 46.0465 111.084 45.9789 110.896 45.8476C110.709 45.7126 110.562 45.5438 110.469 45.3337C110.371 45.1236 110.322 44.8985 110.322 44.6547C110.322 44.4821 110.352 44.3133 110.405 44.1482C110.461 43.9832 110.54 43.8369 110.641 43.7018C110.742 43.5705 110.874 43.4655 111.028 43.3829C111.185 43.3042 111.354 43.2629 111.542 43.2629C111.729 43.2629 111.887 43.3004 112.04 43.3792C112.194 43.4542 112.322 43.5593 112.423 43.6868C112.524 43.8144 112.607 43.9644 112.663 44.1332C112.723 44.302 112.749 44.4746 112.749 44.6547C112.749 44.8348 112.723 44.9961 112.667 45.1611H112.671ZM118.073 44.861H119.78V44.3583H118.073V43.2704H120.042V42.7377H117.469V46.5642H120.087V46.0315H118.069V44.8648L118.073 44.861ZM126.825 44.6884C126.96 44.4784 127.031 44.2458 127.031 43.9832C127.031 43.8294 127.001 43.6793 126.941 43.5292C126.881 43.3792 126.802 43.2479 126.701 43.1278C126.6 43.0115 126.472 42.914 126.322 42.8427C126.172 42.7715 126.015 42.7339 125.85 42.7339H124.188V46.5604H124.788V45.2287H125.677L126.506 46.5604H127.185L126.285 45.1049C126.51 45.0336 126.69 44.891 126.825 44.6809V44.6884ZM125.842 44.6997H124.784V43.2741H125.805C125.966 43.2741 126.108 43.3454 126.228 43.4842C126.352 43.623 126.412 43.7918 126.412 43.9869C126.412 44.182 126.36 44.3546 126.251 44.4934C126.142 44.6322 126.003 44.7034 125.838 44.7034L125.842 44.6997ZM129.417 44.861H131.124V44.3583H129.417V43.2704H131.387V42.7377H128.813V46.5642H131.432V46.0315H129.413V44.8648L129.417 44.861ZM135.408 45.7801C135.292 45.8777 135.172 45.9452 135.044 45.9864C134.921 46.0277 134.789 46.0465 134.658 46.0465C134.425 46.0465 134.215 45.9827 134.024 45.8514C133.833 45.7201 133.686 45.5475 133.581 45.3337C133.476 45.1199 133.424 44.8873 133.424 44.6434C133.424 44.5084 133.439 44.3733 133.472 44.242C133.506 44.1107 133.555 43.9832 133.623 43.8669C133.69 43.7468 133.773 43.6418 133.866 43.5555C133.96 43.4655 134.076 43.3942 134.208 43.3417C134.339 43.2892 134.485 43.2629 134.639 43.2629C134.737 43.2629 134.83 43.2741 134.921 43.2929C135.014 43.3154 135.104 43.3454 135.194 43.3904C135.284 43.4355 135.371 43.4992 135.446 43.578C135.525 43.6605 135.588 43.7543 135.637 43.8669L136.11 43.548C135.982 43.2967 135.791 43.0941 135.54 42.9403C135.288 42.7902 134.992 42.7114 134.658 42.7114C134.433 42.7114 134.219 42.7489 134.02 42.8202C133.821 42.8915 133.649 42.9928 133.502 43.1166C133.356 43.2404 133.232 43.3829 133.124 43.548C133.019 43.7093 132.94 43.8819 132.887 44.0657C132.835 44.2495 132.808 44.4333 132.808 44.6209C132.808 44.8648 132.853 45.1011 132.944 45.3374C133.034 45.5738 133.157 45.7839 133.315 45.9714C133.472 46.159 133.664 46.3091 133.896 46.4216C134.125 46.5342 134.373 46.5942 134.632 46.5942C134.838 46.5942 135.041 46.5604 135.243 46.4929C135.446 46.4254 135.633 46.3241 135.802 46.1853C135.971 46.0465 136.095 45.8852 136.17 45.7051L135.667 45.42C135.603 45.5625 135.513 45.6826 135.397 45.7801H135.408ZM140.686 43.3229C140.533 43.1391 140.338 42.9928 140.109 42.8802C139.876 42.7677 139.629 42.7114 139.366 42.7114C139.103 42.7114 138.863 42.764 138.634 42.8727C138.406 42.9815 138.211 43.1203 138.049 43.3004C137.888 43.4767 137.76 43.6831 137.667 43.9194C137.573 44.1557 137.528 44.3996 137.528 44.6509C137.528 44.846 137.554 45.0373 137.61 45.2287C137.667 45.42 137.749 45.5963 137.854 45.7576C137.963 45.9189 138.09 46.0652 138.237 46.189C138.383 46.3128 138.552 46.4104 138.743 46.4816C138.935 46.5529 139.141 46.5867 139.351 46.5867C139.61 46.5867 139.854 46.5342 140.083 46.4291C140.311 46.3241 140.506 46.1815 140.664 46.0052C140.822 45.8289 140.949 45.6226 141.043 45.3862C141.137 45.1499 141.182 44.906 141.182 44.6547C141.182 44.4033 141.137 44.1782 141.047 43.9457C140.957 43.7131 140.837 43.5067 140.679 43.3229H140.686ZM140.484 45.1611C140.428 45.3262 140.353 45.4762 140.251 45.6075C140.15 45.7388 140.022 45.8476 139.869 45.9264C139.711 46.009 139.542 46.0465 139.355 46.0465C139.115 46.0465 138.897 45.9789 138.709 45.8476C138.522 45.7126 138.376 45.5438 138.282 45.3337C138.184 45.1236 138.136 44.8985 138.136 44.6547C138.136 44.4821 138.166 44.3133 138.218 44.1482C138.274 43.9832 138.353 43.8369 138.454 43.7018C138.556 43.5705 138.687 43.4655 138.841 43.3829C138.998 43.3042 139.167 43.2629 139.355 43.2629C139.542 43.2629 139.7 43.3004 139.854 43.3792C140.007 43.4542 140.135 43.5593 140.236 43.6868C140.338 43.8144 140.42 43.9644 140.476 44.1332C140.536 44.302 140.563 44.4746 140.563 44.6547C140.563 44.8348 140.536 44.9961 140.48 45.1611H140.484ZM145.545 45.5025L143.38 42.7377H142.885V46.5642H143.485V43.8594L145.62 46.5642H146.149V42.7452H145.541V45.5063L145.545 45.5025ZM150.557 44.8648C150.489 44.7897 150.403 44.7222 150.29 44.6622C150.181 44.6022 150.065 44.5534 149.945 44.5121C149.825 44.4709 149.682 44.4333 149.514 44.3921C149.409 44.3658 149.322 44.3433 149.259 44.3283C149.195 44.3133 149.124 44.2908 149.048 44.2683C148.973 44.2458 148.917 44.2233 148.872 44.2008C148.831 44.1782 148.786 44.1557 148.741 44.1257C148.696 44.0957 148.666 44.0657 148.643 44.0319C148.621 43.9982 148.602 43.9607 148.591 43.9194C148.576 43.8781 148.568 43.8294 148.568 43.7768C148.568 43.608 148.628 43.4767 148.752 43.3867C148.876 43.2929 149.063 43.2479 149.311 43.2479C149.521 43.2479 149.724 43.2892 149.923 43.3754C150.121 43.458 150.26 43.548 150.343 43.638L150.617 43.1428C150.226 42.854 149.795 42.7114 149.326 42.7114C149.127 42.7114 148.943 42.7377 148.778 42.7865C148.61 42.839 148.463 42.9103 148.339 43.0078C148.216 43.1053 148.118 43.2254 148.047 43.3754C147.976 43.5255 147.942 43.6906 147.942 43.8744C147.942 44.0207 147.964 44.1482 148.009 44.257C148.054 44.3658 148.129 44.4596 148.227 44.5384C148.328 44.6172 148.444 44.6847 148.576 44.7372C148.707 44.7897 148.872 44.846 149.075 44.8985C149.206 44.9323 149.307 44.9585 149.382 44.9811C149.457 45.0036 149.544 45.0298 149.634 45.0598C149.724 45.0898 149.795 45.1236 149.848 45.1536C149.896 45.1836 149.945 45.2174 149.994 45.2587C150.043 45.2999 150.073 45.3449 150.095 45.3975C150.114 45.45 150.125 45.5063 150.125 45.57C150.125 45.7276 150.061 45.8476 149.934 45.9339C149.806 46.0165 149.622 46.0615 149.382 46.0615C149.116 46.0615 148.861 46.009 148.61 45.9039C148.358 45.7989 148.178 45.6863 148.069 45.5738L147.792 46.0915C148.009 46.2565 148.253 46.3841 148.523 46.4741C148.793 46.5642 149.075 46.6054 149.367 46.6054C149.525 46.6054 149.671 46.5942 149.81 46.5679C149.945 46.5417 150.073 46.5004 150.193 46.4441C150.313 46.3878 150.414 46.3166 150.497 46.234C150.579 46.1515 150.647 46.0465 150.695 45.9227C150.744 45.7989 150.767 45.6638 150.767 45.51C150.767 45.375 150.748 45.2512 150.707 45.1461C150.665 45.0373 150.613 44.9473 150.549 44.8723L150.557 44.8648ZM152.102 43.2741H153.378V46.5642H153.985V43.2741H155.253V42.7414H152.102V43.2741ZM159.481 44.6884C159.616 44.4784 159.688 44.2458 159.688 43.9832C159.688 43.8294 159.658 43.6793 159.598 43.5292C159.538 43.3792 159.459 43.2479 159.357 43.1278C159.256 43.0115 159.129 42.914 158.979 42.8427C158.828 42.7715 158.671 42.7339 158.506 42.7339H156.844V46.5604H157.444V45.2287H158.333L159.162 46.5604H159.841L158.945 45.1049C159.17 45.0336 159.35 44.891 159.485 44.6809L159.481 44.6884ZM158.498 44.6997H157.44V43.2741H158.461C158.622 43.2741 158.765 43.3454 158.885 43.4842C159.009 43.623 159.069 43.7918 159.069 43.9869C159.069 44.182 159.016 44.3546 158.907 44.4934C158.798 44.6322 158.66 44.7034 158.495 44.7034L158.498 44.6997ZM164.099 44.6772C164.099 44.8197 164.088 44.9548 164.069 45.0823C164.051 45.2099 164.013 45.3337 163.964 45.4537C163.912 45.5738 163.848 45.6751 163.773 45.7614C163.694 45.8476 163.597 45.9152 163.477 45.9677C163.356 46.0202 163.218 46.0465 163.06 46.0465C162.903 46.0465 162.768 46.0202 162.647 45.9714C162.527 45.9189 162.426 45.8514 162.351 45.7689C162.272 45.6863 162.209 45.5813 162.16 45.465C162.107 45.3449 162.073 45.2211 162.051 45.0936C162.028 44.9661 162.021 44.8272 162.021 44.6809V42.7414H161.417V44.6809C161.417 44.8873 161.436 45.0786 161.47 45.2624C161.507 45.4425 161.563 45.6188 161.646 45.7839C161.728 45.9489 161.83 46.0915 161.957 46.2078C162.081 46.3241 162.239 46.4179 162.426 46.4891C162.614 46.5604 162.828 46.5942 163.064 46.5942C163.349 46.5942 163.6 46.5454 163.818 46.4441C164.035 46.3428 164.208 46.204 164.336 46.0277C164.463 45.8514 164.561 45.6488 164.624 45.4237C164.688 45.1986 164.718 44.951 164.718 44.6847V42.7452H164.111V44.6847L164.099 44.6772ZM168.939 45.7801C168.822 45.8777 168.702 45.9452 168.575 45.9864C168.451 46.0277 168.32 46.0465 168.188 46.0465C167.956 46.0465 167.746 45.9827 167.554 45.8514C167.363 45.7201 167.217 45.5475 167.112 45.3337C167.007 45.1199 166.954 44.8873 166.954 44.6434C166.954 44.5084 166.969 44.3733 167.003 44.242C167.037 44.1107 167.085 43.9832 167.153 43.8669C167.22 43.7468 167.303 43.6418 167.397 43.5555C167.491 43.4655 167.607 43.3942 167.738 43.3417C167.869 43.2892 168.016 43.2629 168.17 43.2629C168.267 43.2629 168.361 43.2741 168.451 43.2929C168.545 43.3154 168.635 43.3454 168.725 43.3904C168.815 43.4355 168.901 43.4992 168.976 43.578C169.055 43.6605 169.119 43.7543 169.167 43.8669L169.64 43.548C169.513 43.2967 169.321 43.0941 169.07 42.9403C168.819 42.7902 168.522 42.7114 168.188 42.7114C167.963 42.7114 167.749 42.7489 167.551 42.8202C167.352 42.8915 167.179 42.9928 167.033 43.1166C166.887 43.2404 166.763 43.3829 166.654 43.548C166.549 43.7093 166.47 43.8819 166.418 44.0657C166.365 44.2495 166.339 44.4333 166.339 44.6209C166.339 44.8535 166.38 45.0823 166.463 45.3074C166.545 45.5325 166.662 45.7388 166.804 45.9189C166.95 46.1027 167.127 46.2528 167.341 46.3728C167.554 46.4929 167.783 46.5642 168.023 46.5829C168.215 46.7105 168.312 46.8418 168.312 46.9843C168.312 47.0669 168.282 47.1306 168.226 47.1719C168.17 47.2132 168.091 47.2357 167.99 47.2357C167.873 47.2357 167.746 47.1982 167.607 47.1231L167.457 47.442C167.659 47.547 167.869 47.5958 168.091 47.5958C168.278 47.5958 168.421 47.5508 168.526 47.4608C168.631 47.3707 168.68 47.2469 168.68 47.0931C168.68 46.9018 168.586 46.7292 168.402 46.5754C168.687 46.5342 168.946 46.4366 169.186 46.2828C169.426 46.129 169.595 45.9339 169.693 45.7013L169.19 45.4162C169.126 45.5588 169.036 45.6788 168.92 45.7764L168.939 45.7801ZM172.39 42.7377L170.893 46.5642H171.535L171.932 45.525H173.407L173.808 46.5642H174.442L172.956 42.7377H172.386H172.39ZM172.041 45.0786L172.675 43.4017L173.29 45.0786H172.041ZM172.067 42.2312C172.071 42.2087 172.082 42.1825 172.097 42.1487C172.112 42.115 172.139 42.0849 172.18 42.0624C172.217 42.0399 172.266 42.0287 172.322 42.0287C172.386 42.0287 172.454 42.0474 172.525 42.0849C172.596 42.1225 172.675 42.1637 172.758 42.2012C172.84 42.2387 172.93 42.2575 173.024 42.2575C173.118 42.2575 173.197 42.2387 173.272 42.2012C173.347 42.1637 173.407 42.1187 173.448 42.0662C173.493 42.0137 173.53 41.9574 173.56 41.8936C173.59 41.8336 173.613 41.7811 173.624 41.7361C173.635 41.691 173.643 41.6573 173.643 41.6348H173.305C173.305 41.6348 173.305 41.6573 173.302 41.6723C173.298 41.6873 173.29 41.7098 173.279 41.7361C173.268 41.7623 173.249 41.7886 173.23 41.8111C173.212 41.8336 173.182 41.8524 173.144 41.8711C173.107 41.8899 173.061 41.8974 173.013 41.8974C172.941 41.8974 172.87 41.8786 172.795 41.8373C172.72 41.7961 172.645 41.7586 172.563 41.7173C172.484 41.676 172.397 41.6573 172.307 41.6573C172.225 41.6573 172.146 41.676 172.079 41.7098C172.011 41.7473 171.955 41.7886 171.914 41.8411C171.872 41.8936 171.839 41.9499 171.809 42.0099C171.778 42.0699 171.76 42.1225 171.748 42.1675C171.737 42.2125 171.733 42.25 171.733 42.2763H172.067C172.067 42.2763 172.067 42.2463 172.075 42.2237L172.067 42.2312ZM179.135 43.9494C179.045 43.7168 178.925 43.5105 178.767 43.3267C178.614 43.1428 178.419 42.9965 178.19 42.884C177.957 42.7715 177.71 42.7152 177.447 42.7152C177.184 42.7152 176.944 42.7677 176.715 42.8765C176.487 42.9853 176.291 43.1241 176.13 43.3042C175.969 43.4805 175.841 43.6868 175.748 43.9231C175.654 44.1595 175.609 44.4033 175.609 44.6547C175.609 44.8498 175.635 45.0411 175.691 45.2324C175.748 45.4237 175.83 45.6 175.935 45.7614C176.044 45.9227 176.171 46.069 176.318 46.1928C176.464 46.3166 176.633 46.4141 176.828 46.4854C177.019 46.5567 177.226 46.5904 177.439 46.5904C177.698 46.5904 177.942 46.5379 178.171 46.4329C178.4 46.3278 178.595 46.1853 178.752 46.009C178.91 45.8326 179.038 45.6263 179.131 45.39C179.225 45.1536 179.27 44.9098 179.27 44.6584C179.27 44.4071 179.225 44.182 179.135 43.9494ZM178.572 45.1611C178.516 45.3262 178.441 45.4762 178.34 45.6075C178.238 45.7388 178.111 45.8476 177.957 45.9264C177.8 46.009 177.631 46.0465 177.443 46.0465C177.203 46.0465 176.985 45.9789 176.798 45.8476C176.61 45.7126 176.464 45.5438 176.367 45.3337C176.269 45.1236 176.22 44.8985 176.22 44.6547C176.22 44.4821 176.246 44.3133 176.303 44.1482C176.359 43.9832 176.438 43.8369 176.539 43.7018C176.64 43.5705 176.772 43.4655 176.925 43.3829C177.083 43.3042 177.252 43.2629 177.439 43.2629C177.627 43.2629 177.785 43.3004 177.938 43.3792C178.092 43.4542 178.22 43.5593 178.321 43.6868C178.422 43.8144 178.505 43.9644 178.561 44.1332C178.621 44.302 178.647 44.4746 178.647 44.6547C178.647 44.8348 178.621 44.9961 178.565 45.1611H178.572Z" fill="#026EC2"/>
<path d="M94.5963 4.14655H95.9055C95.7892 4.46167 95.4628 4.72052 94.9452 4.72052C94.2099 4.72052 93.6997 4.19156 93.6997 3.46003C93.6997 2.7285 94.2061 2.16203 94.9226 2.16203C95.3803 2.16203 95.7742 2.38337 95.9881 2.76977L97.1022 2.10201C96.6558 1.35172 95.8342 0.894043 94.9414 0.894043C93.5234 0.894043 92.3942 2.02698 92.3942 3.45253C92.3942 4.87808 93.5159 5.99601 94.9489 5.99601C96.2957 5.99601 97.3086 5.00563 97.3086 3.49004V3.11115H94.5963V4.1503V4.14655ZM101.664 0.894043C100.242 0.894043 99.1093 2.02698 99.1093 3.44503C99.1093 4.86307 100.238 5.99601 101.664 5.99601C103.09 5.99601 104.204 4.86307 104.204 3.44503C104.204 2.02698 103.075 0.894043 101.664 0.894043ZM101.664 4.64924C101.011 4.64924 100.512 4.13529 100.512 3.44503C100.512 2.75476 101.011 2.24081 101.664 2.24081C102.317 2.24081 102.793 2.75851 102.793 3.44503C102.793 4.13154 102.298 4.64924 101.664 4.64924ZM107.981 4.0115L106.852 1.01034H105.442L107.325 5.88347H108.634L110.536 1.01034H109.126L107.981 4.0115ZM112.243 5.87972H115.728V4.69051H113.56V3.96648H114.989V2.91982H113.56V2.1958H115.728V1.01034H112.243V5.88347V5.87972ZM121.787 2.59345C121.787 1.68935 121.055 1.01034 120.106 1.01034H117.754V5.88347H119.048V4.19907H119.6L120.564 5.88347H122.016L120.935 4.00774C121.449 3.73389 121.787 3.21994 121.787 2.5972V2.59345ZM119.964 3.08489H119.048V2.17329H119.964C120.279 2.17329 120.462 2.38712 120.462 2.63096C120.462 2.87481 120.271 3.08114 119.964 3.08114V3.08489ZM126.885 3.58008L124.919 1.00659H123.816V5.87972H125.111V3.31373L127.073 5.87972H128.183V1.01034H126.889V3.58383L126.885 3.58008ZM132.625 0.894043C131.203 0.894043 130.07 2.02698 130.07 3.44503C130.07 4.86307 131.199 5.99601 132.625 5.99601C134.05 5.99601 135.164 4.86307 135.164 3.44503C135.164 2.02698 134.035 0.894043 132.625 0.894043ZM132.625 4.64924C131.972 4.64924 131.473 4.13529 131.473 3.44503C131.473 2.75476 131.972 2.24081 132.625 2.24081C133.277 2.24081 133.754 2.75851 133.754 3.44503C133.754 4.13154 133.259 4.64924 132.625 4.64924ZM140.27 5.87972H141.587V4.10153H143.016V2.9986H141.587V2.17329H143.755V1.01034H140.27V5.88347V5.87972ZM145.721 5.87972H149.206V4.69051H147.038V3.96648H148.467V2.91982H147.038V2.1958H149.206V1.01034H145.721V5.88347V5.87972ZM153.213 1.01034H151.232V5.88347H153.213C154.694 5.88347 155.809 4.84432 155.809 3.44878C155.809 2.05324 154.691 1.01409 153.213 1.01409V1.01034ZM153.145 4.61173H152.552V2.27833H153.145C153.918 2.27833 154.447 2.736 154.447 3.44503C154.447 4.15405 153.918 4.61173 153.145 4.61173ZM157.696 5.87972H161.181V4.69051H159.012V3.96648H160.442V2.91982H159.012V2.1958H161.181V1.01034H157.696V5.88347V5.87972ZM167.239 2.59345C167.239 1.68935 166.508 1.01034 165.559 1.01034H163.206V5.88347H164.501V4.19907H165.052L166.016 5.88347H167.468L166.388 4.00774C166.902 3.73389 167.239 3.21994 167.239 2.5972V2.59345ZM165.416 3.08489H164.501V2.17329H165.416C165.731 2.17329 165.915 2.38712 165.915 2.63096C165.915 2.87481 165.724 3.08114 165.416 3.08114V3.08489ZM170.938 1.01034L168.905 5.88347H170.27L170.608 5.04689H172.533L172.878 5.88347H174.236L172.184 1.01034H170.938ZM171.081 3.88019L171.568 2.68348L172.056 3.88019H171.085H171.081ZM177.323 4.62673V1.01034H175.943V5.88347H179.368V4.63048H177.323V4.62673Z" fill="#026EC2"/>
<path d="M140.934 29.2886L145.271 36.5889H148.853V22.7911H140.934V29.2886ZM152.008 20.7166H149.307V36.5889H152.008C156.379 36.5889 159.931 33.0288 159.931 28.6546C159.931 24.2804 156.375 20.7203 152.008 20.7203V20.7166ZM146.396 22.3334H148.853V11.3867H146.4C143.388 11.3867 140.934 13.8439 140.934 16.8601C140.934 19.8762 143.384 22.3334 146.4 22.3334H146.396ZM103.09 11.9269V26.4263H112.498L103.09 11.9269ZM170.739 27.9719H179.143V11.3867H170.739V27.9719ZM158.438 11.3867H149.307V20.2626H158.438V11.3867ZM179.597 28.4258V36.5889H188V28.4258H179.597ZM170.739 36.5889H179.143V28.4258H170.739V36.5889ZM160.385 36.5889H168.789V11.3867H160.385V36.5889ZM140.934 36.5889H144.742L140.934 30.1777V36.5889ZM99.2443 16.3049C99.2443 13.5926 97.0422 11.3867 94.3299 11.3867H92.5067V21.2268H94.3299C97.0384 21.2268 99.2443 19.0209 99.2443 16.3086V16.3049ZM83.6495 21.2268H92.0528V11.3867H83.6495V21.2268ZM83.6495 36.5889H92.0528V21.6807H83.6495V36.5889ZM95.1927 21.6807H92.5067V36.5889H95.1927C99.2968 36.5889 102.636 33.2464 102.636 29.1348C102.636 25.0232 99.2968 21.6807 95.1927 21.6807ZM116.989 33.3439L115.064 36.5852H119.097L116.992 33.3439H116.989ZM117.251 32.9088L119.641 36.5889H120.335C120.395 34.0867 121.412 31.7421 123.201 29.9789C125.005 28.2045 127.384 27.2291 129.909 27.2291C132.433 27.2291 134.812 28.2045 136.616 29.9789C138.406 31.7421 139.422 34.0867 139.482 36.5889H140.488V29.4124L129.912 11.6043L117.259 32.9088H117.251ZM120.425 18.9084C120.425 14.763 117.056 11.3867 112.915 11.3867H103.281L113.038 26.4263C117.112 26.3587 120.425 22.9937 120.425 18.9084ZM129.901 27.683C127.5 27.683 125.234 28.6134 123.516 30.3015C121.813 31.9784 120.845 34.2068 120.785 36.5889H139.017C138.957 34.2105 137.989 31.9784 136.286 30.3015C134.568 28.6134 132.302 27.683 129.901 27.683ZM112.791 26.8839H103.09V36.5889H114.535L116.715 32.92L112.795 26.8839H112.791Z" fill="#026EC2"/>
</svg>
