<svg width="153" height="87" viewBox="0 0 153 87" fill="none" xmlns="http://www.w3.org/2000/svg">
<g clip-path="url(#clip0_36_2136)">
<path fill-rule="evenodd" clip-rule="evenodd" d="M153 29.332V57.2171C152.788 57.2171 152.565 57.2527 152.353 57.2527C142.407 57.2527 132.45 57.2527 122.503 57.2645C121.974 57.2645 121.598 57.0985 121.222 56.6834C113.439 48.1672 105.645 39.6629 97.8382 31.1823C97.6266 30.957 97.2504 30.7909 96.9447 30.7672C94.5699 30.53 92.1833 30.3284 89.8202 30.1386C87.4336 29.9369 85.0588 29.7472 82.684 29.5693C82.0491 29.5218 81.4143 29.4625 80.7794 29.3439H153.024" fill="#026EC2"/>
<path fill-rule="evenodd" clip-rule="evenodd" d="M122.292 60.5617C120.846 60.5617 119.553 60.5855 118.259 60.5617C113.133 60.4787 108.008 60.4313 102.882 60.2652C98.4142 60.1229 93.9585 59.8857 89.5027 59.6129C85.6701 59.3756 81.8375 59.0198 77.9931 58.6877C76.3589 58.5572 74.7247 58.32 73.0906 58.1777C72.5263 58.1184 72.5733 57.7744 72.5733 57.3593C72.5733 49.9106 72.5733 42.4382 72.5733 34.9895V29.9961C73.4785 30.1147 74.325 30.2215 75.1715 30.3282C77.6992 30.6366 80.2268 30.9687 82.7662 31.2059C85.7759 31.5024 88.7856 31.7278 91.807 31.9531C93.159 32.0599 94.5228 32.0599 95.8748 32.1548C96.1452 32.1785 96.4744 32.309 96.6625 32.5106C105.057 41.6791 113.439 50.8476 121.822 60.028C121.951 60.1585 122.057 60.3127 122.28 60.5736" fill="#026EC2"/>
<path fill-rule="evenodd" clip-rule="evenodd" d="M126.042 27.4344H100.19V0H126.042V27.4344Z" fill="#026EC2"/>
<path fill-rule="evenodd" clip-rule="evenodd" d="M97.1563 61.5225C105.927 61.736 114.485 61.9376 123.091 62.1392C123.385 70.5012 124.138 78.7445 125.29 86.9998H99.1197C98.473 78.5429 97.8147 70.1098 97.1563 61.5225Z" fill="#026EC2"/>
<path fill-rule="evenodd" clip-rule="evenodd" d="M22.1964 30.8742H30.0498C30.0733 31.1351 30.1203 31.3486 30.1203 31.5502C30.1203 37.8603 30.1203 44.1703 30.1086 50.4803C30.1086 52.8169 31.5782 54.7621 33.7179 55.2721C36.2573 55.877 38.7614 54.2995 39.5021 51.6308C39.5844 51.3461 39.5961 51.0259 39.5961 50.7175C39.5961 44.3838 39.5961 38.05 39.5961 31.7282V30.9572H43.2524V31.6807C43.2524 37.6349 43.2524 43.5891 43.2524 49.5433C43.2524 52.639 42.1238 55.201 40.0076 57.241C37.7268 59.4472 34.9523 60.1707 31.9426 60.0046C28.157 59.7911 25.2179 58.0001 23.3015 54.4537C22.5374 53.0304 22.1494 51.4648 22.1611 49.7805C22.1611 43.684 22.1611 37.5993 22.1611 31.5147C22.1611 31.3012 22.1847 31.0877 22.1847 30.8623" fill="#026EC2"/>
<path fill-rule="evenodd" clip-rule="evenodd" d="M62.7213 30.6726C62.7213 31.7876 62.7213 32.8313 62.7213 33.8514C62.7213 34.3139 62.3804 34.2072 62.1335 34.2072C60.2642 34.2072 58.3831 34.2072 56.5138 34.2191C55.6321 34.2191 54.7856 34.4088 54.1508 35.1205C52.9046 36.5319 53.4924 38.8567 55.2559 39.509C56.6784 40.0309 58.1362 40.4105 59.5235 41.0154C60.5581 41.4661 61.5692 42.0473 62.4862 42.7471C63.8264 43.779 64.2144 45.4751 64.5436 47.0526C65.2019 50.2195 64.8492 53.2559 62.8389 55.8297C61.193 57.9409 59.0297 59.0321 56.4668 59.0677C53.2338 59.127 50.0007 59.0914 46.7676 59.0914H46.0623V55.0824C46.3091 55.0824 46.556 55.0469 46.7912 55.0469H54.5152C55.9378 55.0469 57.2075 54.0031 57.5837 52.5561C57.9599 51.109 57.3838 49.6027 56.0553 48.8673C55.3382 48.4759 54.527 48.2743 53.7275 48.0726C51.388 47.5152 49.1777 46.7086 47.4495 44.8227C43.4053 40.4105 45.2275 32.8076 50.7649 31.0878C51.6349 30.8031 52.5754 30.6726 53.4924 30.6608C56.5374 30.6015 59.5823 30.6371 62.7096 30.6371" fill="#026EC2"/>
<path fill-rule="evenodd" clip-rule="evenodd" d="M17.4114 30.7078V34.2186C16.9177 34.2186 16.4827 34.2186 16.0359 34.2186C14.1666 34.2542 12.2973 34.2186 10.4163 34.3491C9.18184 34.4321 8.35888 35.4047 8.26483 36.579C8.14727 37.9786 8.74685 39.0816 9.96953 39.5205C11.3568 40.0305 12.7794 40.4931 14.1901 40.9675L14.6487 41.1573C18.3402 42.545 19.4688 45.6526 19.5394 49.6616C19.5864 52.6031 18.6694 55.1769 16.4592 57.0391C14.9073 58.3675 13.1203 59.1029 11.1099 59.1148H0.822923V55.1176C1.10508 55.1058 1.38724 55.082 1.6694 55.082C4.10301 55.082 6.53662 55.0109 8.95847 55.1058C10.8513 55.1769 12.215 53.7062 12.4031 52.271C12.6383 50.4681 11.5684 48.9025 9.74616 48.3925C8.44118 48.0248 7.08917 47.7757 5.83122 47.2894C2.80978 46.127 0.76414 43.9802 0.129285 40.4575C-0.517326 36.8636 1.44602 32.8784 4.59678 31.4788C5.80771 30.945 7.04215 30.6485 8.37064 30.6722C11.2157 30.7078 14.0608 30.6722 16.8942 30.6722C17.0587 30.6722 17.2233 30.6959 17.4114 30.7078Z" fill="#026EC2"/>
<path fill-rule="evenodd" clip-rule="evenodd" d="M122.609 59.5537H125.972V77.7721C125.725 75.0915 125.431 71.8535 125.125 68.6155C124.914 66.4093 124.725 64.1913 124.479 61.9852C124.443 61.665 124.267 61.3329 124.055 61.0838C123.644 60.5975 123.185 60.1586 122.598 59.5537" fill="#026EC2"/>
</g>
<defs>
<clipPath id="clip0_36_2136">
<rect width="153" height="87" fill="white"/>
</clipPath>
</defs>
</svg>
