<svg width="293" height="268" viewBox="0 0 293 268" fill="none" xmlns="http://www.w3.org/2000/svg">
<mask id="mask0_70_1348" style="mask-type:luminance" maskUnits="userSpaceOnUse" x="-1" y="0" width="294" height="268">
<path d="M-0.000335693 268L292.851 268L292.851 -6.10352e-05L-0.000335693 -6.10352e-05L-0.000335693 268Z" fill="white"/>
</mask>
<g mask="url(#mask0_70_1348)">
<path d="M214.056 211.076V218.706H292.925V155.954C287.58 157.312 283.442 159.851 280.242 162.942C277.144 165.932 274.922 169.441 273.332 172.911C273.298 172.984 273.263 173.056 273.234 173.129C273.21 173.173 273.195 173.216 273.171 173.26C272.442 174.896 271.848 176.522 271.367 178.07C269.417 184.33 269.305 189.407 269.305 189.407C269.305 189.407 264.617 187.679 258.679 187.47C253.374 187.281 247.057 188.305 242.169 192.843C238.974 195.803 236.387 200.264 235.074 206.854C235.05 206.956 235.035 207.058 235.011 207.16C234.943 207.514 234.875 207.878 234.821 208.242C234.724 208.825 234.636 209.422 234.559 210.033C234.267 209.863 233.97 209.703 233.678 209.553C233.304 209.358 232.925 209.184 232.545 209.024C231.937 208.762 231.33 208.543 230.717 208.364C230.508 208.3 230.299 208.237 230.085 208.184C228.353 207.733 226.617 207.558 224.92 207.611C220.85 207.733 217.018 209.14 214.061 211.057L214.056 211.076Z" fill="#EDEDED"/>
<path d="M183.959 104.092H292.93V66.5183C292.059 69.8525 291.879 72.1238 291.879 72.1238C291.879 72.1238 290.177 71.3376 287.595 70.9348C287.138 70.8668 286.656 70.8037 286.151 70.7649C286.151 70.7649 286.146 70.7649 286.141 70.7649C285.494 70.7115 284.813 70.6921 284.103 70.7115C283.51 70.7261 282.897 70.7746 282.275 70.8571C281.258 70.993 280.208 71.226 279.143 71.5899C278.238 71.8957 277.329 72.2937 276.42 72.8081C274.363 73.968 272.32 75.7055 270.448 78.2389C269.894 78.9863 269.359 79.8065 268.843 80.6995C267.89 79.8016 266.956 78.9814 266.042 78.2389C264.423 76.9285 262.862 75.8559 261.359 75.0018C250.933 69.0614 243.395 73.4099 238.848 78.2389C235.429 81.8642 233.703 85.7565 233.703 85.7565C224.473 78.8018 211.445 82.7475 207.622 91.4348C206.81 93.279 206.412 95.3368 206.553 97.545C202.769 96.1715 199.54 95.759 196.807 95.9434C192.367 96.2395 189.24 98.108 187.188 99.9813C186.716 100.408 186.308 100.84 185.948 101.248C184.581 102.806 183.974 104.097 183.974 104.097L183.959 104.092Z" fill="#EDEDED"/>
<path d="M59.5869 65.3632H188.229C188.229 65.3632 184.455 57.899 176.844 57.899C176.693 57.9378 176.548 57.9815 176.397 58.0252C175.964 58.1562 175.531 58.3115 175.098 58.4959C174.826 58.6076 174.559 58.7337 174.291 58.8696C174.082 58.9764 173.873 59.088 173.664 59.2094C173.61 58.7726 173.547 58.3503 173.479 57.9378C173.44 57.6757 173.391 57.4185 173.343 57.1661C173.328 57.0933 173.314 57.0206 173.299 56.9478C172.365 52.2595 170.527 49.0952 168.256 46.9889C164.779 43.7615 160.295 43.0336 156.522 43.1694C152.3 43.315 148.969 44.5478 148.969 44.5478C148.969 44.5478 148.892 40.9418 147.506 36.4914C147.165 35.3897 146.742 34.2347 146.222 33.0747C146.207 33.0456 146.193 33.0116 146.178 32.9777C146.154 32.9243 146.134 32.8758 146.105 32.8224C144.972 30.3569 143.396 27.8624 141.193 25.7415C137.765 22.4268 132.819 20.0099 125.7 20.0099C117.924 20.0099 112.604 22.6646 108.966 26.154C108.047 27.0373 107.23 27.974 106.515 28.9349C106.418 29.066 106.321 29.197 106.228 29.328C105.406 30.4831 104.716 31.6624 104.137 32.8224C104.113 32.8758 104.084 32.9243 104.059 32.9777C104.045 33.0116 104.025 33.0408 104.011 33.0747C101.565 38.0978 101.21 42.6502 101.21 42.6502C101.21 42.6502 100.004 42.092 98.1653 41.8057C97.8443 41.7572 97.4991 41.7135 97.1392 41.6844C97.1392 41.6844 97.1392 41.6844 97.1343 41.6844C96.6772 41.6455 96.1909 41.631 95.6852 41.6455C95.2621 41.6552 94.8293 41.6892 94.3867 41.7475C93.667 41.8445 92.9181 42.0095 92.1595 42.2668C91.5175 42.4851 90.8708 42.7666 90.224 43.1306C88.7602 43.9557 87.311 45.1884 85.9834 46.9889C85.5895 47.5179 85.2102 48.1003 84.8406 48.7361C63.1758 40.8011 59.5918 65.339 59.5918 65.3632H59.5869Z" fill="#EDEDED"/>
<path d="M138.504 -7.11481L142.53 14.021L143.916 21.2669L144.894 26.3967L146.392 34.2541L177.651 198.167L179.11 197.876V197.871L181.094 197.473L182.31 197.23L149.864 27.1004L148.366 19.2479L147.535 14.9043L146.153 7.65356L143.377 -6.89641L138.504 -7.11481Z" fill="#C68722"/>
<path d="M138.504 -7.11481L142.53 14.021L143.916 21.2669L144.894 26.3967L146.392 34.2541L177.651 198.167L179.11 197.876V197.871L140.731 -7.01289L138.504 -7.11481Z" fill="#A36811"/>
<path d="M142.258 -6.9498L181.094 197.473L182.31 197.23L149.864 27.1004L148.366 19.2479L147.535 14.9043L146.154 7.65356L143.377 -6.89641L142.258 -6.9498Z" fill="#DDA254"/>
<path d="M243.667 188.999C243.667 188.999 243.604 204.981 249.148 214.445C254.691 223.913 241.192 249.131 233.207 248.471L234.612 190.479L243.667 188.999Z" fill="#CE5CEA"/>
<path d="M226.613 218.895C226.676 222.588 230.697 225.481 235.502 225.287L277.096 224.554C281.171 224.389 284.371 221.768 284.317 218.638C284.264 215.507 280.981 213.003 276.901 212.984L235.278 212.183C230.469 212.164 226.544 215.197 226.608 218.895H226.613Z" fill="#894415"/>
<path d="M277.64 212.625L287.624 200.399L290.133 201.093L285.966 227.374L273.312 224.467L277.64 212.625Z" fill="#0C0C0C"/>
<path d="M224.939 215.241C222.352 218.555 223.743 224.122 228.013 227.543L258.591 252.013C262.214 254.911 266.839 254.979 269.032 252.169C271.226 249.359 270.19 244.685 266.698 241.623L237.194 215.774C233.07 212.164 227.526 211.921 224.939 215.236V215.241Z" fill="#A05827"/>
<path d="M266.514 242.326L284.098 239.182L285.82 241.72L264.486 258.653L256.18 250.174L266.514 242.326Z" fill="#0C0C0C"/>
<path d="M160.835 196.531C162.026 193.178 160.373 189.46 157.139 188.218L156.546 187.99L147.855 184.67L140.05 181.68L135.722 193.809L153.185 202.836C156.419 204.078 159.643 199.88 160.835 196.531Z" fill="#A05827"/>
<path d="M147.749 198.279L150.054 185.369L144.033 183.088L133.291 190.795L147.749 198.279Z" fill="black"/>
<path d="M117.01 190.402C124.547 183.69 138.952 181.326 144.641 189.528C148.425 194.983 148.833 201.914 146.309 207.708C145.04 210.62 143.027 213.246 140.323 215.26C138.164 216.866 135.781 217.92 133.345 218.439C126.672 219.861 119.232 218.419 115.069 212.411C109.384 204.209 110.765 195.968 117.014 190.407L117.01 190.402Z" fill="black"/>
<path d="M128.481 177.055C128.316 176.818 128.209 176.585 128.146 176.352C127.98 176.478 127.815 176.609 127.655 176.75L127.441 176.939C125.88 178.327 124.319 179.71 122.758 181.098C121.639 182.093 111.942 190.596 113.129 200.254C113.435 202.753 114.174 205.049 115.414 206.587C121.751 213.28 131.472 214.11 137.799 208.485L140.629 205.971L145.074 202.011C150.71 197.007 149.864 187.572 143.741 179.982C140.435 175.876 135.576 173.93 131.496 174.808C133.014 176.997 129.999 179.234 128.481 177.05V177.055Z" fill="#A05827"/>
<path d="M125.489 194.89C125.71 193.967 124.39 192.861 122.541 192.42C120.692 191.978 119.013 192.368 118.792 193.291C118.571 194.214 119.891 195.32 121.74 195.761C123.59 196.203 125.268 195.813 125.489 194.89Z" fill="black"/>
<path d="M124.989 179.569C124.989 179.569 122.47 177.08 120.569 178.434C118.667 179.788 120.486 182.976 118.171 186.005C122.295 182.709 124.989 179.569 124.989 179.569Z" fill="#A05827"/>
<path d="M121.425 184.389C121.425 184.389 123.302 184.491 124.814 185.408C125.374 185.743 125.87 186.189 126.205 186.776C127.475 188.965 126.021 192.319 126.021 192.319C126.021 192.319 122.5 192.13 121.23 189.941C121.206 189.907 121.196 189.863 121.172 189.829C120.024 187.631 121.43 184.389 121.43 184.389H121.425Z" fill="#F4F4F4"/>
<path d="M121.425 184.389C121.425 184.389 123.303 184.491 124.815 185.408C125.296 186.529 125.15 187.883 124.334 188.868C123.526 189.844 122.281 190.174 121.168 189.829C120.02 187.631 121.425 184.389 121.425 184.389Z" fill="black"/>
<path d="M121.425 184.389C121.425 184.389 120.841 187.014 121.755 189.664C122.601 192.12 126.015 192.324 126.015 192.324C126.015 192.324 122.251 192.61 121.031 189.95C119.795 187.271 121.429 184.389 121.429 184.389H121.425Z" fill="black"/>
<path d="M123.409 187.868C124.007 187.422 124.843 187.563 125.271 188.184C125.704 188.805 125.563 189.669 124.965 190.115C124.367 190.562 123.53 190.421 123.102 189.8C122.674 189.179 122.811 188.315 123.409 187.868Z" fill="#F4F4F4"/>
<path d="M111.548 199.929C111.548 199.929 108.124 202.365 106.471 199.22C104.54 202.821 102.25 200.88 101.705 199.623C99.8524 201.385 97.4841 201.283 96.3753 199.385C94.4982 201.763 91.5609 201.016 90.4521 199.123C88.0304 200.244 86.9508 197.74 86.9508 197.74C86.9508 197.74 84.5582 198.249 84.0378 196.381C81.616 197.502 81.1249 195.022 81.1249 195.022C81.1249 195.022 79.2964 196.172 78.1876 194.279C76.3834 194.813 75.2017 194.76 74.657 193.508C72.8529 194.042 71.7733 191.537 71.7733 191.537C71.7733 191.537 65.1547 193.702 66.1516 183.913C66.1516 183.913 67.2361 186.422 69.0111 186.5C70.7861 186.577 73.13 187.296 72.4395 189.727C72.4395 189.727 74.3166 187.349 75.9944 189.882C75.9944 189.882 77.8229 188.732 78.9316 190.625C78.9316 190.625 81.3777 188.888 83.0506 191.421C83.0506 191.421 84.9034 189.659 86.5812 192.193C86.5812 192.193 89.6449 189.868 90.6758 193.605C90.6758 193.605 93.8125 189.441 97.1923 193.891C97.1923 193.891 100.305 190.339 101.929 194.1C101.929 194.1 102.76 190.227 106.437 193.576C106.437 193.576 109.948 189.436 113.843 194.27L111.538 199.929H111.548Z" fill="black"/>
<path d="M125.539 215.43C127.503 215.43 129.094 213.781 129.094 211.746C129.094 209.712 127.503 208.063 125.539 208.063C123.576 208.063 121.984 209.712 121.984 211.746C121.984 213.781 123.576 215.43 125.539 215.43Z" fill="#D43838"/>
<path d="M125.544 211.562C127.344 213.1 127.985 217.08 123.818 217.512C123.818 217.512 125.16 220.953 121.012 220.768C121.012 220.768 120.861 224.452 117.384 222.452C117.384 222.452 117.233 226.136 113.756 224.137C113.756 224.137 113.605 227.82 109.511 226.408C109.511 226.408 109.36 230.091 105.265 228.679C105.265 228.679 103.952 231.693 99.882 229.669C99.882 229.669 99.1866 232.096 95.6852 230.713C95.6852 230.713 94.9898 233.139 92.0817 231.78C92.0817 231.78 90.2046 234.158 87.3452 231.572C87.3452 231.572 84.899 233.309 82.6086 231.363C82.6086 231.363 73.5974 234.037 75.7517 224.913C75.7517 224.913 78.0179 227.471 79.8464 226.325C81.6749 225.175 83.3769 227.097 82.7301 228.296C82.7301 228.296 84.6316 225.306 87.5202 227.277C87.5202 227.277 88.8332 224.263 91.6927 226.845C91.6927 226.845 92.3589 225.029 94.7029 225.748C94.7029 225.748 96.0159 222.734 98.8754 225.316C98.8754 225.316 100.237 221.074 104.283 223.709C104.283 223.709 104.978 221.283 107.887 222.642C107.887 222.642 108.188 218.308 110.741 219.672C110.741 219.672 111.694 216.663 114.014 217.992C114.014 217.992 114.116 215.537 115.891 215.614C115.891 215.614 116.659 211.343 120.112 213.954C120.112 213.954 121.542 208.116 125.554 211.552L125.544 211.562Z" fill="black"/>
<path d="M153.73 192.794C156.293 194.343 159.39 193.736 160.577 191.45L169.087 175.09C170.094 173.153 169.17 170.567 167.001 169.251C164.832 167.936 162.201 168.373 161.068 170.237L151.493 185.956C150.156 188.15 151.167 191.246 153.725 192.799L153.73 192.794Z" fill="#A05827"/>
<path d="M165.426 156.817L172.463 158.385L169.886 173.144C169.511 175.036 167.527 176.201 165.46 175.74C163.393 175.279 158.594 175.405 159.002 173.522L165.421 156.822L165.426 156.817Z" fill="#A05827"/>
<path d="M172.462 158.38L172.773 157.138C172.773 157.138 175.579 156.478 175.735 152.794C175.886 149.111 173.017 148.518 173.017 148.518C173.017 148.518 173.425 150.489 171.665 150.77C169.403 151.134 167.575 145.505 167.575 145.505C167.575 145.505 163.033 144.243 163.986 149.819C164.944 155.395 166.082 153.939 165.425 156.813C170.765 158.108 172.462 158.38 172.462 158.38Z" fill="#A05827"/>
<path d="M152.572 184.544L151.527 186.039C151.527 186.039 157.893 190.329 151.726 201.21C152.363 208.626 158.209 210.727 162.926 211.552C167.638 212.377 181.425 223.438 189.439 230.553C197.453 237.667 211.045 227.17 215.495 224.636C216.876 224.937 217.713 228.422 223.611 229.3C227.774 235.828 230.901 247.437 233.206 248.475C236.995 250.179 241.809 219.657 243.667 188.999C231.772 189.703 202.861 200.103 202.861 200.103C202.861 200.103 191.306 186.815 172.613 186.034C155.427 185.311 152.572 184.549 152.572 184.549V184.544Z" fill="#D37CE8"/>
<path d="M88.3055 229.714C88.3626 227.849 87.0813 226.297 85.4438 226.247C83.8062 226.197 82.4324 227.668 82.3753 229.533C82.3182 231.398 83.5995 232.95 85.237 233C86.8746 233.049 88.2484 231.578 88.3055 229.714Z" fill="#D43838"/>
<path d="M76.5309 191.405C76.5803 189.881 75.5583 188.611 74.2483 188.569C72.9384 188.527 71.8364 189.728 71.7871 191.252C71.7377 192.777 72.7597 194.047 74.0697 194.089C75.3797 194.131 76.4816 192.93 76.5309 191.405Z" fill="#D43838"/>
<path d="M147.748 198.278C147.748 198.278 141.596 203.539 131.87 196.095C131.87 196.095 131.491 194.313 130.037 196.454C128.583 198.594 117.252 205.869 114.164 192.489C114.164 192.489 106.028 205.544 119.762 214.1C133.5 222.656 146.041 206.592 147.743 198.278H147.748Z" fill="black"/>
<path d="M135.314 194.066C134.088 194.876 132.814 195.692 131.973 196.133C131.973 196.133 129.998 199.477 132.556 202.515C135.114 205.558 142.18 200.793 141.125 195.09C141.125 195.09 140.551 192.678 138.815 191.668C138.815 191.668 137.118 192.867 135.309 194.071" fill="#A05827"/>
<path d="M136 195.245C137.08 195.095 138.218 195.289 139.049 195.852C139.258 195.973 139.214 196.318 138.986 196.381C136.875 197.007 135.013 197.483 133.213 198.88C133.092 199.006 132.863 198.963 132.829 198.778C132.576 196.716 134.201 195.498 136 195.24" fill="#894415"/>
<path d="M128.161 175.798C128.161 175.774 130.004 173.085 131.196 176.866L129.956 177.934L128.161 175.803V175.798Z" fill="#F4F4F4"/>
<path d="M126.804 177.822C126.804 177.822 125.505 176.395 126.867 175.604C128.229 174.813 130.179 176.653 130.48 177.279C130.651 177.628 130.544 174.799 131.905 174.008C133.267 173.216 134.342 174.803 133.5 176.167C132.659 177.526 129.479 180.88 126.804 177.822Z" fill="#A05827"/>
<path d="M158.204 201.394C160.66 203.505 163.831 203.7 165.212 201.826L175.079 188.412C176.246 186.825 175.521 184.136 173.435 182.35C171.354 180.564 168.669 180.322 167.381 181.807L156.492 194.347C154.97 196.099 155.743 199.288 158.204 201.399V201.394Z" fill="#A05827"/>
<path d="M228.246 79.1124C228.183 78.6271 228.373 78.1078 228.708 77.7681C229.107 77.3653 229.584 77.3119 230.104 77.2537C230.192 77.2439 230.26 77.3022 230.284 77.375C230.333 77.4187 230.333 77.5012 230.274 77.5546C229.89 77.8894 229.803 78.3553 230.128 78.7679C230.401 79.1124 230.829 79.1513 231.198 79.3163C231.296 79.36 231.281 79.5056 231.189 79.5395C230.59 79.7676 229.555 79.4522 229.311 78.797C229.302 78.7776 229.297 78.7582 229.292 78.7387C229.273 78.8067 229.258 78.8795 229.258 78.9523C229.224 79.656 229.939 80.0394 230.44 80.3112C230.532 80.3646 230.547 80.5296 230.425 80.5636C229.618 80.7868 228.358 79.9715 228.246 79.1027V79.1124Z" fill="#263238"/>
<path d="M229.496 61.6311L208.453 21.461C208.453 21.461 198.625 37.3019 202.846 49.799C207.067 62.2912 220.13 68.5761 220.13 68.5761L229.501 61.6311H229.496Z" fill="#FFCB42"/>
<path d="M229.496 61.6311L208.453 21.461C208.453 21.461 198.625 37.3019 202.846 49.799C207.067 62.2912 220.13 68.5761 220.13 68.5761L229.501 61.6311H229.496Z" fill="#EDAF3E"/>
<path d="M208.454 21.4718C208.454 21.4718 208.459 21.4773 208.464 21.4881L208.454 21.461V21.4718Z" fill="#FFCB42"/>
<path d="M220.13 68.5761L229.501 61.6311L208.478 21.5144C209.067 22.8393 221.638 51.1724 218.676 57.3894C215.69 63.6549 206.081 56.0596 205.779 55.8121C211.265 64.3101 220.135 68.5761 220.135 68.5761H220.13Z" fill="#DDA03E"/>
<path d="M244.124 58.9813L218.393 58.064C218.393 58.064 210.851 52.774 205.642 58.394C200.361 64.0966 205.681 70.561 208.692 72.7693C208.692 72.7693 229.316 92.4248 246.784 62.3203L263.508 53.8999C263.508 53.8999 260.259 52.7497 256.981 54.0407C256.981 54.0407 261.11 49.7456 262.438 45.9795L244.124 58.9813Z" fill="#EDAF3E"/>
<path d="M208.692 72.7693C208.692 72.7693 229.316 92.4248 246.784 62.3203L263.508 53.8999C263.508 53.8999 260.259 52.7497 256.982 54.0407C256.982 54.0407 261.11 49.7407 262.443 45.9795C254.166 59.2919 245.009 60.1654 245.009 60.1654C227.541 90.27 206.275 70.3621 206.275 70.3621C206.192 70.299 206.11 70.2407 206.022 70.1728C206.912 71.2842 207.885 72.1772 208.692 72.7693Z" fill="#DDA03E"/>
<path d="M220.562 61.0779L231.504 16.8019C231.504 16.8019 246.438 30.8811 245.286 44.0673C244.133 57.2535 231.285 65.4458 231.285 65.4458L220.562 61.0827V61.0779Z" fill="#EDAF3E"/>
<path d="M211.654 63.1744C211.984 63.4996 212.184 64.3878 211.523 65.1012C210.861 65.8146 209.947 65.5331 209.699 65.2856C209.295 64.8828 209.164 63.9413 209.752 63.3103C210.341 62.6746 211.25 62.7716 211.659 63.1744H211.654Z" fill="#263238"/>
<path d="M207.919 66.9114L203.979 66.6833L202.175 71.9394L207.919 66.9114Z" fill="#263238"/>
<path d="M207.918 66.9114L206.396 69.8767L204.305 70.0757L207.918 66.9114Z" fill="#263238"/>
<path d="M231.091 76.1811C231.027 75.6958 231.217 75.1765 231.553 74.8368C231.951 74.4339 232.428 74.3806 232.948 74.3223C233.036 74.3126 233.104 74.3709 233.128 74.4436C233.177 74.4873 233.177 74.5698 233.119 74.6232C232.734 74.9581 232.647 75.424 232.973 75.8365C233.245 76.1811 233.673 76.2199 234.043 76.3849C234.14 76.4286 234.125 76.5742 234.033 76.6082C233.435 76.8363 232.399 76.5208 232.156 75.8656C232.146 75.8462 232.141 75.8268 232.136 75.8074C232.117 75.8753 232.102 75.9481 232.102 76.0209C232.068 76.7247 232.783 77.1081 233.284 77.3798C233.376 77.4332 233.391 77.5982 233.269 77.6322C232.462 77.8555 231.203 77.0401 231.091 76.1714V76.1811Z" fill="#263238"/>
<path d="M145.366 -10.6528L147.364 -0.106754L147.715 1.72291L147.836 2.35383L148.721 7.02263L149.091 8.97848L149.3 10.085L149.869 13.0649L150.705 17.4619L150.983 18.9324L151.085 19.4663L151.362 20.9271L151.517 21.7473L153.774 33.6232L153.964 34.6326L154.119 35.4674L154.591 37.9522L155.962 45.1738L156.356 47.2607L156.395 47.4743L157.018 50.7453L158.642 59.2919L158.739 59.7869L159.133 61.8641L159.216 62.296L160.475 68.9207L160.884 71.0706L160.961 71.4734L161.671 75.191L163.198 83.2377L163.66 85.6691L163.67 85.7274L164.375 89.4449L165.717 96.5015L165.897 97.4382L166.257 99.3504L166.355 99.8454L167.886 107.907L168.144 109.251L168.358 110.377L168.771 112.532L169.914 118.564L170.016 119.098L170.401 121.122V121.146L171.641 127.645L172.117 130.154L172.263 130.925L172.832 133.915L174.422 142.282L174.539 142.889L174.797 144.238L175.127 145.966L176.348 152.391L176.368 152.488L176.747 154.498L176.883 155.206L177.924 160.69L178.196 162.132L178.274 162.539L178.804 165.32L179.767 170.402L180.127 172.289L181.007 176.924L181.624 180.166L182.933 187.048L183.001 187.412L183.341 189.193L183.56 190.343L185.247 199.235L185.632 201.254L185.816 202.214L186.332 204.937L187.324 210.164L187.825 212.795L187.878 213.095L185.938 221.103L185.52 222.831L184.839 225.651L184.022 229.033L183.939 229.378L183.487 231.246L181.683 238.686L181.09 241.137L179.728 246.772L181.119 247.131L183.181 247.665L185.437 238.352L186.001 236.012L186.444 234.178L186.911 232.241L188.686 224.913L189.011 223.554L189.109 223.156L189.833 220.176L191.102 214.935L196.729 218.89L197.993 219.778L198.742 220.307L199.486 220.831L207.082 226.175L209.285 227.723L215.053 231.78L215.933 230.436L217.052 228.728L214.571 226.98L212.607 225.597L203.873 219.453L201.996 218.133L200.157 216.837L198.664 215.789L192.391 211.377L191.438 206.369L190.991 204.02L190.918 203.622L190.529 201.579L189.809 197.798L189.293 195.075L188.763 192.28L188.34 190.062L186.911 182.52L186.366 179.647L185.345 174.265L184.965 172.275L184.683 170.775L183.988 167.121L183.414 164.097L183.049 162.175L182.048 156.905L181.984 156.58L181.654 154.842L181.386 153.425L180.307 147.727L180.034 146.296L179.772 144.908L179.66 144.311L178.381 137.574L177.797 134.502V134.493L177.33 132.022L176.154 125.825L175.74 123.65L175.585 122.83L175.346 121.559L174.082 114.92L174.028 114.633L173.63 112.546L173.557 112.163L171.981 103.864L171.908 103.48L171.524 101.452L171.295 100.243L169.681 91.7308L169.355 90.0322L169.136 88.882L168.883 87.5522L167.206 78.729L166.491 74.9532L166.301 73.968L165.893 71.818L164.575 64.8925L164.497 64.4751L164.098 62.3785L163.908 61.369L162.537 54.1523L161.968 51.153L161.725 49.8718L161.326 47.7849L160.164 41.6698L159.541 38.3987L159.259 36.8991L158.9 35.0112L157.708 28.7263L157.076 25.4115L156.366 21.6697L155.987 19.6653L154.878 13.8317L154.863 13.7395L154.328 10.9246L153.57 6.94013L153.37 5.87727L153.074 4.32909L152.743 2.58193L152.514 1.37833L151.872 -2.00922L151.367 -4.66879L150.268 -10.4635L145.395 -10.6771L145.366 -10.6528Z" fill="#C68722"/>
<path d="M148.546 -10.5121L191.204 211.8L215.918 230.436L217.037 228.728L214.557 226.981L212.592 225.597L203.863 219.458L201.986 218.138L200.143 216.842L198.65 215.794L192.381 211.382L191.428 206.374L190.981 204.025L190.908 203.627L190.519 201.584L189.799 197.803L189.283 195.08L188.753 192.285L188.33 190.067L186.896 182.525L186.351 179.652L185.33 174.27L184.951 172.28L184.668 170.78L183.973 167.126V167.121L183.399 164.102L183.034 162.185L182.033 156.91L181.969 156.584L181.639 154.847L181.371 153.43L180.287 147.732L180.015 146.305L179.752 144.917L179.64 144.32L178.361 137.584L177.778 134.512L177.773 134.507L177.306 132.037L176.129 125.834L175.716 123.665L175.56 122.845L175.317 121.573L174.057 114.934L174.004 114.653L173.605 112.566L173.532 112.182L171.957 103.878L171.884 103.5L171.499 101.471L171.271 100.263L169.651 91.7502L169.33 90.0516L169.112 88.9014L168.859 87.5765L167.181 78.7533L166.466 74.9775L166.277 73.9923V73.9874L165.868 71.8423L164.555 64.9168L164.477 64.4994L164.078 62.4028L163.884 61.3982L162.513 54.1814L161.944 51.1821L161.7 49.9009L161.302 47.814L160.144 41.6989L159.522 38.4327V38.4279L159.235 36.9331L158.88 35.0403L157.684 28.7554L157.056 25.4406L156.341 21.6988L155.962 19.6896L154.853 13.8608L154.839 13.7686L154.304 10.9537L153.545 6.96925L153.346 5.90639L153.049 4.35336L152.718 2.61105L152.49 1.4026L151.843 -1.98495L151.337 -4.64452L150.238 -10.4344L148.546 -10.5121Z" fill="#DDA254"/>
<path d="M145.366 -10.6527L147.364 -0.106668L147.715 1.723L147.836 2.35392L148.721 7.02272L149.091 8.97857L149.3 10.0851L149.869 13.065L150.705 17.462L150.983 18.9325L151.085 19.4664L151.362 20.9272L151.517 21.7474L153.774 33.6232L153.964 34.6327L154.119 35.4675L154.591 37.9523L155.962 45.1739L156.356 47.2608L156.395 47.4743L157.018 50.7454L158.642 59.292L158.739 59.787L159.133 61.8642L159.216 62.2961L160.475 68.9208L160.884 71.0707L160.961 71.4735L161.671 75.1911L163.198 83.2378L163.66 85.6692L163.67 85.7275L164.375 89.445L165.717 96.5016L165.897 97.4383L166.257 99.3505L166.355 99.8455L167.886 107.907L168.144 109.251L168.358 110.377L168.771 112.532L169.914 118.564L170.016 119.098L170.401 121.122V121.146L171.641 127.645L172.117 130.154L172.263 130.926L172.832 133.915L174.422 142.282L174.539 142.889L174.797 144.238L175.127 145.966L176.348 152.391L176.368 152.488L176.747 154.498L176.883 155.206L177.924 160.69L178.196 162.132L178.274 162.539L178.804 165.32L179.767 170.402L180.127 172.29L181.007 176.924L181.624 180.166L182.933 187.048L183.001 187.412L183.341 189.193L183.56 190.344L185.247 199.235L185.632 201.254L185.816 202.215L186.332 204.937L187.324 210.164L187.825 212.795L187.878 213.095L185.938 221.103L185.52 222.831L184.839 225.651L184.022 229.033L183.939 229.378L183.487 231.247L181.683 238.687L181.09 241.137L179.728 246.772L181.119 247.131L189.551 212.445L146.494 -10.6042L145.366 -10.6527Z" fill="#A36811"/>
<path d="M172.875 244.36L174.733 248.359L176.372 251.887L224.769 229.441C222.318 228.47 220.402 227.233 219.055 226.189C217.508 224.991 216.706 224.044 216.706 224.044L172.875 244.36Z" fill="#5B2B00"/>
<path d="M172.875 244.36L174.733 248.359L219.055 226.189C217.508 224.991 216.706 224.044 216.706 224.044L172.875 244.36Z" fill="#3F1C00"/>
<path d="M177.34 167.184L184.659 170.809L175.473 187.563C174.806 189.363 172.662 190.183 170.697 189.383C168.733 188.582 166.389 183.991 167.084 182.2L177.33 167.184H177.34Z" fill="#A05827"/>
<path d="M184.508 170.809C184.508 170.809 190.635 169.382 189.449 164.714C188.257 160.045 186.385 157.919 182.276 158.749C182.276 158.749 183.657 161.705 181.206 163.374C178.755 165.048 178.342 160.171 178.342 160.171C178.342 160.171 175.677 159.569 175.774 162.811C175.871 166.053 178.167 168.179 178.167 168.179L184.513 170.809H184.508Z" fill="#A05827"/>
<path d="M187.854 161.889C188.102 162.719 187.971 163.656 187.543 164.403C187.115 165.15 186.41 165.713 185.622 166.009" stroke="#965122" stroke-width="3" stroke-linecap="round" stroke-linejoin="round"/>
<path d="M185.33 158.997C185.68 159.297 185.826 159.783 185.875 160.254C185.957 161.103 185.753 161.976 185.301 162.69C184.848 163.403 184.158 163.947 183.37 164.209" stroke="#965122" stroke-width="3" stroke-linecap="round" stroke-linejoin="round"/>
<path d="M189.04 164.602C189.196 166.723 187.28 168.101 185.938 167.771" stroke="#965122" stroke-width="3" stroke-linecap="round" stroke-linejoin="round"/>
<path d="M165.946 145.854C165.834 147.538 166.598 149.256 167.901 150.27" stroke="#965122" stroke-width="3" stroke-linecap="round" stroke-linejoin="round"/>
<path d="M164.798 147.999C164.968 149.989 166.018 151.882 167.594 153.037" stroke="#965122" stroke-width="3" stroke-linecap="round" stroke-linejoin="round"/>
<path d="M67.8345 122.282L69.4441 123.029L69.449 123.034L70.8641 123.694L72.1091 124.272L109.16 39.0151L112.297 31.8032L113.323 29.4397L116.465 22.2181L126.667 -1.26182L126.76 -1.4705H121.62L114.665 14.5257L111.529 21.7425L110.498 24.1157L107.366 31.3276L67.8345 122.282Z" fill="#C68722"/>
<path d="M67.8345 122.282L69.4441 123.029L69.449 123.034L124.319 -1.4705H121.62L114.665 14.5257L111.529 21.7425L110.498 24.1157L107.366 31.3276L67.8345 122.282Z" fill="#DDA254"/>
<path d="M70.8647 123.694L72.1097 124.272L109.161 39.0151L112.293 31.8032L113.324 29.4348L116.46 22.2181L126.663 -1.26182C126.245 -1.39771 126.007 -1.4705 126.007 -1.4705L70.8599 123.694H70.8647Z" fill="#A36811"/>
<path d="M62.5438 154.575C62.004 152.377 61.8289 150.387 61.8192 148.785C61.7997 146.315 62.1645 144.757 62.1645 144.757L21.388 119.642L19.4282 123.282L17.5024 126.854L62.5389 154.575H62.5438Z" fill="#5B2B00"/>
<path d="M19.4326 123.282L61.8236 148.785C61.8042 146.315 62.1689 144.757 62.1689 144.757L21.3924 119.642L19.4326 123.282Z" fill="#421E00"/>
<path d="M69.653 123.505C65.5973 125.053 63.1171 128.465 64.1675 131.047L71.6955 149.528C72.5854 151.717 76.0333 152.416 79.4666 151.1C82.9048 149.79 85.0883 146.941 84.3929 144.68L78.5475 125.558C77.7305 122.884 73.7039 121.957 69.6482 123.505H69.653Z" fill="#663300"/>
<path d="M55.1367 81.4274L60.452 85.0965C63.9631 87.5134 65.5387 91.7502 63.7831 94.0458C62.4166 95.8318 59.4307 95.8512 56.6491 94.0846L50.2056 90.0322L55.1415 81.4274H55.1367Z" fill="#663300"/>
<path fill-rule="evenodd" clip-rule="evenodd" d="M93.7252 79.9812C94.051 81.01 93.0492 81.7041 93.0492 81.7041C93.0492 81.7041 93.4966 81.9176 93.1416 82.7621C92.7866 83.6065 92.1885 83.8395 92.1885 83.8395C92.1885 83.8395 92.5532 84.2666 92.2128 84.9315C91.8724 85.5963 91.1624 85.9215 91.1624 85.9215C91.1624 85.9215 91.7362 86.5913 90.5594 87.7609C89.3825 88.9305 88.123 88.3918 88.123 88.3918C88.123 88.3918 86.0562 88.9305 85.069 87.2804C84.0818 85.6303 84.6994 84.121 85.4094 82.4369C85.424 82.4029 85.4386 82.3738 85.4532 82.3398C86.2702 80.481 88.0306 79.0445 89.8153 78.7484C89.8153 78.7484 93.4042 78.9474 93.7349 79.9763L93.7252 79.9812Z" fill="#663300"/>
<path fill-rule="evenodd" clip-rule="evenodd" d="M89.4455 86.3243C89.6984 86.3583 89.9513 86.3631 90.2041 86.3437C90.35 86.3292 90.4959 86.3098 90.6321 86.2515C90.7877 86.1836 90.919 86.0671 91.0357 85.9458C91.3567 85.6109 91.5998 85.1741 91.5901 84.7179C91.5804 84.3248 91.308 84.0045 90.9822 83.7473C91.0357 83.7327 91.0892 83.723 91.1427 83.7036C91.7165 83.5143 92.1591 82.9902 92.3536 82.4126C92.4071 82.2622 92.4411 82.102 92.412 81.9467C92.3633 81.7041 92.1639 81.5439 91.95 81.4129C92.0861 81.4129 92.2223 81.3934 92.3487 81.3352C92.5043 81.2624 92.6308 81.1362 92.7524 81.01C92.8739 80.8742 92.9955 80.7286 93.0879 80.5732C93.1803 80.4179 93.2533 80.2481 93.2776 80.0734C93.297 79.9375 93.2824 79.8016 93.2484 79.6754C93.2144 79.5492 93.156 79.4279 93.0831 79.3163C93.0101 79.2046 92.9274 79.1076 92.8302 79.0154C92.7378 78.9232 92.6356 78.8455 92.5384 78.7678C92.4411 78.695 92.3439 78.632 92.2515 78.5689C92.1542 78.5058 92.0618 78.4524 91.9597 78.399C91.8624 78.3456 91.7603 78.2971 91.6533 78.2486C91.5463 78.2 91.4345 78.1563 91.3129 78.1127C91.2546 78.0933 91.1913 78.069 91.1281 78.0496C91.0649 78.0302 90.9968 78.0107 90.9287 77.9913C90.8606 77.9719 90.7926 77.9525 90.7196 77.9379C90.6467 77.9185 90.5737 77.904 90.5008 77.8894C90.3792 77.8651 90.2528 77.8409 90.1312 77.8215C90.0096 77.8021 89.888 77.7778 89.7665 77.7584C89.6498 77.739 89.533 77.7196 89.4212 77.7001C89.3093 77.6807 89.1975 77.6662 89.0905 77.6516C88.9835 77.6371 88.8717 77.6273 88.7647 77.6128C88.6577 77.5982 88.5507 77.5885 88.4437 77.574C87.8358 77.4963 87.2766 77.4138 86.6541 77.5157C86.2748 77.5788 85.8226 77.7729 85.5843 78.0932C85.0396 78.8309 86.163 79.3745 86.6784 79.5978C87.1988 79.821 87.7386 79.9617 88.2735 80.1316C88.1276 80.1122 87.9817 80.0928 87.8358 80.0734C87.6121 80.0491 87.3933 80.0297 87.1745 80.0103C86.9556 79.9957 86.7417 79.9812 86.5326 79.9763C86.3234 79.9714 86.1143 79.9666 85.9052 79.9763C85.701 79.9763 85.4967 79.9909 85.2973 80.0054C85.098 80.02 84.8986 80.0442 84.7041 80.0734C84.4414 80.117 84.1059 80.1704 83.7947 80.2869C83.4786 80.4082 83.1917 80.5927 83.0458 80.8839C82.8853 81.209 82.9777 81.607 83.1868 81.8836C83.4008 82.17 83.712 82.3787 84.033 82.5631C83.8044 82.6698 83.6001 82.8494 83.5078 83.0872C83.3716 83.4318 83.5078 83.8298 83.7655 84.0773C84.0184 84.3296 84.3685 84.4558 84.7138 84.548C85.3557 84.7179 86.0219 84.781 86.6736 84.9169C87.1113 85.0091 87.5441 85.1353 87.9331 85.3488C88.0936 85.4362 88.2784 85.5187 88.4 85.6546C88.4437 85.708 88.4875 85.7613 88.5264 85.8099C88.2006 85.674 87.8602 85.5624 87.51 85.4944C87.1988 85.4313 86.8827 85.3974 86.5666 85.3634C86.1435 85.3197 85.7204 85.2712 85.2973 85.3003C85.025 85.3149 84.7478 85.3634 84.5095 85.4993C84.2712 85.6352 84.0719 85.873 84.0378 86.1448C83.9892 86.5282 84.2712 86.863 84.5728 87.0911C85.1563 87.5279 85.8663 87.7512 86.5666 87.9744C87.0383 88.1249 87.51 88.2705 87.9817 88.4209L90.2722 87.0135C90.0193 86.7514 89.7421 86.5136 89.4406 86.3098L89.4455 86.3243Z" fill="#663300"/>
<path fill-rule="evenodd" clip-rule="evenodd" d="M84.3976 81.6944C84.4316 81.6944 84.4657 81.6944 84.4949 81.6798C84.5143 81.6701 84.524 81.6507 84.5338 81.6313C84.6942 81.3595 84.7186 81.0295 84.7283 80.7189C84.7283 80.617 84.7283 80.5102 84.6651 80.4325C84.6651 80.4325 83.4299 80.3209 83.3472 80.8936C83.2256 81.6847 84.0815 81.675 84.3976 81.6944Z" fill="#994D10"/>
<path fill-rule="evenodd" clip-rule="evenodd" d="M85.1564 84.0336C85.1904 84.0336 85.2245 84.0336 85.2536 84.019C85.2731 84.0093 85.2828 83.9899 85.2926 83.9705C85.453 83.6987 85.4773 83.3687 85.4871 83.0581C85.4871 82.9562 85.4871 82.8494 85.4239 82.7718C85.4239 82.7718 84.1886 82.6601 84.106 83.2328C83.9844 84.0239 84.8403 84.0142 85.1564 84.0336Z" fill="#994D10"/>
<path fill-rule="evenodd" clip-rule="evenodd" d="M85.5748 86.9407C85.6089 86.9407 85.6429 86.9407 85.6721 86.9262C85.6916 86.9164 85.7013 86.897 85.711 86.8776C85.8715 86.6058 85.8958 86.2758 85.9055 85.9652C85.9055 85.8633 85.9055 85.7565 85.8423 85.6789C85.8423 85.6789 84.6071 85.5672 84.5244 86.1399C84.4029 86.931 85.2587 86.9213 85.5748 86.9407Z" fill="#994D10"/>
<path fill-rule="evenodd" clip-rule="evenodd" d="M86.9992 79.0251C87.0332 79.0251 87.0672 79.0251 87.0964 79.0105C87.1159 79.0008 87.1256 78.9814 87.1353 78.962C87.2958 78.6902 87.3201 78.3602 87.3298 78.0496C87.3298 77.9477 87.3298 77.8409 87.2666 77.7633C87.2666 77.7633 86.0314 77.6516 85.9487 78.2243C85.8272 79.0154 86.6831 79.0057 86.9992 79.0251Z" fill="#994D10"/>
<path d="M92.2321 81.6701C91.5513 81.2964 90.8607 80.9372 90.1264 80.6703C89.3921 80.4034 88.6286 80.2675 87.8505 80.1753C87.087 80.0879 86.3186 80.0394 85.5454 80.0782C85.171 80.0976 84.8014 80.1413 84.4318 80.2093C84.0816 80.2724 83.7121 80.3597 83.4203 80.583C83.2744 80.6946 83.1479 80.8499 83.109 81.0343C83.075 81.1945 83.1042 81.3546 83.1625 81.5002C83.3181 81.8885 83.7023 82.1214 84.0379 82.3301C84.1108 82.3738 84.1497 82.4515 84.1108 82.5388C84.0768 82.6116 83.9698 82.665 83.9017 82.6213C83.5564 82.4078 83.182 82.1845 82.968 81.8254C82.7978 81.5439 82.7249 81.1945 82.8367 80.8645C83.1042 80.0782 84.1254 79.9278 84.816 79.8307C85.6573 79.7142 86.5083 79.7385 87.3447 79.8064C88.1812 79.8744 89.0176 79.986 89.8152 80.2287C90.7197 80.5005 91.5513 80.9324 92.378 81.3789C92.553 81.476 92.4169 81.7672 92.2418 81.6701H92.2321Z" fill="#5B2B00"/>
<path d="M91.3326 84.2957C90.0634 82.8348 88.016 82.4466 86.1292 82.4417C85.6477 82.4417 85.1614 82.4466 84.6751 82.4951C84.2715 82.5339 83.7074 82.6795 83.6004 83.1503C83.508 83.5483 83.7852 83.9074 84.1061 84.0918C84.5195 84.3296 85.0253 84.4121 85.497 84.4898C86.5571 84.6742 87.7097 84.7907 88.5364 85.5284C88.6871 85.6594 88.478 85.9118 88.3321 85.7808C87.554 85.0916 86.4696 84.9848 85.4727 84.815C84.9669 84.7276 84.4174 84.6402 83.97 84.3879C83.5907 84.1743 83.2794 83.8055 83.2697 83.3444C83.26 82.8348 83.6539 82.4369 84.1207 82.2864C84.3688 82.2088 84.6216 82.1797 84.8745 82.1651C85.1274 82.1505 85.39 82.1408 85.6477 82.136C86.669 82.1117 87.7048 82.1603 88.6871 82.4126C89.7959 82.699 90.8366 83.2425 91.5903 84.1064C91.7216 84.2568 91.459 84.4461 91.3277 84.3005L91.3326 84.2957Z" fill="#5B2B00"/>
<path d="M90.1362 87.0766C89.6255 86.5427 89.0031 86.1205 88.3077 85.8487C87.6123 85.5769 86.8099 85.4847 86.0318 85.4168C85.6573 85.3877 85.2731 85.3682 84.8987 85.4459C84.5972 85.509 84.2616 85.6983 84.1692 86.0186C84.0866 86.3195 84.2811 86.5913 84.4853 86.7805C84.7528 87.0232 85.0786 87.1979 85.4093 87.3435C85.8032 87.5182 86.2214 87.6493 86.6348 87.7754C87.0919 87.921 87.2183 87.9647 87.6803 88.1055C87.763 88.1297 87.7873 88.2413 87.7533 88.3141C87.7144 88.4015 87.622 88.4209 87.5442 88.3967C87.1016 88.2559 86.9995 88.2219 86.557 88.0812C86.1582 87.955 85.7594 87.8337 85.3753 87.6735C84.9911 87.5134 84.6312 87.3241 84.3297 87.062C84.0817 86.8485 83.8531 86.5573 83.8434 86.2078C83.8288 85.8341 84.0671 85.4896 84.3881 85.3051C84.7431 85.1013 85.1516 85.0625 85.5455 85.0673C85.9783 85.0673 86.4111 85.1207 86.839 85.1693C87.2621 85.2178 87.6755 85.2906 88.0791 85.4168C88.9399 85.6837 89.7228 86.1739 90.3453 86.8194C90.4036 86.8776 90.4231 86.9698 90.3647 87.0426C90.3161 87.1057 90.1994 87.13 90.141 87.0717L90.1362 87.0766Z" fill="#5B2B00"/>
<path d="M89.2028 77.7875C88.9888 77.7293 88.7602 77.7002 88.5414 77.6759C88.2496 77.6419 87.9578 77.6177 87.6661 77.5982C87.1263 77.5691 86.5524 77.5254 86.0467 77.8069C85.8959 77.8943 85.75 78.0059 85.6528 78.1515C85.609 78.2146 85.5798 78.2874 85.5701 78.3602C85.5701 78.3699 85.5701 78.3845 85.5701 78.3942C85.5701 78.3602 85.5701 78.3893 85.5701 78.3942C85.5701 78.4136 85.5701 78.433 85.5701 78.4476C85.5701 78.4573 85.5701 78.467 85.5701 78.4767C85.575 78.5204 85.5652 78.4573 85.5701 78.4815C85.575 78.5009 85.5798 78.5203 85.5896 78.5398C85.6187 78.6174 85.6479 78.666 85.716 78.7436C85.9786 79.0591 86.4503 79.2726 86.8491 79.4328C87.2673 79.6026 87.6952 79.7337 88.1281 79.8695C88.2107 79.8938 88.235 80.0054 88.201 80.0782C88.1621 80.1656 88.0697 80.185 87.9919 80.1607C87.5931 80.0346 87.1895 79.9132 86.8004 79.7579C86.3385 79.5735 85.8424 79.3551 85.502 78.9814C85.3707 78.8407 85.2637 78.6562 85.254 78.4524C85.2394 78.1952 85.3756 77.9574 85.5604 77.7778C85.8473 77.4963 86.2461 77.3313 86.6302 77.2779C86.8783 77.244 87.1311 77.2537 87.3791 77.2585C87.7341 77.2682 88.0843 77.2925 88.4344 77.3313C88.7116 77.3604 88.9937 77.3896 89.266 77.4624C89.3487 77.4866 89.407 77.5497 89.3924 77.6419C89.3779 77.7196 89.2903 77.7972 89.2076 77.7778L89.2028 77.7875Z" fill="#5B2B00"/>
<path d="M33.7785 66.6008C49.3936 66.6008 62.0521 54.1547 62.0521 38.8015C62.0521 23.4484 49.3936 11.0023 33.7785 11.0023C18.1634 11.0023 5.50488 23.4484 5.50488 38.8015C5.50488 54.1547 18.1634 66.6008 33.7785 66.6008Z" fill="#0C0C0C"/>
<path d="M26.5229 59.0492V68.0471C26.5229 68.5955 26.5862 69.1245 26.7029 69.6341C27.3934 72.58 29.9562 74.7737 33.0102 74.7737H33.3555C36.9395 74.7737 39.8476 71.7647 39.8476 68.0519V59.0541H26.5229V59.0492Z" fill="#663300"/>
<path d="M26.5229 63.2181V68.0471C26.5229 68.5955 26.5862 69.1245 26.7029 69.6341L39.8476 63.6112L26.5229 63.2181Z" fill="#0C0C0C"/>
<path d="M33.9492 62.3494C43.0378 62.3494 50.4056 55.1051 50.4056 46.1688C50.4056 37.2324 43.0378 29.9881 33.9492 29.9881C24.8605 29.9881 17.4927 37.2324 17.4927 46.1688C17.4927 55.1051 24.8605 62.3494 33.9492 62.3494Z" fill="white"/>
<path d="M47.1328 50.6337C47.1328 50.6337 48.4848 48.5177 51.2761 49.5563C54.0675 50.5949 52.8031 57.2584 48.6161 58.1077C48.6161 58.1077 47.1134 58.428 45.9365 57.4185C45.9365 57.4185 46.9675 52.4973 47.128 50.6289L47.1328 50.6337Z" fill="#663300"/>
<path d="M20.6145 50.6337C20.6145 50.6337 19.2626 48.5177 16.4712 49.5563C13.6798 50.5949 14.9442 57.2584 19.1313 58.1077C19.1313 58.1077 20.634 58.428 21.8108 57.4185C21.8108 57.4185 20.7798 52.4973 20.6194 50.6289L20.6145 50.6337Z" fill="#663300"/>
<path d="M16.3248 52.5459C17.9248 51.2258 20.0791 53.2205 20.0596 54.9142C20.0694 55.0695 19.8748 55.1569 19.7581 55.055C18.6834 54.128 17.7789 53.2836 16.4075 52.7837C16.2957 52.7594 16.2422 52.6235 16.3248 52.541V52.5459Z" fill="#421E00"/>
<path d="M51.0423 52.5459C49.4423 51.2258 47.288 53.2205 47.3075 54.9142C47.2978 55.0695 47.4923 55.1569 47.609 55.055C48.6837 54.128 49.5882 53.2836 50.9596 52.7837C51.0715 52.7594 51.125 52.6235 51.0423 52.541V52.5459Z" fill="#421E00"/>
<path d="M47.8571 46.3241C47.8571 46.8628 47.8425 47.484 47.8133 48.1634C47.7841 48.7507 47.7452 49.3816 47.682 50.0465C47.6431 50.425 47.5993 50.8036 47.5507 51.1967C47.2006 53.8951 46.4808 56.8798 45.0511 59.156C42.7704 62.7716 39.0112 64.7178 34.0704 64.8343C29.1344 64.9507 25.4531 63.4511 22.5061 58.758C21.0569 56.4527 20.3518 53.4243 20.0163 50.9395C19.9628 50.5464 19.919 50.163 19.8801 49.799C19.8266 49.2651 19.7877 48.7749 19.7585 48.3381C19.7002 47.3287 19.6953 46.6298 19.7002 46.4357V46.3823C19.7002 46.3823 19.7002 46.2076 19.7293 45.9067C19.7488 45.664 19.7877 45.3389 19.8606 44.9554C19.919 44.6206 20.0017 44.2469 20.1184 43.8392C20.2691 43.3054 20.4734 42.723 20.7554 42.1115C21.1104 41.3446 21.587 40.539 22.2289 39.7576C22.4575 39.4762 22.7055 39.1995 22.9827 38.9277C23.3474 38.5589 23.7656 38.2046 24.2228 37.8746C24.6896 37.5349 25.21 37.2194 25.7838 36.9234C26.0124 36.8069 26.2507 36.7001 26.4938 36.5933C26.5765 36.5545 26.6591 36.5205 26.7467 36.4866C26.771 36.472 26.7953 36.4672 26.8245 36.4575C26.8245 36.4575 26.8294 36.4575 26.8342 36.4575C26.9461 36.4089 27.0676 36.3652 27.1844 36.3216C28.2883 35.9187 29.5526 35.613 31.0067 35.448C31.0261 35.448 31.0456 35.4431 31.065 35.4431C31.6778 35.3703 32.3246 35.3266 33.0054 35.3121C33.1464 35.3121 33.2923 35.3072 33.4382 35.3072H33.4771C33.5257 35.3072 33.5792 35.3072 33.6279 35.3072C33.7494 35.3072 33.8662 35.3072 33.9877 35.3072C33.9926 35.3072 34.0023 35.3072 34.012 35.3072C34.6345 35.3121 35.2229 35.3412 35.7919 35.3897C36.1518 35.4189 36.497 35.4577 36.8375 35.5014C36.8423 35.5014 36.8521 35.5014 36.8618 35.5014C38.4277 35.7052 39.7699 36.0546 40.9175 36.5205C40.9856 36.5448 41.0537 36.5739 41.1218 36.603C41.3552 36.7001 41.5789 36.7972 41.7977 36.9088C41.8123 36.9137 41.8221 36.9234 41.8367 36.9282C41.9534 36.9865 42.0701 37.0398 42.1819 37.1029C42.8287 37.4378 43.4025 37.8164 43.9083 38.2192C44.0493 38.3308 44.1855 38.4424 44.3119 38.554C44.38 38.6123 44.4432 38.6705 44.5065 38.7288C44.5697 38.787 44.6329 38.8452 44.6912 38.8986C44.7496 38.9569 44.8128 39.0151 44.8712 39.0782C44.9587 39.1704 45.0414 39.2578 45.1241 39.3451C45.2019 39.4276 45.2845 39.515 45.3575 39.6072C45.3575 39.6072 45.3591 39.6088 45.3623 39.612C45.4742 39.7479 45.586 39.8838 45.693 40.0197C45.7563 40.1022 45.8146 40.1799 45.873 40.2624C45.9508 40.3691 46.0286 40.4808 46.0967 40.5875C46.155 40.6798 46.2182 40.772 46.2717 40.8593C46.3155 40.9321 46.3593 41.0001 46.3982 41.0729C46.5927 41.398 46.758 41.7232 46.8991 42.0387C47.1276 42.5482 47.3027 43.0384 47.434 43.4946C47.4875 43.6742 47.5313 43.8489 47.575 44.0188C47.5896 44.0819 47.6042 44.145 47.6188 44.2129C47.6431 44.3245 47.6674 44.4362 47.6869 44.5429C47.7355 44.8001 47.7744 45.0428 47.7987 45.2515C47.8182 45.4116 47.8328 45.5572 47.8376 45.6883C47.8376 45.7465 47.8425 45.7951 47.8474 45.8436C47.8474 45.8727 47.8474 45.897 47.8474 45.9261C47.8474 45.9795 47.8522 46.028 47.8522 46.0668C47.8522 46.1057 47.8522 46.1493 47.8522 46.1785C47.8522 46.2707 47.8522 46.3192 47.8522 46.3192L47.8571 46.3241Z" fill="#663300"/>
<path d="M22.5591 45.6494V45.698C22.5591 46.5279 22.3354 47.2995 21.9366 47.9644C21.4601 48.7652 20.7452 49.4107 19.8747 49.799C19.8212 49.2651 19.7823 48.7749 19.7531 48.3381C19.6948 47.3287 19.6899 46.6298 19.6948 46.4357V46.3823C19.6948 46.3823 19.6948 46.2076 19.724 45.9067C19.7434 45.664 19.7823 45.3388 19.8553 44.9554C19.9136 44.6206 19.9963 44.2469 20.113 43.8392C20.2638 43.3053 20.468 42.723 20.7501 42.1115C21.1002 42.3687 21.4114 42.6793 21.6692 43.0336C21.9318 43.383 22.1409 43.7664 22.2916 44.1789C22.457 44.64 22.5494 45.135 22.5591 45.6494Z" fill="#0C0C0C"/>
<path d="M47.857 46.324C47.857 46.8628 47.8424 47.484 47.8132 48.1634C47.784 48.7507 47.7451 49.3816 47.6819 50.0465C47.0157 49.6097 46.4613 49.0273 46.0576 48.343C45.6005 47.5762 45.3428 46.6832 45.3428 45.7271C45.3428 45.5621 45.3476 45.4019 45.3671 45.2418C45.4157 44.7176 45.547 44.2129 45.7415 43.747C46.009 43.1015 46.4078 42.5191 46.8989 42.0387C47.1275 42.5482 47.3026 43.0384 47.4339 43.4946C47.4874 43.6742 47.5311 43.8489 47.5749 44.0188C47.5895 44.0819 47.6041 44.1449 47.6187 44.2129C47.643 44.3245 47.6673 44.4361 47.6868 44.5429C47.7354 44.8001 47.7743 45.0428 47.7986 45.2515C47.8181 45.4116 47.8326 45.5572 47.8375 45.6883C47.8375 45.7465 47.8424 45.795 47.8472 45.8436C47.8472 45.8727 47.8472 45.897 47.8472 45.9261C47.8472 45.9795 47.8521 46.028 47.8521 46.0668C47.8521 46.1057 47.8521 46.1493 47.8521 46.1785C47.8521 46.2707 47.8521 46.3192 47.8521 46.3192L47.857 46.324Z" fill="#0C0C0C"/>
<path d="M26.353 39.6217C26.353 40.2333 26.2654 40.8205 26.1147 41.3835C26.1098 41.4126 26.1001 41.4417 26.0903 41.466C26.0806 41.5145 26.066 41.5679 26.0514 41.6116C26.0028 41.762 25.9542 41.9076 25.891 42.0532C25.2782 43.6208 24.0819 44.9069 22.5647 45.6495C22.3166 45.7756 22.054 45.8824 21.7866 45.9746C21.7185 46.0037 21.6407 46.0232 21.5726 46.0474C21.0814 46.2027 20.566 46.2949 20.0359 46.3386C19.9435 46.3483 19.8511 46.3532 19.7587 46.358C19.749 46.1979 19.7441 46.0426 19.7344 45.9018C19.7538 45.6592 19.7927 45.334 19.8657 44.9506C19.924 44.6157 20.0067 44.242 20.1234 43.8343C20.2742 43.3005 20.4784 42.7181 20.7605 42.1066C21.1155 41.3398 21.5921 40.5342 22.234 39.7528C22.4625 39.4713 22.7105 39.1947 22.9877 38.9229C23.3525 38.554 23.7707 38.1998 24.2278 37.8697C24.6947 37.53 25.215 37.2145 25.7888 36.9185C25.7986 36.9379 25.8083 36.9573 25.8132 36.9767C26.1682 37.7872 26.3627 38.6754 26.3627 39.6169L26.353 39.6217Z" fill="#0C0C0C"/>
<path d="M35.7285 35.4674V35.5159C35.7285 36.8797 35.3054 38.1512 34.5808 39.2044C34.3133 39.5975 34.0021 39.9566 33.6568 40.2818C33.5985 40.3352 33.545 40.3886 33.4866 40.4419C32.3 41.4902 30.7244 42.126 29.0126 42.126C28.4923 42.126 27.9865 42.0678 27.5051 41.9561C27.3592 41.9222 27.2182 41.8833 27.0771 41.8445C27.0431 41.8348 27.0139 41.8251 26.9799 41.8203C25.4724 41.3495 24.1885 40.3643 23.3569 39.0782C23.5515 38.8404 23.7606 38.6026 23.994 38.3745C24.3052 38.0639 24.6554 37.763 25.0444 37.4815C25.5988 37.0835 26.2358 36.7147 26.9653 36.3992C27.0334 36.3652 27.1063 36.3361 27.1793 36.3118C27.3008 36.2585 27.4224 36.2148 27.5489 36.1662C28.4826 35.8265 29.5524 35.5644 30.7828 35.4286C30.7974 35.4286 30.8168 35.4237 30.8314 35.4237C31.3469 35.3606 31.8964 35.3266 32.4702 35.3121C32.6453 35.3072 32.8204 35.3024 33.0003 35.3024C33.6471 35.3024 34.255 35.3266 34.8337 35.3752C35.1352 35.3994 35.4318 35.4334 35.7187 35.4722C35.7236 35.4722 35.7333 35.4722 35.7382 35.4722L35.7285 35.4674Z" fill="#0C0C0C"/>
<path d="M45.1928 39.9518C43.7873 41.2912 41.8762 42.1163 39.7705 42.1212H39.6927C39.5127 42.1212 39.3328 42.1114 39.1577 42.0969C37.6648 41.9901 36.2886 41.4708 35.1457 40.6555C35.0631 40.5972 34.9853 40.539 34.9123 40.4808C34.6886 40.306 34.4795 40.1265 34.2753 39.9323C33.0401 38.753 32.1988 37.1806 31.9653 35.4188C32.5003 35.3509 33.0741 35.3169 33.6723 35.3024C33.8522 35.2975 34.037 35.2927 34.2218 35.2927C34.8929 35.2927 35.5251 35.3169 36.1281 35.3703C36.4442 35.3994 36.7505 35.4286 37.0472 35.4674C37.0521 35.4674 37.0618 35.4674 37.0666 35.4674C38.4429 35.6469 39.6246 35.9527 40.6361 36.3652C40.6993 36.3895 40.7577 36.4138 40.816 36.438C41.7838 36.836 42.591 37.3213 43.267 37.8552C43.3886 37.9522 43.5102 38.0541 43.622 38.1512C43.6804 38.2046 43.7339 38.2531 43.7922 38.3065C43.8457 38.3599 43.9041 38.4084 43.9527 38.457C44.0062 38.5104 44.0597 38.5589 44.1132 38.6171C44.191 38.6948 44.2639 38.7724 44.3369 38.8549C44.4049 38.9277 44.4779 39.0054 44.5411 39.083C44.5411 39.083 44.5427 39.0847 44.546 39.0879C44.6481 39.2092 44.7454 39.3257 44.8378 39.447C44.8913 39.5198 44.9447 39.5878 44.9982 39.6606C45.0663 39.7576 45.1344 39.8498 45.1976 39.9469L45.1928 39.9518Z" fill="#0C0C0C"/>
<path d="M47.7936 45.2515C47.4094 45.3388 47.0106 45.3825 46.5973 45.3825H46.4952C46.1061 45.3777 45.7268 45.3243 45.3621 45.2418C43.5919 44.8341 42.1622 43.5674 41.5495 41.9125C41.4862 41.7426 41.4327 41.5727 41.389 41.398C41.3744 41.3349 41.3598 41.2718 41.3452 41.2088C41.2674 40.8496 41.2236 40.4808 41.2236 40.1022C41.2236 39.9809 41.2285 39.8547 41.2382 39.7334C41.3063 38.7676 41.6419 37.8649 42.1671 37.1126C42.1719 37.1078 42.1768 37.1029 42.1816 37.0981C42.8284 37.4329 43.4023 37.8115 43.908 38.2143C44.0491 38.3259 44.1852 38.4376 44.3117 38.5492C44.3797 38.6074 44.443 38.6657 44.5062 38.7239C44.5694 38.7821 44.6326 38.8404 44.691 38.8938C44.7493 38.952 44.8125 39.0102 44.8709 39.0733C44.9584 39.1655 45.0411 39.2529 45.1238 39.3403C45.2016 39.4228 45.2843 39.5101 45.3572 39.6023C45.3572 39.6023 45.3588 39.6039 45.3621 39.6072C45.4739 39.7431 45.5858 39.879 45.6928 40.0149C45.756 40.0974 45.8143 40.175 45.8727 40.2575C45.9505 40.3643 46.0283 40.4759 46.0964 40.5827C46.1547 40.6749 46.218 40.7671 46.2715 40.8545C46.3152 40.9273 46.359 40.9952 46.3979 41.068C46.5924 41.3932 46.7578 41.7183 46.8988 42.0338C47.1273 42.5434 47.3024 43.0336 47.4337 43.4898C47.4872 43.6693 47.531 43.8441 47.5747 44.0139C47.5893 44.077 47.6039 44.1401 47.6185 44.208C47.6428 44.3197 47.6671 44.4313 47.6866 44.5381C47.7352 44.7953 47.7741 45.0379 47.7984 45.2466L47.7936 45.2515Z" fill="#0C0C0C"/>
<path d="M28.3229 46.0805C29.5477 45.6225 30.3588 44.767 30.1345 44.1696C29.9102 43.5722 28.7355 43.4593 27.5107 43.9173C26.2859 44.3752 25.4748 45.2308 25.6991 45.8282C25.9233 46.4255 27.0981 46.5385 28.3229 46.0805Z" fill="#0C0C0C"/>
<path d="M41.6789 45.6643C41.9081 45.0688 41.1041 44.2067 39.8831 43.7387C38.662 43.2707 37.4864 43.374 37.2572 43.9696C37.0281 44.5651 37.8321 45.4272 39.0531 45.8952C40.2741 46.3632 41.4498 46.2599 41.6789 45.6643Z" fill="#0C0C0C"/>
<path d="M34.7605 32.4778C34.7605 32.4778 33.9921 28.0371 35.5288 25.0087C37.4302 21.2765 42.4003 20.3399 42.4003 20.3399C42.4003 20.3399 43.8932 25.1057 41.5444 28.4302C39.1955 31.7546 34.7605 32.4778 34.7605 32.4778Z" fill="white"/>
<path d="M30.9777 22.1016C30.9777 22.3006 27.5201 28.3089 34.7417 30.3036C32.4026 26.2996 30.9777 22.1016 30.9777 22.1016Z" fill="white"/>
<path d="M35.9232 53.2593C37.2313 54.2979 35.6946 55.4772 34.5956 55.7102C33.4333 56.0257 32.0765 55.8606 31.1234 55.0841C30.7829 54.8172 30.5447 54.2882 30.7489 53.8757C30.8559 53.599 31.099 53.4146 31.3325 53.269C31.3665 53.2448 31.4151 53.2545 31.4395 53.2884C31.4589 53.3175 31.454 53.3467 31.4395 53.3758C31.2838 53.667 31.172 53.9727 31.2547 54.1523C31.916 55.1035 35.0916 55.0113 35.8162 54.1377C35.9426 53.9824 35.894 53.6913 35.7724 53.3855C35.7189 53.2933 35.8454 53.2011 35.9232 53.2642V53.2593Z" fill="#421E00"/>
<path d="M32.5483 53.3418C32.5483 53.3418 33.4334 52.41 34.902 53.3418C33.1319 53.8223 32.5483 53.3418 32.5483 53.3418Z" fill="#753800"/>
<path d="M28.2153 59.287C28.2153 59.287 29.7229 63.6986 33.5112 63.6986C37.2995 63.6986 38.807 59.3016 38.807 59.3016L33.5841 61.2963L28.2153 59.287Z" fill="#9B4600"/>
<path d="M33.4189 56.5257C30.2872 56.5791 27.5396 58.2292 27.5396 58.2292C27.5396 58.2292 29.2708 62.1991 33.5113 62.1991C37.7519 62.1991 39.4588 58.3311 39.4588 58.3311C39.4588 58.3311 36.5507 56.5743 33.4189 56.5257Z" fill="#0C0C0C"/>
<path d="M38.5393 58.1465C38.4518 58.2727 36.5358 60.0053 34.1675 60.4761L32.9857 59.2336L32.8544 60.5294C30.3062 60.214 28.5798 58.1222 28.5215 58.0397C28.6528 58.1125 30.6661 58.5202 33.4769 58.5202C36.2877 58.5202 38.4177 58.2242 38.5442 58.1514L38.5393 58.1465Z" fill="white"/>
<path d="M30.7583 61.6457C30.7583 61.6457 33.1558 60.7575 36.1708 61.6457C36.1708 61.6457 33.9047 62.9221 30.7583 61.6457Z" fill="white"/>
<path d="M27.5684 58.2727C27.5684 58.2727 29.9512 56.3848 33.4234 56.511C36.8956 56.6372 39.4585 58.3309 39.4585 58.3309C39.4585 58.3309 36.1516 59.1705 33.4769 59.1705C30.8023 59.1705 27.5684 58.2678 27.5684 58.2678V58.2727Z" fill="#9B4600"/>
<path d="M38.1699 49.9009C41.0197 46.2561 42.7752 49.9009 42.7752 49.9009H38.1699Z" fill="#0C0C0C"/>
<path d="M29.3045 49.9009C26.4548 46.2561 24.6992 49.9009 24.6992 49.9009H29.3045Z" fill="#0C0C0C"/>
<path d="M38.2333 132.527C48.9174 139.152 61.4251 145.063 61.4251 145.063C93.7886 127.611 82.4042 98.0449 82.4042 98.0449C82.4042 98.0449 79.2092 101.277 64.0803 101.195C57.5055 101.161 54.0236 99.1271 52.1902 96.8364C49.8025 93.8565 50.2013 90.4496 50.2013 90.4496L57.063 80.1899C57.063 80.1899 56.7517 79.2192 46.9917 70.8814C37.2316 62.5435 21.0377 66.795 20.8918 73.0702C19.7295 122.835 27.5541 125.902 38.2382 132.527H38.2333Z" fill="#D43838"/>
<path d="M42.0845 81.4032C42.1915 81.6216 49.2039 95.6377 52.1801 96.8364C49.7924 93.8565 50.1911 90.4496 50.1911 90.4496L42.0845 81.4032Z" fill="#B72323"/>
<path d="M82.7831 141.151C80.4051 138.458 76.2472 138.429 73.6017 141.083L50.0841 163.374C47.8374 165.626 47.6575 169.232 49.6756 171.513C51.6938 173.794 55.1757 173.925 57.5391 171.804L82.0439 150.63C84.8304 148.13 85.166 143.84 82.788 141.146L82.7831 141.151Z" fill="#562900"/>
<path d="M58.4151 171.44L58.7458 187.257L56.4505 188.446L45.6011 163.66L53.4111 159.972L58.4151 171.44Z" fill="#562900"/>
<path d="M50.5025 168.431L52.4963 173.042C52.5693 173.202 58.4681 171.566 58.4681 171.566L58.5702 174.964L53.8628 176.211L55.1418 179.167L58.5946 178.215L58.7745 187.567L56.4451 188.776L45.5908 163.665L47.964 162.564L53.4106 159.972L50.5025 168.431Z" fill="#0C0C0C"/>
<path d="M83.6586 142.593C82.3796 138.594 78.0126 136.531 74.0152 138.035L45.3866 148.795C41.9971 150.071 40.1637 153.779 41.2482 157.172C42.3326 160.564 45.9459 162.403 49.3986 161.326L78.5573 152.226C82.6325 150.955 84.9376 146.597 83.6586 142.597V142.593Z" fill="#663300"/>
<path d="M50.4927 160.753L43.6358 177.089L40.6791 177.216L40.5332 146.713L50.4441 146.645L50.4927 160.753Z" fill="#663300"/>
<path d="M43.5288 153.915V159.579C43.5288 159.778 50.4927 160.904 50.4927 160.904L49.0532 164.427L43.5288 163.466V167.097L47.5992 167.766L43.5288 177.419L40.5283 177.55V146.708H43.5288L50.444 146.64L43.5288 153.91V153.915Z" fill="#0C0C0C"/>
<path d="M18.8882 124.733L19.5204 126.281L20.2596 128.086L49.8948 115.104L51.3051 144.694L53.3087 144.592L54.8113 144.515L53.3865 114.488L53.902 114.755L100.315 17.2144L103.427 10.6723L104.453 8.51258L107.57 1.96072L113.751 -11.0217L108.441 -10.8469L105.698 -5.08131L102.581 1.47055L101.55 3.63509L98.4376 10.1821L50.527 110.872L18.8882 124.733Z" fill="#C68722"/>
<path d="M18.8882 124.733L19.5204 126.281L51.2176 112.624L110.702 -10.9197L108.441 -10.8469L105.698 -5.08131L102.581 1.47055L101.55 3.63509L98.4376 10.1821L50.527 110.872L18.8882 124.733Z" fill="#DDA254"/>
<path d="M51.8984 114.924L53.3087 144.592L54.8114 144.515L53.902 114.755L100.315 17.2144L103.427 10.6723L104.453 8.51258L107.57 1.96072L113.751 -11.0217L112.103 -10.9683L51.8984 114.924Z" fill="#A36811"/>
<path d="M63.8564 94.2788C67.8732 90.503 71.2433 70.4009 71.2433 70.4009L67.8003 67.3531L58.0013 86.2176C55.5163 88.1055 55.4725 92.09 57.9138 94.2302C59.679 95.7736 62.1981 95.8415 63.8515 94.2836L63.8564 94.2788Z" fill="#663300"/>
<path d="M72.5805 73.5846C72.5805 73.5846 76.5974 75.0309 78.2411 70.8328C79.8848 66.6397 79.3256 65.8195 78.2411 65.6642C77.1566 65.5089 73.1349 65.6399 73.276 63.917C73.417 62.1941 74.8175 60.9031 74.6619 60.2577C74.5063 59.6122 72.3957 59.6607 71.2286 60.6605C67.5133 63.8442 66.9346 71.7938 66.9346 71.7938L72.5805 73.5798V73.5846Z" fill="#663300"/>
<path d="M78.7962 67.9694C76.885 68.479 76.0583 68.2655 73.8213 67.8433" stroke="#5B2B00" stroke-width="2" stroke-miterlimit="10" stroke-linecap="round"/>
<path d="M77.9837 69.867C76.0725 70.3766 75.2458 70.5853 73.0088 69.9544" stroke="#5B2B00" stroke-width="2" stroke-miterlimit="10" stroke-linecap="round"/>
<path d="M77.172 71.7647C75.6353 72.2743 74.2299 72.2694 72.4014 71.721" stroke="#5B2B00" stroke-width="2" stroke-miterlimit="10" stroke-linecap="round"/>
<path d="M143.329 158.909C143.601 157.934 143.455 156.677 142.599 155.206C140.031 150.79 133.865 149.858 130.709 155.429C130.85 155.439 135.426 155.856 137.342 159.477C137.357 159.501 137.366 159.526 137.381 159.55C137.405 159.593 137.435 159.642 137.459 159.686C138.514 161.404 140.634 161.593 142.05 160.656C142.424 160.409 142.745 160.084 142.988 159.691C143.134 159.458 143.246 159.195 143.329 158.914V158.909Z" fill="#1AA82A"/>
<path d="M142.993 159.686C142.141 160.778 139.661 161.282 137.76 157.206C136.15 153.76 130.854 155.395 130.713 155.429C130.854 155.439 135.431 155.856 137.347 159.477C137.361 159.501 137.371 159.526 137.385 159.55C137.41 159.593 137.439 159.642 137.463 159.686C138.519 161.404 140.639 161.593 142.054 160.656C142.428 160.409 142.749 160.084 142.993 159.691V159.686Z" fill="#169B1F"/>
<path d="M7.3481 77.4675C6.61378 78.1421 6.09344 79.2875 6.0594 81.0007C5.95241 86.1548 10.6841 90.3577 16.228 87.3924C16.1161 87.305 12.4591 84.4174 12.7072 80.3018C12.7072 80.2727 12.7072 80.2484 12.7072 80.2193C12.7072 80.1659 12.7072 80.1125 12.7072 80.064C12.6974 78.0257 11.0051 76.6959 9.32735 76.7007C8.88481 76.7007 8.44228 76.7978 8.03379 76.9968C7.79063 77.1133 7.56207 77.2734 7.3481 77.4675Z" fill="#1AA82A"/>
<path d="M8.03367 76.9964C9.31751 76.5451 11.6712 77.4914 11.18 81.9904C10.7618 85.7904 16.082 87.3435 16.223 87.3872C16.1112 87.2998 12.4542 84.4121 12.7022 80.2966C12.7022 80.2675 12.7022 80.2432 12.7022 80.2141C12.7022 80.1607 12.7022 80.1073 12.7022 80.0588C12.6925 78.0204 11.0001 76.6907 9.32237 76.6955C8.87984 76.6955 8.4373 76.7926 8.02881 76.9916L8.03367 76.9964Z" fill="#169B1F"/>
<path d="M79.4281 23.4071C80.3909 23.5964 81.5824 23.3246 82.9148 22.3054C86.9171 19.2382 87.2284 12.7931 81.5775 10.0608C81.5775 10.2064 81.6116 14.9674 78.3193 17.2872C78.295 17.3018 78.2755 17.3163 78.2561 17.3357C78.2123 17.3649 78.1734 17.3988 78.1345 17.428C76.5832 18.6801 76.6026 20.8835 77.6336 22.2569C77.9059 22.6161 78.2512 22.9218 78.65 23.1353C78.8883 23.2615 79.1509 23.3537 79.4281 23.412V23.4071Z" fill="#1AA82A"/>
<path d="M78.65 23.1359C77.5218 22.3642 76.802 19.8503 80.5368 17.5013C83.6929 15.5163 81.6261 10.2069 81.5775 10.0662C81.5775 10.2118 81.6116 14.9728 78.3193 17.2926C78.295 17.3072 78.2755 17.3217 78.2561 17.3411C78.2123 17.3703 78.1734 17.4042 78.1345 17.4334C76.5832 18.6855 76.6026 20.8889 77.6336 22.2623C77.9059 22.6215 78.2512 22.9272 78.65 23.1408V23.1359Z" fill="#169B1F"/>
<path d="M132.362 241.691C133.097 242.365 134.259 242.758 135.903 242.584C140.853 242.059 144.296 236.677 140.775 231.344C140.707 231.47 138.392 235.585 134.415 235.838C134.39 235.838 134.361 235.838 134.337 235.843C134.288 235.843 134.235 235.852 134.186 235.857C132.236 236.114 131.166 238.022 131.38 239.744C131.438 240.201 131.584 240.642 131.823 241.035C131.964 241.268 132.144 241.487 132.357 241.681L132.362 241.691Z" fill="#1AA82A"/>
<path d="M131.827 241.04C131.234 239.778 131.852 237.24 136.224 237.192C139.915 237.153 140.746 231.489 140.775 231.344C140.707 231.47 138.392 235.585 134.415 235.838C134.39 235.838 134.361 235.838 134.337 235.843C134.288 235.843 134.235 235.852 134.186 235.857C132.236 236.114 131.166 238.022 131.38 239.744C131.438 240.201 131.584 240.642 131.823 241.035L131.827 241.04Z" fill="#169B1F"/>
<path d="M72.2692 213.877C71.5349 214.551 70.3727 214.945 68.729 214.77C63.7784 214.246 60.3354 208.863 63.8562 203.53C63.9243 203.656 66.2391 207.771 70.217 208.024C70.2414 208.024 70.2705 208.024 70.2949 208.029C70.3435 208.029 70.397 208.038 70.4456 208.043C72.3957 208.3 73.4656 210.208 73.2516 211.931C73.1932 212.387 73.0473 212.829 72.809 213.222C72.668 213.455 72.4881 213.673 72.2741 213.867L72.2692 213.877Z" fill="#1AA82A"/>
<path d="M72.8044 213.231C73.3977 211.97 72.7801 209.431 68.4082 209.383C64.7172 209.344 63.8856 203.68 63.8564 203.535C63.9245 203.661 66.2393 207.776 70.2173 208.029C70.2416 208.029 70.2708 208.029 70.2951 208.034C70.3437 208.034 70.3972 208.043 70.4458 208.048C72.3959 208.305 73.4658 210.213 73.2518 211.936C73.1935 212.392 73.0476 212.833 72.8093 213.226L72.8044 213.231Z" fill="#169B1F"/>
<path d="M116.489 86.6446C117.423 86.3292 118.337 85.4944 119.028 83.9365C121.104 79.2532 118.376 73.4487 112.151 73.8807C112.219 74.0068 114.466 78.1612 112.662 81.8399C112.652 81.8642 112.638 81.8885 112.628 81.9128C112.604 81.9613 112.584 82.0098 112.565 82.0535C111.792 83.9268 112.832 85.8487 114.374 86.533C114.782 86.7126 115.225 86.8097 115.672 86.7902C115.94 86.7805 116.212 86.732 116.484 86.6398L116.489 86.6446Z" fill="#1AA82A"/>
<path d="M115.677 86.7904C114.325 86.6788 112.526 84.8394 114.704 80.9132C116.548 77.5984 112.258 73.9828 112.151 73.8809C112.219 74.007 114.466 78.1614 112.662 81.8401C112.652 81.8644 112.638 81.8887 112.628 81.9129C112.604 81.9615 112.584 82.01 112.565 82.0537C111.792 83.927 112.832 85.8489 114.374 86.5332C114.782 86.7128 115.225 86.8098 115.672 86.7904H115.677Z" fill="#169B1F"/>
</g>
</svg>
