<svg width="432" height="198" viewBox="0 0 432 198" fill="none" xmlns="http://www.w3.org/2000/svg">
<g clip-path="url(#clip0_37_6131)">
<path d="M322.97 45.53L339.91 68.55L346.459 63.42C345.309 59.84 344.18 56.37 343.17 53.27C343.1 53.06 343.04 52.86 342.97 52.65C341.89 49.33 340.96 46.49 340.31 44.5C340.18 44.1 340.06 43.73 339.95 43.4C339.81 42.96 339.679 42.59 339.579 42.29C339.399 41.74 339.31 41.45 339.31 41.45C341.79 37.8 343.47 18.11 343.78 14.17C343.81 13.75 343.47 13.37 343.06 13.42C339.26 13.92 337.22 25.71 337.01 25.93C336.78 26.16 334.8 25.14 333.89 21.87C332.99 18.6 331.27 3.03 329.96 1.31C328.65 -0.419996 327.11 0.890004 326.66 1.82C326.21 2.75 327.11 12.54 327.43 16.32C327.74 20.09 326.67 19.75 326.67 19.75C326.67 19.75 320.96 4.24 320.2 1.86C319.43 -0.519996 317.03 -0.319996 316.09 0.790004C315.06 2 321.769 21.93 321.769 21.93C321.769 21.93 321.7 22.17 321.16 22.35C320.62 22.54 313.7 8.29 312.79 6.42C311.89 4.56 310 5.42 309.26 6.7C308.61 7.83 317.44 25.49 317.44 25.49C317.44 25.49 317.12 26.38 316.54 26.42C315.95 26.47 311.71 21.25 310.17 19.28C308.63 17.32 307.87 14.94 306.15 16.16C304.43 17.37 306.549 20.22 306.549 20.22L314.28 31.08C315.97 34.7 319.55 39.55 322.98 45.51L322.97 45.53Z" fill="#753E19"/>
<path d="M93.9196 197.06H132.71L133.94 143.69L134.01 140.42C134.01 140.42 134.01 140.36 134.01 140.33C134.04 139.59 134.08 138.86 134.11 138.13C134.86 122.06 135.45 108.89 135.7 103.56C135.78 103.46 136.95 101.98 138.44 99.92C141.12 96.2 144.86 90.59 145.12 87.8C145.47 84.02 142.35 80.22 141.45 79.21C141.56 79.07 141.57 78.87 141.48 78.72C141.44 78.65 141.33 78.48 141.17 78.24C141.07 76.53 140.79 72.22 140.48 71.35C140.09 70.26 139.09 67.36 136.67 67.14C134.76 66.97 133.4 68.47 132.9 69.12C132.83 69.06 132.75 69.02 132.66 69.03C132.56 69.04 132.49 69.1 132.43 69.19C131.94 68.78 130.79 68 129.18 68.11C127.51 68.23 126.5 69.71 126.13 70.38C126.03 70.31 125.91 70.3 125.81 70.36C125.77 70.38 125.74 70.42 125.71 70.45C125.31 70.11 124.34 69.61 122.4 70.1C120.26 70.63 119.48 72.35 119.23 73.1C119.12 73.06 119 73.08 118.91 73.18C118.85 73.24 118.83 73.31 118.81 73.38C118.37 73.3 117.45 73.28 115.9 73.85C113.59 74.7 111.69 78.12 111.37 80.9C111.28 81.69 111.59 84.45 112.08 87.99C112.28 89.44 112.51 91.02 112.75 92.65C112.92 93.78 113.1 94.94 113.28 96.08C114.21 102.04 115.21 107.91 115.55 109.9C115.44 110.96 109.51 134.69 102.79 161.53C99.8296 173.33 96.7296 185.73 93.8896 197.06H93.9196Z" fill="#753E19"/>
<path d="M139.57 90.4C139.33 90.39 139.14 90.2 139.12 89.95C139.09 89.49 138.98 88.99 138.82 88.49C136.79 82.19 140.11 78.56 140.25 78.41C140.43 78.21 140.74 78.21 140.92 78.4C141.11 78.59 141.11 78.9 140.93 79.1C140.81 79.23 137.88 82.48 139.72 88.19C139.91 88.77 140.02 89.35 140.07 89.89C140.09 90.16 139.89 90.4 139.63 90.42C139.61 90.42 139.59 90.42 139.57 90.42V90.4Z" fill="#753E19"/>
<path d="M271.82 60.76C272.33 66.24 283.41 80.29 283.72 80.68C283.92 84.98 284.3 93.32 284.79 104.07C285.1 110.87 285.46 118.65 285.85 126.98C285.85 127.04 285.85 127.1 285.85 127.15C285.85 127.19 285.85 127.23 285.85 127.27L285.96 132.2L286.07 137.15L286.14 140.29L286.22 143.68L286.66 162.76L286.85 171.03L287.05 179.54L287.45 197.05H336.06C333.53 186.94 330.85 176.22 328.19 165.61C326.94 160.59 325.68 155.6 324.46 150.71C322.73 143.78 321.05 137.05 319.47 130.74C318.04 125 316.69 119.61 315.48 114.72C314.37 110.25 313.37 106.22 312.51 102.72C310.47 94.46 309.21 89.24 309.16 88.7C310.08 83.29 314.82 55.18 314.45 52.02C314.05 48.51 311.65 44.19 308.73 43.12C306.77 42.39 305.61 42.42 305.06 42.52C305.04 42.43 305 42.34 304.94 42.27C304.83 42.14 304.68 42.12 304.53 42.17C304.22 41.21 303.23 39.04 300.53 38.37C298.07 37.76 296.85 38.39 296.35 38.81C296.32 38.77 296.28 38.73 296.23 38.7C296.1 38.62 295.94 38.64 295.82 38.72C295.35 37.87 294.07 36.01 291.96 35.86C289.92 35.72 288.47 36.71 287.85 37.22C287.78 37.12 287.68 37.05 287.56 37.03C287.44 37.02 287.34 37.06 287.25 37.14C286.62 36.32 284.89 34.42 282.48 34.64C279.41 34.92 278.15 38.58 277.65 39.96C277.26 41.06 276.9 46.5 276.78 48.67C276.58 48.96 276.45 49.19 276.39 49.27C276.27 49.47 276.29 49.72 276.43 49.89C275.3 51.16 271.36 55.97 271.8 60.75L271.82 60.76Z" fill="#753E19"/>
<path d="M278.83 64.07C279.13 64.05 279.38 63.81 279.4 63.5C279.44 62.91 279.57 62.29 279.78 61.65C282.35 53.69 278.15 49.1 277.97 48.91C277.74 48.66 277.36 48.66 277.12 48.9C276.88 49.14 276.87 49.53 277.11 49.78C277.27 49.95 280.97 54.05 278.64 61.26C278.4 62 278.26 62.72 278.2 63.41C278.17 63.75 278.42 64.05 278.75 64.08C278.78 64.08 278.8 64.08 278.83 64.08V64.07Z" fill="#753E19"/>
<path d="M282.8 143.69C282.91 145.2 283.22 147.16 283.64 149.33C284.47 153.58 285.72 158.65 286.67 162.77C287.53 166.49 288.15 169.45 288 170.39C288 170.39 287.34 170.32 286.86 171.05C286.47 171.64 286.21 172.74 286.52 174.83C286.79 176.67 286.86 178.18 287.06 179.56C287.37 181.66 288.01 183.44 290.23 185.58C293.91 189.11 300.11 193.47 300.9 195.56C300.97 195.74 301.11 196.26 301.32 197.07H321.73C320.61 194.28 319.56 191.84 318.66 189.95C318.66 189.95 319.54 186.42 318.04 180.22C317.75 179.01 317.48 177.79 317.22 176.6L316.96 175.42C316.85 174.88 316.74 174.35 316.62 173.84C316.5 173.31 316.39 172.78 316.28 172.29C315.62 169.3 314.99 166.88 314.26 165.71C312.97 163.67 310.98 162.01 308.39 163.85L308.15 164.03C308.15 164.03 307.13 158.22 304.43 157.99C303.33 157.9 302.52 158.07 301.94 158.31C301.14 158.64 300.79 159.09 300.75 159.14C300.69 158.96 299.13 153.88 296.35 154.4C293.96 154.85 292.18 156.93 292.85 159.95C291.96 157.38 290.28 152.33 289.15 148.05C289.01 147.52 288.87 147.01 288.76 146.51C288.5 145.45 288.24 144.52 287.97 143.71C287.57 142.51 287.14 141.59 286.69 140.95C286.51 140.69 286.33 140.49 286.14 140.32C285.26 139.51 284.28 139.65 283.18 140.68C282.96 140.89 282.83 141.29 282.78 141.88C282.73 142.37 282.74 142.99 282.79 143.71L282.8 143.69Z" fill="#663300"/>
<path d="M308.6 144.95C312.35 149.22 331.2 170.44 337.2 172.39C337.2 172.39 337.34 172.83 337.6 173.61C337.74 174.05 337.92 174.6 338.13 175.23C338.28 175.71 338.46 176.24 338.65 176.82C339.6 179.72 340.97 183.84 342.58 188.67C342.67 188.97 342.77 189.27 342.87 189.56C343.65 191.92 344.48 194.43 345.36 197.04H371.78C366.02 184.07 360.89 171.59 360.16 166.7C358.39 154.84 358.55 144.12 357.23 137.54L356.83 117.93C356.83 117.93 356.85 112.7 353.82 112.87C350.79 113.04 351.95 116.49 351.86 120.16C351.76 123.83 351.34 133.75 350.62 134.23C349.9 134.72 348.78 133.98 348.78 133.98C348.78 133.98 343.82 105.5 342.09 104.79C340.14 103.99 337.22 104.71 337.78 107.69C338.34 110.67 342.58 133.46 341.79 133.74C341.01 134.02 340.72 133.81 340.72 133.81C340.72 133.81 331.36 104.65 329.12 104.2C327.07 103.78 324.14 105.74 325.29 109.19C326.44 112.64 333.18 135.78 333.18 135.78C333.18 135.78 332.24 137.15 329.36 132.5C326.48 127.85 319.12 115.71 317.79 115.05C316.47 114.38 313.57 114.28 313.54 117.47C313.51 120.67 324.9 140.23 326.66 144.83C328.41 149.42 327 152.42 326.54 152.37C326.11 152.31 313.62 140.55 308.81 143.45C308.29 143.76 308.21 144.51 308.62 144.97L308.6 144.95Z" fill="#3A1C00"/>
<path d="M322.69 44.47C322.71 44.68 322.75 44.95 322.82 45.26C323.52 48.57 326.81 57.45 328.21 61.16C328.09 61.87 328.02 62.39 327.99 62.59C327.93 63.05 328.19 63.49 328.57 63.69C327.54 67 324.26 79.22 328.96 87.57C329.37 88.3 329.94 89.07 330.63 89.87C339.03 99.53 366.19 113.26 367 113.67C373.36 126.3 389.44 158.25 408.91 196.84C408.94 196.91 408.98 196.98 409.02 197.05H431.87V125.69C427.18 118.16 423.2 111.59 420.12 106.24C418.67 100.57 413.97 82.3 409.38 65.56C405.32 50.73 401.35 37.11 399.82 34.54C396.22 28.47 388.29 22.66 382.08 23.22C377.91 23.59 375.81 24.66 374.88 25.33C374.77 25.18 374.63 25.05 374.45 24.98C374.14 24.85 373.84 24.94 373.63 25.15C372.27 23.67 368.69 20.56 363.2 21.68C358.21 22.7 356.5 24.91 355.91 26.13C355.81 26.08 355.71 26.04 355.61 26.03C355.3 25.99 355.04 26.16 354.88 26.41C353.32 25.27 349.46 22.96 345.48 24.53C344.34 24.98 343.39 25.56 342.58 26.21C340.65 27.73 339.59 29.56 339.09 30.6C338.88 30.47 338.63 30.43 338.4 30.5C338.17 30.58 338.02 30.76 337.93 30.97C336.1 30.01 331.39 28.04 327.17 30.54C321.79 33.73 322.47 41.52 322.69 44.46V44.47Z" fill="#B26836"/>
<path d="M344.499 87.55C345.029 87.26 345.289 86.6 345.069 86.01C344.669 84.9 344.399 83.65 344.249 82.3C342.439 65.51 331.009 60.76 330.519 60.57C329.889 60.32 329.189 60.64 328.949 61.29C328.709 61.93 329.019 62.66 329.639 62.91C330.069 63.08 340.189 67.36 341.829 82.58C341.999 84.14 342.319 85.59 342.789 86.89C343.019 87.54 343.719 87.87 344.349 87.63C344.399 87.61 344.449 87.59 344.489 87.56L344.499 87.55Z" fill="#A55B29"/>
<path d="M79.4697 197.06H102.85C108.49 189.01 114.42 182.67 117.31 177.89L128.72 165.02C128.87 164.85 131.78 161.63 129.78 159.86C129.4 159.53 129.05 159.36 128.72 159.31C127.22 159.11 126.02 161.42 124.19 163.3C121.95 165.6 115.78 171.71 115.03 171.57C114.28 171.42 114 170.24 114 170.24C114 170.24 127.75 148.79 127.06 147.24C126.28 145.49 123.97 144.11 122.56 146.38C121.15 148.65 110.32 165.98 109.65 165.66C108.98 165.34 108.92 165.03 108.92 165.03C108.92 165.03 120.24 140.35 119.08 138.65C118.01 137.08 114.95 136.49 113.64 139.44C112.34 142.39 102.9 161.52 102.9 161.52C102.9 161.52 102.88 161.52 102.83 161.52C102.57 161.5 101.59 161.18 102.39 156.98C103.31 152.17 105.79 139.7 105.33 138.44C104.92 137.28 103.37 135.59 101.63 136.88C101.47 137 101.31 137.14 101.15 137.31C99.2297 139.34 94.9197 159.13 93.3197 163.19C91.7097 167.26 89.0197 168.29 88.7597 167.96C88.5197 167.65 87.4797 152.18 82.6597 151C82.1397 150.88 81.6497 151.31 81.6297 151.86C81.4997 156.98 81.0097 182.55 83.7097 187.6C83.7097 187.6 83.5397 187.97 83.2397 188.64C83.0697 189.02 82.8597 189.47 82.6197 190.02L82.0097 191.38C81.4497 192.61 80.7797 194.11 80.0197 195.81C79.8397 196.2 79.6597 196.62 79.4697 197.03V197.06Z" fill="#B26836"/>
<path d="M230.36 158.67L235.23 174.26L235.54 175.25C236.19 180.48 238.72 188.1 240.58 197.06H263.51C268.38 190.89 276.66 171.19 278.43 166.92C278.64 166.42 278.36 165.82 277.85 165.71C273 164.71 265.82 178.31 265.47 178.49C265.1 178.68 263.07 176.59 263.25 172.21C263.44 167.82 267.49 148.01 266.57 145.34C266.24 144.38 265.72 143.9 265.14 143.7C264.71 143.56 264.25 143.58 263.81 143.7C263.21 143.87 262.66 144.22 262.32 144.58C261.39 145.54 258.62 157.92 257.52 162.68C256.41 167.45 255.23 166.57 255.23 166.57C255.23 166.57 254.57 149.81 254.41 143.7C254.39 142.91 254.38 142.28 254.38 141.91C254.38 138.67 251.36 137.9 249.76 138.86C249.33 139.12 249.02 141.01 248.8 143.69C248.16 151.79 248.34 167.17 248.34 167.17C248.34 167.17 248.15 167.43 247.42 167.43C246.69 167.43 243.84 147.05 243.48 144.38C243.45 144.12 243.39 143.89 243.31 143.69C242.61 141.77 240.32 142.1 239.05 143.23C238.97 143.3 238.92 143.46 238.88 143.69C238.24 147.33 241.64 169.72 241.64 169.72C241.64 169.72 240.9 170.68 240.16 170.49C239.63 170.35 237.84 166.05 236.48 162.51C235.95 161.15 235.49 159.9 235.18 159.05C234.07 156 234.07 152.76 231.48 153.52C228.89 154.29 230.38 158.67 230.38 158.67H230.36Z" fill="#2D1400"/>
<path d="M24 134.18L0 197.18L25.8 197.06H44.82C47.87 187.83 50.81 178.85 53.43 170.85C53.6 170.31 53.78 169.79 53.95 169.25C54.55 167.43 55.13 165.66 55.68 163.95C56.83 160.42 57.9 157.17 58.84 154.29C59.58 152.01 60.25 149.96 60.83 148.17C61.17 147.13 61.49 146.18 61.76 145.33C62.13 144.19 62.44 143.23 62.69 142.45C63.02 141.46 63.24 140.79 63.34 140.48C63.39 140.34 63.41 140.27 63.41 140.27C65.09 139.71 67.33 138.31 69.94 136.3C71.39 135.19 72.94 133.89 74.59 132.45C76.72 130.59 78.98 128.48 81.31 126.23C91.34 116.55 102.56 104.2 109.22 96.69C110.64 95.09 111.85 93.72 112.8 92.64C113.26 92.11 113.65 91.66 113.98 91.28C114.69 90.46 114.55 89.13 113.63 88.58C113.17 88.31 112.66 88.1 112.12 87.97C108.44 87.08 103.18 89.41 98.08 92.58C90.15 97.52 82.64 104.51 82.2 104.58C81.38 104.69 78.84 99.38 81.92 91.2C82.72 89.08 84.66 85.18 87.09 80.45C94.05 66.93 105.05 46.71 104.99 42.51C104.91 36.84 99.76 37.05 97.41 38.25C95.21 39.36 83.63 58.5 78.02 67.69C77.66 68.29 77.32 68.84 77.01 69.35C71.93 77.63 70.24 75.2 70.24 75.2C70.24 75.2 71.69 70.12 73.67 63.28C75.18 58 77.01 51.65 78.72 45.76C81.11 37.55 83.26 30.23 84.03 27.91C86.05 21.78 80.82 18.3 77.19 19.06C74.57 19.61 66.53 42.42 61.37 57.85C58.72 65.79 56.83 71.77 56.83 71.77C56.83 71.77 56.32 72.14 54.92 71.65C54.4 71.47 55.07 65.86 56.17 58.59C57.08 52.62 58.26 45.53 59.33 39.39C59.33 39.39 59.33 39.38 59.33 39.37C60.49 32.67 61.5 27.11 61.82 25.36C62.79 20.06 57.6 18.81 54.13 20.24C52.12 21.08 47.72 43.24 44.95 58.33C44.89 58.65 44.83 58.97 44.78 59.29C43.42 66.67 42.5 72.13 42.5 72.13C42.5 72.13 40.5 73.45 39.22 72.59C38.78 72.3 38.4 70.06 38.07 66.97C37.75 63.91 37.49 60.03 37.29 56.38C37.1 52.93 36.98 49.7 36.91 47.61C36.71 41.1 38.74 34.96 33.36 34.69C27.98 34.42 28.05 43.7 28.05 43.7L27.83 57.88L27.5 78.54C27.37 79.24 27.68 80.2 27.12 80.73C23.2 84.45 21.33 129.42 24 134.15V134.18Z" fill="#3A1C00"/>
<path d="M143.54 156.54C143.57 157.1 143.61 157.68 143.64 158.26C143.68 158.84 143.71 159.43 143.75 160.02C143.78 160.46 143.8 160.9 143.83 161.34C143.91 162.67 143.98 164.03 144.03 165.39C144.29 172.36 146.25 175.78 146.25 175.78C145.41 180.72 144.61 188.62 143.93 197.05H167.17C166.75 186.22 166.43 177.05 166.51 176.1C166.73 173.66 171.94 167.14 174.74 162.29C177.55 157.43 176.13 154.96 175.47 149.88C174.82 144.78 172.61 145.69 172.61 145.69C172.45 145.34 172.31 144.64 172.19 143.69C171.99 141.99 171.85 139.47 171.72 136.58C171.66 135.19 171.6 133.72 171.53 132.21C171.47 130.69 171.4 129.13 171.32 127.6C171.16 124.44 170.95 121.39 170.64 118.89C170.58 118.39 170.52 117.92 170.44 117.46C170.07 115.06 169.58 113.4 168.89 113.05C166.4 111.8 165.07 113.14 164.78 117.38C164.75 117.84 164.73 118.35 164.73 118.89C164.72 119.52 164.73 120.18 164.76 120.9C164.83 122.85 164.83 125.07 164.79 127.25C164.76 128.97 164.7 130.68 164.63 132.21C164.57 133.8 164.5 135.2 164.43 136.25C164.32 134.31 163.46 132.95 162.24 132.21C161.34 131.65 160.24 131.42 159.12 131.54C158.55 131.6 158.09 131.84 157.71 132.21C156.61 133.25 156.19 135.26 156.02 136.58C155.93 137.3 155.92 137.83 155.91 137.89C155.82 137.83 154.38 136.78 151.72 137.83C149.86 138.56 149.54 141.71 149.54 143.69C149.54 144.65 149.6 145.33 149.6 145.33C146.15 143.96 144.47 146.38 143.7 149C143.27 150.46 143.33 153.2 143.51 156.54H143.54Z" fill="#663300"/>
<path d="M184.37 197.06H228.32C229.17 189 229.98 181.34 230.73 174.26C231.17 170.14 231.58 166.2 231.97 162.51C232.74 155.26 233.41 148.9 233.96 143.69C234.42 139.34 234.79 135.8 235.06 133.2C235.12 133.12 235.43 132.78 235.93 132.21C238.64 129.12 246.95 119.41 251.73 111.49C253.54 108.51 254.83 105.78 255.14 103.76C256.25 96.48 250.63 88.71 249.02 86.66C249.24 86.41 249.3 86.01 249.14 85.71C249.07 85.56 248.87 85.22 248.59 84.75C248.59 81.41 248.55 73.01 248.04 71.29C247.42 69.13 245.81 63.4 241.12 62.66C239.69 62.43 238.38 62.72 237.26 63.22C235.51 64 234.21 65.3 233.57 66.05C233.46 65.92 233.29 65.84 233.11 65.85C232.92 65.86 232.77 65.96 232.65 66.12C231.75 65.26 229.61 63.61 226.47 63.63C223.21 63.64 221.09 66.39 220.28 67.64C220.1 67.5 219.88 67.45 219.66 67.58C219.59 67.62 219.53 67.67 219.48 67.74C218.74 67.03 216.92 65.95 213.09 66.65C208.89 67.42 207.17 70.66 206.61 72.09C206.4 72 206.17 72.03 205.98 72.21C205.87 72.31 205.81 72.44 205.77 72.59C204.93 72.39 203.15 72.22 200.08 73.15C195.5 74.52 191.41 80.92 190.48 86.26C189.83 89.96 192.43 116.28 194.11 132.23C194.62 137.16 195.05 141.09 195.27 143.07C195.24 143.27 195.2 143.48 195.17 143.7C193.2 155.71 189.29 174.7 184.38 197.07L184.37 197.06Z" fill="#492505"/>
<path d="M244.06 108.17C243.6 108.12 243.25 107.72 243.24 107.24C243.23 106.34 243.09 105.37 242.83 104.36C239.61 91.9 246.48 85.25 246.77 84.98C247.15 84.62 247.74 84.65 248.08 85.04C248.43 85.43 248.4 86.03 248.02 86.39C247.76 86.64 241.71 92.57 244.62 103.87C244.92 105.03 245.08 106.15 245.09 107.21C245.09 107.74 244.69 108.17 244.18 108.18C244.14 108.18 244.1 108.18 244.06 108.18V108.17Z" fill="#421D04"/>
</g>
<defs>
<clipPath id="clip0_37_6131">
<rect width="431.88" height="197.18" fill="white"/>
</clipPath>
</defs>
</svg>
