<svg width="220" height="275" viewBox="0 0 220 275" fill="none" xmlns="http://www.w3.org/2000/svg">
<g clip-path="url(#clip0_216_698)">
<path d="M153.85 38.3269L156.607 79.0079C157.484 83.497 152.612 87.5307 146.126 87.6858L138.381 88.7482L137.322 55.4668C138.26 52.0435 142.967 49.7838 147.884 50.3977L149.764 45.9019C149.764 45.9019 149.74 43.4736 149.764 43.4466C149.787 43.4196 153.85 38.3269 153.85 38.3269Z" fill="#0C0C0C"/>
<path d="M129.435 56.1818C138.101 60.2054 148.387 56.4482 152.412 47.7872C153.148 46.2054 153.627 44.5663 153.857 42.9238C154.066 41.4432 154.079 39.9525 153.907 38.4989C153.229 32.735 149.662 27.4501 144.01 24.8228C140.379 23.1398 136.468 22.816 132.85 23.6525C131.453 23.9729 130.1 24.4653 128.828 25.1229C128.376 25.3523 127.934 25.6019 127.505 25.8717C126.263 26.6508 125.113 27.5951 124.09 28.6878C122.869 29.9931 121.833 31.5074 121.036 33.2173C117.011 41.8783 120.773 52.1616 129.439 56.1818H129.435Z" fill="#0C0C0C"/>
<path d="M116.369 46.9441C116.369 46.9441 113.815 45.5478 114.102 43.5478C114.419 41.332 116.636 42.5967 119.46 38.4146C118.175 42.7957 116.369 46.9441 116.369 46.9441Z" fill="#B26836"/>
<path d="M127.701 52.6472L127.826 59.8816L127.923 65.9928L127.947 67.3992L127.954 67.9355L127.964 68.4886C128.018 71.4869 131.092 73.9388 134.834 73.9658C138.573 73.9962 141.563 71.5881 141.509 68.5898L141.384 61.0991L141.347 58.8057L141.34 58.546V58.4988L141.246 52.745L127.704 52.6472H127.701Z" fill="#B26836"/>
<path d="M127.826 59.8816L127.856 68.4852L138.438 59.5983L137.17 56.6371L127.853 59.6725L127.826 59.8816Z" fill="#0C0C0C"/>
<path d="M118.181 51.7366C118.792 53.3589 115.37 53.116 115.576 53.6759C116.639 56.573 119.359 59.831 122.477 61.0721C130.427 64.2424 139.049 61.3588 141.725 54.6371L143.841 49.3285L145.187 45.9559C148.191 38.4045 144.924 29.811 137.669 26.1685C136.053 25.5243 133.944 25.5783 131.781 26.0943C131.494 26.1584 131.204 26.2359 130.91 26.3169C126.756 27.5378 122.612 30.3135 121.569 32.9307L116.049 46.7856C115.88 47.2105 115.742 47.6557 115.64 48.0975C115.276 49.595 117.635 50.2796 118.185 51.7366H118.181Z" fill="#B26836"/>
<path d="M127.889 37.7385C128.314 37.0029 127.464 35.7173 125.99 34.867C124.517 34.0167 122.978 33.9237 122.553 34.6592C122.128 35.3948 122.978 36.6804 124.451 37.5308C125.925 38.3811 127.464 38.4741 127.889 37.7385Z" fill="#0C0C0C"/>
<path d="M120.021 41.5444C120.021 41.5444 121.583 43.6625 123.54 43.9458C123.729 43.9795 123.911 43.993 124.107 43.9829C126.311 43.8884 128.015 41.2004 128.015 41.2004C128.015 41.2004 126.132 38.6676 123.928 38.762C123.672 38.7721 123.419 38.8227 123.179 38.8969C121.343 39.4534 120.021 41.5444 120.021 41.5444Z" fill="white"/>
<path d="M120.021 41.5444C120.021 41.5444 121.583 43.6625 123.54 43.9458C124.795 43.4837 125.69 42.1043 125.143 40.3944C125.086 40.219 124.991 40.0436 124.863 39.9019C124.357 39.3252 123.766 39.0116 123.179 38.8935C121.343 39.45 120.021 41.5411 120.021 41.5411V41.5444Z" fill="#0C0C0C"/>
<path d="M120.021 41.5411C120.021 41.5411 121.63 39.8547 123.992 39.278C126.182 38.7418 128.011 41.2004 128.011 41.2004C128.011 41.2004 126.361 38.2527 123.84 38.6001C121.32 38.9475 120.021 41.5444 120.021 41.5444V41.5411Z" fill="#0C0C0C"/>
<path d="M124.741 42.2493C125.316 42.2493 125.781 41.7842 125.781 41.2105C125.781 40.6368 125.316 40.1718 124.741 40.1718C124.167 40.1718 123.702 40.6368 123.702 41.2105C123.702 41.7842 124.167 42.2493 124.741 42.2493Z" fill="white"/>
<path d="M115.127 51.025L115.509 51.6523C115.934 52.3504 116.848 52.5629 117.54 52.1245L120.449 50.2763L115.127 51.0284V51.025Z" fill="#F2F2F2"/>
<path d="M120.436 50.2763C120.436 50.2763 117.382 49.1363 115.499 48.6709C113.278 48.1211 113.633 50.7653 114.736 51.1397C117.196 51.9761 120.436 50.2763 120.436 50.2763Z" fill="#B76F3E"/>
<path d="M120.642 50.1279C120.642 50.1279 118.134 51.6051 116.032 51.7029C113.93 51.8007 114.328 54.745 116.464 54.2223C118.6 53.6995 120.308 51.0047 120.642 50.1279Z" fill="#B76F3E"/>
<path d="M123.199 30.644C123.199 30.644 126.142 49.5612 146.308 42.2021L148.953 37.2106L145.467 29.2949L140.399 26.128L134.696 24.5462L126.003 27.4703L123.199 30.644Z" fill="#0C0C0C"/>
<path d="M141.03 44.1785C141.03 44.1785 143.554 40.5866 147.172 41.5242C150.789 42.4618 149.868 50.5022 144.681 51.9558C144.681 51.9558 142.434 52.4617 140.851 51.3859C140.851 51.3859 141.013 46.4112 141.03 44.1785Z" fill="#B26836"/>
<path d="M146.298 44.5663C144.378 43.1802 142.113 45.649 142.275 47.5984C142.275 47.7737 142.508 47.8648 142.626 47.7366C143.76 46.5832 144.715 45.541 146.223 44.8496C146.345 44.8125 146.399 44.654 146.294 44.5663H146.298Z" fill="#93542A"/>
<path d="M157.487 246.208C157.487 246.208 163.416 254.67 170.611 255.941C177.809 257.209 177.383 263.135 177.383 263.135H145.208V255.941L143.088 248.326L157.484 246.211L157.487 246.208Z" fill="#1C1C1C"/>
<path d="M118.077 247.901C118.077 247.901 118.036 253.24 118.077 257.553C118.117 261.867 118.077 262.548 118.077 262.548C118.077 262.548 106.688 263.982 102.031 264.403C97.3743 264.825 91.4453 263.135 91.4453 263.135V257.668C91.4453 257.668 95.6803 253.826 102.031 253.826C103.3 250.44 104.403 247.901 104.403 247.901H118.077Z" fill="#1C1C1C"/>
<path d="M99.6995 63.6185L87.7201 58.1177L84.6695 27.015L79.1657 28.2831C79.1657 28.2831 75.3559 60.0199 76.2029 65.9423C77.0499 71.868 102.241 77.5779 102.241 77.5779C102.241 77.5779 107.532 73.5577 99.6995 63.6151V63.6185Z" fill="#B26836"/>
<path d="M164.054 70.8124C164.054 70.8124 174.427 65.9456 178.662 59.5983C182.897 53.2509 165.961 15.1669 165.961 15.1669L159.61 16.8599L166.383 50.2897L156.856 58.1177C156.856 58.1177 162.995 60.8698 164.054 70.8124Z" fill="#B26836"/>
<path d="M110.845 133.932C110.845 133.932 102.568 155.567 102.568 172.012H164.881C164.881 149.146 156.965 133.648 156.965 133.648L110.842 133.932H110.845Z" fill="#EFE3D8"/>
<path d="M164.881 172.012L163.842 249.034L139.033 247.877L133.9 166.505L164.881 172.012Z" fill="#EFE3D8"/>
<path d="M102.568 172.012L97.084 247.877H123.108L133.9 166.505L102.568 172.012Z" fill="#EFE3D8"/>
<path d="M162.148 142.96C162.148 142.96 156.856 112.704 154.315 100.856C158.55 91.5475 153.519 79.5004 153.519 79.5004L164.054 70.8124C164.054 70.8124 166.17 59.3858 156.856 58.1177L141.614 67.4262C141.614 67.4262 144.577 78.0063 135.685 75.8882C126.793 73.7736 126.371 69.1193 126.371 69.1193L99.6992 63.6185C99.6992 63.6185 106.472 71.234 102.24 77.5813C106.05 79.2744 114.095 80.9675 114.095 80.9675C114.095 80.9675 109.013 92.394 114.942 97.8949L107.957 137.46L162.148 142.96Z" fill="#EDAF3E"/>
<path d="M166.278 15.494C166.278 15.494 169.544 6.23605 164.267 5.86168C158.989 5.48394 150.823 10.5969 150.823 10.5969L153.462 13.6121C153.462 13.6121 159.87 17.0016 162.131 18.1348C165.147 16.6272 166.278 15.4974 166.278 15.4974V15.494Z" fill="#B26836"/>
<path d="M88.0574 18.553C88.0574 18.553 88.4792 21.6727 88.4792 22.7857C88.4792 23.8987 84.035 28.499 84.035 28.499H77.6369C77.6369 28.499 73.8744 26.3843 73.4492 24.6913C73.0274 22.9982 73.4492 20.6238 73.4492 20.6238L88.0574 18.5564V18.553Z" fill="#B26836"/>
<path d="M141.614 67.4262C141.614 67.4262 147.705 79.4902 136.721 80.1243C125.737 80.7584 125.305 68.9001 125.305 68.9001C125.305 68.9001 141.823 67.2171 141.614 67.4262Z" fill="#B26836"/>
<path d="M0.853584 34.987L189.243 5.43465L188.39 0.000365787L0.000191857 29.5527L0.853584 34.987Z" fill="#0C0C0C"/>
<path d="M161.726 12.2057C161.726 12.2057 157.916 7.12643 151.565 9.66604C147.33 6.70485 145.215 5.85831 143.521 6.70485C141.827 7.55138 141.938 9.29842 141.938 9.29842C141.938 9.29842 149.024 10.5126 150.715 13.8954C157.066 15.5884 159.607 17.2815 159.607 17.2815L161.723 12.2023L161.726 12.2057Z" fill="#B26836"/>
<path d="M163.919 0.647546C163.919 0.647546 165.913 -0.0640852 166.622 1.92916C167.334 3.9224 168.12 6.13149 165.873 6.13487C165.934 7.56487 164.874 8.20231 162.994 7.97297C162.225 9.59521 159.667 8.89707 159.667 8.89707C159.667 8.89707 159.603 5.54128 157.912 4.58681C158.84 7.19051 155.625 7.64245 155.054 6.04718C154.484 4.45191 152.864 3.68294 152.864 3.68294C152.864 3.68294 154.288 1.37941 155.911 2.14838L157.535 2.91735C157.535 2.91735 159.104 1.01179 160.184 1.52444C161.095 0.300162 162.718 1.0725 162.718 1.0725L163.916 0.647546H163.919Z" fill="#B26836"/>
<path d="M152.868 3.68633L152.163 5.67282L154.673 5.28159C154.673 5.28159 154.596 4.05395 152.871 3.68633H152.868Z" fill="#96582D"/>
<path d="M88.4827 13.6593C88.4827 13.6593 84.4771 13.8987 84.7876 19.3995C84.6729 20.6677 84.6729 22.3607 84.6729 22.3607L88.4827 22.2191V13.6593Z" fill="#B26836"/>
<path d="M71.9678 18.3405C71.9678 18.3405 72.4267 22.1719 73.6786 23.6424C74.9306 25.1128 76.2837 23.4198 76.0307 22.1516C77.4716 24.2663 79.287 24.2123 79.287 24.2123C79.287 24.2123 81.9326 25.1128 82.2431 22.1516C82.5536 19.1904 82.1284 16.8633 82.1284 16.8633C82.1284 16.8633 84.2442 17.2849 85.0912 16.0168C85.9382 14.7486 85.9382 12.8431 85.0912 12.8431H81.8787L80.4344 15.8043L71.9678 18.3439V18.3405Z" fill="#B26836"/>
<path d="M166.103 5.73015C167.236 5.73015 167.213 4.97468 167.213 4.97468L166.906 3.38615L165.536 3.46373L166.103 5.72678V5.73015Z" fill="#C17B4C"/>
<path d="M165.016 6.96791C165.1 6.8094 165.097 6.67112 165.097 6.67112L164.689 5.86168L163.42 6.01008L163.825 6.78242C163.967 7.34228 164.743 7.48056 165.016 6.97128V6.96791Z" fill="#C17B4C"/>
<path d="M162.053 7.81445C162.138 7.65594 162.134 7.51766 162.134 7.51766L162.151 6.70822L160.457 6.85662L160.862 7.62896C161.004 8.18882 161.78 8.3271 162.053 7.81783V7.81445Z" fill="#C17B4C"/>
<path d="M156.971 5.69643C157.056 5.53791 157.052 5.39963 157.052 5.39963L157.069 4.59019L155.375 4.73859L155.78 5.51093C155.922 6.07079 156.698 6.20907 156.971 5.6998V5.69643Z" fill="#C17B4C"/>
<path d="M165.536 5.88529C165.536 5.88529 165.556 5.88529 165.566 5.88529C165.681 5.86843 165.762 5.7605 165.745 5.64583C165.728 5.53116 165.3 2.79256 164.415 1.90555C163.471 0.961205 162.519 1.42326 162.479 1.4435C162.374 1.49409 162.33 1.62225 162.384 1.7268C162.438 1.83135 162.563 1.8752 162.667 1.82123C162.694 1.80774 163.396 1.48397 164.115 2.20572C164.905 2.99492 165.323 5.68293 165.327 5.70991C165.343 5.81446 165.431 5.88866 165.536 5.88866V5.88529Z" fill="#96562C"/>
<path d="M162.573 7.33891C162.681 7.33891 162.772 7.25797 162.782 7.15004C162.799 6.98815 163.191 3.18042 160.548 1.85834C160.444 1.80775 160.315 1.84822 160.265 1.95277C160.214 2.05732 160.255 2.18548 160.359 2.23607C162.735 3.42325 162.364 7.06572 162.36 7.10282C162.347 7.21749 162.431 7.32205 162.549 7.33554C162.556 7.33554 162.566 7.33554 162.573 7.33554V7.33891Z" fill="#96562C"/>
<path d="M158.125 4.16524C158.156 4.16524 158.189 4.15849 158.22 4.14163C158.324 4.09104 158.368 3.96288 158.314 3.85832C157.892 3.01179 157.714 2.79931 157.693 2.77907C157.616 2.69138 157.481 2.68464 157.393 2.75884C157.305 2.83641 157.299 2.96794 157.373 3.05563C157.383 3.06912 157.545 3.26811 157.933 4.04719C157.97 4.12139 158.044 4.16524 158.122 4.16524H158.125Z" fill="#96562C"/>
<path d="M142.711 9.45695C142.711 9.45695 142.673 7.97298 144.367 8.39793C146.061 8.81951 146.483 9.24447 146.483 9.24447L145.967 10.4316L142.711 9.45695Z" fill="#C17B4C"/>
<path d="M88.4827 14.8566C88.4827 14.8566 87.2139 14.7453 87.2139 16.4384V18.1314H88.4827V14.8566Z" fill="#C17B4C"/>
<path d="M82.7933 12.8397L85.3107 12.8869C85.3107 12.8869 85.0947 14.7419 83.8225 14.7419H82.5537L82.7933 12.8363V12.8397Z" fill="#C17B4C"/>
<path d="M81.2848 21.5142L79.5908 21.9358C79.5908 21.9358 79.8338 23.8413 80.7719 23.5209C81.71 23.2005 81.2848 21.5108 81.2848 21.5108V21.5142Z" fill="#C17B4C"/>
<path d="M78.7436 22.3607L77.1104 22.5361C77.1104 22.5361 77.4748 23.6289 78.3218 23.6289C79.1688 23.6289 78.7436 22.3607 78.7436 22.3607Z" fill="#C17B4C"/>
<path d="M74.9337 22.3607L73.5333 22.5361C73.5333 22.5361 73.2397 23.6289 74.5085 23.6289C74.5085 23.6289 75.3555 23.6289 74.9303 22.3607H74.9337Z" fill="#C17B4C"/>
<path d="M79.5906 23.8447C79.6175 23.8447 79.6479 23.838 79.6749 23.8278C79.7829 23.7806 79.8301 23.6558 79.7863 23.5513C79.7728 23.5209 78.531 20.6137 78.7402 18.58C78.7503 18.4653 78.6659 18.3608 78.5512 18.3473C78.4365 18.3372 78.3319 18.4215 78.3184 18.5361C78.099 20.6812 79.3442 23.5951 79.3982 23.7199C79.4319 23.8009 79.5096 23.8481 79.5939 23.8481L79.5906 23.8447Z" fill="#96562C"/>
<path d="M76.0308 22.3607C76.0578 22.3607 76.0881 22.354 76.1151 22.3439C76.2231 22.2967 76.2737 22.1752 76.2265 22.0673C76.2197 22.0505 75.5246 20.3945 75.6494 18.5699C75.6562 18.4518 75.5685 18.3506 75.4537 18.3439C75.3356 18.3372 75.2344 18.4248 75.2276 18.5395C75.096 20.4721 75.8081 22.1618 75.8384 22.2326C75.8722 22.3135 75.9498 22.3607 76.0341 22.3607H76.0308Z" fill="#96562C"/>
<path d="M1.03271 34.0706L1.20144 35.504L4.67042 64.9507C5.10235 68.5561 8.37898 71.126 11.9863 70.6876C15.5936 70.2559 18.165 66.981 17.7263 63.3757L14.0954 32.4956L13.9131 32.5158L1.03271 34.0672V34.0706Z" fill="#EFE3D8"/>
<path d="M1.03271 34.0706L1.20144 35.504C2.08556 38.0773 4.52869 39.9222 7.40376 39.9222C11.028 39.9222 13.9671 36.9846 13.9671 33.3624C13.9671 33.0757 13.9503 32.7924 13.9131 32.5158L1.03271 34.0672V34.0706Z" fill="#0C0C0C"/>
<path d="M95.7548 110.893C91.891 114.043 86.5796 113.723 84.1398 110.188L78.0084 101.308L77.5562 100.647C77.2322 100.171 77.374 99.4766 77.8835 99.0449L87.3287 91.0787C87.8214 90.6639 88.4963 90.6301 88.9114 90.9978L97.2329 98.9134C100.476 101.999 99.7806 107.605 95.7515 110.893H95.7548Z" fill="#B26836"/>
<path d="M88.9048 91.335L84.1434 110.185L77.9917 101.315L88.9048 91.335Z" fill="black"/>
<path d="M78.8215 67.8073C78.8215 67.8073 78.8282 67.8107 78.8282 67.8175C78.9733 67.8917 79.1218 67.9861 79.2737 68.0772C79.2737 68.0772 79.2838 68.0839 79.2973 68.0873C79.6449 68.2863 79.9722 68.5089 80.2961 68.7517C80.2961 68.7517 80.3029 68.7517 80.3063 68.7584C82.8574 70.6134 85.0407 73.4532 86.9203 76.9911C87.0316 77.2002 87.1396 77.4059 87.2375 77.6083C87.2375 77.6117 87.2375 77.6184 87.2442 77.6218C87.666 78.4987 88.0338 79.3924 88.3443 80.3199C88.4287 80.5695 88.5198 80.8191 88.5873 81.0754C88.9416 82.2221 89.2014 83.3924 89.3836 84.5796C89.3904 84.6335 89.4039 84.6841 89.4106 84.7381C89.4916 85.2103 89.5456 85.6824 89.5861 86.1614C89.7852 88.2187 89.7548 90.2828 89.5051 92.2929C89.4545 92.674 89.4005 93.0551 89.333 93.4261V93.4328C89.3094 93.5981 89.279 93.76 89.2385 93.9151C89.1508 94.3907 89.0563 94.8561 88.9382 95.3114C88.9213 95.3822 88.9045 95.4463 88.8876 95.5171C88.7627 96.0095 88.6244 96.4952 88.4658 96.9573C88.4658 96.9876 88.459 97.0045 88.4523 97.018C88.4523 97.0348 88.4455 97.0449 88.432 97.0517C88.3679 97.2777 88.2903 97.4969 88.2161 97.7161C87.7841 98.9134 87.197 100.023 86.4782 101.031C83.6841 104.937 78.9463 107.23 74.0533 106.684C73.9825 106.674 73.9116 106.667 73.8407 106.66C73.807 106.66 73.7732 106.65 73.7395 106.647C73.6821 106.64 73.6281 106.63 73.5674 106.62C73.5438 106.61 73.5067 106.606 73.483 106.603C73.483 106.603 73.4808 106.597 73.4763 106.586C73.4999 106.529 73.5202 106.468 73.5505 106.411C75.6933 102.219 71.816 98.2018 67.824 104.593C67.7464 104.549 67.6722 104.502 67.6013 104.455C67.5338 104.418 67.4629 104.37 67.4022 104.34C66.9804 104.07 66.5619 103.777 66.1536 103.456C64.4225 102.094 62.8365 100.279 61.4901 97.9421C61.4631 97.8982 61.4327 97.8476 61.4091 97.8004C61.3382 97.679 61.2707 97.5576 61.2033 97.4294C61.1898 97.4092 61.1796 97.3856 61.1695 97.3653C61.1391 97.3114 61.102 97.2507 61.0784 97.1967C60.4912 96.819 59.9446 96.4176 59.4384 95.9859C57.6668 94.4986 56.3811 92.7279 55.5409 90.8123C55.47 90.6537 55.4025 90.4952 55.3384 90.3333C55.1933 89.9792 55.0718 89.615 54.9604 89.2507C54.9233 89.1327 54.8896 89.018 54.8558 88.9C54.7647 88.5661 54.6804 88.2254 54.6095 87.8848C54.5859 87.7465 54.5589 87.615 54.5353 87.4733C54.4948 87.2507 54.461 87.0281 54.434 86.7954C54.2484 85.3182 54.2721 83.8106 54.5049 82.3199C54.6163 81.5914 54.7782 80.8629 54.9874 80.1479L54.9942 80.131C55.2135 79.3182 55.5004 78.5257 55.8479 77.7567C55.8479 77.7533 55.8513 77.7499 55.8547 77.7466C56.1449 77.0957 56.4688 76.4515 56.8333 75.8444C56.8603 75.7871 56.8839 75.7398 56.9143 75.7027C57.3125 75.0248 57.7647 74.3739 58.254 73.75C58.3282 73.6623 58.3957 73.5813 58.4733 73.4835C58.4733 73.4835 58.4733 73.4813 58.4733 73.4768C58.8411 73.0215 59.2461 72.5797 59.6746 72.1581C60.2651 71.5544 60.9029 70.9911 61.5947 70.4785C62.2966 69.9524 63.0457 69.4599 63.8354 69.0316C64.274 68.7854 64.7229 68.5561 65.1683 68.3605C66.022 67.9355 66.842 67.5915 67.6553 67.3116C71.9949 65.7905 75.6663 66.1041 78.808 67.8107L78.8215 67.8073Z" fill="#B26836"/>
<path d="M58.7568 94.6942C59.7827 95.5475 60.8288 96.5728 61.804 97.6115C64.4192 100.391 66.5519 103.284 66.5519 103.284C66.5519 103.284 66.4068 103.355 66.1571 103.453C65.2122 103.827 62.8164 104.62 61.4328 103.605C60.488 102.91 60.3766 101.207 60.1505 99.3316C60.0189 98.2186 59.8468 97.0416 59.4351 95.9825C59.2596 95.5239 59.0369 95.0922 58.7568 94.6942Z" fill="#B26836"/>
<path d="M71.3503 79.6454L75.2074 83.6454L61.8039 97.6116L61.49 97.9387L60.1504 99.3316C60.0188 98.2186 59.8467 97.0416 59.435 95.9826C57.6634 94.4952 56.3777 92.7246 55.5374 90.8089C55.4666 90.6504 55.3991 90.4919 55.335 90.33C55.1899 89.9758 55.0684 89.6116 54.957 89.2474C54.9199 89.1293 54.8862 89.0146 54.8524 88.8966C54.7613 88.5627 54.677 88.2221 54.6061 87.8814C54.5825 87.7431 54.5555 87.6116 54.5318 87.47C54.4914 87.2474 54.4576 87.0248 54.4306 86.7921C54.245 85.3148 54.2686 83.8073 54.5015 82.3165L71.3503 79.6454Z" fill="#D43838"/>
<path d="M55.75 73.7162C55.75 73.7162 61.2437 75.8983 68.0433 79.8949C84.1261 89.3519 88.0877 88.7145 89.6839 88.1209C92.3396 80.0433 80.1138 52.5359 55.75 73.7162Z" fill="black"/>
<path d="M80.8628 88.819C83.6569 88.3873 85.5736 85.7701 85.1383 82.9776C84.7064 80.185 82.0877 78.2693 79.2937 78.7044C76.4996 79.1361 74.5829 81.7533 75.0182 84.5459C75.4501 87.3384 78.0687 89.2541 80.8628 88.819Z" fill="#B26836"/>
<path d="M76.8846 81.642C74.9274 84.647 79.051 87.6487 82.0847 87.1462C82.3614 87.1226 82.4728 86.7684 82.2635 86.6099C80.3266 85.0956 78.5853 83.8376 77.3368 81.7094C77.2659 81.5341 77.0095 81.4767 76.8812 81.642H76.8846Z" fill="#9B5729"/>
<path d="M73.0983 82.3941L57.3225 89.3182L55.1831 84.9438L56.3136 90.3097L54.8052 91.2136C54.8052 91.2136 47.8875 82.1411 55.7467 73.7196C63.6059 65.2981 73.0949 82.3975 73.0949 82.3975L73.0983 82.3941Z" fill="black"/>
<path d="M63.4944 97.8746C63.4944 97.8746 64.8981 97.4025 66.1703 96.0939C66.5786 95.6723 66.9735 95.1664 67.3042 94.5627C68.6641 92.0736 68.06 89.9455 67.014 88.9708C65.9679 87.9995 62.7216 88.9371 61.5304 91.7903C61.3954 92.1141 61.2976 92.4345 61.2402 92.7448C60.7711 95.1394 62.4078 96.9977 63.4944 97.878V97.8746Z" fill="white"/>
<path d="M63.4944 97.8746C63.4944 97.8746 64.8981 97.4024 66.1703 96.0939C66.4133 94.9067 66.69 94.0332 65.6675 93.2541C64.5506 92.4075 62.3605 92.0062 61.2402 92.7414C60.7711 95.136 62.4078 96.9944 63.4944 97.8746Z" fill="#0C0C0C"/>
<path d="M66.329 88.6436C66.329 88.6436 65.6473 88.2119 64.3347 88.6099C62.0063 89.3215 59.0468 93.5778 62.5361 96.9741C62.5361 96.9741 59.3033 93.19 63.4641 89.8376C64.7902 88.7684 66.329 88.6436 66.329 88.6436Z" fill="#0C0C0C"/>
<path d="M65.3505 94.2456C66.2321 94.2456 66.9467 93.5314 66.9467 92.6504C66.9467 91.7693 66.2321 91.0551 65.3505 91.0551C64.469 91.0551 63.7544 91.7693 63.7544 92.6504C63.7544 93.5314 64.469 94.2456 65.3505 94.2456Z" fill="white"/>
<path d="M96.0719 69.9389C96.1596 69.9389 96.2507 69.8815 96.2541 69.7871C96.2575 69.7028 96.1934 69.605 96.1023 69.605C96.0145 69.605 95.9234 69.6623 95.92 69.7567C95.9167 69.8411 95.9808 69.9389 96.0719 69.9389Z" fill="#B26836"/>
<path d="M72.7606 101.301C72.7606 101.301 69.6459 100.559 67.6246 103.719C66.3288 105.746 68.205 106.418 69.2983 105.821C71.7313 104.488 72.7606 101.305 72.7606 101.305V101.301Z" fill="#9B5729"/>
<path d="M72.7607 101.301C72.7607 101.301 75.7134 103.389 73.9722 106.333C72.6493 108.569 70.7968 106.573 71.3704 105.369C72.6426 102.691 72.7641 101.301 72.7641 101.301H72.7607Z" fill="#9B5729"/>
<path d="M60.2918 91.1394L65.6134 87.217C65.6134 87.217 63.0623 85.7263 59.1985 88.6234C59.0365 88.7448 58.8847 88.8629 58.7395 88.9843C57.2885 90.1816 58.7834 92.2558 60.2952 91.1394H60.2918Z" fill="black"/>
<path d="M98.2179 190.775L73.6618 205.584C73.6618 205.584 74.0836 219.547 71.1208 230.548C68.158 241.55 68.158 259.745 68.158 259.745L39.792 257.206C39.792 257.206 45.721 204.312 52.0684 193.732C58.4192 183.152 96.0988 164.11 96.524 161.996C96.9458 159.881 96.1021 155.227 96.1021 155.227L131.244 154.38C131.244 154.38 133.998 160.515 134.419 165.169C134.841 169.824 132.726 177.864 130.185 183.365C127.644 188.866 121.718 214.677 121.718 214.677C121.718 214.677 127.647 218.484 131.457 227.371C135.266 236.258 144.371 258.896 144.371 258.896L122.356 263.55C122.356 263.55 109.02 236.68 106.479 231.601C103.938 226.521 98.4339 199.442 98.2213 190.768L98.2179 190.775Z" fill="#326BD7"/>
<path d="M98.2178 190.775C98.2178 190.775 118.752 188.447 123.834 179.985C117.061 198.602 100.631 208.225 100.631 208.225C100.631 208.225 98.0052 197.334 98.2178 190.775Z" fill="#1D5BBF"/>
<path d="M62.8667 259.051L46.5679 257.213L30.6471 264.467C30.6471 264.467 23.2333 263.327 22.0927 266.177C20.9521 269.027 20.9521 272.447 20.9521 272.447H60.3021L62.8667 259.054V259.051Z" fill="#1C1C1C"/>
<path d="M141.827 258.902C142.249 265.25 143.521 275 143.521 275L112.857 274.939C112.857 274.939 112.31 271.874 112.857 270.396C113.403 268.919 120.524 267.826 120.524 267.826L127.009 262.288L141.827 258.902Z" fill="#1C1C1C"/>
<path d="M134.629 165.385C134.629 165.385 124.043 116.724 97.3709 98.9505C97.3709 98.9505 84.2475 103.183 81.2813 111.645C78.3185 120.107 86.7851 134.073 86.7851 134.073L89.7479 136.188L96.5205 161.999L134.625 165.385H134.629Z" fill="#469B49"/>
<path d="M103.3 131.959L120.446 163.905L96.7365 161.79L95.0425 155.018L103.3 131.959Z" fill="#3C8E3C"/>
<path d="M22.0117 144.653L31.9833 147.034V170.579L22.0117 173.058V144.653Z" fill="black"/>
<path d="M31.7508 169.645H38.5234V148.063H31.7508L31.7508 169.645Z" fill="#1C1C1C"/>
<path d="M38.5199 167.925H42.7549V150.151H38.5199V167.925Z" fill="black"/>
<path d="M42.5424 166.023H46.7773V152.906H42.5424V166.023Z" fill="#1C1C1C"/>
<path d="M46.7803 167.712H91.6577V143.594H46.7803V167.712Z" fill="black"/>
<path d="M46.7807 143.594H58.6353V137.247H46.7807V143.594Z" fill="#1C1C1C"/>
<path d="M46.7773 137.247H61.1729V132.168H46.7773V137.247Z" fill="black"/>
<path d="M46.777 132.168H51.012L40.0044 116.937L37.2002 118.883L46.777 132.168Z" fill="black"/>
<path d="M103.3 131.959C103.3 131.959 102.575 115.878 102.726 116.937C102.878 117.996 120.446 163.908 120.446 163.908L112.418 163.655L103.3 131.959Z" fill="#3C8E3C"/>
<path d="M57.5724 165.385H63.0762V145.922H57.5724V165.385Z" fill="#1C1C1C"/>
<path d="M103.3 131.959C103.3 131.959 104.147 147.615 104.569 150.576C104.99 153.537 93.1358 159.038 85.9414 158.616C78.7436 158.195 69.0993 158.64 69.0993 158.64C69.0993 158.64 63.9262 162.849 57.9972 162.002C52.0683 161.156 53.7623 157.77 54.6093 156.923C52.9153 155.655 53.3404 153.537 54.6093 152.69C52.4934 150.997 53.7623 149.729 54.6093 148.883C54.6093 148.883 52.9153 148.036 54.1874 145.922C55.4563 143.807 61.3852 144.653 63.9262 144.653C66.4672 144.653 69.43 149.308 69.43 149.308C69.43 149.308 82.1316 145.922 88.4824 145.5C88.0606 137.46 86.1371 131.959 86.1371 131.959H103.3Z" fill="#B26836"/>
<path d="M145.606 49.939C145.606 49.939 148.38 52.7855 149.858 57.2476C150 57.6793 146.844 59.1565 146.844 59.1565C146.844 59.1565 150.411 59.2948 150.479 59.659C150.901 61.9322 150.904 64.4988 150.101 67.2407C150.04 67.4465 145.748 67.3689 145.748 67.3689C145.748 67.3689 149.719 68.3976 149.611 68.6707C148.576 71.325 146.753 74.121 143.814 76.954C140.197 71.7669 139.394 66.836 139.856 62.6404C139.886 62.3706 144.104 61.8951 144.104 61.8951C144.104 61.8951 140.045 61.3217 140.092 61.0688C141.361 54.3943 145.603 49.9424 145.603 49.9424L145.606 49.939Z" fill="#D43838"/>
<path d="M146.483 54.0975C150.459 54.0975 153.681 50.8767 153.681 46.9036C153.681 42.9305 150.459 39.7097 146.483 39.7097C142.508 39.7097 139.286 42.9305 139.286 46.9036C139.286 50.8767 142.508 54.0975 146.483 54.0975Z" fill="#EFE3D8"/>
<path d="M146.908 51.5579C149.48 51.5579 151.565 49.4741 151.565 46.9036C151.565 44.3331 149.48 42.2493 146.908 42.2493C144.336 42.2493 142.251 44.3331 142.251 46.9036C142.251 49.4741 144.336 51.5579 146.908 51.5579Z" fill="#DBC9BA"/>
<path d="M147.583 39.794C147.583 39.794 149.024 25.4939 138.442 23.2916C134.632 22.3607 132.854 23.6491 132.854 23.6491C132.854 23.6491 143.945 25.8245 143.945 40.1718C146.486 42.2493 147.583 39.794 147.583 39.794Z" fill="#EFE3D8"/>
<path d="M166.838 145.399C172.18 145.399 176.975 142.599 181.379 136.94C186.171 130.785 189.782 122.229 193.274 113.955C194.911 110.08 196.514 106.279 198.144 102.988C200.404 105.463 202.861 107.288 205.412 108.326C210.062 110.219 214.361 109.723 217.209 106.967C219.838 104.424 220.712 100.293 219.383 96.6841C218.633 94.6504 216.032 89.8645 208.085 89.3654C203.897 89.1023 200.617 92.077 197.661 96.8325C196.115 94.448 194.718 91.6622 193.531 88.5492C189.373 77.6521 187.413 60.9406 194.388 46.7215C199.203 36.907 199.392 25.7907 194.941 14.5766C191.607 6.18209 186.906 0.738618 186.707 0.51265L184.153 2.73523L185.428 1.62225L184.15 2.73186C184.193 2.78245 188.715 8.03706 191.826 15.9223C195.933 26.3371 195.771 36.1954 191.341 45.2274C183.89 60.4178 185.948 78.1884 190.362 89.7499C191.87 93.706 193.72 97.1967 195.805 100.094C193.892 103.757 192.066 108.084 190.146 112.63C186.741 120.701 183.218 129.048 178.7 134.852C173.813 141.132 168.708 143.193 162.637 141.331L161.645 144.569C163.43 145.115 165.158 145.392 166.832 145.392L166.838 145.399ZM207.609 92.7381C207.697 92.7381 207.784 92.7381 207.876 92.7448C212.07 93.0079 215.107 94.8696 216.207 97.8544C217.081 100.225 216.541 102.91 214.857 104.536C212.991 106.34 210.089 106.573 206.691 105.19C204.292 104.215 201.963 102.364 199.834 99.8004C202.267 95.5542 204.798 92.7381 207.612 92.7381H207.609Z" fill="#0C0C0C"/>
<path d="M160.457 152.69H168.077V131.955H160.457V152.69Z" fill="#0C0C0C"/>
</g>
<defs>
<clipPath id="clip0_216_698">
<rect width="220" height="275" fill="white"/>
</clipPath>
</defs>
</svg>
