<?xml version="1.0" encoding="UTF-8"?>
<svg id="Camada_1" data-name="Camada 1" xmlns="http://www.w3.org/2000/svg" viewBox="0 0 268 272">
  <defs>
    <style>
      .cls-1 {
        fill: #6b3605;
      }

      .cls-2 {
        fill: #263238;
      }

      .cls-3 {
        fill: #f6f6f6;
      }

      .cls-4 {
        opacity: .3;
      }

      .cls-5 {
        fill: #0c0c0c;
      }

      .cls-6 {
        fill: #b27949;
      }

      .cls-7 {
        fill: #160900;
      }

      .cls-8 {
        fill: #874000;
      }

      .cls-9 {
        fill: #fff;
      }

      .cls-10 {
        fill: #b26836;
      }

      .cls-11 {
        fill: #c76fdd;
      }

      .cls-12 {
        fill: #2b1200;
      }

      .cls-13 {
        fill: #326bd7;
      }

      .cls-14 {
        fill: #ae7461;
      }

      .cls-15 {
        fill: #e2e2e2;
      }

      .cls-16 {
        fill: #ffbf9d;
      }

      .cls-17 {
        fill: #823e00;
      }

      .cls-18 {
        fill: #e0e0e0;
      }

      .cls-19 {
        fill: #f2f2f2;
      }

      .cls-20 {
        fill: #d43838;
      }

      .cls-21 {
        fill: #421e00;
      }

      .cls-22 {
        fill: #a56738;
      }

      .cls-23 {
        fill: #630;
      }

      .cls-24 {
        fill: #994600;
      }

      .cls-25 {
        fill: #c42d2d;
      }

      .cls-26 {
        fill: #8c5002;
      }

      .cls-27 {
        fill: #ff9f00;
      }

      .cls-28 {
        fill: #93562c;
      }

      .cls-29 {
        fill: #d37ce8;
      }

      .cls-30 {
        fill: #773c07;
      }

      .cls-31 {
        fill: #edaf3e;
      }

      .cls-32 {
        fill: #bc6f0a;
      }

      .cls-33 {
        fill: #c763e0;
      }

      .cls-34 {
        fill: #230e00;
      }

      .cls-35 {
        fill: #4c2400;
      }

      .cls-36 {
        fill: #f4b498;
      }

      .cls-37 {
        fill: #d39c6a;
      }

      .cls-38 {
        fill: #e8a38b;
      }

      .cls-39 {
        fill: #3f8e3f;
      }

      .cls-40 {
        fill: #d8952a;
      }

      .cls-41 {
        fill: #fcb89a;
      }

      .cls-42 {
        fill: #5e2d01;
      }

      .cls-43 {
        fill: #a05f00;
      }

      .cls-44 {
        fill: #ededed;
      }

      .cls-45 {
        fill: #ffb899;
      }

      .cls-46 {
        fill: #175dcc;
      }
    </style>
  </defs>
  <path class="cls-34" d="M183.28,165.63l-.76.16c-23.59,4.86-47.85,4.81-71.42-.16h0v-35.1h72.18v35.1Z"/>
  <polygon points="111.1 165.63 109.51 163.13 109.51 156.44 111.1 157.17 111.1 165.63"/>
  <polygon points="183.28 165.63 184.87 163.13 184.87 155.6 183.28 156.4 183.28 165.63"/>
  <path class="cls-39" d="M59.75,264c5.81.57,11.75.78,17.38-.81,17.96-5.06,27.94-28.67-18.59-30.98-26.27-1.3-43.66,27.35,1.21,31.79Z"/>
  <path class="cls-39" d="M177.73,252.13c0,9-21.1,17.97-41.25,17.97s-31.73-17.74-31.73-26.74,16.34-7.52,36.49-7.52,36.49,7.3,36.49,16.3Z"/>
  <path class="cls-39" d="M257.84,231.66c0,10.38-17.21,27.58-36.49,27.58s-34.9-18.86-34.9-29.25,15.63-5.01,34.9-5.01,36.49-3.7,36.49,6.69Z"/>
  <path class="cls-39" d="M263.39,162.71c0,5.77-12.78,10.45-28.56,10.45s-27.76-10.11-27.76-15.88,11.99-5.01,27.76-5.01,28.56,4.68,28.56,10.45Z"/>
  <path class="cls-39" d="M81.75,158.95c0,5.08-14.26,14.21-26.97,14.21s-18.24-17.49-18.24-22.56,9.51-.84,22.21-.84,23,4.12,23,9.19Z"/>
  <g>
    <polygon class="cls-23" points="117.7 155.72 117.44 167.31 131.93 166.69 136.4 155.72 117.7 155.72"/>
    <g>
      <path class="cls-7" d="M112.64,174.02s.76,4.63,9.61,4.61c8.85-.02,9.89-2.48,9.89-2.48l-.98-4.47-16.4-1.58-2.12,3.93Z"/>
      <path class="cls-12" d="M112.72,172.44s1.3,4.8,8.88,4.75c7.58-.05,9.45-3.11,9.45-3.11l.91,4.42s-1.02,1.96-8.09,1.96-11.32-4.7-11.32-4.7l.17-3.33Z"/>
      <path class="cls-23" d="M130.1,175.03h0c-.3.72-1.04,1.41-2.67,1.71-2.58.48-3.55.12-3.91-.21h0c-.22-.2-.22-.39-.22-.39,0,0-.12.21-.4.44-.41.35-1.17.74-2.41.57-.8-.12-1.22-.29-1.44-.45-.22-.17-.23-.34-.2-.43-.03.05-.08.12-.19.19-.2.12-.56.23-1.25.16-.66-.07-.91-.39-.99-.7-.08-.33.02-.65.02-.65,0,0-.22.13-.55.19-.34.06-.79.05-1.23-.23-.48-.31-.63-.66-.66-.92-.03-.21.02-.35.02-.35,0,0-.17.03-.39-.02-.27-.06-.62-.25-.78-.78-.05-.15-.08-.3-.1-.43-.11-.69.1-1.07.1-1.07,0,0,1.23-.92,3.44-.92h2.21s8.54.65,9.56.87,1.92,1.09,1.92,1.09c0,.03.58,1.22.13,2.33Z"/>
      <path class="cls-35" d="M123.3,176.04c-.08,0-.16-.06-.17-.14,0-.03-.09-.73.04-1.48.17-1.04.65-1.66,1.4-1.81.09-.02.18.04.2.13.02.09-.04.18-.13.19-1.47.29-1.17,2.9-1.17,2.93.01.09-.06.17-.15.18,0,0-.01,0-.02,0Z"/>
      <path class="cls-1" d="M130.1,175.03h0c-.3.72-1.04,1.41-2.67,1.71-2.58.48-3.55.12-3.91-.21h0c-.07-.19-.11-.38-.11-.58,0-1.31,1.56-2.37,3.48-2.37,1.44,0,2.68.6,3.21,1.45Z"/>
      <path class="cls-1" d="M122.9,176.59c-.41.35-1.17.74-2.41.57-.8-.12-1.22-.29-1.44-.45,0-.02,0-.05,0-.07,0-.81.86-1.47,1.92-1.47s1.89.63,1.92,1.43Z"/>
      <path class="cls-1" d="M118.71,176.17c0,.1-.02.2-.05.29-.2.12-.56.23-1.25.16-.66-.07-.91-.39-.99-.7.13-.44.58-.76,1.12-.76.64,0,1.16.45,1.16,1.01Z"/>
      <path class="cls-1" d="M116.17,174.81c0,.25-.1.47-.27.65-.34.06-.79.05-1.23-.23-.48-.31-.63-.66-.66-.92.2-.31.58-.51,1.01-.51.64,0,1.16.45,1.16,1.01Z"/>
      <path class="cls-1" d="M113.85,173.44c0,.19-.08.37-.22.5-.27-.06-.62-.25-.78-.78-.05-.15-.08-.3-.1-.43.08-.02.17-.03.26-.03.47,0,.85.33.85.74Z"/>
      <path class="cls-35" d="M124.04,174.43l4.86-.41s-1.68-3.11-4.86.41Z"/>
      <path class="cls-35" d="M119.65,175.57l2.4-.16s-1.01-1.83-2.4.16Z"/>
      <path class="cls-35" d="M116.8,175.4s.7-.85,1.5,0h-1.5Z"/>
      <path class="cls-35" d="M114.18,174.1l1.84.22s-.59-1.18-1.84-.22Z"/>
      <path class="cls-35" d="M112.81,172.93l1.01.32s-.24-.86-1.01-.32Z"/>
      <path class="cls-12" d="M112.84,171.67s1.17-1.09,6.58-.62c6.02.52,11.04.14,11.7,3.38.66,3.25.83,4.07.83,4.07l.68-8.4s.17-3.82-4.75-4.26c-4.92-.44-10.58,1.36-10.58,1.36l-4.46,4.47Z"/>
      <path class="cls-23" d="M117.3,167.2l2.1-4.78c1-2.28,3.27-3.8,5.83-3.92h0c3.62-.17,6.71,2.48,6.98,5.96l.43,5.64s-1.98-5.89-15.33-2.89Z"/>
      <path class="cls-35" d="M123.33,174.59s0,0,0,0c-.09,0-.17-.08-.16-.17.03-.76-.66-1.48-.67-1.49-.06-.07-.06-.17,0-.23.07-.06.18-.06.24,0,.03.03.8.82.76,1.73,0,.09-.08.16-.17.16Z"/>
      <path class="cls-35" d="M118.96,176.04c-.08,0-.16-.06-.17-.14,0-.05-.15-1.27.66-1.43.09-.02.18.04.2.13s-.04.18-.13.19c-.49.1-.39,1.07-.39,1.08.01.09-.06.17-.15.18,0,0-.01,0-.02,0Z"/>
      <path class="cls-35" d="M118.97,175.45s0,0,0,0c-.09,0-.17-.08-.16-.17.01-.26-.24-.53-.24-.53-.06-.07-.06-.17,0-.23.07-.06.18-.06.24,0,.01.01.35.36.34.77,0,.09-.08.16-.17.16Z"/>
      <path class="cls-35" d="M116.52,175.11c-.08,0-.16-.06-.17-.14,0-.05-.15-1.27.66-1.43.09-.02.18.04.2.13.02.09-.04.18-.13.19-.49.1-.39,1.07-.39,1.08.01.09-.06.17-.15.18,0,0-.01,0-.02,0Z"/>
      <path class="cls-35" d="M116.54,174.53s0,0,0,0c-.09,0-.17-.08-.16-.17.01-.26-.24-.53-.24-.53-.06-.07-.06-.17,0-.23.07-.06.18-.06.24,0,.01.01.35.36.34.77,0,.09-.08.16-.17.16Z"/>
      <path class="cls-35" d="M114.32,173.58c-.08,0-.16-.06-.17-.14-.03-.25.02-.71.39-.78.09-.02.18.04.2.13.02.09-.04.18-.13.19-.11.02-.13.29-.12.42.01.09-.06.17-.15.18,0,0-.01,0-.02,0Z"/>
      <path class="cls-35" d="M114.33,173.3s0,0,0,0c-.09,0-.17-.08-.16-.17,0-.07-.07-.17-.09-.19-.06-.07-.06-.17,0-.23.07-.06.17-.06.24,0,.02.02.19.2.19.43,0,.09-.08.16-.17.16Z"/>
    </g>
    <polygon class="cls-23" points="178.06 155.72 178.09 165.95 163.83 166.69 159.36 155.72 178.06 155.72"/>
    <g>
      <path class="cls-7" d="M183.12,174.02s-.76,4.63-9.61,4.61c-8.85-.02-9.89-2.48-9.89-2.48l.98-4.47,16.4-1.58,2.12,3.93Z"/>
      <path class="cls-12" d="M183.04,172.44s-1.3,4.8-8.88,4.75c-7.58-.05-9.45-3.11-9.45-3.11l-.91,4.42s1.02,1.96,8.09,1.96,11.32-4.7,11.32-4.7l-.17-3.33Z"/>
      <path class="cls-23" d="M165.66,175.03h0c.3.72,1.04,1.41,2.67,1.71,2.58.48,3.55.12,3.91-.21h0c.22-.2.22-.39.22-.39,0,0,.12.21.4.44.41.35,1.17.74,2.41.57.8-.12,1.22-.29,1.44-.45.22-.17.23-.34.2-.43.03.05.08.12.19.19.2.12.56.23,1.25.16.66-.07.91-.39.99-.7.08-.33-.02-.65-.02-.65,0,0,.22.13.55.19.34.06.79.05,1.23-.23.48-.31.63-.66.66-.92.03-.21-.02-.35-.02-.35,0,0,.17.03.39-.02.27-.06.62-.25.78-.78.05-.15.08-.3.1-.43.11-.69-.1-1.07-.1-1.07,0,0-1.23-.92-3.44-.92h-2.21s-8.54.65-9.56.87-1.92,1.09-1.92,1.09c0,.03-.58,1.22-.13,2.33Z"/>
      <path class="cls-35" d="M172.46,176.04c.08,0,.16-.06.17-.14,0-.03.09-.73-.04-1.48-.17-1.04-.65-1.66-1.4-1.81-.09-.02-.18.04-.2.13-.02.09.04.18.13.19,1.47.29,1.17,2.9,1.17,2.93-.01.09.06.17.15.18,0,0,.01,0,.02,0Z"/>
      <path class="cls-1" d="M165.66,175.03h0c.3.72,1.04,1.41,2.67,1.71,2.58.48,3.55.12,3.91-.21h0c.07-.19.11-.38.11-.58,0-1.31-1.56-2.37-3.48-2.37-1.44,0-2.68.6-3.21,1.45Z"/>
      <path class="cls-1" d="M172.86,176.59c.41.35,1.17.74,2.41.57.8-.12,1.22-.29,1.44-.45,0-.02,0-.05,0-.07,0-.81-.86-1.47-1.92-1.47s-1.89.63-1.92,1.43Z"/>
      <path class="cls-1" d="M177.04,176.17c0,.1.02.2.05.29.2.12.56.23,1.25.16.66-.07.91-.39.99-.7-.13-.44-.58-.76-1.12-.76-.64,0-1.16.45-1.16,1.01Z"/>
      <path class="cls-1" d="M179.59,174.81c0,.25.1.47.27.65.34.06.79.05,1.23-.23.48-.31.63-.66.66-.92-.2-.31-.58-.51-1.01-.51-.64,0-1.16.45-1.16,1.01Z"/>
      <path class="cls-1" d="M181.91,173.44c0,.19.08.37.22.5.27-.06.62-.25.78-.78.05-.15.08-.3.1-.43-.08-.02-.17-.03-.26-.03-.47,0-.85.33-.85.74Z"/>
      <path class="cls-35" d="M171.72,174.43l-4.86-.41s1.68-3.11,4.86.41Z"/>
      <path class="cls-35" d="M176.11,175.57l-2.4-.16s1.01-1.83,2.4.16Z"/>
      <path class="cls-35" d="M178.96,175.4s-.7-.85-1.5,0h1.5Z"/>
      <path class="cls-35" d="M181.57,174.1l-1.84.22s.59-1.18,1.84-.22Z"/>
      <path class="cls-35" d="M182.95,172.93l-1.01.32s.24-.86,1.01-.32Z"/>
      <path class="cls-12" d="M182.91,171.67s-1.17-1.09-6.58-.62c-6.02.52-11.04.14-11.7,3.38-.66,3.25-.83,4.07-.83,4.07l-.68-8.4s-.17-3.82,4.75-4.26c4.92-.44,10.58,1.36,10.58,1.36l4.46,4.47Z"/>
      <path class="cls-23" d="M178.46,167.2l-2.1-4.78c-1-2.28-3.27-3.8-5.83-3.92h0c-3.62-.17-6.71,2.48-6.98,5.96l-.43,5.64s1.98-5.89,15.33-2.89Z"/>
      <path class="cls-35" d="M172.43,174.59s0,0,0,0c.09,0,.17-.08.16-.17-.03-.76.66-1.48.67-1.49.06-.07.06-.17,0-.23-.07-.06-.18-.06-.24,0-.03.03-.8.82-.76,1.73,0,.09.08.16.17.16Z"/>
      <path class="cls-35" d="M176.8,176.04c.08,0,.16-.06.17-.14,0-.05.15-1.27-.66-1.43-.09-.02-.18.04-.2.13s.04.18.13.19c.49.1.39,1.07.39,1.08-.01.09.06.17.15.18,0,0,.01,0,.02,0Z"/>
      <path class="cls-35" d="M176.79,175.45s0,0,0,0c.09,0,.17-.08.16-.17-.01-.26.24-.53.24-.53.06-.07.06-.17,0-.23-.07-.06-.18-.06-.24,0-.01.01-.35.36-.34.77,0,.09.08.16.17.16Z"/>
      <path class="cls-35" d="M179.24,175.11c.08,0,.16-.06.17-.14,0-.05.15-1.27-.66-1.43-.09-.02-.18.04-.2.13-.02.09.04.18.13.19.49.1.39,1.07.39,1.08-.01.09.06.17.15.18,0,0,.01,0,.02,0Z"/>
      <path class="cls-35" d="M179.22,174.53s0,0,0,0c.09,0,.17-.08.16-.17-.01-.26.24-.53.24-.53.06-.07.06-.17,0-.23-.07-.06-.18-.06-.24,0-.01.01-.35.36-.34.77,0,.09.08.16.17.16Z"/>
      <path class="cls-35" d="M181.43,173.58c.08,0,.16-.06.17-.14.03-.25-.02-.71-.39-.78-.09-.02-.18.04-.2.13-.02.09.04.18.13.19.11.02.13.29.12.42-.01.09.06.17.15.18,0,0,.01,0,.02,0Z"/>
      <path class="cls-35" d="M181.43,173.3s0,0,0,0c.09,0,.17-.08.16-.17,0-.07.07-.17.09-.19.06-.07.06-.17,0-.23-.07-.06-.17-.06-.24,0-.02.02-.19.2-.19.43,0,.09.08.16.17.16Z"/>
    </g>
    <path class="cls-42" d="M170.89,63.63l30.02,4.84c4,.53,7.44-1.64,8.77-5.27,1.32-3.63-1.78-8.43-5.52-9.82l-28.52-11.79c-6.86-2.55-14.11,1.75-15.01,8.89h0c-.79,6.36,3.84,12.3,10.26,13.16Z"/>
    <path class="cls-42" d="M126.23,63.63l-30.02,4.84c-4,.53-7.44-1.64-8.77-5.27-1.32-3.63,1.78-8.43,5.52-9.82l28.52-11.79c6.86-2.55,14.11,1.75,15.01,8.89h0c.79,6.36-3.84,12.3-10.26,13.16Z"/>
    <path class="cls-23" d="M196.53,61.42l-2.6,18.65,7.31,2.08,8.9-18.04c1.01-4.29-1.79-8.53-5.96-9.02h0c-3.76-.44-7.17,2.38-7.65,6.34Z"/>
    <ellipse class="cls-37" cx="146.52" cy="27.27" rx="33.52" ry="8.7" transform="translate(-2.07 15.74) rotate(-6.11)"/>
    <ellipse class="cls-6" cx="146.05" cy="23.82" rx="23.84" ry="5.29" transform="translate(-1.7 15.65) rotate(-6.1)"/>
    <polygon class="cls-9" points="127.82 23.4 123.38 80.3 169.24 77.41 165.96 23.11 127.82 23.4"/>
    <path class="cls-23" d="M100.58,61.42l2.6,18.65-7.31,2.08-8.9-18.04c-1.01-4.29,1.79-8.53,5.96-9.02h0c3.76-.44,7.17,2.38,7.65,6.34Z"/>
    <path class="cls-40" d="M167.96,79.98c22.82,11.13,20.14,57.75,20.14,57.75h-85.16s-2.15-44.1,22.83-58.8c24.98-14.7,19.37-10.08,42.19,1.05Z"/>
    <g>
      <path class="cls-31" d="M172.36,77.14c-10.4,8.64-38.47,8.3-51.4,0-12.93-8.3-.95-34.97-.95-34.97v-.02s.11-.04.31-.13c.44-.18,1.33-.56,2.49-1.04.1-.04.19-.08.29-.12,1.43-.59,3.21-1.32,5.07-2.07.52-.21,1.04-.42,1.56-.63,1.49-.59,2.98-1.17,4.32-1.66l.12-.04c2.54-.95,5.18-1.82,7.57-2.44,2.03-.52,3.89-.84,5.32-.84,1.25,0,2.86.24,4.69.66,1.81.41,3.81.97,5.85,1.6l1.13.36,1.13.37.35.12.12.04c1.27.43,2.53.87,3.73,1.3.91.33,1.79.65,2.63.97,1.82.69,3.43,1.32,4.67,1.82,1.58.64,2.56,1.04,2.56,1.04v.02s8.83,27.02-1.58,35.65Z"/>
      <path class="cls-23" d="M166.71,38.61c-1.38,5-6.22,17.49-20.04,17.49s-18.14-11.43-19.59-16.54c.37-.25.74-.5,1.11-.75.52-.21,1.04-.42,1.56-.63,1.49-.59,2.98-1.17,4.32-1.66l.12-.04c2.54-.95,5.18-1.82,7.57-2.44,2.03-.52,3.89-.84,5.32-.84,1.25,0,2.86.24,4.69.66,1.81.41,3.81.97,5.85,1.6l1.13.36,1.13.37.35.12.12.04c1.27.43,2.53.87,3.73,1.3.91.33,1.79.65,2.63.97Z"/>
    </g>
    <g>
      <path class="cls-23" d="M128.5,24.03s-1.37-2.3-4.2-1.17c-2.83,1.13-1.55,8.38,2.7,9.3,0,0,1.52.35,2.72-.75,0,0-1.04-5.35-1.21-7.38Z"/>
      <path class="cls-21" d="M124.15,26.11c1.62-1.44,3.81.73,3.79,2.58.01.17-.19.27-.31.16-1.09-1.01-2.01-1.93-3.4-2.47-.11-.03-.17-.17-.08-.26h0Z"/>
    </g>
    <g>
      <path class="cls-23" d="M165.63,23.46s1.37-2.3,4.2-1.17c2.83,1.13,1.55,8.38-2.7,9.3,0,0-1.52.35-2.72-.75,0,0,1.04-5.35,1.21-7.38Z"/>
      <path class="cls-21" d="M169.98,25.54c-1.62-1.44-3.81.73-3.79,2.58-.01.17.19.27.31.16,1.09-1.01,2.01-1.93,3.4-2.47.11-.03.17-.17.08-.26h0Z"/>
    </g>
    <path class="cls-23" d="M166.23,27.38c0,11.54-10.21,12.79-10.21,12.79-3.49,5.62-14.51,5.3-17.73.63-8.6,1.25-10.48-9.67-10.48-12.79s-1.86-16.99,19.41-17.33c.11,0,.22,0,.33,0,10.03-.09,15.24,2.56,17.41,8.25.88,2.31,1.26,5.13,1.26,8.46Z"/>
    <path class="cls-9" d="M127.82,23.4s.81.57,2.96,1.13c5.91-5.94,3.49-11.04,3.49-11.04,0,0-6.72,1.13-6.45,9.91Z"/>
    <path class="cls-9" d="M163.01,23.96c-3.49-2.26-2.96-10.76-2.96-10.76,0,0,6.3,2.26,5.91,9.91-1.88.57-.27,0-2.96.85Z"/>
    <path class="cls-9" d="M164.97,18.92c-1.04.42-2.11.64-3.17.64-2.53,0-4.97-1.22-6.58-3.65-5.79,2.47-7.49-2.48-7.99-5.24.11,0,.22,0,.33,0,10.03-.09,15.24,2.56,17.41,8.25Z"/>
    <g>
      <path class="cls-9" d="M160.08,25.63s-.8,1.91-2.25,3c-.4.3-.85.54-1.35.66-1.18.29-2.4-.15-3.31-.64-.87-.47-1.46-.99-1.46-.99,0,0,1.3-3.1,3.61-3.66,2.31-.56,4.76,1.63,4.76,1.63Z"/>
      <path class="cls-5" d="M157.9,27.97c0,.23-.03.45-.08.66-.4.3-.85.54-1.35.66-1.18.29-2.4-.15-3.31-.64-.06-.22-.09-.45-.09-.69,0-1.41,1.08-2.55,2.42-2.55s2.42,1.14,2.42,2.55Z"/>
      <path class="cls-5" d="M151.7,27.67s2.48-6.3,8.37-2.03c-.83-1.67-6.51-5.02-8.37,2.03Z"/>
      <ellipse class="cls-9" cx="153.96" cy="28.26" rx=".81" ry=".84"/>
    </g>
    <g>
      <path class="cls-9" d="M141.81,27.67s-.59.52-1.46.99c-.91.49-2.13.92-3.31.64-.5-.12-.95-.36-1.35-.66-1.46-1.09-2.25-3-2.25-3,0,0,2.45-2.19,4.76-1.63,2.31.56,3.61,3.66,3.61,3.66Z"/>
      <path class="cls-5" d="M140.44,27.97c0,.24-.03.47-.09.69-.91.49-2.13.92-3.31.64-.5-.12-.95-.36-1.35-.66-.05-.21-.08-.43-.08-.66,0-1.41,1.08-2.55,2.42-2.55s2.42,1.14,2.42,2.55Z"/>
      <path class="cls-5" d="M141.81,27.67s-2.48-6.3-8.37-2.03c.83-1.67,6.51-5.02,8.37,2.03Z"/>
      <ellipse class="cls-9" cx="136.41" cy="28.17" rx=".81" ry=".84"/>
    </g>
    <path class="cls-9" d="M152.86,21.5c.19.44.63.69,1.08.64.28-.03.63-.05,1.01-.06.03,0,.06,0,.1,0,.04,0,.09,0,.13,0,1.32,0,2.62.27,3.92.53-.79-1.44-2.7-2.72-5.28-2.71-.78,0-1.29.85-.96,1.6h0Z"/>
    <path class="cls-9" d="M140.58,21.65c-.21.43-.66.66-1.11.59-.28-.04-.63-.09-1.01-.11-.03,0-.06,0-.1,0-.04,0-.09,0-.13,0-1.31-.06-2.63.14-3.94.33.85-1.4,2.82-2.58,5.4-2.44.77.04,1.25.92.89,1.64h0Z"/>
    <path class="cls-21" d="M150.55,28.89c1.05.68,1.41,1.97.43,2.94-1.15,1.12-2.91,1.67-4.46,1.73-1.31-.03-2.53-.4-3.67-1.06-.66-.41-1.43-1.04-1.43-1.94,0-.68.46-1.28.96-1.62.12-.09.29-.05.37.08.07.12.05.27-.04.36-.28.29-.51.6-.55.99-.09,1.33,3.36,2.21,4.36,2.14,1.05.03,4.13-.76,4.3-2.02,0-.46-.27-.84-.6-1.15-.24-.23.05-.64.33-.45h0Z"/>
    <path class="cls-21" d="M142.64,29.49l-4.01,3.81c-.08.08-.21-.05-.13-.14,0,0,3.61-4.23,3.61-4.23.36-.4.91.18.53.56h0Z"/>
    <path class="cls-21" d="M150.78,28.93l3.61,4.23c.08.09-.05.22-.13.14l-4.01-3.81c-.38-.38.17-.96.53-.56h0Z"/>
    <path class="cls-5" d="M139.52,40.71s2.2,3.06,7.7,3.06,7.58-3.6,7.58-3.6c0,0-1.04,5.31-7.58,5.31s-7.7-4.77-7.7-4.77Z"/>
    <path class="cls-37" d="M164.84,16.07l-36.56,3.94c-.91-9.34,6.54-17.8,16.64-18.88,10.1-1.09,19.02,5.61,19.92,14.95Z"/>
    <path class="cls-22" d="M179.53,18.87c-2-1.18-4.98-2.09-8.95-2.69-6.82-1.03-15.73-1.05-25.09-.04-9.36,1.01-18.08,2.92-24.56,5.38-3.39,1.29-5.95,2.64-7.69,4.05-.02,1.11-.03,2.23-.08,3.34-.02.41-.03.82-.04,1.23.02.05.03.1.05.14h.09c-.1-.99,1.61-3.36,8.62-6.03,6.27-2.38,14.76-4.24,23.91-5.22,9.14-.98,17.82-.98,24.42.02,7.37,1.11,9.56,2.77,9.65,3.75,0,0,0-2.77-.31-3.94Z"/>
    <g>
      <g>
        <ellipse class="cls-9" cx="164.31" cy="17.19" rx="1.95" ry=".71" transform="translate(124.05 177.42) rotate(-81.87)"/>
        <ellipse class="cls-9" cx="164.87" cy="13.33" rx="1.95" ry=".71" transform="translate(128.35 174.66) rotate(-81.87)"/>
        <ellipse class="cls-9" cx="162.74" cy="14.97" rx=".74" ry="1.88" transform="translate(122.35 173.33) rotate(-80.95)"/>
        <ellipse class="cls-9" cx="166.45" cy="15.55" rx=".74" ry="1.88" transform="translate(124.9 177.48) rotate(-80.95)"/>
        <ellipse class="cls-9" cx="165.7" cy="16.83" rx=".72" ry="1.93" transform="translate(20.25 97.98) rotate(-34.96)"/>
        <ellipse class="cls-9" cx="163.48" cy="13.69" rx=".72" ry="1.93" transform="translate(21.65 96.13) rotate(-34.96)"/>
        <ellipse class="cls-9" cx="163.08" cy="16.42" rx="1.9" ry=".73" transform="translate(24.36 103.72) rotate(-37.93)"/>
        <ellipse class="cls-9" cx="166.1" cy="14.1" rx="1.9" ry=".73" transform="translate(26.42 105.08) rotate(-37.93)"/>
      </g>
      <ellipse class="cls-27" cx="164.59" cy="15.26" rx="1.07" ry="1.12"/>
    </g>
    <g>
      <g>
        <ellipse class="cls-9" cx="157.11" cy="16.31" rx="1.94" ry=".72" transform="translate(83.67 156.16) rotate(-68.22)"/>
        <ellipse class="cls-9" cx="158.57" cy="12.71" rx="1.94" ry=".72" transform="translate(87.93 155.25) rotate(-68.22)"/>
        <ellipse class="cls-9" cx="156.12" cy="13.75" rx=".74" ry="1.89" transform="translate(80.03 150.76) rotate(-65.99)"/>
        <ellipse class="cls-9" cx="159.57" cy="15.27" rx=".74" ry="1.89" transform="translate(80.69 154.82) rotate(-65.99)"/>
        <ellipse class="cls-9" cx="158.55" cy="16.32" rx=".72" ry="1.94" transform="translate(4.74 58.11) rotate(-21.08)"/>
        <ellipse class="cls-9" cx="157.14" cy="12.7" rx=".72" ry="1.94" transform="translate(5.95 57.36) rotate(-21.08)"/>
        <ellipse class="cls-9" cx="156.11" cy="15.25" rx="1.89" ry=".74" transform="translate(6.66 62.87) rotate(-23.25)"/>
        <ellipse class="cls-9" cx="159.58" cy="13.77" rx="1.89" ry=".74" transform="translate(7.52 64.12) rotate(-23.25)"/>
      </g>
      <ellipse class="cls-27" cx="157.84" cy="14.51" rx="1.07" ry="1.12"/>
    </g>
    <g>
      <g>
        <ellipse class="cls-9" cx="126.63" cy="21.32" rx="2.09" ry=".8" transform="translate(25.68 100.69) rotate(-47.73)"/>
        <ellipse class="cls-9" cx="129.47" cy="18.24" rx="2.09" ry=".8" transform="translate(28.89 101.78) rotate(-47.73)"/>
        <ellipse class="cls-9" cx="126.57" cy="18.3" rx=".8" ry="2.09" transform="translate(23.63 94.18) rotate(-44.62)"/>
        <ellipse class="cls-9" cx="129.53" cy="21.26" rx=".8" ry="2.09" transform="translate(22.4 97.11) rotate(-44.62)"/>
        <ellipse class="cls-9" cx="128.09" cy="21.91" rx=".78" ry="2.13" transform="translate(-.4 2.5) rotate(-1.12)"/>
        <ellipse class="cls-9" cx="128.01" cy="17.65" rx=".78" ry="2.13" transform="translate(-.32 2.5) rotate(-1.12)"/>
        <ellipse class="cls-9" cx="126" cy="19.83" rx="2.05" ry=".81" transform="translate(-.4 2.74) rotate(-1.25)"/>
        <ellipse class="cls-9" cx="130.1" cy="19.74" rx="2.05" ry=".81" transform="translate(-.4 2.83) rotate(-1.25)"/>
      </g>
      <path class="cls-27" d="M128.89,18.98c-.45.49-1.19.51-1.66.04s-.48-1.25-.03-1.74,1.19-.51,1.66-.04.48,1.25.03,1.74Z"/>
    </g>
    <g>
      <polygon class="cls-3" points="146.46 50.52 146.46 85.28 143.2 85.56 143.19 85.56 98.94 89.34 98.94 46.47 143.19 50.24 143.2 50.24 146.46 50.52"/>
      <rect class="cls-20" x="96.14" y="47.79" width="2.8" height="42.38"/>
    </g>
    <g>
      <polygon class="cls-3" points="193.98 46.47 193.98 89.34 149.72 85.56 149.72 85.56 146.46 85.28 146.46 50.52 149.72 50.24 149.72 50.24 193.98 46.47"/>
      <rect class="cls-20" x="193.98" y="47.79" width="2.8" height="42.38" transform="translate(390.75 137.96) rotate(180)"/>
    </g>
    <polygon class="cls-44" points="149.72 50.24 149.72 85.56 149.72 85.56 146.46 85.28 143.2 85.56 143.19 85.56 143.19 50.24 143.2 50.24 146.46 50.52 149.72 50.24 149.72 50.24"/>
    <g>
      <path class="cls-35" d="M93.58,74.91l2.39,2.46.17,4.41-1.02-.33s-2.05-1.01-2.39-2.24c-.34-1.24.85-4.3.85-4.3Z"/>
      <path class="cls-23" d="M91.48,70.1s-.08-.96.05-2.23c.23-2.15,2.11-3.67,4.14-3.38l5.43.8c.68.1,1.11.81.91,1.5h0c-.13.43-.37.8-.7,1.07-.39.32-.88.46-1.38.43l-3.68-.25-4.78,2.07Z"/>
      <path class="cls-23" d="M92.1,75.2l-.98-2.05c-.14-.29-.22-.61-.23-.94-.03-1.37.67-2.66,1.84-3.33l.9-.51c1.28-.72,2.81-.77,4.12-.11l3.95,1.97c1.91.95.72,2.93-1.02,3.15-.18.02-.36.03-.53.03-1.57-.04-4.73-1.6-4.73-1.6l-3.33,3.4Z"/>
      <path class="cls-23" d="M91.98,76.7s-.78-3.05-.28-4.13c.85-1.82,2.91-2.54,4.56-1.61l4.41,2.49c.55.31.7,1.08.33,1.62h0c-.24.34-.56.58-.92.71-.43.15-.9.12-1.31-.08l-3.08-1.44-3.71,2.43Z"/>
      <path class="cls-23" d="M91.76,76.04c.38-1.92,2.07-2.87,3.52-2.17l3.86,1.88c.48.23.86,1.14.62,1.72,0,0-.39,1.38-1.9.74l-1.88-.84c-2.59-.99-1.64.04-2.22,3.2,0,0-2.48-2.06-1.99-4.53Z"/>
      <g>
        <path class="cls-30" d="M102.41,71.95h0s0,0,0,0Z"/>
        <path class="cls-30" d="M99.89,72.24c.44-.66.87-1.33,1.2-2.06.08.02.17.04.25.07.86.3,1.4,1.08,1.19,1.74-.09.3-.32.53-.65.66-.03.01-.06.02-.1.04-.36.11-.79.1-1.2-.05-.26-.09-.5-.23-.7-.4Z"/>
      </g>
      <g>
        <path class="cls-30" d="M100.85,74.79h0s0,0,0,0Z"/>
        <path class="cls-30" d="M98.46,74.85c.42-.6.8-1.22,1.21-1.82.02-.02.03-.05.04-.07.1.03.2.07.29.11.79.37,1.22,1.16.96,1.78-.1.24-.3.43-.56.53-.07.03-.13.05-.21.06-.35.08-.75.02-1.13-.15-.23-.11-.44-.26-.61-.43Z"/>
      </g>
      <g>
        <path class="cls-30" d="M99.14,77.34h0s0,0,0,0Z"/>
        <path class="cls-30" d="M97.07,77.59c.44-.6.86-1.22,1.16-1.92.01,0,.03.01.04.02.79.37,1.23,1.13.99,1.71-.09.22-.28.38-.51.48-.37.15-.87.12-1.35-.1-.11-.05-.22-.11-.32-.18Z"/>
      </g>
      <path class="cls-35" d="M99.64,77.61s0,0-.01,0h0s-.07,0-.1,0c-.07-.03-.1-.12-.07-.2.2-.48.03-1.08-.35-1.27l-3.65-1.78c-.59-.29-1.23-.27-1.82.03-.67.35-1.15,1.05-1.32,1.91-.02.08-.09.13-.17.12-.04,0-.07-.03-.09-.06-.02-.03-.03-.07-.02-.11.19-.95.72-1.73,1.47-2.12.65-.35,1.4-.36,2.06-.04l3.65,1.78c.52.25.76,1.05.49,1.66-.02.04-.04.07-.08.08Z"/>
      <path class="cls-35" d="M100.3,72.93l-1.36-.76-2.67-1.51s-.08-.04-.13-.06c-.92-.46-2.16-.4-3.05.18-.37.23-.76.61-1.02,1.18h0c-.2.43-.32.96-.31,1.63,0,.08.06.15.15.15.07,0,.14-.07.14-.15-.03-1.46.64-2.2,1.19-2.56.55-.37,1.25-.5,1.91-.43.04.01.08.01.11.02.08.01.17.03.25.05.22.05.44.14.64.25l2.8,1.58.88.5.03.02.32.18s.04.02.05.02.02-.01.02-.01h.04s.05-.04.07-.07c.03-.06.01-.16-.06-.2Z"/>
      <path class="cls-35" d="M97.37,68.17s0,0,0,0c-.03.01-.07.01-.1,0-1.15-.58-2.41-.54-3.53.1-.77.43-1.87,1.5-1.88,1.51-.02.02-.04.03-.06.03h0s-.1,0-.13-.04c-.05-.06-.05-.15,0-.2.05-.04,1.14-1.1,1.94-1.55,1.2-.68,2.54-.72,3.78-.1.03.02.06.04.07.08s.01.07,0,.11c-.01.03-.04.06-.07.07Z"/>
      <path class="cls-30" d="M100.04,67.26c-.05-.64.08-1.27.15-1.91.12-.01.25-.01.38,0,.38.03.74.16,1,.36.28.21.42.48.4.76-.02.28-.2.52-.51.68-.05.02-.1.05-.15.07-.26.1-.57.15-.89.12-.13-.01-.26-.03-.38-.06Z"/>
    </g>
    <path class="cls-23" d="M188.41,74.05c-.75.65-.78,2.46.06,3.37-.75.65-.9,2.69.51,3.62-1.54,3.71,8.54,5.75,12.27,1.12.36-4.51,1.21-7.99,1.21-7.99,0,0-4.01-4.53-5.37-5.94-1.37-1.41-7.37,1.88-7.37,1.88l-1.32,3.93Z"/>
    <path class="cls-23" d="M190.86,69.82c-2.96-.15-9.27-.75-12.07.02-.61.17-1.07.74-1.16,1.41h0c-.08.63.31,1.19.88,1.25,2.39.24,8.2.88,9.56,1.38.9.33,1.93-.89,2.71-2.13.64-1.03,1.18-1.88.09-1.93Z"/>
    <path class="cls-8" d="M180.76,69.98l-.26,2.23s-2.12.65-2.33-.89c-.21-1.53,2.59-1.35,2.59-1.35Z"/>
    <path class="cls-35" d="M192.58,74.95c-1.23,0-3.76-.7-3.86-.73-.09-.03-.15-.13-.12-.23s.12-.16.21-.13c.03,0,2.59.71,3.77.71.1,0,.18.08.18.18s-.08.18-.18.18Z"/>
    <path class="cls-35" d="M192.09,78.01c-1.32,0-3.29-.33-3.39-.35-.1-.02-.16-.11-.14-.21.02-.1.1-.17.2-.15.03,0,2.64.45,3.82.32.1,0,.18.06.19.17s-.06.19-.16.2c-.16.02-.33.02-.52.02Z"/>
    <path class="cls-35" d="M192.11,81.61c-1.19,0-2.65-.35-2.72-.36-.09-.02-.15-.12-.13-.22.02-.1.12-.16.21-.14.02,0,1.91.46,3.09.33.1,0,.18.06.19.17s-.06.19-.16.2c-.15.02-.31.02-.48.02Z"/>
    <path class="cls-17" d="M142.77,37.32s.76-2.56,4.14-2.56,4.01,2.3,4.01,2.3l-8.15.25Z"/>
    <path class="cls-5" d="M150.92,37.06s-.06.12-.17.3c-.43.7-1.66,2.4-3.68,2.46-1.84.06-3.26-1.27-3.91-2.02-.25-.29-.39-.49-.39-.49,5.04-.53,8.15-.25,8.15-.25Z"/>
    <path class="cls-17" d="M142.79,37.34s1.72,2.2,3.96,2.2,4.17-2.48,4.17-2.48c0,0-.55,4.06-4.02,4.06s-4.12-3.79-4.12-3.79Z"/>
    <path class="cls-31" d="M143.88,88.84c-60.52-5.31-39.87,66.93-39.9,66.88,0,0,16.22,4.33,43.43,4.15,27.21-.18,41.33-4.15,41.33-4.15.01-.03,21.59-75.42-44.87-66.88Z"/>
  </g>
  <g>
    <path class="cls-23" d="M155.23,184.51l-18.82,6.85-3.39,11.68c-.29-.6,13.06,4.25,13.06,4.25.4-1.01,1.66-4.7,2.07-5.71.98.18,2-.27,2.74-.98.74-.7,1.39-1.57,1.71-2.57,1.64-5.13,2.15-9.07,2.64-13.52Z"/>
    <path class="cls-23" d="M156.28,242.63s16.26-3.71,18.35-3.37c2.1.35,4.39,1.92,4.38,4.55,0,2.63.33,5.53-2.81,7.72-3.14,2.19-21.12,6.65-21.12,6.65l1.2-15.56Z"/>
    <path class="cls-23" d="M108.23,233.46c-2.26.38-3.52,3.22-3.8,5.62-.29,2.39.41,4.82,1.52,6.93,1.12,2.1,2.64,3.93,4.15,5.74l5.92-13.55c-1.04-2.15-4.9-5.22-7.8-4.74Z"/>
    <path class="cls-31" d="M114.94,240.76c-3.62-.12-6.87,2.52-7.5,6.28-.03.21-.06.4-.07.57-.03.52.53,1.56,1.4,2.83,4.17,6.11,11.63,12.31,18.76,12.72l1.12.07c11.32.66,21.88-2.94,32.9-5.75h0s4.96-10.53-2.66-15.54c-.41-.27-8.57,0-8.57,0l-35.38-1.18Z"/>
    <g>
      <path class="cls-23" d="M151.62,226.79s3.22,12.19,4.04,13.77c.83,1.58,4.81,3.29,7.15,1.85,2.34-1.45,10.42-10.78,10.42-10.78l-3.53-5.63-7.65,6.88-2.54-8.02-7.9,1.94Z"/>
      <path class="cls-23" d="M179.82,218.19c-.23-.18-.55-.18-.78,0-1.19.97-4.76,3.84-5.46,4.09-.85.31-2.84.6-3.21,1.07-.37.47-.66,2.63-.66,2.63l3.53,5.63s3.21,1.13,3.77.42.74-1.43.74-1.43c0,0,.72-.61,1.12-1.88.4-1.27-.58-1.78-.58-1.78,0,0,1.59-1.72.82-2.73-.77-1-1.94-.79-1.94-.79l-.2-.71,2.95-3.54c.25-.3.2-.75-.1-.99h0Z"/>
    </g>
    <path class="cls-44" d="M133.54,200.57s-4.52-.81-7.5,3.24c-1.62,2.19-2.94,8.47-4.23,12.48-.29.88-2.61,10.9-3.77,14.39-.64,1.9-1.76,6.47-1.76,6.47,0,0-1.45-.99-1.72.58-.27,1.57,1.05,15.48,9.44,16.96,8.4,1.48,22.82-3.99,25.13-8.81,0,0,1.17-1.47,1.04-3.49-.14-2.02-.28-2.84-.28-2.84,0,0,1.02-.42,1.26-1.42.12-.49-1.55-2.64-1.55-2.64l2.32-13.61,1.39-15.74-6.25-2.49s-1.63.39-8-.68c-3.34-.56-5.49-2.4-5.49-2.4Z"/>
    <path class="cls-44" d="M153.29,206.14c-2.3-.31-3.59,4.5-3.48,9.11l1.07,14s6.12,1.78,10.38-3.63c0,0-4.73-19.06-7.97-19.49Z"/>
    <path class="cls-44" d="M129.41,201.13c-.25.11-3.85,1.88-5.2,4.33-1.35,2.45-5.57,14.33-5.78,16.34l3.3,1.71,7.67-22.38Z"/>
    <path class="cls-23" d="M152.58,191.46s1.54-2.03,3.63-.88c2.09,1.15.56,6.96-2.76,7.39,0,0-1.43.09-2.26-.9,0,0,1.12-3.96,1.4-5.6Z"/>
    <path class="cls-23" d="M134.88,187.05s-.66-2.5-3.01-2.31c-2.35.19-3.11,6.17-.21,7.94,0,0,1.28.67,2.41.11,0,0,.45-4.1.8-5.73Z"/>
    <path class="cls-5" d="M151.48,176.27c-7.38-3.45-15.01-1.66-18.29,4.76-.01.01-.02.02-.02.03s-.01.02-.01.03c-.56,1.09-.98,2.31-1.27,3.64-.06.32-.11.66-.17.99h0c-.21,1.37-.27,2.85-.18,4.45.05.74.28,1.68.67,2.7.54,1.41,1.39,2.97,2.5,4.36,2.7,3.41,6.95,5.87,12.04,2.78.58-.36,2.84-1.76,4.51-3.21.78-.67,1.44-1.36,1.73-1.94.3-.58.93-2.4,1.25-3.34,0-.01.01-.02.01-.03.09-.22.15-.39.18-.47.03-.01.06-.03.09-.06.15-.11.27-.38.39-.75.89-2.82.87-11.95-3.43-13.95Z"/>
    <path class="cls-5" d="M155.14,189.07s-7.89,23.49-9.98,46.14c-2.09,22.65-31.78,12.84-28.49.54,3.29-12.3,16.5-54.72,16.5-54.72l21.96,8.04Z"/>
  </g>
  <g>
    <path class="cls-43" d="M237.1,93.86l.38,5.82.32,4.92.07,1.13.03.43.03.44c.16,2.41,2.37,4.27,4.95,4.15,2.58-.12,4.53-2.17,4.38-4.58l-.39-6.03-.12-1.85v-.21s-.02-.04-.02-.04l-.3-4.63-9.33.43Z"/>
    <path class="cls-5" d="M237.44,99.02l.32,4.92c8.29-1.13,5-7.58,5.13-8.33.02-.09,4.85,1.84,4.85,1.84l-.03-.07-1.69-3.55-8.57,5.02v.17Z"/>
    <path class="cls-20" d="M257.8,140.77s.86,8.61.26,12.41c-.6,3.8-2.57,6.86-2.57,6.86l-16.1.15-.25,3.61s-24.73.37-26.8-.58c-2.07-.95-3.3-4.88-2.72-7.98.58-3.1,5.01-7.11,9.91-8.21,4.9-1.1,19.67-4.33,19.67-4.33l18.59-1.93Z"/>
    <path class="cls-20" d="M210.08,160.27s-2.17-1.03-2.94-3.29c-.76-2.26-1.2-6.1.55-9.6.47-.94,2.81-4.03,6.91-4.98,4.1-.96,21.43-2.33,21.43-2.33l5.48,2.9-31.44,17.31Z"/>
    <path class="cls-43" d="M212.36,163.2c5.4,4.28,26.78.59,26.78.59l24.54.41c.93-6.13-5.65-5.93-6.29-6.28-.64-.35-1.36-.75-2.03-2.4-.67-1.64-2.86-2.27-3.71-1.71-.67.44-3.8,3.3-3.8,3.3l-.91.26s-22.96-8.26-29.9-2.18c-1.59,2.91-2.51,4.4-4.68,8.01Z"/>
    <path class="cls-44" d="M252.14,104.65s5.68,4.41,5.96,9.59c.14,2.72,1.14,19.82.91,25.59-.01.27.05.52.14.74.3.69-.25,2.98-1.05,3.09-4.98.67-17.87,1.46-23.4-.19l-2.7-1.53s1.34-24.03,1.65-26.87c.54-4.79,4.36-8.31,4.36-8.31h0c3.35,2.19,7.85,2.19,11.16-.01l2.97-2.1Z"/>
    <g class="cls-4">
      <path class="cls-18" d="M258.69,133.08c.22,1.43.19,3.91-.07,5.33-.26,1.43-.97,2.84-2.22,3.72-1.46,1.04-3.39,1.29-5.22,1.37-5.36.25-10.64.44-15.57-.77,5.49-.27,11.43-.18,16.49-2.24,2.64-1.07,6.27-4.78,6.59-7.42h0Z"/>
    </g>
    <path class="cls-43" d="M250.37,116.99c1.56-.15,4.39,1.37,5.05,2.73.76,1.56,1.76-1.75.99.48-1.22,3.53-5.72,19.46-7.91,20.47-2.19,1.01-3.9.38-6.32-.28-2.41-.67-18.66-8.53-18.66-8.53l3.27-5.06,15.27,4.87s4.59-16.15,5.23-17.31c.43-.77.59,2.87,3.07,2.64Z"/>
    <path class="cls-5" d="M238.37,97.41c4.22,4.47,11.06,4.51,15.26.08.77-.81,1.4-1.71,1.88-2.68.44-.87.76-1.79.97-2.72.83-3.72-.13-7.8-2.89-10.72-1.77-1.87-3.99-2.97-6.29-3.28-.89-.12-1.79-.13-2.67-.01-.31.04-.63.09-.94.16-.89.2-1.77.52-2.6.96-1,.53-1.93,1.23-2.76,2.1-4.21,4.43-4.2,11.65.03,16.12h0Z"/>
    <path class="cls-43" d="M232.74,88.81s-1.19-1.44-.6-2.61c.66-1.29,1.69-.01,4.23-1.95-1.69,2.41-3.64,4.56-3.64,4.56h0Z"/>
    <path class="cls-43" d="M232.38,91.82c0,1.14-1.42,1.13-1.42,1.52,0,2.03.76,4.09,2.32,5.56,3.97,3.75,9.63,3.93,12.63.39l2.38-2.79,1.51-1.77c3.38-3.97,3.31-10.01-.15-13.9-.81-.76-2.05-1.21-3.43-1.38-.18-.03-.37-.04-.56-.06-2.69-.19-5.71.58-6.88,1.96l-6.2,7.29c-.19.22-.37.47-.52.72-.54.84.31,1.44.32,2.46h0Z"/>
    <path class="cls-5" d="M240.23,86.4c.43-.33.27-1.32-.35-2.23-.62-.9-1.47-1.37-1.9-1.05-.43.33-.05,1.01.57,1.91.62.9,1.25,1.69,1.67,1.37h0Z"/>
    <path class="cls-9" d="M235.03,87.03s.7,1.56,1.86,2c.11.04.22.08.34.1,1.36.22,2.72-1.29,2.72-1.29,0,0-.84-1.87-2.2-2.09-.16-.03-.32-.03-.47,0-1.19.12-2.25,1.3-2.25,1.3h0Z"/>
    <path class="cls-5" d="M235.03,87.03s.7,1.56,1.86,2c.82-.14,1.54-.91,1.41-2.08-.01-.12-.05-.25-.11-.35-.24-.44-.56-.71-.91-.86-1.19.12-2.25,1.3-2.25,1.3h0Z"/>
    <path class="cls-5" d="M235.04,87.03s1.19-.88,2.7-.95c1.4-.07,2.22,1.75,2.22,1.75,0,0-.65-2.11-2.23-2.21-1.6-.1-2.69,1.41-2.69,1.41h0Z"/>
    <path class="cls-9" d="M237.36,87.67c.13.35.51.52.84.38.33-.14.5-.53.36-.88-.13-.35-.51-.52-.84-.38-.33.14-.5.53-.36.88h0Z"/>
    <path class="cls-5" d="M231.76,90.11s.79,1.21-.76,3.11c1.42-.3,2.77-1.6,2.77-1.6l-2.02-1.52Z"/>
    <path class="cls-19" d="M231.36,89.62l-.11.43c-.12.48.15.96.61,1.08l1.92.5-2.42-2.01Z"/>
    <path class="cls-32" d="M233.78,91.63s-.84-1.48-1.34-2.46c-.58-1.16-1.33-.17-1.08.45.55,1.38,2.42,2.01,2.42,2.01h0Z"/>
    <path class="cls-32" d="M233.78,91.63s-1.59,1.23-2.7.91c-1.1-.31-1.5,1.39-.29,1.48,1.21.08,2.64-1.96,2.99-2.39h0Z"/>
    <path class="cls-5" d="M239.02,80.87s-1,6.08,8.69,9.86c5.94,2.32,7.41-9.97,2.23-11.2-5.18-1.23-7.94-.29-7.94-.29l-2.99,1.62Z"/>
    <path class="cls-5" d="M241.79,78.9c19.43-7.17,21.73,26.96,2.58,21.78,0,0,7.81-11.67-2.58-21.78Z"/>
    <path class="cls-5" d="M247.85,157.11s3.96-.6,4.96-.25c1,.35,2.01,2.82,4.93,3.17s4.18,1.76,4.43,2.73c.25.97,1.5,1.41,1.51,1.45.93-6.13-5.65-5.93-6.29-6.28-.64-.35-1.36-.75-2.03-2.4-.67-1.64-2.86-2.27-3.71-1.71-.67.44-3.8,3.3-3.8,3.3Z"/>
    <rect class="cls-5" x="256.48" y="160.8" width="4.47" height="2.22" transform="translate(420.62 -96.81) rotate(90)"/>
    <path class="cls-43" d="M229.92,127.98s-3.32,3.02-3.41,5.24c-2.31-.7-3.28-1.69-4.77-1.34-1.49.35-8.12,1.28-10.15-4.17-.66-.64-.84-1.69-.37-2.14-.49-1.04.78-1.25,2.14-.6,1.35.65,4.11.66,5.71.74-1.07-1.24-2.34-2.57-1.42-3.45s1.58,1.13,3.54,1.89c1.96.76,2.52.79,3.19,1.56,1.89.87,4.76,2.23,5.55,2.27Z"/>
    <path class="cls-26" d="M217.17,127.53c.06-.02.09-.07.09-.14,0-.07-.07-.13-.14-.12-3.75.36-5.44-1.58-5.46-1.6-.05-.05-.13-.06-.18-.01-.05.05-.06.13-.01.19.07.08,1.79,2.06,5.67,1.69,0,0,.02,0,.02,0Z"/>
    <path class="cls-26" d="M216.91,129.44c.05-.02.09-.07.09-.13,0-.07-.06-.13-.13-.13-1.88.02-3.08-.37-3.76-.71-.74-.36-1.03-.73-1.04-.73-.04-.06-.12-.06-.18-.02-.05.05-.06.13-.02.19.05.06,1.28,1.57,5,1.53.01,0,.02,0,.03,0Z"/>
    <path class="cls-26" d="M216.78,130.88c.05-.02.09-.07.09-.13,0-.07-.06-.13-.13-.13-1.82.09-3.07-.56-3.08-.57-.06-.03-.14,0-.17.06-.03.07,0,.14.06.18.05.03,1.32.69,3.21.59.01,0,.02,0,.03,0Z"/>
    <path class="cls-26" d="M221.72,126.43c.05-.02.09-.07.09-.13,0-.07-.06-.13-.13-.13-1.23.04-2.17-.42-2.18-.43-.06-.03-.14,0-.17.06-.03.07,0,.14.06.18.04.02,1,.5,2.29.45.01,0,.02,0,.03,0Z"/>
    <path class="cls-25" d="M210.08,160.27s1.36-9.22,8.55-11.69c7.19-2.47,13.36-1.9,13.36-1.9,0,0-5.07-2.74-14.11.49-9.27,3.3-7.8,13.1-7.8,13.1Z"/>
    <polygon class="cls-44" points="254.3 129.45 242.59 125.62 247.22 112.31 257.62 118.19 254.3 129.45"/>
    <path class="cls-5" d="M242.34,83.76l1.2,39.11s15.71,4.76,17.97.44c0,0-2.72-28.78-4.16-35.88-1.44-7.09-15.01-3.67-15.01-3.67Z"/>
    <path class="cls-43" d="M242.88,90.22s2.25-1.64,4.16-.24c1.91,1.4-.35,6.14-3.69,5.86,0,0-1.42-.2-2.12-1.22,0,0,1.16-3.03,1.65-4.4h0Z"/>
    <path class="cls-26" d="M244.94,90.56c-1.47-.03-1.75,2.15-.97,3.14.06.09.21.06.23-.06.17-1.05.28-1.97.81-2.9.05-.07.02-.17-.06-.18h0Z"/>
  </g>
  <g>
    <path class="cls-11" d="M63.47,147.31s-.2-3.83-1.09-5.94c0,0-.12,2.31-.35,3.33l1.44,2.61Z"/>
    <path class="cls-31" d="M12.33,103.92c.04-.41.46-.61.79-.81,1.25-.78,1.72-2.47,1.86-4.02.19-2.18-.07-4.39.25-6.55.32-2.16,1.42-4.39,3.34-5.08,1.61-.57,3.46.14,4.6,1.49l1.86,5.3c.19,4.09-1.16,8.23-3.67,11.27-.86,1.04-1.96,2.01-3.25,2.09-.45.03-.94-.07-1.26-.41-.57-.59-.42-1.6-.22-2.43-1.11.36-2.32.37-3.44.04-.42-.13-.91-.43-.86-.9Z"/>
    <path class="cls-3" d="M24.1,90.1c-.34-.33-.89-.28-1.27-.02-.38.27-.63.71-.83,1.15-.59,1.36-.81,2.91-.61,4.4.11.84.37,1.7.96,2.26.39.37,1.04.56,1.42.17.36-.37.27-.99.19-1.52-.35-2.11-.25-4.31.27-6.38l-.13-.07Z"/>
    <path class="cls-31" d="M23.88,89.53c2.13-3.7,7.78-6.46,11.99-4.7,2.91-.62,11.14,3.31,9.45,16.86l-15.19,8.08c-3.01-1.11-5.26-3.98-6.47-7.17-1.53-4.05-1.91-9.37.22-13.08Z"/>
    <path class="cls-16" d="M44.03,92.19c-.77-3.49-4.85-6.37-8.03-5.39l-6.23,2.53c-2.27.92-3.59,3.5-3.11,6.08l1.7,3.83,2.73,16.68-.5.31s2.12,7.42,7.96,5.89c5.24-1.37,2.89-7.96,2.89-7.96l-.77-4.37s5.21-1.29,5.13-7.33c-.04-3.01-.9-6.37-1.76-10.25Z"/>
    <path class="cls-5" d="M40.7,109.78s-3.61.93-7.61-.75c0,0,2.58,3.73,7.93,2.17l-.32-1.42Z"/>
    <path class="cls-31" d="M23.94,95.43c.68-.89,1.25-4.48,2.23-4.94,2.18-1.04,5.41-3.77,9.31-4.53,3.9-.75,6.2,2.43,6.2,2.43-1.67,13.41-9.29,8.27-9.94,9.05-.58.69-1.17,6.08-1.15,7.01.02.94.18,1.87.1,2.8-.03.4-.13.82-.39,1.11-.33.36-.87.43-1.31.26s-.79-.55-1.06-.97c-.56-.89-.78-1.96-1-3.01-.29-1.41-.58-2.84-.56-4.29.02-1.45-3.28-3.82-2.43-4.93Z"/>
    <path class="cls-16" d="M32.49,97.8c-.08-.07-3.55-2.25-4.45,1.94-.9,4.19,3.17,4.21,3.2,4.09.03-.12,1.25-6.03,1.25-6.03Z"/>
    <path class="cls-3" d="M23.16,90.36c-.22-1.37-1.31-2.55-2.61-2.82-.39-.08-.82-.08-1.15.14-.46.3-.63.9-.76,1.45-.08.34-.16.68-.14,1.03.02.35.16.7.44.89.29.19.67.16,1.02.12,1.01-.12,2.02-.26,3.03-.42l.17-.38Z"/>
    <path class="cls-3" d="M23.43,90.55c.72-1.02,1.45-2.06,1.96-3.21.18-.4.33-.86.2-1.28-.1-.33-.38-.59-.68-.72-.31-.14-.65-.16-.98-.16-.48.01-1.01.13-1.28.55-.21.32-.21.73-.2,1.11.03,1.13.16,2.26.28,3.38l.72.33Z"/>
    <path class="cls-36" d="M37.98,153.89s7.57,10.07,12.16,10.92c4.59.85,7.57.59,9.74-1.05,2.17-1.63,7.7-11.25,7.7-11.25,0,0-3.94-2.24-4.12-2.5l-5.87,1.38-4.81-3.01-8.97-2.09-5.83,7.58Z"/>
    <g>
      <path class="cls-5" d="M67.61,155.34l.36-.41s7.94,3.08,9.29,1.4l-11.37-10.96-3.81,4.82c2.52.68,4.39,2.3,5.54,5.16Z"/>
      <path class="cls-2" d="M69.31,153.25s-.13.06-.26.24c-.14.17-.29.46-.37.79-.08.33-.06.63-.01.83.05.2.12.3.14.29.05-.02-.1-.49.05-1.1.14-.61.5-1.01.46-1.05Z"/>
      <path class="cls-2" d="M68.57,152.83s-.42.39-.57,1.06c-.16.66.01,1.16.05,1.14.05-.02-.03-.51.12-1.12.14-.61.44-1.05.4-1.08Z"/>
      <path class="cls-2" d="M70.48,153.77s-.42.21-.69.72c-.27.51-.25.98-.2.97.05,0,.11-.43.35-.89.24-.47.56-.75.53-.8Z"/>
      <path class="cls-2" d="M68.93,155.29s-.25.03-.58.29c-.17.13-.35.3-.53.51-.09.1-.19.22-.28.33-.05.06-.1.12-.15.2-.05.08-.08.2-.04.31.04.12.17.16.26.13.09-.02.16-.07.23-.11.12-.09.23-.19.33-.29.2-.21.34-.43.43-.62.19-.39.21-.65.19-.65-.03,0-.09.25-.3.6-.1.17-.25.37-.43.56-.09.09-.2.18-.31.26-.11.08-.23.11-.24.05-.03-.07.05-.19.15-.3.09-.11.18-.22.27-.33.17-.21.34-.38.49-.52.3-.27.52-.36.52-.39Z"/>
      <path class="cls-2" d="M68.98,155.4s0-.04-.02-.11l-.02-.05-.03.06c-.07.12-.18.38-.25.73-.03.18-.06.38-.05.59,0,.11,0,.22.02.33,0,.06.02.12.05.18.03.06.09.12.18.12.12.01.22-.11.25-.19.04-.09.05-.16.06-.23.02-.14.03-.28.04-.41,0-.26-.04-.48-.09-.66-.1-.36-.25-.52-.27-.51-.03.02.08.21.14.56.03.17.06.39.05.63,0,.12-.02.25-.04.38-.02.14-.07.26-.11.24-.1,0-.11-.3-.12-.47,0-.2,0-.39.03-.56.04-.34.12-.59.16-.72h-.05c.04.06.06.09.07.08Z"/>
    </g>
    <path class="cls-36" d="M63.46,120.34s-3.24.1-4.96,1.85c-1.72,1.75-8.24,14.93-8.24,14.93l4.57,11.51,2.55,2.55s3.5-2.22,4.33-5.14c.83-2.92.65-5.17.65-5.17l2.37,8.12.57,4.05s6.54-.77,6.43-.94c-.17-.25-.78-22.03-1.26-25.01-.47-2.98-3.4-6.8-7.02-6.75Z"/>
    <path class="cls-5" d="M72.23,151.26v.56s6.75,3.25,6.68,5.45l-14.31.17.25-6.27c2.3,1.28,4.72,1.4,7.39.09Z"/>
    <path class="cls-29" d="M34.01,143.61c0,.19-.24,4.56.59,6.94.83,2.37,6.6,12.01,6.6,12.01,0,0,4.14-16.84,13.76-12.57,2.1.93,2.7,1.76,2.7,1.76l5.81-4.44c-1.62-3.86-10.66-15.17-10.66-15.17l.88,9.81-19.68,1.67Z"/>
    <path class="cls-38" d="M62.64,129.3s.04-.02.06-.04c.06-.09.05-.22-.03-.3-.05-.04-.16-.07-.25,0-.17.13-.94.98-1.4,2.67-.2.74-.3,1.49-.32,2.25-.01.1-.01.22-.01.32-.02,1.97.45,3.89.93,5.34.15.44.32.91.42,1.15.25.65.26.65.34.69.02.01.05.02.08.02.01,0,.03-.01.05-.01,0,0,.01-.01.02-.01.09-.04.15-.16.11-.27-.01-.01-.02-.03-.03-.04,0-.01-.01-.01-.01-.02-.07-.18-.41-.99-.63-1.65-.69-2.08-.92-3.8-.91-5.19,0-.11.01-.22.02-.32.11-3.06,1.44-4.47,1.55-4.57Z"/>
    <path class="cls-16" d="M6.14,154.88c-.43-.02-.79-.37-.85-.82s-.09-.95-.02-1.18c.06-.18.56-.62,1.17-1.1,1.06-.84,2.36-1.26,3.69-1.28.04,0,.07,0,.1,0,.32-.08,4.27-.3,4.27-.3l.41-1.05,4.54,2.35s-1.36,2.83-2.36,3.51c-1,.68-7.15.79-7.62.68s-1.14-.49-.57-1.09c.57-.6,1.51-.91,1.51-.91l-2.58-.64-.9.49-.05.69c-.03.39-.35.69-.73.67h0Z"/>
    <path class="cls-44" d="M26.43,127.2c.2.32,5.34,18.28,6.91,18.36,17.52.84,20.79-3.08,20.79-3.08l-5.16-16.1-1.31-12.85-6.41-2.1c-4.16,2.89-7.52,3.27-10.91.37l-5.67,2.22,1.76,13.16Z"/>
    <path class="cls-16" d="M24.66,114.04s-2.22,1.46-3.22,5.93c-.74,3.35-6.97,30.19-6.97,30.19l4.93,1.42s5.64-13.86,6.52-16.94c.88-3.08,1.95-6.88,2.05-7.18.1-.31-3.31-13.42-3.31-13.42Z"/>
    <path class="cls-16" d="M43.09,144.3s1.82-2.7,4.16-4.56c2.33-1.86,4.56-3.44,4.56-3.44l-4.09-12.62,6.46-2.87s4.87,10.84,5.32,13.78c.46,2.94-1.6,6.08-3.77,7.32-2.61,1.49-8.79,4.8-8.79,4.8l-3.84-2.41Z"/>
    <ellipse class="cls-5" cx="40.29" cy="93.58" rx="1.89" ry=".93" transform="translate(-45.61 38.79) rotate(-34.17)"/>
    <g>
      <g>
        <path class="cls-9" d="M43.66,95.79s-.27,1.03-.91,1.77c-.23.27-.52.49-.86.61-1.26.45-2.8-.75-2.8-.75,0,0,.5-1.94,1.76-2.39.02,0,.04-.01.06-.02,1.25-.38,2.74.78,2.74.78Z"/>
        <path class="cls-5" d="M43.66,95.79s-.27,1.03-.91,1.77c-.63.14-1.3-.1-1.71-.67-.4-.56-.43-1.3-.12-1.87,1.25-.38,2.74.78,2.74.78Z"/>
        <path class="cls-5" d="M43.66,95.79s-1.27-.63-2.73-.44c-1.35.18-1.85,2.06-1.85,2.06,0,0,.29-2.13,1.78-2.5s2.79.87,2.79.87Z"/>
      </g>
      <ellipse class="cls-9" cx="40.99" cy="97.54" rx=".72" ry=".75"/>
    </g>
    <path class="cls-44" d="M47.24,126.41l8.2-3.59s-2.42-8.98-10.1-9.79l1.9,13.38Z"/>
    <path class="cls-16" d="M45.39,100.4s1.63-.59,1.67-1.85c.04-1.4-1.38-.85-2.61-3.73.31,2.83.94,5.58.94,5.58h0Z"/>
    <path class="cls-44" d="M27.98,130.26l-10.4-2.56s1.44-11.4,7.09-13.66c0,0,4.01,9.65,3.31,16.22Z"/>
    <g>
      <path class="cls-16" d="M46.93,146.67c-.67,1.51-2.53,2.24-2.53,2.24l-2.26,3.33c-.11.16-.3.25-.49.23-.38-.04-.6-.47-.43-.82l1.18-2.38-2.99,3.5c-.13.16-.34.21-.53.13-.26-.11-.38-.43-.25-.69l.83-1.74-1.57,1.35c-.24.2-.57.24-.84.09l-.09-.05c-.17-.09-.23-.31-.14-.49l.3-.57s-.76-.55-.38-1.05,2.33-3.52,3.3-4.06h0c.37-.21,2.07-1.41,4.21-2.84l2.68,3.82Z"/>
      <path class="cls-41" d="M37.78,152.01c.35-.19,1.69-1.41,1.75-1.47l1.99-2.28s.04-.12,0-.16c-.04-.04-.11-.04-.15,0l-1.98,2.28c-.47.42-1.44,1.28-1.7,1.43-.29.17-.68-.05-.78-.18-.09-.12.12-.52.3-.77l3.49-3.97s.04-.12,0-.16c-.04-.04-.11-.04-.15,0l-3.5,3.98c-.1.13-.54.75-.3,1.05.16.2.65.46,1.05.24h0Z"/>
      <path class="cls-41" d="M39.28,152.97c.19-.11.36-.29.39-.33l3.2-3.73s.04-.12,0-.16c-.04-.04-.11-.04-.15,0l-3.2,3.73c-.12.14-.43.41-.56.31-.37-.28-.24-.52-.23-.54l1.02-1.97c.03-.05,0-.12-.04-.15-.05-.03-.12,0-.14.04l-1.02,1.97s-.26.42.28.84c.14.11.3.07.45-.02h0Z"/>
    </g>
    <path class="cls-38" d="M59.64,156.51c-.1-3-1.89-4.72-1.91-4.73l.21-.25c.08.07,1.92,1.82,2.02,4.97h-.32Z"/>
    <path class="cls-33" d="M41.2,162.56s2.35,1,4.52-.29l-3.37-3.23s-.98,2.18-1.14,3.52Z"/>
    <g>
      <path class="cls-19" d="M45.95,103.18l-.31.53c-.34.59-1.08.78-1.63.41l-2.35-1.56,4.29.61Z"/>
      <path class="cls-45" d="M45.95,103.18c-1.14.46-2.48.13-3.36-.2-.48-.18-.83-.36-.91-.41-.01,0-.02-.01-.02-.01,0,0,0,0,.01,0,.03,0,.09-.02.2-.05.59-.15,2.3-.57,3.46-.93,1.68-.51,1.46,1.25.62,1.59Z"/>
      <path class="cls-45" d="M45.23,105.52c-1.51.12-2.9-1.94-3.55-2.95,0,0,0,0,0-.01.03,0,.09-.02.2-.05.2.14.44.31.72.47.75.43,1.73.82,2.61.58,1.71-.45,1.83,1.81.03,1.96Z"/>
    </g>
    <path class="cls-45" d="M30.03,98.19c1.62.49,1.24,2.97.07,3.78-.1.08-.25-.01-.23-.14.15-1.2.31-2.25.03-3.46-.03-.09.03-.19.13-.17h0Z"/>
  </g>
  <g>
    <path class="cls-10" d="M215.48,211.6s1.01,11.68,1.19,13.42c.18,1.74-4.12,6.3-6.75,6.52-2.63.22-13.98-2.47-13.98-2.47l-.17-6.54,12.15-.28-.51-11.72,8.07,1.07Z"/>
    <path class="cls-10" d="M246.05,208.38s3.39,15.98,3.57,17.72c.18,1.74-2.93,5.22-5.56,5.45-2.63.22-13.98-2.47-13.98-2.47l-.17-6.54,12.15-.28-3.82-11.72,7.81-2.15Z"/>
    <path class="cls-14" d="M214.55,173.51c.19-.07.39.05.55.18.58.45,1.11.97,1.58,1.55l-.4,5.63c-.03.19-.06.38-.15.54-.09.16-.27.28-.45.25-.26-.05-.37-.38-.42-.66-.41-2.23-.72-4.48-.94-6.74-.03-.28,0-.64.24-.74Z"/>
    <path class="cls-10" d="M215.76,169.76l17.32,9.03,1.9,11.68c.35-.54-13.07,2.4-13.07,2.4-.27-1.02-1.05-4.74-1.32-5.77-.97.05-1.89-.52-2.52-1.3-.63-.77-1.15-1.69-1.34-2.69-.98-5.15-1.01-9.01-.97-13.35Z"/>
    <path class="cls-29" d="M207.97,225.57s-15.21-5.68-17.28-5.62c-2.06.06-4.45,1.28-4.75,3.81-.3,2.53-.96,5.28,1.81,7.8,2.76,2.52,13.45,7.6,13.45,7.6l6.77-13.6Z"/>
    <path class="cls-29" d="M255.3,222.96c2.13.66,3.01,3.56,3.01,5.9s-.95,4.59-2.27,6.47c-1.32,1.88-3,3.44-4.67,4.99l-4.12-13.81c1.25-1.93,5.33-4.4,8.06-3.55Z"/>
    <path class="cls-29" d="M247.99,229.12c3.5.35,6.32,3.32,6.49,7.02,0,.2,0,.39,0,.56-.02.38-.31,1-.76,1.75-3.41,5.71-9.61,8.9-16,8.45l-18.39-1.3c-1.75-.12-3.48-.52-5.12-1.18l-13.03-5.24s-3.55-10.77,4.37-14.62c.42-.2,8.25,1.11,8.25,1.11l34.19,3.44Z"/>
    <g>
      <path class="cls-44" d="M234.76,188.03s4.44-.19,6.85,4.09c1.3,2.32,1.84,8.53,2.62,12.56.17.89,1.24,10.83,1.96,14.34.39,1.91.94,6.46.94,6.46,0,0,1.51-.77,1.59.78.08,1.55-2.81,14.77-11.06,15.11-8.25.34-21.5-6.79-23.16-11.73,0,0-.96-1.57-.59-3.5.37-1.93.6-2.7.6-2.7,0,0-.93-.53-1.05-1.53-.06-.49,1.8-2.34,1.8-2.34l-.64-13.4.49-15.33,6.31-1.59s1.52.59,7.78.38c3.28-.11,5.56-1.6,5.56-1.6Z"/>
      <path class="cls-44" d="M215.14,190.84c2.25.02,2.15,21.31,2.15,21.31,0,0-5.68,2.52-10.42-2.12,0,0,.03-19.27,8.27-19.18Z"/>
      <path class="cls-44" d="M238.67,189.1c.23.14,3.49,2.31,4.5,4.84,1.01,2.54,3.69,14.52,3.66,16.47l-3.38,1.22-4.77-22.54Z"/>
    </g>
    <ellipse class="cls-5" cx="227.71" cy="173.34" rx="18.35" ry="19.11"/>
  </g>
  <g>
    <ellipse class="cls-5" cx="48.3" cy="182.76" rx="3.45" ry="3.6"/>
    <ellipse class="cls-5" cx="57.86" cy="162.92" rx="3.45" ry="3.6"/>
    <ellipse class="cls-5" cx="43.37" cy="180" rx="3.45" ry="3.6"/>
    <ellipse class="cls-5" cx="41.7" cy="174.7" rx="3.45" ry="3.6"/>
    <ellipse class="cls-5" cx="40.77" cy="169.41" rx="4.38" ry="4.56"/>
    <ellipse class="cls-5" cx="41.42" cy="163.92" rx="4.37" ry="4.55"/>
    <ellipse class="cls-5" cx="46.4" cy="160.08" rx="4.74" ry="4.94"/>
    <path class="cls-10" d="M53.6,197.39c2.94.17,5.45-2.28,5.61-5.48l.03-.59.42-8.59.38-7.71-10.64-.63-2.7,17.88c-.16,3.2,3.95,4.94,6.89,5.11Z"/>
    <polygon class="cls-5" points="49.38 180.26 59.51 187.12 59.78 180.91 51 173.1 49.38 180.26"/>
    <path class="cls-5" d="M59.18,164.86c2.85,5.55,2.34,14.8-3.05,17.26-3.59,1.64-7.58.98-10.55-1.34-1.49-1.17-2.73-2.76-3.52-4.7-.64-1.55-.93-3.17-.91-4.75h0c.05-4.32,1.82-8.75,5.77-10.55,5.39-2.46,9.9-.52,12.26,4.08Z"/>
    <path class="cls-10" d="M65.29,173.72c.16-.07.3-.11.44-.12-.05-.12-.1-.24-.16-.36l-.08-.16c-.59-1.15-1.18-2.3-1.76-3.45-.42-.83-4.01-7.95-9.65-8.48-1.46-.14-2.86.02-3.9.59-4.62,3.06-6.34,8.98-3.95,13.64l1.06,2.08,1.68,3.28c2.12,4.15,7.59,4.86,12.69,2.05,2.76-1.52,4.49-4.28,4.51-6.92-1.44.65-2.32-1.51-.89-2.16Z"/>
    <ellipse class="cls-5" cx="57.03" cy="166.56" rx="2.14" ry="1.02" transform="translate(-108.06 105.4) rotate(-50.77)"/>
    <path class="cls-10" d="M64.31,171.22s1.74-1.24,1.21-2.59-2.57-.65-4-2.48c1.34,2.99,2.78,5.07,2.78,5.07Z"/>
    <g>
      <g>
        <path class="cls-9" d="M62.03,168.38s-.3,1.15-1.02,1.97c-.26.3-.58.55-.96.68-1.41.5-3.13-.84-3.13-.84,0,0,.56-2.16,1.97-2.66.02-.01.05-.01.07-.02,1.4-.42,3.06.87,3.06.87Z"/>
        <path class="cls-5" d="M62.03,168.38s-.3,1.15-1.02,1.97c-.7.15-1.45-.12-1.9-.75-.45-.63-.48-1.45-.14-2.09,1.4-.42,3.06.87,3.06.87Z"/>
        <path class="cls-5" d="M62.03,168.38s-1.42-.71-3.04-.49c-1.5.2-2.06,2.3-2.06,2.3,0,0,.32-2.37,1.99-2.78s3.11.97,3.11.97Z"/>
      </g>
      <ellipse class="cls-9" cx="59.06" cy="169.4" rx=".81" ry=".84"/>
    </g>
    <g>
      <path class="cls-24" d="M61.93,175.24s1.84-1.06,2.95-1.83c1.31-.91,1.57.66.93,1.19-1.4,1.17-3.89.65-3.89.65Z"/>
      <path class="cls-24" d="M61.93,175.24s1.79.42,2.98-.54,2.43.95,1,1.68c-1.43.73-3.34-.81-3.98-1.14Z"/>
    </g>
    <g>
      <path class="cls-13" d="M40.34,218.98s-1.08,10.68-.53,15.41c.55,4.74,2.56,8.6,2.56,8.6l14.56.62.19,4.49s28.27,1.12,30.46,0c2.19-1.12,3.56-5.98,3.01-9.85-.55-3.86-5.12-8.97-10.23-10.47-5.12-1.5-20.56-5.91-20.56-5.91l-19.47-2.9Z"/>
      <path class="cls-13" d="M89.99,244.51s2.44-1.22,3.33-4.01c.89-2.79,1.46-7.55-.41-11.95-.5-1.18-3.03-5.08-7.56-6.38-4.53-1.3-23.74-3.47-23.74-3.47l-6.15,3.45,34.52,22.36Z"/>
      <path class="cls-46" d="M80.86,239.83s-.27-.26-.77-.69c-.5-.44-1.26-1-2.26-1.52-1-.53-2.23-1.01-3.63-1.41-1.4-.39-2.95-.69-4.6-.89-.82-.09-1.63-.13-2.4-.11-.78.03-1.52.11-2.23.24-1.41.27-2.66.7-3.68,1.17-1.02.47-1.82.94-2.36,1.28-.27.17-.48.31-.62.4-.14.09-.22.13-.22.13,0,0,.07-.07.2-.17.14-.1.34-.26.61-.44.53-.37,1.33-.87,2.35-1.36,1.02-.5,2.27-.95,3.7-1.23.71-.13,1.47-.22,2.25-.25.78-.02,1.6.02,2.42.11,1.65.19,3.22.5,4.62.91,1.4.41,2.64.92,3.64,1.48,1,.55,1.76,1.14,2.25,1.61.25.22.43.43.55.56.12.13.18.21.18.22Z"/>
    </g>
    <path class="cls-44" d="M60.25,188.12s1.84-.42,3.32,1.49c3.67,4.73,4.52,12.67,4.52,12.67l-7.57.31-.26-12.53v-1.93Z"/>
    <path class="cls-44" d="M47.32,185.69s-5.29,4-5.64,8.84c-.2,2.81-2.7,26.97-.53,27.49,4.5,1.07,16.37,1.73,21.47.3l2.51-1.37s-.79-22.48-1.03-25.14c-.41-4.49-3.85-7.86-3.85-7.86h0c-3.11,1.98-7.24,1.89-10.24-.24l-2.69-2.02Z"/>
    <path class="cls-18" d="M40.49,210.07c-.27,1.62-.29,4.44-.03,6.06.26,1.63,1.03,3.25,2.4,4.29,1.61,1.22,3.76,1.55,5.8,1.7,5.99.43,11.87.78,17.41-.47-6.13-.45-12.76-.51-18.37-2.98-2.93-1.29-6.91-5.6-7.21-8.61h0Z"/>
    <path class="cls-10" d="M41.46,203.55c-1.31,12.88-2.87,15.44,6.98,17.61,2.67.59,16.22,1.15,16.22,1.15l3.97-2.63-19.36-5.51s.99-6.25,1.42-10.16l-9.24-.46Z"/>
    <path class="cls-18" d="M65.09,217.54l-15.79-3.39,1.72-11.01s1.2,5.6.44,9.55l13.63,4.86Z"/>
    <path class="cls-10" d="M61.97,188.67s-7.44-2.9-14.65-2.99c0,0,3.38,4.29,8.05,4.38,4.68.09,6.6-1.39,6.6-1.39Z"/>
    <ellipse class="cls-5" cx="49.59" cy="179.21" rx="3.45" ry="3.6"/>
    <ellipse class="cls-5" cx="46.18" cy="175.57" rx="3.45" ry="3.6"/>
    <ellipse class="cls-5" cx="54.45" cy="159.93" rx="5.26" ry="5.48"/>
    <ellipse class="cls-5" cx="50.58" cy="160.71" rx="3.45" ry="3.6"/>
    <ellipse class="cls-5" cx="48.68" cy="165.69" rx="5.05" ry="5.26"/>
    <ellipse class="cls-5" cx="44.89" cy="171.07" rx="3.45" ry="3.6"/>
    <g>
      <path class="cls-10" d="M50.22,170.73s-2.2-1.09-3.9.84,1.73,6.37,5.18,5.26c0,0,1.45-.56,1.96-1.8,0,0-2.42-2.98-3.23-4.3Z"/>
      <path class="cls-28" d="M48.64,171.49c2.01-.51,3.02,2.39,2.24,3.99-.06.15-.28.14-.33,0-.53-1.38-.96-2.6-1.95-3.72-.09-.07-.08-.23.04-.27h0Z"/>
    </g>
    <polygon class="cls-10" points="64.42 202.24 65.04 219.52 66.57 219.35 66.96 202.24 64.42 202.24"/>
    <path class="cls-44" d="M39.58,203.33c.3-2.68.6-5.03.79-6.53.44-3.47,1.69-5.68,3.33-7.26,1.43-1.38,5.15-1.54,6.67-.33,2.4,1.92,2.53,4.46,2.54,5.76,0,.89-.44,4.93-.92,9.07l-12.41-.72Z"/>
    <polygon class="cls-10" points="57.2 238.31 57.65 248.1 43.04 248.1 49.14 239.91 57.2 238.31"/>
    <path class="cls-10" d="M63.75,220.5c.71-1.09,1.59-1.15,2.57-1.03h0s.46-.11.46-.11c4.94.65,6.52,1.68,8.32,2.32,2.23.8,3.3,1.38,2.64,1.89-.66.5-2.66-.83-4.53-.99-1.86-.15-8.51-.26-8.51-.26,0,0-1.71-.66-.95-1.83Z"/>
    <path class="cls-46" d="M89.99,244.51s3.21-7.59-3.46-13.42c-6.67-5.83-26.71-8.13-26.71-8.13,0,0,16.09-.85,26.63,6.13,9.09,6.02,3.54,15.41,3.54,15.41Z"/>
    <path class="cls-46" d="M80.68,239.62s-11.81-8.09-22.6-1.2c0,0,11.1-13.49,22.6,1.2Z"/>
    <path class="cls-5" d="M46.23,248.16l-8.51,2.11c-1.97.7-3.66-1.07-4.46-2.14-.29-.39-.2-.96.18-1.24l13.99-9.12c.81-.49,3.21,1.3,3.22,3.39l-4.43,7Z"/>
  </g>
  <path class="cls-44" d="M249.91,18.56c0,5.54-4.26,10.03-9.52,10.03s-9.52-4.49-9.52-10.03c0-5.24,3.81-9.54,8.67-9.99-2.85,1.16-4.86,4.07-4.86,7.48,0,4.43,3.41,8.02,7.61,8.02,3.82,0,6.98-2.96,7.53-6.82.05.43.08.87.08,1.31Z"/>
  <path class="cls-15" d="M131.83,63.12c-.05-.02-.4-.14-.43-.15-.11-.03-.66-.06-.68-.09.11-.29.17-.61.18-.92h0c.04-1.33-.79-2.66-2.34-2.86-.58-.07-1.05.05-1.62.05-.44-.79-1.07-1.37-1.79-1.73-2.32-1.19-5.56-.16-6.18,2.69-2.29-.29-4.12,1.43-2.84,3.41-.42.26-.81.48-1.17.76-.28.21-.53.45-.76.76-.14.19-.25.38-.34.57-.98,1.96-.02,4.16,2.07,4.78.44.14.92.2,1.44.18h.23s1-.26,1-.26c.04.32.13.65.24.94.67,1.62,2.49,2.73,4.4,2.87-.22,1.33-.3,2.69-.55,4.02l-.03.16c-.11.55-.91,1.9.06,2.05.21.03.5.03.81.03.34-.01.71-.03.99-.03.07,0,.13-.05.16-.14.06-.14.06-.37.04-.63-.01-.16-.03-.31-.05-.47-.04-.32-.09-.61-.1-.71-.1-1.43-.16-2.86-.27-4.28,1.09-.08,2.24-.44,2.99-1.14.45-.42.74-.96.79-1.63,2.79.93,6.6-.82,6.72-3.69,0-.1.1-.23.09-.6-.06-1.75-1.28-3.34-3.06-3.97Z"/>
  <path class="cls-15" d="M176.64,64.56c-.25-1.15-1.09-2.11-1.28-2.19-.04-2.77-2.69-3.59-4.7-2.13-.3-.51-.37-1.13-.79-1.57-.26-.26-1.1-.92-1.42-1.12-.14-.08-.28-.16-.42-.22-1.8-.84-3.72-.04-4.97,1.5-.13-.09-.24-.18-.38-.24h-.01c-.96-.5-2.14-.36-2.84.57-.29.38-.36.79-.62,1.16-1.82-.94-3.86.26-3.69,2.46-1.56-.45-2.91.88-2.28,2.56.47,1.23,1.92,1.37,2.98.96.68,1.87,2.63,2.35,4.25,1.49.79,1.55,2.09,2.88,3.74,3.31l-.57,6.65h0s-.13,1.49-.13,1.49l.02.15c.56.24,2.49.74,2.62-.16l-.02-.18-.14-1.45-.45-4.8c1.04-.15,2.22-.82,3.31-1.63,1.98-1.45,3.67-3.33,3.67-3.33,0,0,1.6.16,2.35-.19,1.74-.81,2-2.04,1.76-3.11ZM161.79,67.86c-.22-.37.2-.72.22-1.12.42.07.84.15,1.26.1.37-.04.87-.46,1.07-.17.28.91-.07,1.89-.01,2.83-.11.16-2.34-1.34-2.54-1.65ZM169.1,69.89c-.09.07-.2.14-.3.21-1.02.67-2.23,1.26-3.35,1.64,0,0-.63-4.1.86-4.48.07-.01.18.01.25.01l-.09.21c.77-.03,1.55-.33,2.12-.89.02-.01.03-.02.05-.04l.81.5c.04.75.22,1.38.66,1.97,0,.17-.81.73-1,.87ZM171.07,68.33l-.56-.85c.19-.02,1.12.09,1.12.27l-.55.57Z"/>
</svg>