<svg width="102" height="181" viewBox="0 0 102 181" fill="none" xmlns="http://www.w3.org/2000/svg">
<g id="Modo_de_isolamento" clip-path="url(#clip0_45_2399)">
<path id="Vector" d="M64.9876 118.781C49.5586 111.445 50.394 88.3269 64.9876 79.7545C90.9811 64.4846 99.2648 44.4036 99.2648 7.63882H2.54118C2.54118 7.63882 -0.283517 60.2391 33.9043 78.3367C52.6747 88.2726 52.7447 110.221 33.9043 120.191C-0.283517 138.293 2.54118 175.341 2.54118 175.341H99.2609C99.2609 138.576 79.2627 125.568 64.9837 118.778L64.9876 118.781Z" fill="#ECDAC9"/>
<g id="Group">
<path id="Vector_2" d="M85.4716 44.2603C85.4716 44.605 85.4677 44.9537 85.4561 45.2946C85.0481 59.3675 73.3841 69.0632 61.0323 74.0951C56.1484 76.7679 50.8603 84.9026 50.8603 94.3117C50.8603 86.2661 46.0812 78.298 40.4046 74.6607C38.8893 74.0603 37.3896 73.3862 35.9248 72.6347C25.8848 67.506 17.4146 58.953 16.385 47.3747C16.2917 46.3482 16.2451 45.3062 16.2451 44.2564C16.2451 32.9492 21.6575 22.9087 30.0306 16.587C35.8237 12.2097 43.039 9.6144 50.8564 9.6144C57.1158 9.6144 62.9867 11.2762 68.0533 14.1892C78.4584 20.1623 85.4677 31.392 85.4677 44.2603H85.4716Z" fill="#0068FF"/>
<path id="Vector_3" d="M40.4047 74.6607C38.8894 74.0603 37.3896 73.3862 35.9248 72.6347C35.2876 71.2635 34.8019 69.807 33.8888 68.6062C32.2531 66.4563 29.4517 65.4065 27.9053 63.1831C27.2214 62.1991 26.829 61.0487 26.3783 59.9369C24.3734 55.0058 21.1019 50.7177 17.8654 46.4954C17.5545 47.0222 16.9911 47.3127 16.3889 47.3747C16.2956 46.3482 16.249 45.3062 16.249 44.2564C16.249 32.9492 21.6614 22.9088 30.0345 16.587C29.9179 16.9627 29.8946 17.3268 30.1239 17.6483C30.6406 18.3766 31.8024 17.9776 32.4862 17.4004C33.1661 16.8233 33.951 16.0756 34.8097 16.3274C36.0336 16.6877 35.8432 18.4696 35.3886 19.6665C35.0078 20.6737 34.6232 21.6808 34.2424 22.688C33.9549 23.4472 33.3643 24.373 32.5833 24.1483C31.7557 23.9082 31.8218 22.6957 32.2026 21.921C32.5794 21.1462 33.0807 20.2011 32.5794 19.5038C31.2856 20.1081 29.9879 20.7163 28.694 21.3206C27.812 21.735 26.8951 22.1766 26.32 22.963C25.1 24.648 25.9742 26.9877 26.8795 28.8625C27.7032 28.6689 28.1345 27.7469 28.255 26.9102C28.3754 26.0696 28.3132 25.1865 28.6707 24.4195C29.0282 23.6486 30.0578 23.0986 30.73 23.6138C31.0447 23.85 31.1885 24.249 31.3167 24.6248C31.6236 25.5273 31.9345 26.4299 32.2414 27.3286C32.6494 28.5255 33.0612 29.7961 32.7815 31.0279C32.5056 32.2597 31.2429 33.3598 30.0384 32.9841C30.7067 33.3986 30.3337 34.5026 29.6654 34.9248C28.9971 35.347 28.1462 35.4439 27.5439 35.9513C27.1709 36.2651 26.93 36.7067 26.7008 37.1367C25.4419 39.4841 24.1986 41.8431 22.9786 44.2138C22.9125 43.1369 22.4268 41.6959 21.3583 41.8625C20.422 42.0058 20.2316 43.2841 20.3753 44.2216C21.0436 48.5949 23.9499 52.5654 27.9169 54.5177C29.0864 55.0949 30.3453 55.5094 31.3905 56.288C33.4031 57.7871 34.4716 60.5257 36.834 61.3741C37.6538 61.6685 38.6213 61.7304 39.2118 62.3696C40.2765 63.5162 39.2896 65.3058 38.7456 66.7739C38.2133 68.2188 38.225 69.8302 38.6873 71.2945C39.037 72.3946 40.2454 73.5218 40.4047 74.6645V74.6607Z" fill="#469B49"/>
<path id="Vector_4" d="M37.2379 27.3906C37.3661 27.6811 37.5449 27.9755 37.8285 28.1149C38.3064 28.3474 38.897 28.0452 39.2117 27.6152C39.5264 27.1853 39.6585 26.6507 39.8839 26.1665C40.6726 24.4737 42.5376 23.5518 44.3482 23.1024C45.6343 22.7848 47.0447 22.5989 48.0083 21.6886C48.6572 21.0765 49.003 20.2204 49.4226 19.4302C50.3512 17.6871 51.7616 15.8161 51.0972 13.9568C50.6232 12.6358 49.1856 11.865 47.7868 11.7604C46.392 11.6558 45.0165 12.0858 43.6838 12.5119C42.9106 12.7598 42.1374 13.0077 41.3604 13.2556C40.8319 13.4261 40.2686 13.6159 39.9383 14.0652C39.6391 14.472 39.5925 15.0065 39.5536 15.5101C39.3982 17.474 39.5886 20.6427 38.3919 22.2735C37.2107 23.8849 36.2549 25.1942 37.2379 27.3906Z" fill="#469B49"/>
<path id="Vector_5" d="M51.723 44.3843C49.4617 45.9879 47.7676 48.3818 47.01 51.0508C46.6331 52.3717 46.4815 53.7895 46.8157 55.122C47.1498 56.4545 48.0124 57.698 49.2596 58.2713C50.4563 58.8252 51.8434 58.7206 53.1489 58.5463C54.4544 58.372 55.7949 58.1357 57.0771 58.4533C58.3554 58.771 59.5637 59.8285 59.5715 61.1455C59.5754 61.9822 59.1091 62.7996 59.2685 63.6247C59.3462 64.0236 59.5676 64.3839 59.6959 64.7713C60.2476 66.3982 59.1558 68.1026 59.0237 69.8186C58.9809 70.3803 59.0781 71.0156 59.5249 71.3642C60.1271 71.8368 61.0052 71.5463 61.6735 71.1744C66.7013 68.3815 68.9975 62.389 73.2909 58.5579C74.0797 57.8529 74.9733 57.1789 75.3774 56.1989C75.7815 55.2188 75.424 53.8282 74.3944 53.5842C73.7883 53.4408 73.1316 53.7236 72.541 53.5183C71.7212 53.2317 71.4881 52.209 71.3366 51.3568C71.0335 49.6563 70.5051 47.9054 69.2734 46.6891C68.0456 45.4727 65.9514 44.9963 64.5643 46.0306C64.168 46.3249 63.8066 46.7433 63.3132 46.7937C63.0412 46.8208 62.7692 46.7239 62.5128 46.631C61.4637 46.2475 60.267 45.7013 60.0261 44.6089C59.8785 43.9388 60.131 43.1563 59.7308 42.5985C59.3228 42.0252 58.4409 42.0368 57.8075 42.3467C57.1742 42.6566 56.6769 43.1873 56.0591 43.5282C55.1149 44.0511 53.9882 44.0821 52.9275 44.2913C51.8667 44.4966 50.7322 44.9924 50.332 45.9957L51.7191 44.3881L51.723 44.3843Z" fill="#469B49"/>
<path id="Vector_6" d="M85.4713 44.2603C85.4713 44.605 85.4674 44.9537 85.4557 45.2945C84.9001 46.4605 84.3484 47.6265 84.2357 48.9009C84.1658 49.6834 84.2629 50.4697 84.1697 51.2483C84.0725 52.0269 83.7267 52.8365 83.0351 53.2007C82.6155 51.074 82.1959 48.9474 81.7762 46.8208C81.6674 46.2707 81.5314 45.6742 81.0885 45.3294C80.8243 45.128 80.494 45.0466 80.1716 44.9692C79.3789 44.7832 78.5824 44.5973 77.7859 44.4075C77.2536 44.2835 76.5659 44.2138 76.2784 44.6825C75.9131 45.2674 76.6125 45.9647 77.2691 46.17C77.9258 46.3792 78.7339 46.4915 79.037 47.1152C79.2507 47.5529 79.1108 48.0758 78.936 48.5329C78.3804 49.9855 77.5217 51.3142 76.4221 52.4104C76.0724 52.7629 75.6645 53.1038 75.1749 53.1619C74.5222 53.2394 73.916 52.7901 73.5275 52.2594C72.2803 50.555 72.6105 48.01 71.2312 46.4063C70.9631 46.782 70.6795 47.1733 70.2754 47.3902C70.1783 47.4444 70.0656 47.4832 69.9529 47.5103C69.6071 47.5877 69.2263 47.518 69.0049 47.2546C68.7834 46.9912 68.7834 46.6774 68.9038 46.3675C69.0631 45.9531 69.4478 45.5502 69.8208 45.2829C70.4735 44.8181 71.2545 44.0976 70.9126 43.3693C70.4735 42.4319 69.0126 43.0168 68.049 42.645C67.3924 42.3893 66.9339 41.6533 66.2307 41.6456C65.8616 41.6417 65.4808 41.8431 65.1466 41.6921C64.8552 41.5603 64.7309 41.2272 64.6221 40.9289C64.0393 39.3059 62.6211 37.5899 60.9465 37.9888C60.3093 39.2323 62.66 40.2627 62.5007 41.6494C62.4346 42.2189 61.8673 42.676 61.3001 42.6217C60.7328 42.5714 60.2588 42.0136 60.3015 41.4441C60.3132 41.2582 60.3753 41.0723 60.3831 40.8825C60.3987 40.5106 60.2083 40.1581 59.9635 39.8792C59.1592 38.9573 57.6905 38.7016 56.6181 39.2981C55.6157 39.8598 55.0717 40.9832 54.1898 41.7192C53.572 42.2305 52.8065 42.5365 52.0217 42.6915C51.4272 42.8077 50.7822 42.8348 50.2344 42.5752C49.6827 42.3157 49.2669 41.6998 49.3913 41.1071C49.6632 39.8443 51.7653 39.8986 52.2665 38.7055C52.4802 38.198 52.3248 37.6092 52.4413 37.0747C52.554 36.5401 52.9231 36.1063 53.2767 35.6879C54.4462 34.3205 55.6157 32.9531 56.7852 31.5857C57.267 31.024 57.7799 30.3074 57.539 29.6063C57.3719 29.1182 56.8785 28.8122 56.6531 28.3473C56.3578 27.7353 56.5871 26.9877 56.9795 26.4299C57.368 25.8721 57.9003 25.4305 58.3005 24.8804C59.097 23.7881 59.3574 22.2967 60.4181 21.4639C61.3894 20.7046 62.8154 20.7356 63.915 21.2934C65.0145 21.8551 65.8266 22.8545 66.4521 23.9198C67.3574 24.2452 68.154 23.2574 68.6163 22.4129C69.3157 21.123 70.0423 19.744 69.9374 18.2797C69.8363 16.8039 68.4492 15.5178 68.0685 14.193C78.4736 20.1662 85.4829 31.3959 85.4829 44.2642L85.4713 44.2603Z" fill="#469B49"/>
</g>
<path id="Vector_7" d="M102 2.94784V5.81434C102 7.4374 100.675 8.76219 99.0549 8.76219H2.94515C1.32493 8.76219 0 7.4374 0 5.81434V2.94784C0 1.32479 1.32493 0 2.94515 0H99.051C100.671 0 101.996 1.32479 101.996 2.94784H102Z" fill="#B26836"/>
<path id="Vector_8" d="M102 5.37274V5.81821C102 7.44127 100.675 8.76606 99.0549 8.76606H2.94515C1.32493 8.76606 0 7.44127 0 5.81821V5.37274H102Z" fill="#9B4A13"/>
<path id="Vector_9" d="M102 178.048V175.182C102 173.559 100.675 172.234 99.0549 172.234H2.94515C1.32493 172.234 0 173.559 0 175.182V178.048C0 179.671 1.32493 180.996 2.94515 180.996H99.051C100.671 180.996 101.996 179.671 101.996 178.048H102Z" fill="#B26836"/>
<path id="Vector_10" d="M102 175.623V175.178C102 173.555 100.675 172.23 99.0549 172.23H2.94515C1.32493 172.23 0 173.555 0 175.178V175.623H102Z" fill="#9B4A13"/>
<path id="Vector_11" d="M51.4231 100.114C52.2042 100.114 52.8374 99.4814 52.8374 98.7005C52.8374 97.9196 52.2042 97.2866 51.4231 97.2866C50.642 97.2866 50.0088 97.9196 50.0088 98.7005C50.0088 99.4814 50.642 100.114 51.4231 100.114Z" fill="#0068FF"/>
<path id="Vector_12" d="M49.4455 106.053C50.2266 106.053 50.8598 105.42 50.8598 104.639C50.8598 103.858 50.2266 103.225 49.4455 103.225C48.6644 103.225 48.0312 103.858 48.0312 104.639C48.0312 105.42 48.6644 106.053 49.4455 106.053Z" fill="#0068FF"/>
<path id="Vector_13" d="M53.1174 111.991C53.8985 111.991 54.5317 111.358 54.5317 110.577C54.5317 109.796 53.8985 109.163 53.1174 109.163C52.3363 109.163 51.7031 109.796 51.7031 110.577C51.7031 111.358 52.3363 111.991 53.1174 111.991Z" fill="#0068FF"/>
<path id="Vector_14" d="M49.4455 115.954C50.2266 115.954 50.8598 115.321 50.8598 114.54C50.8598 113.759 50.2266 113.126 49.4455 113.126C48.6644 113.126 48.0312 113.759 48.0312 114.54C48.0312 115.321 48.6644 115.954 49.4455 115.954Z" fill="#0068FF"/>
<path id="Vector_15" d="M53.1174 120.195C53.8985 120.195 54.5317 119.562 54.5317 118.782C54.5317 118.001 53.8985 117.368 53.1174 117.368C52.3363 117.368 51.7031 118.001 51.7031 118.782C51.7031 119.562 52.3363 120.195 53.1174 120.195Z" fill="#0068FF"/>
<path id="Vector_16" d="M48.8821 125.568C49.6632 125.568 50.2964 124.935 50.2964 124.154C50.2964 123.373 49.6632 122.74 48.8821 122.74C48.101 122.74 47.4678 123.373 47.4678 124.154C47.4678 124.935 48.101 125.568 48.8821 125.568Z" fill="#0068FF"/>
<path id="Vector_17" d="M93.8716 170.533H7.63477C7.68916 166.656 8.13598 156.174 11.2948 150.266C20.9851 157.344 81.2129 156.821 89.7414 150.266C92.9042 159.641 93.6929 166.908 93.8716 170.533Z" fill="#0068FF"/>
<path id="Vector_18" d="M11.2949 150.266C11.2949 150.266 32.7774 141.876 39.064 136.631C45.3506 131.386 52.1618 129.291 64.4746 137.941C76.7875 146.594 89.7415 150.263 89.7415 150.263C89.7415 150.263 85.0946 156.154 50.4211 156.154C15.7476 156.154 11.2949 150.263 11.2949 150.263V150.266Z" fill="#318FFF"/>
</g>
<defs>
<clipPath id="clip0_45_2399">
<rect width="102" height="181" fill="white"/>
</clipPath>
</defs>
</svg>
