<svg width="268" height="272" viewBox="0 0 268 272" fill="none" xmlns="http://www.w3.org/2000/svg">
<g clip-path="url(#clip0_45_795)">
<path d="M203.511 272L200.637 271.606C200.68 271.297 219.164 174.328 215.023 128.148C213.191 107.71 210.801 89.8679 205.995 75.2596C200.034 57.1554 191.334 43.9561 180.137 36.0303L181.813 33.6591C193.534 41.9567 202.603 55.6528 208.76 74.3724C213.647 89.2275 216.73 107.279 217.925 128.026C219.957 163.275 215.766 194.582 215.725 194.894L203.514 271.997L203.511 272Z" fill="#469B49"/>
<path d="M218.225 131.075L215.323 131.044C215.329 130.6 215.476 120 218.359 108.003C222.285 91.6487 229.132 81.1829 238.709 76.8935L239.895 79.5459C218.949 88.9276 218.231 130.656 218.225 131.078V131.075Z" fill="#469B49"/>
<path d="M180.489 103.539C180.489 103.539 183.669 128.029 216.92 129.975C218.159 100.387 180.489 103.539 180.489 103.539Z" fill="#469B49"/>
<path d="M252.93 120.968C252.93 120.968 249.75 145.458 216.499 147.405C215.26 117.816 252.93 120.968 252.93 120.968Z" fill="#469B49"/>
<path d="M155.686 52.16C157.259 54.072 160.077 54.4 165.6 50.2793C166.131 49.8857 166.683 49.4545 167.261 48.9765C173.898 43.5031 181.454 34.4307 179.731 32.3345C178.966 31.4066 176.501 32.0095 173.415 33.4498C169.557 35.2492 164.72 38.3577 161.029 41.4006C154.391 46.874 153.963 50.07 155.683 52.16H155.686Z" fill="#EDAF3E"/>
<path d="M165.601 50.2793C166.131 49.8857 166.683 49.4545 167.261 48.9765C173.899 43.5031 181.454 34.4307 179.731 32.3345C178.967 31.4066 176.501 32.0095 173.415 33.4498C174.651 35.343 169.514 44.9746 165.601 50.2762V50.2793Z" fill="#E2A037"/>
<path d="M168.809 61.5417C171.187 62.4352 173.883 61.2199 176.698 54.3781C176.879 53.9408 177.063 53.4753 177.244 52.9879C180.259 44.9277 182.268 33.2936 179.731 32.3376C178.498 31.8783 176.429 34.0121 174.276 37.258C171.992 40.7008 169.608 45.3932 168.06 49.5483C165.039 57.6116 166.275 60.592 168.809 61.5417Z" fill="#EDAF3E"/>
<path d="M176.698 54.375C176.879 53.9376 177.063 53.4721 177.244 52.9848C180.259 44.9246 182.271 33.2904 179.731 32.3345C178.498 31.8752 176.429 34.0059 174.279 37.2549C175.949 40.2135 177.097 47.0334 176.698 54.375Z" fill="#E2A037"/>
<path d="M184.858 63.0944C187.246 62.6945 188.928 60.5014 188.235 53.9657C188.151 53.1972 188.041 52.3631 187.888 51.4665C186.475 42.9689 182.402 31.894 179.731 32.3345C178.511 32.5375 177.796 35.1149 177.509 38.6639C177.172 42.8814 177.447 48.4704 178.217 53.0785C179.631 61.5761 182.19 63.5411 184.858 63.0944Z" fill="#EDAF3E"/>
<path d="M188.238 53.9657C188.154 53.1972 188.045 52.3631 187.892 51.4665C186.478 42.9689 182.409 31.894 179.734 32.3345C178.514 32.5375 177.799 35.1149 177.512 38.6639C180.714 41.3537 185.554 47.78 188.241 53.9657H188.238Z" fill="#E2A037"/>
<path d="M203.776 12.512C205.349 14.424 205.13 17.2544 200.031 21.8937C199.541 22.3373 199.017 22.7997 198.436 23.2777C191.799 28.7511 181.454 34.4339 179.731 32.3376C178.966 31.4097 180.031 29.101 182.037 26.3456C184.54 22.8997 188.516 18.7446 192.204 15.7017C198.842 10.2283 202.06 10.422 203.776 12.512Z" fill="#EDAF3E"/>
<path d="M200.031 21.8906C199.541 22.3342 199.017 22.7966 198.436 23.2746C191.799 28.748 181.454 34.4307 179.731 32.3345C178.966 31.4066 180.031 29.0979 182.037 26.3424C183.657 27.9201 194.086 24.7179 200.031 21.8906Z" fill="#E2A037"/>
<path d="M210.458 27.2016C210.879 29.7071 209.169 32.1252 201.923 33.5779C201.458 33.6716 200.968 33.7622 200.453 33.8497C191.974 35.268 180.184 35.0118 179.731 32.3345C179.516 31.038 182.003 29.4103 185.601 27.9201C189.415 26.3331 194.473 24.8929 198.842 24.1681C207.325 22.7466 210.011 24.5305 210.458 27.2016Z" fill="#EDAF3E"/>
<path d="M201.922 33.5779C201.457 33.6716 200.967 33.7653 200.452 33.8497C191.973 35.268 180.18 35.0118 179.731 32.3345C179.519 31.038 182.006 29.4103 185.601 27.9201C188.182 30.1288 194.648 32.5625 201.922 33.5779Z" fill="#E2A037"/>
<path d="M208.903 43.2719C208.054 45.54 205.583 46.7709 199.307 44.8402C198.567 44.6122 197.775 44.3435 196.923 44.0186C188.865 40.9976 178.785 34.8775 179.731 32.3345C180.165 31.1723 182.827 30.9661 186.362 31.366C190.563 31.8408 195.99 33.1842 200.359 34.8244C208.416 37.8423 209.855 40.732 208.903 43.2688V43.2719Z" fill="#EDAF3E"/>
<path d="M199.307 44.8402C198.567 44.6122 197.775 44.3435 196.923 44.0186C188.865 41.0007 178.785 34.8775 179.731 32.3345C180.165 31.1723 182.827 30.9661 186.362 31.366C188.385 35.0274 193.758 41.0132 199.307 44.8402Z" fill="#E2A037"/>
<path d="M188.781 51.0603C194.249 57.7084 197.441 58.1333 199.532 56.4088C201.623 54.6874 201.816 51.4665 196.349 44.8215C190.881 38.1734 181.822 30.6162 179.731 32.3407C177.64 34.0652 183.314 44.4154 188.781 51.0635V51.0603Z" fill="#EDAF3E"/>
<path d="M173.618 36.2052C174.947 38.1953 178.608 38.0828 181.791 35.9522C184.974 33.8215 186.475 30.4788 185.146 28.4887C183.816 26.4955 180.156 26.6111 176.972 28.7417C173.789 30.8724 172.288 34.2152 173.618 36.2052Z" fill="#3A1E04"/>
<path d="M221.623 53.4315C219.926 55.2341 219.957 58.0739 224.741 63.0413C225.2 63.5193 225.693 64.0129 226.242 64.5283C232.505 70.4298 242.448 76.7873 244.305 74.8098C245.128 73.935 244.22 71.5607 242.401 68.6803C240.132 65.0751 236.44 60.6638 232.961 57.3835C226.701 51.4821 223.48 51.4633 221.626 53.4315H221.623Z" fill="#EDAF3E"/>
<path d="M224.741 63.0413C225.199 63.5192 225.696 64.0129 226.242 64.5283C232.505 70.4298 242.448 76.7873 244.304 74.8098C245.128 73.935 244.22 71.5607 242.401 68.6771C240.681 70.1455 230.486 66.256 224.741 63.0413Z" fill="#E2A037"/>
<path d="M213.984 67.6462C213.397 70.1205 214.942 72.6448 222.079 74.5755C222.535 74.7004 223.022 74.8254 223.527 74.9441C231.894 76.9217 243.677 77.4496 244.305 74.8098C244.604 73.5289 242.229 71.7419 238.741 70.0143C235.039 68.1773 230.09 66.4028 225.777 65.3906C217.407 63.4099 214.608 65.0095 213.987 67.6462H213.984Z" fill="#EDAF3E"/>
<path d="M222.079 74.5786C222.535 74.7035 223.018 74.8285 223.527 74.9472C231.894 76.9248 243.677 77.4527 244.305 74.8129C244.604 73.532 242.23 71.745 238.741 70.0174C236.019 72.0512 229.403 74.0506 222.079 74.5786Z" fill="#E2A037"/>
<path d="M214.471 83.7822C215.17 86.1003 217.554 87.4967 223.942 85.9847C224.694 85.8035 225.506 85.591 226.376 85.3255C234.618 82.8481 245.079 77.409 244.305 74.8098C243.949 73.6226 241.306 73.2383 237.751 73.4008C233.529 73.5976 228.024 74.5786 223.555 75.9219C215.313 78.3994 213.688 81.1861 214.468 83.7822H214.471Z" fill="#EDAF3E"/>
<path d="M223.942 85.9847C224.694 85.8035 225.505 85.591 226.376 85.3255C234.618 82.8481 245.078 77.409 244.305 74.8098C243.949 73.6226 241.306 73.2383 237.754 73.4008C235.495 76.9185 229.737 82.5357 223.945 85.9847H223.942Z" fill="#E2A037"/>
<path d="M266.983 96.188C265.285 97.9906 262.455 98.1312 257.215 93.6512C256.713 93.2232 256.192 92.7577 255.642 92.2423C249.379 86.3408 242.445 76.7842 244.305 74.8098C245.129 73.9319 247.547 74.6973 250.531 76.3437C254.26 78.3962 258.882 81.8171 262.361 85.0974C268.625 90.9989 268.837 94.2167 266.983 96.188Z" fill="#EDAF3E"/>
<path d="M257.215 93.6512C256.713 93.2232 256.192 92.7577 255.642 92.2423C249.382 86.3408 242.445 76.7842 244.305 74.8098C245.129 73.9319 247.55 74.6973 250.534 76.3406C249.173 78.1494 253.664 88.0997 257.215 93.6481V93.6512Z" fill="#E2A037"/>
<path d="M253.267 104.676C250.836 105.41 248.224 104.02 245.871 97.0034C245.718 96.5535 245.565 96.0787 245.415 95.5788C242.941 87.3374 241.705 75.5939 244.301 74.8098C245.559 74.4349 247.485 76.6998 249.416 80.0801C251.47 83.6666 253.536 88.509 254.806 92.7577C257.284 101.002 255.857 103.895 253.264 104.676H253.267Z" fill="#EDAF3E"/>
<path d="M245.871 97.0034C245.718 96.5535 245.565 96.0787 245.416 95.5788C242.941 87.3374 241.708 75.5939 244.302 74.8098C245.559 74.4349 247.485 76.6967 249.416 80.0801C247.553 82.9199 245.955 89.6524 245.868 97.0034H245.871Z" fill="#E2A037"/>
<path d="M237.149 105.16C234.793 104.601 233.26 102.305 234.384 95.8287C234.518 95.0664 234.683 94.2417 234.896 93.3575C236.871 84.9725 241.664 74.1912 244.305 74.8098C245.509 75.0941 246.049 77.712 246.102 81.2735C246.158 85.5036 245.512 91.0645 244.439 95.61C242.463 103.995 239.783 105.785 237.149 105.164V105.16Z" fill="#EDAF3E"/>
<path d="M234.384 95.8287C234.518 95.0664 234.683 94.2417 234.896 93.3575C236.871 84.9725 241.664 74.1912 244.305 74.8098C245.509 75.0941 246.049 77.712 246.102 81.2735C242.729 83.7416 237.476 89.8367 234.384 95.8287Z" fill="#E2A037"/>
<path d="M226.891 86.1596C220.996 92.4297 220.977 95.6538 222.947 97.5126C224.919 99.3715 228.133 99.159 234.028 92.8889C239.923 86.6189 246.271 76.6686 244.298 74.8098C242.326 72.9509 232.786 79.8896 226.888 86.1596H226.891Z" fill="#EDAF3E"/>
<path d="M239.698 69.227C237.895 70.7984 238.466 74.4192 240.981 77.309C243.493 80.202 246.995 81.2704 248.801 79.699C250.605 78.1276 250.034 74.5067 247.522 71.6169C245.01 68.724 241.508 67.6556 239.702 69.227H239.698Z" fill="#3A1E04"/>
<path d="M15.7717 249.616C15.6188 263.946 29.8586 274.293 45.8897 271.516C52.1342 270.435 57.6329 267.492 61.6836 263.427C63.1753 261.925 64.4703 260.269 65.5407 258.494L66.0931 257.51C67.5723 254.752 68.4898 251.734 68.7176 248.6L69.9066 232.205L21.9414 241.462L15.8497 242.64L15.7842 248.663L15.7748 249.616H15.7717Z" fill="#3F1C00"/>
<path d="M192.806 227.803C192.806 227.803 193.455 230.962 195.193 234.92C198.898 243.377 207.595 255.48 225.645 248.341C231.1 246.179 235.497 242.415 238.275 237.907C240.372 234.501 241.548 230.662 241.548 226.779C241.548 225.957 241.495 225.123 241.386 224.292L239.258 210.502L233.715 212.567L195.83 226.679L192.806 227.803Z" fill="#3F1C00"/>
<path d="M10.3418 243.946L92.0263 240.703L87.4014 177.087C88.2159 174.231 88.5342 171.185 88.244 168.055C86.9645 154.468 74.9404 144.49 61.3716 145.771C58.1885 146.071 55.1988 146.964 52.515 148.336C46.9071 151.185 42.6099 156.105 40.4847 161.997L40.4535 161.988C40.4535 161.988 40.3568 162.272 40.1882 162.797C40.157 162.872 40.1227 163.006 40.1227 163.006L32.2273 184.485L10.3449 243.946H10.3418Z" fill="#EDAF3E"/>
<path d="M47.5967 152.038L47.606 152.091L59.0247 200.842L66.5206 232.852L68.5741 241.634L69.0703 243.699V243.742L69.3293 244.867L70.1188 248.219L70.9926 251.949L75.4864 271.06H192.716L191.561 256.32L189.92 235.329L189.907 235.211L189.433 229.134L187.067 198.843L186.615 193.145L186.421 190.583L186.053 186.009V185.987L185.201 175.087L184.833 170.339L184.661 168.045L184.112 160.507C184.112 160.507 184.099 160.498 184.112 160.498L183.528 152.691L182.049 132.587L182.04 132.543C182.04 132.543 181.737 132.446 181.207 132.271C180.539 132.043 179.521 131.7 178.214 131.278C177.274 130.953 176.182 130.597 174.984 130.197C174.975 130.197 174.953 130.188 174.94 130.188C174.778 130.144 174.637 130.091 174.475 130.038C174.357 130.006 174.247 129.963 174.129 129.928C173.988 129.875 173.839 129.831 173.686 129.788C169.903 128.544 165.216 127.007 160.323 125.473H160.31C154.843 123.743 149.163 122.002 144.248 120.618C144.142 120.597 144.02 120.565 143.914 120.531C138.113 118.91 132.162 117.438 126.663 116.454C126.469 116.423 126.273 116.388 126.092 116.357C125.68 116.282 125.28 116.217 124.881 116.151C124.859 116.151 124.828 116.142 124.806 116.142H124.797C124.485 116.076 124.204 116.032 123.889 115.992C119.838 115.386 116.09 115.083 112.957 115.236C111.983 115.267 111.066 115.367 110.214 115.495C107.783 115.895 104.887 116.857 101.638 118.232L101.616 118.241C100.742 118.597 99.8342 118.997 98.9042 119.431C98.7544 119.497 98.5921 119.572 98.4299 119.647C98.2894 119.712 98.1396 119.787 97.9992 119.853C93.9704 121.768 89.6045 124.158 85.1669 126.773L82.5517 128.341L79.9272 129.931L79.1064 130.441L78.8349 130.603C68.8736 136.842 59.3024 143.549 53.448 147.767C53.3513 147.842 53.2545 147.908 53.1671 147.982C53.0922 148.036 53.0142 148.092 52.9518 148.145L52.9393 148.154C52.9393 148.154 52.9268 148.154 52.9175 148.164C51.6411 149.082 50.5738 149.86 49.7312 150.479C48.3613 151.472 47.6029 152.047 47.6029 152.047L47.5967 152.038Z" fill="#EDAF3E"/>
<path d="M49.3569 149.973C53.7977 156.18 62.9258 165.946 78.8382 171.213C81.366 172.057 84.0561 172.782 86.9302 173.353C96.0271 175.181 106.915 175.559 119.866 173.472C161.986 166.68 174.647 142.693 178.386 130.734C178.233 130.669 178.074 130.616 177.911 130.572C169.398 127.76 156.435 123.596 146.508 120.797C146.398 120.775 146.27 120.731 146.161 120.7C139.302 118.785 132.237 117.066 125.864 116.039L97.7435 118.582C93.4338 120.615 88.216 124.574 83.485 127.351L80.6982 129.029L77.8989 130.737L77.0251 131.269L76.7349 131.453C66.1151 138.104 55.9073 145.252 49.6628 149.751C49.5535 149.826 49.4568 149.901 49.3601 149.979L49.3569 149.973Z" fill="#3F1C00"/>
<path d="M148.839 160.335C149.532 163.403 150.802 166.19 152.471 168.645L172.953 235.251L246.604 207.893L192.941 140.41C192.941 140.41 192.85 140.297 192.813 140.232C192.485 139.788 192.307 139.547 192.307 139.547L192.282 139.566C192.282 139.566 192.282 139.554 192.267 139.554C189.555 136.089 185.966 133.434 181.922 131.815C181.638 131.718 181.363 131.606 181.076 131.497C178.732 130.669 176.257 130.188 173.711 130.116C171.617 130.041 169.495 130.244 167.36 130.728C154.076 133.78 145.778 147.036 148.839 160.332V160.335Z" fill="#EDAF3E"/>
<path d="M195.194 234.92C198.898 243.377 207.596 255.48 225.646 248.341C231.101 246.179 235.498 242.415 238.275 237.907C237.248 231.071 235.629 222.236 233.716 212.567C226.629 176.74 215.491 129.394 215.491 129.394L202.646 138.901L195.83 226.682L195.194 234.923V234.92Z" fill="#492300"/>
<path d="M127.68 59.8016C128.744 66.4215 135.026 70.9171 141.692 69.8424L141.948 69.8018C142.223 69.7456 142.5 69.6925 142.772 69.6144C143.068 67.3088 143.452 63.5036 143.508 58.8925C143.555 55.0279 143.368 50.6011 142.709 46.0399C142.095 45.8868 141.455 45.7837 140.8 45.7337C139.835 45.6494 138.834 45.69 137.832 45.8493C134.876 46.3273 132.327 47.8206 130.511 49.9232C129.587 50.9822 128.844 52.2069 128.335 53.5377C128.289 53.6533 128.251 53.7596 128.214 53.8752C127.558 55.7215 127.346 57.7397 127.68 59.7985V59.8016Z" fill="#1A1A1A"/>
<path d="M68.0873 59.8391V59.8484C68.8332 64.1316 69.8349 68.1867 70.8616 71.7669C71.8915 75.3127 72.9431 78.3775 73.8045 80.7362C74.4661 80.5644 75.1089 80.3394 75.7112 80.0676C80.6669 77.8776 83.7096 72.5885 82.8171 67.037C82.5019 65.0719 81.7217 63.2912 80.617 61.7948C80.617 61.7854 80.6014 61.776 80.592 61.7666C80.4641 61.5792 80.3143 61.3949 80.1645 61.2105C77.4931 58.0146 73.2427 56.2682 68.8051 56.9836C68.4212 57.0461 68.0499 57.1273 67.6816 57.2179C67.7909 58.0989 67.9313 58.9737 68.0905 59.8359L68.0873 59.8391Z" fill="#1A1A1A"/>
<path d="M123.62 101.008L126.061 116.176C127.025 122.165 121.667 128.013 114.077 129.238C106.488 130.463 99.5471 126.595 98.5859 120.609L96.1455 105.442L123.623 101.012L123.62 101.008Z" fill="#3F1C00"/>
<path d="M124.301 101.755L126.997 118.513C117.067 117.432 102.396 111.565 97.3503 109.456C96.2206 108.987 95.584 108.709 95.584 108.709L103.735 107.635L124.304 101.755H124.301Z" fill="#1A1A1A"/>
<path d="M141.733 48.9891C143.293 58.6644 145.219 77.1403 140.756 90.1897C136.565 102.439 127.608 110.115 114.642 112.577C101.675 115.039 91.221 111.937 81.0912 98.5498C70.9583 85.163 67.4756 61.1543 67.4756 61.1543C67.4756 61.1543 61.9145 26.5892 98.6546 20.6628C137.351 14.4209 141.736 48.9953 141.736 48.9953L141.733 48.9891Z" fill="#492300"/>
<path d="M125.556 55.0208C132.229 53.9447 136.775 47.702 135.71 41.0774C134.644 34.4527 128.37 29.9547 121.696 31.0307C115.022 32.1068 110.476 38.3495 111.542 44.9742C112.608 51.5989 118.882 56.0969 125.556 55.0208Z" fill="#1A1A1A"/>
<path d="M110.389 39.8479C110.573 41.0007 110.872 42.1035 111.281 43.1439C113.871 49.8576 120.687 54.2032 128.067 53.5596C128.155 53.5596 128.251 53.5502 128.339 53.5377C128.663 53.5065 128.994 53.4659 129.316 53.4128C130.617 53.2035 131.853 52.8504 133.011 52.3662C136.306 51.0135 139.002 48.661 140.806 45.7306C141.352 44.8434 141.823 43.8905 142.189 42.9002C141.88 41.3194 141.514 39.7323 141.074 38.1515C139.424 32.2407 136.74 26.5049 132.521 21.8406C129.924 20.869 127.038 20.5441 124.104 21.019C115.091 22.4717 108.953 30.9005 110.392 39.8479H110.389Z" fill="#1A1A1A"/>
<path d="M127.237 50.7917C127.397 51.7726 127.674 52.6942 128.068 53.5596C128.117 53.6596 128.158 53.7752 128.217 53.8751C130.068 57.6959 134.016 60.1921 138.366 60.1577C138.946 60.164 139.53 60.1109 140.117 60.0171C141.331 59.8203 142.476 59.4392 143.512 58.8893C143.559 55.0248 143.371 50.598 142.713 46.0368C142.566 44.9964 142.398 43.9499 142.186 42.9002C141.877 41.3194 141.512 39.7323 141.071 38.1515C139.636 37.8016 138.116 37.7298 136.568 37.9797C131.566 38.7857 127.871 42.744 127.209 47.4739C127.053 48.5517 127.06 49.667 127.241 50.7885L127.237 50.7917Z" fill="#1A1A1A"/>
<path d="M106.964 52.7116C113.637 51.6355 118.183 45.3928 117.117 38.7682C116.051 32.1435 109.777 27.6455 103.104 28.7215C96.4301 29.7976 91.8841 36.0403 92.95 42.665C94.0158 49.2897 100.29 53.7877 106.964 52.7116Z" fill="#1A1A1A"/>
<path d="M108.996 49.3814C118.606 47.8317 125.153 38.8424 123.618 29.3031C122.083 19.7639 113.048 13.287 103.438 14.8367C93.827 16.3863 87.2803 25.3756 88.8152 34.9149C90.35 44.4542 99.3851 50.931 108.996 49.3814Z" fill="#1A1A1A"/>
<path d="M83.4279 62.4016C90.1015 61.3255 94.6475 55.0828 93.5816 48.4582C92.5158 41.8335 86.2417 37.3355 79.568 38.4116C72.8944 39.4876 68.3484 45.7303 69.4143 52.355C70.4802 58.9797 76.7543 63.4777 83.4279 62.4016Z" fill="#1A1A1A"/>
<path d="M68.0872 59.8391V59.8484C71.339 61.8229 75.2992 62.7039 79.3623 62.0509C79.5121 62.0259 79.6494 62.0041 79.7992 61.9697C80.0645 61.926 80.3298 61.8729 80.5825 61.801C80.595 61.8104 80.6044 61.8073 80.6137 61.7948C87.5355 60.1421 92.513 54.2875 93.1995 47.4645C93.34 46.0836 93.3088 44.6653 93.0778 43.2345C91.6392 34.287 83.1665 28.2169 74.1539 29.6696C72.3501 29.9602 70.6493 30.5319 69.1171 31.3379C67.1167 37.0612 66.5924 43.4656 66.9263 49.8201C67.0543 52.3069 67.3102 54.7968 67.6815 57.2242C67.7908 58.1052 67.9312 58.9799 68.0903 59.8422L68.0872 59.8391Z" fill="#1A1A1A"/>
<path d="M68.0874 59.8391V59.8484C68.8332 64.1316 69.835 68.1867 70.8617 71.7669C70.9584 71.7606 71.0645 71.745 71.1737 71.7263C73.6485 71.3264 75.8205 70.1455 77.4495 68.4897V68.4803C79.1971 66.6965 80.3268 64.3471 80.5858 61.7979C80.5952 61.7854 80.592 61.776 80.592 61.7635C80.6451 61.273 80.6638 60.7763 80.6357 60.2764C80.617 59.8203 80.5764 59.3673 80.5015 58.9081C79.5216 52.8223 73.7577 48.6923 67.6255 49.6795C67.3914 49.717 67.1574 49.7669 66.9233 49.8138C67.0513 52.3006 67.3072 54.7905 67.6786 57.2179C67.7878 58.0989 67.9282 58.9737 68.0874 59.8359V59.8391Z" fill="#1A1A1A"/>
<path d="M100.357 54.364C107.031 53.2879 111.577 47.0452 110.511 40.4205C109.445 33.7959 103.171 29.2978 96.4972 30.3739C89.8236 31.45 85.2776 37.6927 86.3435 44.3174C87.4094 50.9421 93.6835 55.4401 100.357 54.364Z" fill="#1A1A1A"/>
<path d="M97.3819 51.8391C106.992 50.2894 113.539 41.3001 112.004 31.7608C110.47 22.2216 101.434 15.7447 91.8238 17.2944C82.2133 18.844 75.6666 27.8334 77.2014 37.3726C78.7362 46.9119 87.7713 53.3887 97.3819 51.8391Z" fill="#1A1A1A"/>
<path d="M118.499 75.8251C118.677 80.6081 114.81 84.7444 110.326 85.4036C105.866 86.1534 100.936 83.4292 99.6375 78.8336C99.4815 78.2713 100.165 77.8683 100.549 78.2931C103.023 81.0111 106.338 82.4451 109.758 81.8796C113.16 81.3141 115.815 78.9117 117.288 75.5752C117.544 74.9441 118.477 75.1378 118.499 75.8251Z" fill="#190B00"/>
<path d="M113.286 105.207C117.703 104.495 120.823 101.049 120.253 97.5111C119.684 93.9731 115.642 91.6824 111.224 92.3946C106.807 93.1069 103.688 96.5524 104.257 100.09C104.826 103.629 108.868 105.919 113.286 105.207Z" fill="#844710"/>
<path d="M110.045 100.971C111.028 100.971 112.108 100.884 113.281 100.674C120.478 99.3871 122.45 95.735 122.528 95.5788C122.665 95.3132 122.562 94.9883 122.297 94.8509C122.035 94.7134 121.707 94.8165 121.57 95.0789C121.551 95.1133 119.713 98.4249 113.088 99.612C106.416 100.805 103.036 97.7625 103.002 97.7313C102.78 97.5282 102.44 97.5439 102.237 97.7625C102.034 97.9812 102.047 98.3249 102.265 98.5279C102.393 98.6467 104.98 100.977 110.039 100.977L110.045 100.971Z" fill="#190B00"/>
<path d="M142.238 83.5323C142.238 83.5323 139.009 86.1253 134.936 85.0537C134.936 85.0537 131.416 71.72 129.528 66.937C129.528 66.937 130.211 60.1109 138.219 59.3173C146.224 58.5238 151.307 76.4156 142.238 83.5291V83.5323Z" fill="#492300"/>
<path d="M76.1982 94.1823C76.1982 94.1823 80.0772 95.6288 83.6068 93.3326C83.6068 93.3326 82.7673 79.5678 83.0575 74.4318C83.0575 74.4318 80.2676 68.1679 72.4159 69.9299C64.5673 71.6919 65.3537 90.2772 76.1951 94.1823H76.1982Z" fill="#492300"/>
<path d="M60.788 61.0137V61.0231C61.5432 65.3062 62.6012 69.352 63.6996 72.9197C64.8044 76.4562 65.9466 79.5022 66.8859 81.8484C68.156 84.9725 69.0766 86.8188 69.0766 86.8188C69.0766 86.8188 68.8707 84.5851 69.1172 81.1267C69.3388 77.9901 69.9535 73.86 71.4421 69.4582V69.4488C72.1786 67.2807 73.1335 65.0469 74.3506 62.8445C74.4879 62.5914 74.6377 62.3259 74.7875 62.0728L75.3617 61.1262C78.548 56.0776 83.2821 51.304 90.313 47.9269C94.0953 46.1118 98.5267 44.6965 103.757 43.853C106.497 43.4125 109.05 43.1751 111.453 43.1157C119.095 42.922 125.128 44.5247 129.862 47.049C131.229 47.7707 132.48 48.5642 133.641 49.4202C134.655 50.1762 135.613 50.976 136.478 51.8101C139.052 54.2313 141.015 56.918 142.504 59.4923C144.688 63.3037 145.849 66.8714 146.423 69.0802C146.785 70.4673 146.91 71.3014 146.91 71.3014C146.91 71.3014 147.113 70.4235 147.388 68.8708C147.793 66.5496 148.339 62.7164 148.527 58.0833C148.68 54.2032 148.58 49.7607 147.934 45.1995C147.793 44.1592 147.625 43.1126 147.403 42.0629C147.085 40.4821 146.704 38.9013 146.233 37.3237C141.243 20.616 124.063 -2.99289 98.0524 0.31241C62.907 4.77675 59.4586 43.7187 59.6989 50.9822C59.78 53.4784 60.0172 55.9714 60.3823 58.3988C60.4853 59.2798 60.6258 60.1546 60.7912 61.0168L60.788 61.0137Z" fill="#EFE3D8"/>
<path d="M118.197 62.2884L132.346 63.5817C132.346 63.5817 130.742 58.7644 123.187 58.1396C120.849 57.9459 119.064 58.2301 117.713 58.7175C115.856 59.3861 116.231 62.1103 118.197 62.2884Z" fill="#0C0C0C"/>
<path d="M96.1332 65.8561L82.1182 71.9606C82.1182 71.9606 82.1306 66.4997 89.6359 63.3068C91.9577 62.3196 93.877 62.0072 95.4186 62.0447C97.5407 62.0978 98.0775 65.0063 96.1301 65.8561H96.1332Z" fill="#0C0C0C"/>
<path d="M132.652 68.0461C132.652 68.0461 131.716 80.3238 118.094 70.7078C128.036 71.0577 132.652 68.0461 132.652 68.0461Z" fill="#0C0C0C"/>
<path d="M82.8516 76.0782C82.8516 76.0782 87.5919 87.4405 97.5064 74.0287C88.1755 77.4871 82.8516 76.0782 82.8516 76.0782Z" fill="#0C0C0C"/>
<path d="M144.186 76.6467C145.204 76.6467 146.03 75.8201 146.03 74.8004C146.03 73.7807 145.204 72.954 144.186 72.954C143.167 72.954 142.341 73.7807 142.341 74.8004C142.341 75.8201 143.167 76.6467 144.186 76.6467Z" fill="#190B00"/>
<path d="M142.201 89.5868C143.399 97.0378 146.292 104.811 149.79 104.245C153.289 103.68 153.598 95.3945 152.396 87.9404C151.457 82.1108 149.482 76.0875 146.991 74.0037C146.298 73.4352 145.565 73.1602 144.807 73.2821C144.22 73.3758 143.817 73.935 143.911 74.5223C144.005 75.1097 144.563 75.5127 145.15 75.419C145.45 75.3721 145.943 75.7939 146.539 76.7061C147.734 78.5524 149.313 82.3826 150.262 88.2871C151.679 97.094 150.33 101.968 149.444 102.111C148.558 102.255 145.749 98.0531 144.332 89.2431C143.93 86.7438 143.955 84.3102 143.97 82.1701L143.98 81.8171C143.468 82.4482 142.894 83.023 142.232 83.5354C142.232 83.5354 142.089 83.6572 141.811 83.8322C141.801 85.6192 141.873 87.5561 142.201 89.5868Z" fill="#EDAF3E"/>
<path d="M73.5235 89.1369C74.5421 89.1369 75.3679 88.3103 75.3679 87.2906C75.3679 86.2709 74.5421 85.4442 73.5235 85.4442C72.5049 85.4442 71.6792 86.2709 71.6792 87.2906C71.6792 88.3103 72.5049 89.1369 73.5235 89.1369Z" fill="#190B00"/>
<path d="M80.046 100.705C81.2444 108.156 80.9385 116.445 77.4402 117.01C73.9419 117.576 71.049 109.803 69.8507 102.352C68.9113 96.5223 68.8989 90.1835 70.609 87.4187C71.0896 86.6626 71.6981 86.169 72.4565 86.0472C73.0431 85.9534 73.6018 86.3565 73.6954 86.9438C73.789 87.5311 73.3864 88.0903 72.7997 88.1841C72.5001 88.2309 72.1631 88.7901 71.8854 89.843C71.3299 91.9705 71.0334 96.1037 71.9821 102.008C73.3989 110.815 76.2107 115.02 77.0938 114.876C77.9801 114.733 79.3283 109.859 77.9115 101.052C77.5089 98.5529 76.7225 96.2505 76.0359 94.2229L75.9173 93.8918C76.6008 94.3292 77.3279 94.6947 78.1143 94.9727C78.1143 94.9727 78.2891 95.0446 78.6105 95.1227C79.1785 96.816 79.7183 98.6779 80.046 100.709V100.705Z" fill="#EDAF3E"/>
<path d="M183.537 193.263C204.437 193.263 221.379 176.302 221.379 155.38C221.379 134.458 204.437 117.497 183.537 117.497C162.638 117.497 145.696 134.458 145.696 155.38C145.696 176.302 162.638 193.263 183.537 193.263Z" fill="#0C0C0C"/>
<path d="M172.001 249.694C172.119 251.49 172.572 253.177 173.296 254.711L175.574 271.063H214.723L198.661 242.48C198.661 242.48 198.617 242.405 198.595 242.371C198.455 242.09 198.38 241.94 198.38 241.94H198.349C197.138 239.734 195.356 237.916 193.228 236.641C193.075 236.554 192.937 236.47 192.784 236.382C191.876 235.885 190.915 235.485 189.91 235.214C189.77 235.17 189.629 235.126 189.489 235.104C189.252 235.029 189.002 234.973 188.756 234.933C187.579 234.704 186.368 234.62 185.126 234.704C177.359 235.214 171.482 241.927 172.001 249.694Z" fill="#EFE3D8"/>
<path d="M93.7988 271.063H134.352L135.875 253.555C136.59 252.018 137.042 250.331 137.161 248.547C137.679 240.771 131.803 234.055 124.048 233.549C122.297 233.43 120.612 233.636 119.045 234.12C118.97 234.142 118.905 234.164 118.83 234.186C115.407 235.279 112.542 237.669 110.804 240.793L110.794 240.784C110.794 240.784 110.719 240.937 110.566 241.215C110.545 241.259 110.513 241.324 110.513 241.324L104.119 252.712L93.8019 271.063H93.7988Z" fill="#EFE3D8"/>
<path d="M115.718 235.829V235.86L118.202 271.063H190.3L191.37 258.604L191.564 256.323L193.227 237.085V237.054C193.227 237.054 193.065 236.979 192.784 236.826C192.232 236.545 191.23 236.013 189.922 235.332C189.782 235.257 189.642 235.182 189.492 235.104C189.395 235.061 189.298 235.007 189.202 234.951C189.061 234.876 188.921 234.811 188.768 234.736C187.039 233.839 184.932 232.758 182.707 231.633C179.477 230 175.988 228.281 173.018 226.907L172.846 226.819C171.894 226.376 170.924 225.944 169.962 225.523C168.861 225.048 167.769 224.582 166.689 224.161C165.069 223.511 163.481 222.927 161.967 222.442C159.049 221.511 156.381 220.927 154.309 220.927C152.527 220.927 150.205 221.371 147.578 222.105C145.796 222.614 143.895 223.239 141.917 223.964C141.008 224.289 140.1 224.635 139.173 224.992L137.563 225.641L135.944 226.301L135.426 226.516L135.263 226.582C129.084 229.187 123.089 232.096 119.404 233.945C119.285 234.011 119.167 234.064 119.048 234.117C116.973 235.167 115.721 235.826 115.721 235.826L115.718 235.829Z" fill="#EFE3D8"/>
<path d="M135.257 226.585C135.257 226.585 135.319 226.825 135.482 227.241C136.415 229.647 140.609 237.897 154.309 237.897C170.349 237.897 173.017 226.907 173.017 226.907L172.843 226.825L163.892 222.492L161.967 222.445L147.577 222.111L146.307 222.08L139.17 224.998L137.557 225.645L135.937 226.307L135.425 226.516L135.257 226.588V226.585Z" fill="#663300"/>
<path d="M154.306 235.823C147.462 235.823 141.904 230.259 141.904 223.408V206.028H166.705V223.408C166.705 230.259 161.147 235.823 154.303 235.823H154.306Z" fill="#663300"/>
<path d="M142.126 214.673L169.273 225.067L166.876 216.631V213.876L142.126 214.673Z" fill="#0C0C0C"/>
<path d="M120.041 179.783C120.041 179.783 116.627 174.347 109.586 177.021C102.546 179.695 105.732 196.812 116.293 198.993C116.293 198.993 120.078 199.821 123.046 197.225C123.046 197.225 120.45 184.581 120.041 179.783Z" fill="#663300"/>
<path d="M186.942 179.783C186.942 179.783 190.356 174.347 197.397 177.021C204.437 179.695 201.251 196.812 190.69 198.993C190.69 198.993 186.905 199.821 183.937 197.225C183.937 197.225 186.533 184.581 186.942 179.783Z" fill="#663300"/>
<path d="M197.759 184.697C193.72 181.301 188.287 186.425 188.334 190.786C188.306 191.179 188.805 191.414 189.092 191.151C191.801 188.768 194.086 186.603 197.55 185.315C197.827 185.253 197.971 184.906 197.756 184.694L197.759 184.697Z" fill="#421E00"/>
<path d="M110.185 184.697C114.224 181.301 119.657 186.425 119.61 190.786C119.638 191.179 119.139 191.414 118.852 191.151C116.143 188.768 113.858 186.603 110.394 185.315C110.117 185.253 109.973 184.906 110.188 184.694L110.185 184.697Z" fill="#421E00"/>
<path d="M118.209 168.711C118.209 170.095 118.24 171.685 118.321 173.435C118.393 174.947 118.496 176.568 118.655 178.271C118.752 179.239 118.864 180.22 118.989 181.229C119.866 188.158 121.688 195.825 125.296 201.667C131.044 210.955 140.537 215.95 152.995 216.257C165.45 216.56 174.731 212.708 182.164 200.645C185.822 194.722 187.594 186.943 188.45 180.567C188.587 179.552 188.696 178.577 188.793 177.643C188.927 176.274 189.024 175.012 189.095 173.894C189.248 171.304 189.255 169.504 189.248 169.001V168.867C189.248 168.867 189.248 168.42 189.177 167.646C189.13 167.021 189.024 166.19 188.849 165.199C188.696 164.343 188.49 163.384 188.203 162.338C187.819 160.969 187.307 159.467 186.599 157.902C185.703 155.927 184.499 153.856 182.885 151.859C182.311 151.132 181.681 150.419 180.985 149.726C180.058 148.782 179.012 147.87 177.855 147.017C176.672 146.146 175.364 145.33 173.919 144.58C173.345 144.284 172.746 144.005 172.131 143.734C171.922 143.637 171.707 143.543 171.492 143.462C171.429 143.431 171.364 143.406 171.301 143.381C171.292 143.381 171.286 143.371 171.276 143.371C170.989 143.243 170.693 143.14 170.39 143.018C167.603 141.978 164.411 141.197 160.744 140.772C160.697 140.763 160.641 140.756 160.591 140.756C159.049 140.566 157.414 140.46 155.698 140.422C155.339 140.413 154.971 140.407 154.602 140.407H154.499C154.371 140.397 154.243 140.397 154.115 140.397C153.813 140.397 153.51 140.397 153.204 140.407C153.189 140.397 153.164 140.397 153.148 140.407C151.585 140.422 150.09 140.494 148.651 140.622C147.749 140.703 146.869 140.797 146.017 140.91C146.002 140.91 145.977 140.919 145.961 140.919C142.007 141.437 138.624 142.34 135.725 143.54C135.55 143.602 135.382 143.674 135.213 143.749C134.624 143.996 134.056 144.252 133.503 144.533C133.472 144.549 133.441 144.565 133.4 144.58C133.104 144.724 132.817 144.868 132.53 145.027C130.901 145.889 129.456 146.858 128.179 147.889C127.827 148.176 127.483 148.464 127.159 148.751C126.99 148.904 126.831 149.048 126.672 149.198C126.513 149.351 126.354 149.495 126.21 149.638C126.057 149.791 125.907 149.941 125.755 150.101C125.53 150.332 125.324 150.557 125.115 150.788C124.915 151.003 124.715 151.228 124.525 151.46C124.525 151.46 124.52 151.465 124.509 151.475C124.222 151.828 123.941 152.172 123.679 152.522C123.52 152.731 123.367 152.937 123.224 153.147C123.024 153.428 122.834 153.706 122.656 153.987C122.503 154.218 122.353 154.459 122.216 154.69C122.103 154.874 122 155.049 121.897 155.234C121.41 156.074 120.995 156.905 120.627 157.72C120.053 159.023 119.613 160.285 119.279 161.46C119.142 161.922 119.033 162.372 118.926 162.803C118.895 162.972 118.855 163.131 118.814 163.3C118.752 163.587 118.695 163.875 118.646 164.147C118.518 164.809 118.43 165.424 118.365 165.968C118.318 166.383 118.284 166.758 118.262 167.086C118.252 167.23 118.246 167.368 118.237 167.486C118.227 167.558 118.227 167.624 118.227 167.696C118.218 167.833 118.212 167.952 118.212 168.064C118.212 168.167 118.202 168.274 118.202 168.352C118.193 168.592 118.202 168.72 118.202 168.72L118.209 168.711Z" fill="#663300"/>
<path d="M182.034 166.986V167.114C182.034 169.242 182.602 171.223 183.597 172.935C184.796 174.997 186.609 176.652 188.796 177.643C188.93 176.274 189.027 175.012 189.099 173.894C189.252 171.304 189.258 169.504 189.252 169.001V168.867C189.252 168.867 189.252 168.42 189.18 167.646C189.133 167.021 189.027 166.19 188.852 165.199C188.7 164.343 188.494 163.384 188.206 162.338C187.823 160.969 187.311 159.467 186.602 157.902C185.716 158.564 184.933 159.364 184.277 160.266C183.616 161.163 183.088 162.144 182.705 163.209C182.29 164.393 182.049 165.665 182.034 166.99V166.986Z" fill="#0C0C0C"/>
<path d="M172.466 151.494C172.466 153.059 172.681 154.571 173.071 156.018C173.087 156.09 173.111 156.161 173.133 156.233C173.158 156.361 173.196 156.489 173.236 156.608C173.355 156.999 173.483 157.367 173.636 157.742C175.184 161.772 178.204 165.071 182.027 166.983C182.658 167.302 183.313 167.583 183.99 167.824C184.165 167.896 184.359 167.952 184.533 168.014C185.772 168.414 187.074 168.655 188.412 168.767C188.643 168.792 188.874 168.808 189.114 168.814C189.139 168.399 189.155 168.008 189.171 167.639C189.124 167.015 189.018 166.184 188.843 165.193C188.69 164.337 188.484 163.378 188.197 162.331C187.813 160.963 187.301 159.46 186.593 157.895C185.697 155.921 184.493 153.85 182.879 151.853C182.305 151.125 181.675 150.413 180.979 149.719C180.052 148.776 179.007 147.864 177.849 147.011C176.666 146.139 175.358 145.324 173.914 144.574C173.889 144.621 173.867 144.671 173.851 144.718C172.955 146.795 172.462 149.082 172.462 151.497L172.466 151.494Z" fill="#0C0C0C"/>
<path d="M148.813 139.875V140.004C148.813 143.702 149.881 147.155 151.703 150.01C152.377 151.072 153.161 152.05 154.041 152.931C154.181 153.081 154.325 153.215 154.471 153.359C157.47 156.199 161.434 157.92 165.762 157.92C167.073 157.92 168.349 157.764 169.569 157.464C169.934 157.37 170.293 157.27 170.649 157.158C170.73 157.136 170.811 157.108 170.892 157.086C174.7 155.808 177.93 153.137 180.036 149.648C179.549 148.998 179.016 148.364 178.429 147.742C177.646 146.898 176.763 146.086 175.783 145.321C174.385 144.237 172.777 143.237 170.939 142.387C170.765 142.303 170.58 142.215 170.399 142.144C170.097 142 169.785 141.878 169.466 141.75C167.11 140.822 164.408 140.122 161.309 139.744C161.268 139.738 161.221 139.729 161.181 139.729C159.876 139.557 158.494 139.463 157.043 139.429C156.603 139.413 156.16 139.407 155.707 139.407C154.078 139.407 152.546 139.472 151.088 139.607C150.324 139.679 149.581 139.763 148.86 139.863C148.848 139.863 148.826 139.869 148.813 139.869V139.875Z" fill="#0C0C0C"/>
<path d="M171.613 166.731C171.749 165.094 169.204 163.546 165.928 163.274C162.653 163.001 159.887 164.107 159.751 165.744C159.616 167.381 162.161 168.929 165.436 169.202C168.712 169.474 171.477 168.368 171.613 166.731Z" fill="#0C0C0C"/>
<path d="M141.176 169.175C144.452 168.903 146.997 167.355 146.861 165.718C146.725 164.081 143.96 162.975 140.684 163.248C137.409 163.52 134.864 165.068 134.999 166.705C135.135 168.342 137.901 169.448 141.176 169.175Z" fill="#0C0C0C"/>
<path d="M81.5938 217.456C81.6995 217.387 81.7616 217.347 81.7616 217.347C81.7616 217.347 81.7026 217.387 81.5938 217.456Z" fill="white"/>
<path d="M22.1996 217.456C22.0908 217.387 22.0317 217.347 22.0317 217.347C22.0317 217.347 22.0939 217.387 22.1996 217.456Z" fill="white"/>
<path d="M148.32 186.525C145.016 189.189 148.895 192.226 151.663 192.816C154.599 193.623 158.017 193.198 160.419 191.208C161.284 190.517 161.886 189.161 161.368 188.102C161.1 187.396 160.482 186.912 159.898 186.543C159.808 186.484 159.686 186.506 159.624 186.596C159.577 186.665 159.583 186.749 159.624 186.818C160.014 187.565 160.295 188.352 160.089 188.808C158.422 191.258 150.411 191.02 148.579 188.768C148.261 188.365 148.377 187.615 148.695 186.837C148.826 186.606 148.514 186.359 148.317 186.528L148.32 186.525Z" fill="#421E00"/>
<path d="M156.84 186.737C156.84 186.737 154.612 184.338 150.908 186.737C155.373 187.968 156.84 186.737 156.84 186.737Z" fill="#753800"/>
<path d="M151.697 253.005C151.697 253.005 151.553 253.308 151.375 253.768L152.031 253.69C151.837 253.274 151.697 253.005 151.697 253.005Z" fill="#606060"/>
<path d="M127.605 176.627C127.605 176.627 128.791 179.539 131.487 181.651C132.445 182.416 133.587 183.063 134.932 183.45C136.774 183.988 138.74 183.947 140.506 183.685C143.667 183.213 146.204 182.001 146.204 182.001C146.204 182.001 145.331 179.273 143.564 176.724C143.296 176.327 142.999 175.94 142.69 175.562C142.363 175.175 142.016 174.812 141.658 174.469C140.759 173.619 139.707 172.938 138.531 172.6C138.228 172.507 137.916 172.45 137.607 172.407C137.279 172.366 136.951 172.347 136.624 172.347C135.472 172.357 134.33 172.635 133.263 173.038C132.642 173.281 132.036 173.569 131.472 173.872C131.069 174.091 130.688 174.319 130.336 174.537C128.688 175.596 127.605 176.624 127.605 176.624V176.627Z" fill="white"/>
<path d="M146.204 182.004C146.204 182.004 143.34 176.737 138.1 173.916C133.247 171.301 127.605 176.631 127.605 176.631C127.605 176.631 133.082 169.926 138.821 172.238C144.61 174.572 146.201 182.004 146.201 182.004H146.204Z" fill="#0C0C0C"/>
<path d="M130.295 174.044C130.304 174.212 130.32 174.381 130.335 174.54C130.782 177.989 133.725 180.642 137.285 180.642C140.041 180.642 142.428 179.052 143.564 176.73C143.296 176.334 142.999 175.946 142.69 175.568C142.363 175.181 142.016 174.819 141.657 174.475C140.759 173.625 139.707 172.944 138.53 172.607C138.228 172.513 137.916 172.457 137.607 172.413C137.279 172.372 136.951 172.354 136.624 172.354C135.194 172.354 133.784 172.666 132.464 173.119C131.705 173.397 130.975 173.709 130.295 174.044Z" fill="#0C0C0C"/>
<path d="M140.409 182.66C141.873 182.66 143.059 181.473 143.059 180.008C143.059 178.543 141.873 177.355 140.409 177.355C138.946 177.355 137.76 178.543 137.76 180.008C137.76 181.473 138.946 182.66 140.409 182.66Z" fill="white"/>
<path d="M179.827 176.627C179.827 176.627 178.641 179.539 175.945 181.651C174.987 182.416 173.845 183.063 172.5 183.45C170.658 183.988 168.692 183.947 166.926 183.685C163.765 183.213 161.228 182.001 161.228 182.001C161.228 182.001 162.101 179.273 163.868 176.724C164.136 176.327 164.433 175.94 164.741 175.562C165.069 175.175 165.416 174.812 165.774 174.469C166.673 173.619 167.725 172.938 168.901 172.6C169.204 172.507 169.516 172.45 169.825 172.407C170.153 172.366 170.48 172.347 170.808 172.347C171.96 172.357 173.102 172.635 174.169 173.038C174.79 173.281 175.396 173.569 175.96 173.872C176.363 174.091 176.744 174.319 177.096 174.537C178.744 175.596 179.827 176.624 179.827 176.624V176.627Z" fill="white"/>
<path d="M161.228 182.004C161.228 182.004 164.092 176.737 169.332 173.916C174.185 171.301 179.827 176.631 179.827 176.631C179.827 176.631 174.35 169.926 168.611 172.238C162.822 174.572 161.231 182.004 161.231 182.004H161.228Z" fill="#0C0C0C"/>
<path d="M177.137 174.044C177.128 174.212 177.112 174.381 177.096 174.54C176.65 177.989 173.707 180.642 170.147 180.642C167.391 180.642 165.004 179.052 163.868 176.73C164.136 176.334 164.433 175.946 164.741 175.568C165.069 175.181 165.416 174.819 165.774 174.475C166.673 173.625 167.725 172.944 168.901 172.607C169.204 172.513 169.516 172.457 169.825 172.413C170.153 172.372 170.48 172.354 170.808 172.354C172.237 172.354 173.648 172.666 174.968 173.119C175.726 173.397 176.457 173.709 177.137 174.044Z" fill="#0C0C0C"/>
<path d="M167.026 182.66C168.489 182.66 169.675 181.473 169.675 180.008C169.675 178.543 168.489 177.355 167.026 177.355C165.563 177.355 164.376 178.543 164.376 180.008C164.376 181.473 165.563 182.66 167.026 182.66Z" fill="white"/>
<path d="M162.047 202.962C162.108 199.34 158.49 196.341 153.966 196.265C149.442 196.189 145.726 199.065 145.665 202.688C145.605 206.31 149.223 209.309 153.746 209.385C158.27 209.461 161.986 206.585 162.047 202.962Z" fill="#844710"/>
<path d="M151.263 204.588C152.243 204.763 153.332 204.866 154.537 204.866C161.927 204.863 164.539 201.576 164.645 201.439C164.829 201.198 164.785 200.858 164.545 200.674C164.308 200.489 163.964 200.533 163.78 200.77C163.755 200.802 161.34 203.77 154.537 203.776C147.684 203.776 144.859 200.149 144.831 200.114C144.647 199.874 144.304 199.827 144.067 200.008C143.827 200.189 143.78 200.533 143.961 200.774C144.067 200.914 146.229 203.691 151.266 204.591L151.263 204.588Z" fill="#512600"/>
<path d="M147.512 154.337C147.512 154.337 147.434 146.399 141.611 140.722" stroke="#0C0C0C" stroke-width="6" stroke-linecap="round" stroke-linejoin="round"/>
<path d="M139.373 156.239C139.373 156.239 138.534 147.661 131.809 145.218" stroke="#0C0C0C" stroke-width="6" stroke-linecap="round" stroke-linejoin="round"/>
<path d="M132.648 161.288C132.648 161.288 131.809 154.556 122.562 152.031" stroke="#0C0C0C" stroke-width="6" stroke-linecap="round" stroke-linejoin="round"/>
<path d="M128.448 167.177C128.448 167.177 124.244 162.128 119.201 162.128" stroke="#0C0C0C" stroke-width="6" stroke-linecap="round" stroke-linejoin="round"/>
<path d="M124.244 173.909C124.244 173.909 121.723 172.226 118.362 172.226" stroke="#0C0C0C" stroke-width="6" stroke-linecap="round" stroke-linejoin="round"/>
<path d="M15.7717 249.616C15.6188 263.946 29.8586 274.293 45.8897 271.516C52.1342 270.435 57.6329 267.492 61.6836 263.427C63.1753 261.925 64.4703 260.269 65.5407 258.494L66.0931 257.51L116.39 168.692L107.467 153.184C107.467 153.184 47.244 212.87 21.9414 241.462C19.554 244.164 17.4694 246.598 15.7842 248.663L15.7748 249.616H15.7717Z" fill="#492300"/>
<path d="M117.413 139.376C117.413 139.376 118.562 137.745 120.481 135.939C123.736 132.881 128.875 133.124 131.849 136.458L139.785 145.355C140.772 146.461 140.538 148.186 139.292 148.988C138.506 149.495 137.601 149.726 136.708 149.685C135.638 149.635 134.627 149.17 133.856 148.423L128.095 142.837L117.416 139.376H117.413Z" fill="#492300"/>
<path d="M111.63 148.276L112.751 143.674C112.91 143.018 113.203 142.4 113.628 141.875C115.403 139.682 118.287 138.626 121.111 139.229L123.277 139.691C126.363 140.35 128.95 142.437 130.252 145.315L134.177 153.975C136.069 158.158 131.466 159.592 128.279 157.492C127.945 157.27 127.636 157.033 127.365 156.792C124.818 154.518 121.676 147.62 121.676 147.62L111.63 148.279V148.276Z" fill="#492300"/>
<path d="M109.427 150.469C109.427 150.469 112.202 144.562 114.461 143.578C118.287 141.906 122.668 143.674 124.16 147.473L128.142 157.605C128.638 158.864 127.868 160.291 126.526 160.61C125.677 160.81 124.815 160.738 124.054 160.432C123.14 160.067 122.413 159.354 121.988 158.473L118.811 151.878L109.427 150.476V150.469Z" fill="#492300"/>
<path d="M109.945 149.12C113.138 146.63 117.213 147.514 118.671 150.66L122.556 159.051C123.04 160.095 122.409 161.55 121.233 162.119C120.487 162.478 119.726 162.588 119.039 162.466C118.215 162.322 117.547 161.825 117.142 161.11L115.148 157.145C112.866 154.268 112.376 154.909 107.205 159.054C107.205 159.054 105.848 152.322 109.945 149.123V149.12Z" fill="#492300"/>
<path d="M135.076 143.884C135.142 143.818 135.195 143.774 135.27 143.721L135.279 143.712C135.432 143.646 135.569 143.584 135.722 143.528C135.753 143.518 135.797 143.496 135.828 143.484C135.841 143.484 135.86 143.474 135.872 143.474C135.885 143.474 135.894 143.474 135.894 143.465C136.746 143.324 137.872 143.768 138.79 144.699C139.383 145.283 139.804 145.977 139.966 146.658C140.151 147.383 140.019 148.011 139.62 148.411C139.221 148.823 138.593 148.942 137.869 148.767C137.76 148.745 137.654 148.714 137.535 148.67C136.974 148.464 136.403 148.098 135.903 147.598C134.627 146.333 134.262 144.699 135.07 143.89L135.076 143.884Z" fill="#874000"/>
<path d="M129.459 151.769C130.064 151.391 130.832 151.378 131.618 151.725C132.364 152.05 133.045 152.678 133.541 153.478C134.568 155.174 134.405 157.155 133.185 157.902C132.873 158.095 132.505 158.192 132.127 158.192C131.877 158.192 131.631 158.148 131.372 158.064C131.328 158.064 131.285 158.042 131.241 158.033C131.166 158.001 131.1 157.98 131.026 157.945C130.27 157.611 129.59 156.992 129.103 156.183C128.866 155.783 128.682 155.362 128.563 154.94C128.445 154.506 128.392 154.074 128.423 153.662C128.488 152.809 128.854 152.138 129.459 151.769Z" fill="#874000"/>
<path d="M122.653 155.771C122.784 154.959 123.202 154.356 123.82 154.062C124.21 153.878 124.631 153.825 125.072 153.909C125.343 153.953 125.611 154.049 125.883 154.199C126.173 154.362 126.457 154.577 126.704 154.827C126.985 155.118 127.244 155.455 127.449 155.843C127.449 155.843 127.449 155.852 127.459 155.852C127.481 155.905 127.512 155.961 127.546 156.024C127.677 156.296 127.774 156.564 127.849 156.846V156.855C127.88 156.986 127.914 157.105 127.924 157.233C127.968 157.449 127.989 157.664 127.989 157.883C127.989 158.911 127.559 159.798 126.779 160.176C126.507 160.307 126.217 160.37 125.914 160.37C125.655 160.37 125.396 160.326 125.137 160.229C124.997 160.176 124.856 160.11 124.716 160.035C124.026 159.657 123.43 159.007 123.043 158.208C122.665 157.395 122.513 156.533 122.653 155.765V155.771Z" fill="#874000"/>
<path d="M117.435 157.683C117.554 156.883 117.931 156.289 118.515 156.005C119.305 155.627 120.288 155.918 121.096 156.664L121.105 156.674L121.118 156.683C121.118 156.683 121.127 156.692 121.14 156.705C121.452 156.996 121.745 157.355 121.973 157.786C121.973 157.795 121.982 157.795 121.982 157.808V157.817C121.982 157.817 122.004 157.839 122.013 157.861C122.045 157.914 122.079 157.97 122.11 158.033C122.185 158.195 122.263 158.358 122.316 158.52V158.542C122.403 158.792 122.469 159.029 122.5 159.267V159.279C122.619 159.895 122.575 160.491 122.403 160.976C122.403 160.976 122.399 160.983 122.391 160.998L122.382 161.007C122.369 161.029 122.369 161.051 122.36 161.06C122.197 161.547 121.885 161.903 121.464 162.11C121.292 162.185 121.118 162.238 120.934 162.25C120.924 162.26 120.912 162.26 120.902 162.25C120.837 162.272 120.771 162.272 120.709 162.272H120.7C120.506 162.272 120.3 162.241 120.094 162.175C120.094 162.175 120.087 162.172 120.072 162.166C120.041 162.166 120.007 162.157 119.976 162.144C119.716 162.047 119.457 161.907 119.208 161.722C118.69 161.344 118.215 160.782 117.878 160.079C117.488 159.279 117.339 158.423 117.435 157.68V157.683Z" fill="#874000"/>
<path d="M121.124 162.425C121.124 162.425 121.102 162.419 121.093 162.413C121.024 162.381 120.971 162.325 120.937 162.257C120.859 162.094 120.927 161.897 121.089 161.819C122.11 161.329 122.669 160.073 122.257 159.186L118.371 150.794C117.744 149.441 116.599 148.504 115.148 148.151C113.484 147.748 111.662 148.195 110.148 149.376C110.005 149.488 109.799 149.46 109.686 149.32C109.633 149.251 109.608 149.163 109.621 149.076C109.63 148.988 109.677 148.91 109.746 148.857C111.418 147.551 113.444 147.061 115.304 147.511C116.93 147.904 118.268 149.001 118.97 150.516L122.856 158.907C123.408 160.101 122.703 161.769 121.377 162.41C121.295 162.447 121.205 162.453 121.124 162.422V162.425Z" fill="#2D1400"/>
<path d="M112.014 145.43C112.155 145.258 112.273 145.118 112.436 144.965L112.445 144.955V144.943C114.617 142.597 116.939 142.39 118.536 142.64C121.095 143.04 123.526 144.977 124.469 147.345L125.602 150.244V150.254L127.037 153.887L128.442 157.477C128.454 157.52 128.463 157.552 128.463 157.595V157.605C128.463 157.733 128.389 157.855 128.257 157.908H128.236C128.17 157.93 128.095 157.93 128.03 157.908C128.02 157.908 128.008 157.895 127.998 157.895C127.998 157.895 127.989 157.895 127.989 157.886C127.914 157.855 127.871 157.798 127.836 157.714L127.524 156.924L126.703 154.824L126.132 153.387L125.115 150.791V150.782L123.851 147.592C122.999 145.43 120.771 143.656 118.427 143.287C116.892 143.037 114.614 143.287 112.52 145.849C112.445 145.958 112.314 145.989 112.195 145.946C112.152 145.946 112.108 145.924 112.077 145.902C112.077 145.892 112.064 145.892 112.064 145.892C111.924 145.774 111.902 145.568 112.011 145.427L112.014 145.43Z" fill="#2D1400"/>
<path d="M130.143 145.621C130.143 145.621 130.14 145.621 130.136 145.621C130.055 145.589 129.99 145.53 129.952 145.449C128.663 142.597 126.267 140.666 123.208 140.013C121.124 139.566 117.463 139.704 117.426 139.707C117.373 139.707 117.32 139.697 117.273 139.676C117.164 139.622 117.089 139.513 117.086 139.391C117.079 139.21 117.22 139.057 117.401 139.051C117.554 139.044 121.171 138.907 123.346 139.372C126.616 140.069 129.172 142.134 130.551 145.18C130.589 145.261 130.592 145.349 130.561 145.43C130.53 145.511 130.47 145.577 130.389 145.614C130.311 145.649 130.224 145.655 130.143 145.624V145.621Z" fill="#2D1400"/>
<path d="M205.171 115.582C205.171 115.582 204.022 113.952 202.103 112.146C198.848 109.087 193.708 109.331 190.734 112.665L182.798 121.562C181.812 122.668 182.046 124.392 183.291 125.195C184.078 125.701 184.983 125.933 185.875 125.892C186.946 125.842 187.957 125.376 188.728 124.63L194.488 119.044L205.168 115.582H205.171Z" fill="#492300"/>
<path d="M210.953 124.483L209.833 119.881C209.674 119.225 209.381 118.607 208.956 118.082C207.18 115.889 204.297 114.833 201.473 115.436L199.307 115.898C196.221 116.557 193.633 118.644 192.332 121.521L188.406 130.181C186.515 134.365 191.118 135.798 194.304 133.699C194.638 133.477 194.947 133.24 195.219 132.999C197.765 130.725 200.908 123.827 200.908 123.827L210.953 124.486V124.483Z" fill="#492300"/>
<path d="M213.156 126.676C213.156 126.676 210.382 120.768 208.123 119.784C204.297 118.113 199.915 119.881 198.424 123.68L194.441 133.812C193.945 135.071 194.716 136.498 196.058 136.817C196.907 137.017 197.768 136.945 198.53 136.639C199.444 136.273 200.171 135.561 200.596 134.68L203.772 128.085L213.156 126.682V126.676Z" fill="#492300"/>
<path d="M212.638 125.327C209.446 122.837 205.37 123.721 203.913 126.867L200.028 135.258C199.544 136.301 200.174 137.757 201.351 138.326C202.097 138.685 202.858 138.795 203.545 138.673C204.369 138.529 205.036 138.032 205.442 137.317L207.436 133.352C209.717 130.475 210.207 131.115 215.378 135.261C215.378 135.261 216.736 128.529 212.638 125.33V125.327Z" fill="#492300"/>
<path d="M182.608 122.862C182.779 122.181 183.191 121.487 183.784 120.903C185.061 119.628 186.69 119.269 187.501 120.09C188.312 120.903 187.944 122.534 186.668 123.799C186.181 124.296 185.61 124.664 185.036 124.87C184.926 124.914 184.82 124.945 184.702 124.967C183.978 125.139 183.363 125.02 182.951 124.611C182.552 124.211 182.433 123.583 182.605 122.858L182.608 122.862Z" fill="#874000"/>
<path d="M189.046 129.685C189.533 128.885 190.213 128.257 190.968 127.932C191.745 127.585 192.513 127.598 193.128 127.976C193.733 128.344 194.101 129.013 194.154 129.869C194.208 130.691 193.97 131.587 193.484 132.39C192.987 133.202 192.307 133.818 191.549 134.152C191.483 134.183 191.408 134.205 191.343 134.24C191.04 134.349 190.737 134.402 190.456 134.402C190.079 134.402 189.711 134.305 189.399 134.111C188.166 133.365 188.016 131.387 189.043 129.688L189.046 129.685Z" fill="#874000"/>
<path d="M194.654 133.459V133.449C194.663 133.33 194.697 133.19 194.729 133.071V133.062C194.804 132.781 194.9 132.509 195.031 132.24C195.063 132.175 195.097 132.121 195.119 132.068C195.128 132.068 195.128 132.059 195.128 132.059C195.334 131.668 195.593 131.325 195.883 131.031C196.142 130.781 196.414 130.578 196.704 130.416C196.976 130.266 197.244 130.166 197.503 130.125C197.946 130.038 198.377 130.081 198.767 130.278C199.382 130.569 199.794 131.175 199.934 131.987C200.062 132.756 199.921 133.621 199.535 134.43C199.144 135.23 198.551 135.88 197.871 136.258C197.731 136.333 197.59 136.398 197.441 136.451C197.181 136.548 196.922 136.592 196.663 136.592C196.373 136.592 196.08 136.526 195.812 136.398C195.022 136.02 194.591 135.133 194.591 134.105C194.591 133.899 194.613 133.683 194.657 133.468L194.654 133.459Z" fill="#874000"/>
<path d="M200.087 135.48C200.118 135.23 200.184 134.983 200.271 134.733C200.293 134.668 200.324 134.605 200.346 134.539C200.39 134.443 200.433 134.346 200.477 134.249C200.486 134.24 200.499 134.218 200.508 134.196L200.539 134.143C200.539 134.143 200.539 134.13 200.549 134.121C200.786 133.633 201.101 133.224 201.444 132.909C201.454 132.899 201.466 132.887 201.466 132.877C201.479 132.877 201.488 132.868 201.488 132.868H201.497C202.296 132.121 203.279 131.84 204.056 132.218C204.64 132.499 205.03 133.093 205.136 133.896C205.245 134.643 205.093 135.495 204.706 136.295C204.209 137.332 203.41 138.07 202.599 138.36C202.349 138.448 202.103 138.488 201.866 138.488C201.8 138.488 201.747 138.488 201.682 138.466C201.672 138.476 201.65 138.476 201.638 138.466C201.454 138.454 201.282 138.401 201.12 138.326C200.655 138.098 200.33 137.689 200.159 137.157C199.996 136.67 199.965 136.086 200.084 135.48H200.087Z" fill="#874000"/>
<path d="M201.46 138.635C201.46 138.635 201.482 138.629 201.491 138.623C201.56 138.591 201.613 138.535 201.647 138.466C201.725 138.304 201.656 138.107 201.494 138.029C200.474 137.539 199.915 136.283 200.327 135.396L204.212 127.004C204.84 125.651 205.985 124.714 207.436 124.361C209.099 123.958 210.922 124.405 212.435 125.586C212.579 125.698 212.785 125.67 212.897 125.53C212.95 125.461 212.975 125.373 212.963 125.286C212.953 125.198 212.907 125.12 212.838 125.067C211.165 123.761 209.14 123.271 207.28 123.721C205.654 124.114 204.315 125.211 203.613 126.726L199.728 135.117C199.176 136.311 199.881 137.979 201.207 138.62C201.288 138.657 201.379 138.663 201.46 138.632V138.635Z" fill="#2D1400"/>
<path d="M194.136 133.687L198.121 123.555C198.467 122.668 199.029 121.837 199.731 121.134C199.915 120.95 200.1 120.778 200.302 120.615C201.382 119.706 202.702 119.06 204.05 118.853C205.648 118.603 207.961 118.81 210.133 121.146L210.142 121.156C210.282 121.309 210.423 121.468 210.563 121.643C210.682 121.784 210.66 121.99 210.52 122.109C210.52 122.109 210.51 122.109 210.51 122.118C210.479 122.14 210.435 122.162 210.392 122.171C210.273 122.202 210.142 122.171 210.058 122.062C207.964 119.5 205.695 119.25 204.15 119.5C202.886 119.694 201.666 120.3 200.671 121.156C200.561 121.253 200.455 121.34 200.359 121.437C199.644 122.118 199.073 122.93 198.726 123.805L195.887 131.028L195.066 133.127L194.754 133.927C194.723 134.015 194.666 134.068 194.592 134.099L194.582 134.108C194.582 134.108 194.57 134.121 194.56 134.121C194.495 134.143 194.42 134.143 194.354 134.121H194.323C194.195 134.068 194.117 133.958 194.117 133.818C194.117 133.774 194.127 133.73 194.139 133.687H194.136Z" fill="#2D1400"/>
<path d="M192.441 121.831C192.441 121.831 192.445 121.831 192.448 121.831C192.529 121.799 192.594 121.74 192.632 121.659C193.921 118.807 196.317 116.876 199.376 116.223C201.46 115.776 205.121 115.914 205.158 115.917C205.211 115.917 205.264 115.907 205.311 115.885C205.42 115.832 205.495 115.723 205.498 115.601C205.505 115.42 205.364 115.267 205.183 115.261C205.03 115.254 201.413 115.117 199.238 115.582C195.968 116.279 193.412 118.344 192.033 121.39C191.995 121.471 191.992 121.559 192.023 121.64C192.054 121.721 192.114 121.787 192.195 121.824C192.273 121.859 192.36 121.865 192.441 121.834V121.831Z" fill="#2D1400"/>
<path d="M2.74624 115.632C2.74624 115.632 0.393223 140.216 32.3742 149.532C40.1697 120.965 2.74624 115.632 2.74624 115.632Z" fill="#469B49"/>
<path d="M61.5811 143.84C61.5811 143.84 63.9341 168.423 31.9531 177.74C24.1576 149.173 61.5811 143.84 61.5811 143.84Z" fill="#469B49"/>
<path d="M33.5978 83.4635H30.7798V271.181H33.5978V83.4635Z" fill="#469B49"/>
<path d="M0.00630993 73.8132C0.118655 76.2875 2.1752 78.2432 9.06884 78.2619C9.73043 78.2619 10.4295 78.2525 11.1784 78.2182C19.7697 77.8245 31.2508 75.1003 31.126 72.3917C31.0698 71.1889 28.7355 70.1923 25.4026 69.4925C21.2365 68.6178 15.5037 68.1992 10.7291 68.4179C2.13463 68.8084 -0.118518 71.1108 0.00630993 73.8132Z" fill="#EDAF3E"/>
<path d="M9.06592 78.2619C9.72751 78.2619 10.4265 78.2525 11.1755 78.2182C19.7668 77.8245 31.2479 75.1003 31.1231 72.3917C31.0669 71.1889 28.7326 70.1923 25.3997 69.4925C25.2561 71.7513 15.3729 76.3718 9.06592 78.2619Z" fill="#E2A037"/>
<path d="M4.88383 89.1994C6.2507 91.3425 9.13736 91.9892 15.488 88.2028C15.8968 87.9622 16.3212 87.6998 16.7581 87.4186C23.9982 82.7825 32.5801 74.6785 31.1227 72.3886C30.4112 71.2826 27.4777 71.745 23.8109 73.0509C19.9194 74.4349 15.2009 76.7561 11.4716 79.1523C4.22537 83.7915 3.42646 86.9156 4.88383 89.1994Z" fill="#EDAF3E"/>
<path d="M15.488 88.2028C15.8968 87.9622 16.3212 87.6998 16.7581 87.4186C23.9981 82.7825 32.5801 74.6785 31.1196 72.3917C30.4081 71.2858 27.4746 71.7481 23.8078 73.054C23.374 76.4249 20.2034 82.57 15.4849 88.2059L15.488 88.2028Z" fill="#E2A037"/>
<path d="M16.7955 100.081C18.9457 101.193 21.6045 100.449 24.9686 94.804C25.365 94.1386 25.7738 93.4076 26.1888 92.5953C30.149 84.9475 33.5287 73.6414 31.1227 72.3886C30.0242 71.8169 27.9084 73.4508 25.5522 76.1188C22.7561 79.2897 19.626 83.929 17.4821 88.0778C13.5219 95.7256 14.3895 98.8341 16.7955 100.081Z" fill="#EDAF3E"/>
<path d="M24.9688 94.804C25.362 94.1386 25.7739 93.4044 26.1889 92.5953C30.1491 84.9475 33.5288 73.6414 31.1228 72.3886C30.0243 71.8169 27.9085 73.4508 25.5523 76.1188C26.5041 80.1926 26.526 88.2403 24.9688 94.804Z" fill="#E2A037"/>
<path d="M62.2427 70.9671C62.355 73.4414 60.4857 75.5752 53.6233 76.225C52.9648 76.2875 52.2689 76.3406 51.5199 76.3749C42.9286 76.7686 31.2478 75.1034 31.123 72.3948C31.0699 71.1921 33.3012 69.9862 36.5561 68.9864C40.6255 67.7337 46.2959 66.7933 51.0705 66.5746C59.6618 66.181 62.1178 68.2679 62.2396 70.9734L62.2427 70.9671Z" fill="#EDAF3E"/>
<path d="M53.6234 76.2219C52.9649 76.2843 52.269 76.3374 51.52 76.3718C42.9287 76.7654 31.2479 75.1003 31.1231 72.3917C31.0669 71.1889 33.3014 69.983 36.5563 68.9833C36.9058 71.217 47.1698 74.9191 53.6234 76.225V76.2219Z" fill="#E2A037"/>
<path d="M58.7848 86.7345C57.6208 88.9932 54.8059 89.9023 48.1338 86.7126C47.7063 86.5095 47.2569 86.2877 46.795 86.0472C39.1618 82.0889 29.8808 74.8066 31.1228 72.3917C31.7283 71.2264 34.6929 71.417 38.4627 72.3823C42.4635 73.4039 47.3755 75.2878 51.3044 77.3309C58.9439 81.286 60.0237 84.3258 58.7817 86.7345H58.7848Z" fill="#EDAF3E"/>
<path d="M48.1338 86.7095C47.7063 86.5064 47.2569 86.2846 46.795 86.044C39.1618 82.0858 29.8808 74.8004 31.1228 72.3886C31.7314 71.2233 34.6929 71.4139 38.4627 72.3792C39.2023 75.697 42.9222 81.5266 48.1338 86.7063V86.7095Z" fill="#E2A037"/>
<path d="M47.9155 98.656C45.8777 99.9588 43.1596 99.4621 39.2962 94.148C38.8437 93.52 38.3662 92.8296 37.8794 92.0611C33.2389 84.8069 28.8449 73.8538 31.123 72.3886C32.1653 71.72 34.4185 73.154 37.0087 75.5939C40.0826 78.4962 43.6215 82.8293 46.1336 86.7657C50.7741 94.0199 50.1905 97.194 47.9124 98.6529L47.9155 98.656Z" fill="#EDAF3E"/>
<path d="M39.2962 94.1511C38.8437 93.5231 38.3662 92.8327 37.8794 92.0642C33.2389 84.81 28.8449 73.86 31.123 72.3917C32.1653 71.7231 34.4185 73.1571 37.0087 75.597C36.4345 79.7396 37.146 87.756 39.293 94.1511H39.2962Z" fill="#E2A037"/>
<path d="M27.1437 92.8077C27.5369 101.408 29.8369 103.667 32.5426 103.542C35.2482 103.417 37.3328 100.959 36.9396 92.3578C36.5464 83.7572 33.8252 72.2699 31.1195 72.3917C28.4139 72.5167 26.7505 84.2039 27.1437 92.8046V92.8077Z" fill="#EDAF3E"/>
<path d="M23.9141 71.8169C23.7862 74.2099 26.7789 76.3156 30.6049 76.5218C34.4278 76.728 37.6327 74.9566 37.7607 72.5635C37.8886 70.1705 34.8959 68.0648 31.0699 67.8586C27.247 67.6524 24.0421 69.4238 23.9141 71.8169Z" fill="#3A1E04"/>
<path d="M15.3508 47.4239C15.3508 47.4239 15.2103 47.1927 15.0387 46.8053C14.4177 45.3963 13.419 41.9473 17.5977 40.5009C17.9878 40.3665 18.4247 40.2478 18.9115 40.1478C15.1354 39.3231 12.7699 36.4583 11.9523 33.1561C10.9006 28.9073 12.4017 23.9181 16.7488 21.6C19.3078 20.2348 21.9136 20.4754 24.1012 21.7531C31.3943 25.9925 34.0844 41.6693 15.3539 47.4239H15.3508Z" fill="#0066E0"/>
<path d="M34.9673 42.444C34.7207 42.2972 34.5023 42.1441 34.3181 41.9942C34.0841 41.8067 34.0466 41.4631 34.2339 41.2288C34.4211 40.9945 34.755 40.9538 34.9953 41.1444C35.1295 41.2506 38.2877 43.7093 40.8123 40.8695C41.0121 40.6446 41.3585 40.6258 41.58 40.8258C41.8047 41.0257 41.8234 41.3694 41.6237 41.5943C39.3924 44.1061 36.5869 43.4094 34.9673 42.444Z" fill="#0C0C0C"/>
<path d="M8.5911 44.6622C8.21662 44.4372 8.08243 43.9561 8.29464 43.5687C8.50996 43.1751 9.00616 43.0314 9.39937 43.2469C22.8246 50.6448 31.0321 41.9692 31.3754 41.5943C31.6812 41.2631 32.193 41.2413 32.5238 41.5443C32.8546 41.8473 32.8796 42.3628 32.5768 42.694C32.4832 42.794 23.1929 52.7067 8.61295 44.6747C8.60359 44.6715 8.59734 44.6653 8.58798 44.6622H8.5911Z" fill="#0C0C0C"/>
<path d="M34.3805 42.0379C34.2213 41.9411 34.1152 41.7661 34.1152 41.5662C34.1152 41.2663 34.3618 41.0257 34.6582 41.0257C34.6582 41.0257 36.1655 41.0132 37.0986 40.0041C37.6947 39.3606 37.9537 38.4296 37.8632 37.233C37.8414 36.9331 38.066 36.6738 38.3656 36.652C38.6652 36.6301 38.9242 36.855 38.9461 37.1549C39.0584 38.667 38.7027 39.8792 37.885 40.7539C36.6212 42.1098 34.7331 42.1129 34.652 42.1129C34.5521 42.1129 34.4585 42.0848 34.3774 42.0379H34.3805Z" fill="#0C0C0C"/>
<path d="M15.0601 47.7706C15.0601 47.7706 15.0508 47.4988 15.0882 47.0771C15.2286 45.5432 16.0307 42.041 20.3872 42.8096C20.7929 42.8814 21.2329 42.9908 21.7072 43.1407C18.8081 40.5821 18.1309 36.93 19.0172 33.6435C20.1594 29.4165 23.8917 25.7863 28.8162 25.8769C31.7153 25.93 33.8749 27.4077 35.1699 29.5884C39.4859 36.8394 34.2275 51.8507 15.0632 47.7675L15.0601 47.7706Z" fill="#0068FF"/>
</g>
<defs>
<clipPath id="clip0_45_795">
<rect width="268" height="272" fill="white"/>
</clipPath>
</defs>
</svg>
