<svg width="395" height="29" viewBox="0 0 395 29" fill="none" xmlns="http://www.w3.org/2000/svg">
<g clip-path="url(#clip0_2_5072)">
<path d="M5.16705 28.5857H12.2744V13.8911H17.4974V8.09251H0V13.8911H5.16705V28.5857Z" fill="white"/>
<path d="M33.1593 22.7628H26.2163V20.9307H32.3273V15.3894H26.2163V13.9154H33.1593V8.09251H19.109V28.5857H33.1593V22.7628Z" fill="white"/>
<path d="M48.643 20.7639C49.9261 20.298 50.9364 19.5645 51.6426 18.5877C52.4012 17.5413 52.7858 16.3211 52.7858 14.9688C52.7858 13.7173 52.4886 12.577 51.9083 11.5793C51.3244 10.5781 50.4365 9.77854 49.2723 9.19799C48.1116 8.62091 46.7028 8.3289 45.0806 8.3289H35.6799V28.3528H42.3153V22.0014L45.6645 28.3528H52.985L48.6465 20.7639H48.643ZM45.6994 16.4393C45.4477 16.6652 45.0527 16.7799 44.5213 16.7799H42.3118V13.9328H44.5213C45.0282 13.9328 45.4162 14.0579 45.6784 14.3082C45.9371 14.5585 46.0665 14.8992 46.0665 15.3581C46.0665 15.8587 45.9441 16.2202 45.6994 16.4393Z" fill="white"/>
<path d="M68.1436 20.7639C69.4266 20.298 70.437 19.5645 71.1431 18.5877C71.8983 17.5378 72.2828 16.3211 72.2828 14.9688C72.2828 13.7173 71.9892 12.577 71.4053 11.5793C70.8215 10.5781 69.9335 9.77854 68.7659 9.19799C67.6087 8.62091 66.1963 8.3289 64.5777 8.3289H55.1735V28.3528H61.8089V21.9945L65.158 28.3528H72.4821L68.1436 20.7639ZM65.1965 16.4393C64.9483 16.6652 64.5532 16.7799 64.0183 16.7799H61.8089V13.9328H64.0183C64.5288 13.9328 64.9168 14.0579 65.1755 14.3082C65.4342 14.5585 65.5636 14.8992 65.5636 15.3581C65.5636 15.8587 65.4377 16.2202 65.1965 16.4393Z" fill="white"/>
<path d="M81.5402 8.09251H74.4364V28.5822H81.5402V8.09251Z" fill="white"/>
<path d="M88.3259 28.5857H95.4297V13.8911H100.653V8.09251H83.1588V13.8911H88.3259V28.5857Z" fill="white"/>
<path d="M116.416 0.927719H108.211V5.90587L116.416 5.9754V0.927719Z" fill="white"/>
<path d="M121.464 12.8551C120.527 11.2595 119.241 10.001 117.633 9.10761C116.031 8.21418 114.242 7.76225 112.322 7.76225C110.403 7.76225 108.606 8.21418 106.998 9.10761C105.386 10.001 104.086 11.263 103.142 12.8551C102.194 14.4508 101.715 16.2689 101.715 18.2574C101.715 20.2459 102.194 22.0675 103.142 23.6597C104.089 25.2553 105.386 26.5207 106.998 27.4211C108.61 28.3215 110.399 28.7769 112.322 28.7769C114.245 28.7769 116.011 28.3215 117.619 27.4211C119.23 26.5207 120.524 25.2518 121.464 23.6597C122.401 22.0675 122.873 20.2494 122.873 18.2574C122.873 16.2654 122.401 14.4508 121.464 12.8586V12.8551ZM114.797 21.1184C114.217 21.7963 113.406 22.1266 112.319 22.1266C111.232 22.1266 110.392 21.7963 109.816 21.1184C109.225 20.4301 108.928 19.4672 108.928 18.2574C108.928 17.0476 109.225 16.0603 109.816 15.372C110.389 14.7011 111.228 14.3604 112.319 14.3604C113.41 14.3604 114.214 14.6906 114.794 15.3685C115.385 16.0638 115.682 17.0337 115.682 18.2574C115.682 19.4811 115.385 20.4301 114.797 21.1219V21.1184Z" fill="white"/>
<path d="M138.248 20.7639C139.531 20.298 140.538 19.5645 141.248 18.5877C142.007 17.5413 142.391 16.3211 142.391 14.9688C142.391 13.7173 142.094 12.577 141.514 11.5793C140.93 10.5781 140.042 9.77854 138.874 9.19799C137.717 8.62091 136.305 8.3289 134.686 8.3289H125.282V28.3528H131.917V22.0014L135.266 28.3528H142.59L138.252 20.7639H138.248ZM135.301 16.4393C135.05 16.6652 134.655 16.7799 134.123 16.7799H131.914V13.9328H134.123C134.634 13.9328 135.022 14.0579 135.28 14.3082C135.539 14.5585 135.668 14.8992 135.668 15.3581C135.668 15.8587 135.543 16.2202 135.301 16.4393Z" fill="white"/>
<path d="M151.645 8.09251H144.541V28.5822H151.645V8.09251Z" fill="white"/>
<path d="M173.366 12.9768C172.45 11.4194 171.191 10.1853 169.625 9.31271C168.059 8.44014 166.307 7.99865 164.426 7.99865C162.545 7.99865 160.79 8.44014 159.214 9.31271C157.637 10.1853 156.368 11.4194 155.445 12.9733C154.522 14.5273 154.054 16.3037 154.054 18.2539C154.054 20.2042 154.522 21.9875 155.445 23.538C156.372 25.0989 157.637 26.333 159.214 27.216C160.79 28.0955 162.545 28.544 164.426 28.544C166.307 28.544 168.034 28.099 169.611 27.216C171.188 26.3365 172.446 25.0954 173.366 23.538C174.281 21.9806 174.746 20.2007 174.746 18.2539C174.746 16.3072 174.281 14.5307 173.366 12.9733V12.9768ZM167.083 21.2679C166.772 21.6364 166.398 21.9076 165.954 22.0884C165.514 22.2691 165.007 22.3595 164.426 22.3595C163.248 22.3595 162.367 22.0014 161.745 21.2679C161.116 20.5309 160.797 19.5158 160.797 18.2539C160.797 16.992 161.116 15.9526 161.745 15.2156C162.371 14.4786 163.248 14.124 164.426 14.124C165.604 14.124 166.464 14.4925 167.083 15.2156C167.709 15.9526 168.027 16.9746 168.027 18.2539C168.027 19.5332 167.709 20.5344 167.083 21.2679Z" fill="white"/>
<path d="M193.282 22.0675C193.282 23.3503 192.957 24.5149 192.321 25.5299C191.684 26.552 190.748 27.3585 189.541 27.9286C188.356 28.4918 186.933 28.7734 185.311 28.7734C182.871 28.7734 180.819 28.1894 179.218 27.0422C177.697 25.9541 176.816 24.3793 176.582 22.363H184.13C184.448 23.392 185.78 23.2946 185.787 22.5577C185.787 22.3769 185.734 22.1092 185.269 21.845C185.018 21.699 184.682 21.5426 184.269 21.3757C183.909 21.2262 183.493 21.0663 183.014 20.8994C181.731 20.451 180.658 20.006 179.83 19.5749C178.945 19.1195 178.172 18.4486 177.543 17.583C176.893 16.6965 176.571 15.5493 176.592 14.1831C176.592 12.8204 176.956 11.6384 177.669 10.6685C178.379 9.70902 179.351 8.97203 180.567 8.48186C181.759 7.99864 183.112 7.7553 184.591 7.7553C187.091 7.7553 189.122 8.34628 190.618 9.51434C192.062 10.6442 192.866 12.219 193.013 14.204H185.416C185.311 13.0394 184.144 13.175 184.144 13.9954C184.144 14.1657 184.196 14.423 184.647 14.6837C184.773 14.7567 184.913 14.8297 185.077 14.9097C185.36 15.0487 185.706 15.2017 186.112 15.3685C186.36 15.4728 186.629 15.5771 186.923 15.6849C188.181 16.1507 189.23 16.6061 190.045 17.0372C190.908 17.4891 191.663 18.1253 192.293 18.9283C192.95 19.7661 193.282 20.8195 193.282 22.0605V22.0675Z" fill="white"/>
<path d="M218.303 4.61962V12.5005C217.408 12.1842 216.471 12.0243 215.513 12.0243C210.898 12.0243 207.147 15.7544 207.147 20.3397C207.147 24.9251 210.898 28.6587 215.513 28.6587C216.471 28.6587 217.408 28.4988 218.303 28.1824V28.6587H224.55V4.61962H218.303ZM217.376 22.8636C217.069 22.954 216.747 23.0026 216.418 23.0026C214.772 23.0026 213.433 21.8102 213.433 20.3397C213.433 18.8692 214.772 17.6768 216.418 17.6768C216.747 17.6768 217.069 17.722 217.376 17.8159V22.8636Z" fill="white"/>
<path d="M242.215 15.9769C241.523 14.7671 240.537 13.8216 239.289 13.1645C238.048 12.5144 236.611 12.1842 235.024 12.1842C233.437 12.1842 231.997 12.5179 230.759 13.1784C229.511 13.8389 228.529 14.8054 227.829 16.0464C227.137 17.2805 226.788 18.7441 226.788 20.3988C226.788 22.0536 227.141 23.5171 227.829 24.7547C228.525 25.9958 229.511 26.9622 230.759 27.6227C231.997 28.2832 233.43 28.617 235.024 28.617C236.349 28.617 237.583 28.3528 238.691 27.8348C239.803 27.3168 240.736 26.6007 241.467 25.7003C242.17 24.8382 242.652 23.8543 242.887 22.7767H236.408C236.258 23.1834 235.87 23.7083 234.863 23.7083C233.224 23.7083 233.28 21.7094 233.28 21.7094H243.142L243.173 21.5113C243.233 21.1184 243.261 20.7117 243.261 20.2633C243.261 18.6259 242.907 17.1832 242.215 15.9769ZM233.224 18.6885C233.472 17.6734 234.154 16.8251 235.164 16.8251C236.174 16.8251 236.706 17.8889 236.79 18.6885H233.224Z" fill="white"/>
<path d="M267.687 14.569C268.292 14.569 268.837 14.7254 269.302 15.0279C269.771 15.3373 270.141 15.7787 270.4 16.3384L270.526 16.6096H277.888L277.79 16.0603C277.504 14.4543 276.909 13.022 276.028 11.8087C275.14 10.5885 273.976 9.63254 272.571 8.96507C271.172 8.30457 269.568 7.96736 267.799 7.96736C265.743 7.96736 263.925 8.41233 262.398 9.28838C260.863 10.1679 259.664 11.4159 258.839 13.0011C258.021 14.569 257.605 16.3802 257.605 18.3791C257.605 20.378 258.021 22.1926 258.839 23.7605C259.664 25.3457 260.863 26.5937 262.398 27.4732C263.925 28.3493 265.743 28.7943 267.799 28.7943C269.568 28.7943 271.172 28.457 272.571 27.7965C273.976 27.1291 275.14 26.1731 276.028 24.9529C276.909 23.7396 277.5 22.3108 277.79 20.7013L277.888 20.152H270.526L270.4 20.4232C270.145 20.9794 269.778 21.4174 269.316 21.7233L269.302 21.7303C268.837 22.0362 268.292 22.1926 267.687 22.1926C266.796 22.1926 266.11 21.8728 265.6 21.2123C265.065 20.5275 264.796 19.5749 264.796 18.3756C264.796 17.1762 265.065 16.2272 265.6 15.5424C266.114 14.8818 266.796 14.562 267.687 14.562V14.569Z" fill="white"/>
<path d="M291.135 19.6549C291.135 20.444 290.953 21.0663 290.6 21.5043C290.264 21.918 289.74 22.1162 288.991 22.1162C288.243 22.1162 287.74 21.918 287.432 21.5148C287.1 21.0767 286.932 20.451 286.932 19.6549V8.16551H279.857V19.6549C279.857 21.6051 280.241 23.2912 280.996 24.6574C281.762 26.041 282.842 27.0978 284.206 27.8035C285.555 28.4988 287.118 28.8499 288.852 28.8499C290.586 28.8499 292.176 28.4988 293.589 27.807C295.019 27.1047 296.158 26.0445 296.976 24.6539C297.794 23.2738 298.21 21.5912 298.21 19.6514V8.16551H291.135V19.6549Z" fill="white"/>
<path d="M307.929 8.16551H300.825V28.6552H307.929V8.16551Z" fill="white"/>
<path d="M328.5 13.2167C327.65 11.7114 326.416 10.5155 324.839 9.67425C323.266 8.8295 321.41 8.39843 319.326 8.39843H310.894V28.4258H319.326C321.413 28.4258 323.27 27.9843 324.843 27.1117C326.423 26.2391 327.653 25.0224 328.503 23.4998C329.353 21.9841 329.783 20.2563 329.783 18.3582C329.783 16.4601 329.353 14.715 328.503 13.2167H328.5ZM321.91 21.4209C321.529 21.7755 321.071 22.0432 320.546 22.2239C320.022 22.4012 319.424 22.4916 318.763 22.4916H317.526V14.2283H318.763C320.085 14.2283 321.144 14.5864 321.91 15.299C322.672 16.0047 323.06 17.0337 323.06 18.3582C323.06 19.6827 322.672 20.7152 321.91 21.4209Z" fill="white"/>
<path d="M344.294 8.39843H336.855L329.485 28.4258H336.467L337.439 25.4709H343.655L344.626 28.4258H351.632L344.294 8.39843ZM339.092 20.3884L340.547 15.9352L342.001 20.3884H339.089H339.092Z" fill="white"/>
<path d="M371.15 13.2167C370.297 11.7114 369.067 10.5155 367.487 9.67078C365.913 8.82602 364.061 8.39843 361.973 8.39843H353.545V28.4258H361.973C364.061 28.4258 365.917 27.9843 367.49 27.1117C369.07 26.2391 370.301 25.0224 371.15 23.4998C372 21.9806 372.43 20.2528 372.43 18.3582C372.43 16.4636 372 14.7185 371.15 13.2167ZM364.564 21.4209C363.798 22.1301 362.739 22.4916 361.418 22.4916H360.18V14.2283H361.418C362.739 14.2283 363.798 14.5864 364.564 15.299C365.326 16.0047 365.711 17.0337 365.711 18.3582C365.711 19.6827 365.326 20.7152 364.564 21.4209Z" fill="white"/>
<path d="M393.623 13.0463C392.707 11.4889 391.448 10.2548 389.882 9.38571C388.312 8.51315 386.564 8.06817 384.683 8.06817C382.803 8.06817 381.051 8.50967 379.474 9.38571C377.898 10.2548 376.632 11.4889 375.702 13.0463C374.779 14.6037 374.311 16.3836 374.311 18.3269C374.311 20.2702 374.779 22.0536 375.702 23.611C376.632 25.1719 377.898 26.4095 379.471 27.2855C381.048 28.165 382.799 28.6135 384.683 28.6135C386.568 28.6135 388.295 28.165 389.868 27.2855C391.445 26.406 392.707 25.1649 393.623 23.611C394.539 22.0571 395 20.2772 395 18.3269C395 16.3767 394.535 14.6003 393.623 13.0463ZM387.337 21.3444C386.711 22.0779 385.844 22.436 384.68 22.436C383.516 22.436 382.624 22.0779 381.998 21.3444C381.373 20.6074 381.055 19.5923 381.055 18.3304C381.055 17.0685 381.373 16.029 381.998 15.2921C382.628 14.5551 383.502 14.2005 384.68 14.2005C385.858 14.2005 386.711 14.5585 387.337 15.2921C387.963 16.029 388.281 17.0511 388.281 18.3304C388.281 19.6097 387.963 20.6074 387.337 21.3444Z" fill="white"/>
</g>
<defs>
<clipPath id="clip0_2_5072">
<rect width="395" height="27.9222" fill="white" transform="translate(0 0.927719)"/>
</clipPath>
</defs>
</svg>
