<svg width="253" height="77" viewBox="0 0 253 77" fill="none" xmlns="http://www.w3.org/2000/svg">
<g clip-path="url(#clip0_6_5425)">
<path d="M6.7638 36.9258H16.0663V17.662H22.9014V10.0649H0V17.662H6.7638V36.9258Z" fill="#EDEDED"/>
<path d="M43.4025 29.2931H34.3142V26.894H42.3139V19.6257H34.3142V17.6976H43.4025V10.0649H25.0118V36.9258H43.4025V29.2931Z" fill="#EDEDED"/>
<path d="M63.6716 26.672C65.3536 26.0589 66.6743 25.0993 67.5978 23.8198C68.5883 22.447 69.0925 20.852 69.0925 19.0794C69.0925 17.44 68.7043 15.9428 67.9414 14.6366C67.1784 13.326 66.014 12.2731 64.4881 11.5134C62.9711 10.7537 61.124 10.3716 59.0003 10.3716H46.6952V36.6193H55.3819V28.2936L59.7632 36.6193H69.3468L63.6716 26.672ZM59.8212 21.0031C59.4911 21.3007 58.9735 21.4473 58.282 21.4473H55.3864V17.7154H58.282C58.9468 17.7154 59.4554 17.8798 59.7945 18.2086C60.1336 18.5373 60.2986 18.9861 60.2986 19.5814C60.2986 20.2345 60.138 20.7098 59.8212 20.9986V21.0031Z" fill="#EDEDED"/>
<path d="M89.1965 26.672C90.8785 26.0589 92.1992 25.0993 93.1227 23.8198C94.1087 22.447 94.6129 20.852 94.6129 19.0794C94.6129 17.44 94.2247 15.9428 93.4618 14.6366C92.6989 13.326 91.5344 12.2731 90.0085 11.5134C88.4916 10.7537 86.6444 10.3716 84.5252 10.3716H72.2156V36.6193H80.9024V28.2892L85.2837 36.6193H94.8717L89.1965 26.672ZM85.3417 21.0031C85.016 21.3007 84.4984 21.4473 83.8024 21.4473H80.9068V17.7154H83.8024C84.4672 17.7154 84.9758 17.8798 85.3193 18.2086C85.6584 18.5373 85.8235 18.9861 85.8235 19.5814C85.8235 20.2345 85.6629 20.7098 85.3417 20.9986V21.0031Z" fill="#EDEDED"/>
<path d="M106.74 10.0649H97.4371V36.9258H106.74V10.0649Z" fill="#EDEDED"/>
<path d="M115.614 36.9258H124.916V17.662H131.751V10.0649H108.85V17.662H115.614V36.9258Z" fill="#EDEDED"/>
<path d="M152.386 0.672852H141.647V7.19924L152.386 7.28809V0.672852Z" fill="#EDEDED"/>
<path d="M158.989 16.3068C157.762 14.2187 156.076 12.566 153.975 11.3932C151.878 10.2247 149.54 9.62939 147.023 9.62939C144.507 9.62939 142.16 10.2203 140.05 11.3932C137.94 12.5616 136.24 14.2143 135.004 16.3024C133.763 18.3905 133.134 20.7762 133.134 23.3841C133.134 25.992 133.763 28.3778 135.004 30.4659C136.244 32.5539 137.94 34.2155 140.05 35.3973C142.156 36.5746 144.503 37.1744 147.023 37.1744C149.544 37.1744 151.851 36.5746 153.957 35.3973C156.067 34.22 157.758 32.5539 158.989 30.4659C160.212 28.3778 160.832 25.9965 160.832 23.3841C160.832 20.7718 160.212 18.3949 158.989 16.3068ZM150.267 27.1382C149.504 28.0268 148.447 28.4577 147.023 28.4577C145.6 28.4577 144.503 28.0268 143.744 27.1338C142.972 26.2275 142.58 24.9657 142.58 23.3797C142.58 21.7936 142.968 20.5008 143.744 19.5989C144.494 18.7192 145.596 18.275 147.023 18.275C148.451 18.275 149.504 18.7104 150.263 19.5989C151.034 20.5097 151.427 21.7847 151.427 23.3841C151.427 24.9835 151.039 26.2319 150.267 27.1382Z" fill="#EDEDED"/>
<path d="M180.958 26.672C182.636 26.0589 183.957 25.0993 184.885 23.8198C185.875 22.447 186.379 20.852 186.379 19.0794C186.379 17.44 185.991 15.9428 185.228 14.6366C184.465 13.326 183.301 12.2731 181.775 11.5134C180.258 10.7537 178.411 10.3716 176.292 10.3716H163.982V36.6193H172.669V28.2936L177.05 36.6193H186.638L180.963 26.672H180.958ZM177.104 21.0031C176.773 21.3007 176.256 21.4473 175.564 21.4473H172.669V17.7154H175.564C176.229 17.7154 176.738 17.8798 177.081 18.2086C177.42 18.5373 177.585 18.9861 177.585 19.5814C177.585 20.2345 177.425 20.7098 177.104 20.9986V21.0031Z" fill="#EDEDED"/>
<path d="M198.501 10.0649H189.199V36.9258H198.501V10.0649Z" fill="#EDEDED"/>
<path d="M226.926 16.4624C225.731 14.4232 224.08 12.806 222.032 11.6598C219.984 10.518 217.691 9.93604 215.228 9.93604C212.765 9.93604 210.467 10.518 208.406 11.6598C206.34 12.806 204.681 14.4232 203.472 16.458C202.263 18.4972 201.647 20.8252 201.647 23.3798C201.647 25.9343 202.263 28.2712 203.472 30.306C204.685 32.3497 206.34 33.9713 208.402 35.1264C210.463 36.2815 212.761 36.8635 215.228 36.8635C217.695 36.8635 219.948 36.2815 222.014 35.1264C224.075 33.9713 225.726 32.3497 226.926 30.306C228.127 28.2668 228.733 25.9343 228.733 23.3798C228.733 20.8252 228.127 18.5016 226.926 16.458V16.4624ZM218.704 27.3383C218.298 27.8225 217.802 28.1735 217.227 28.4134C216.651 28.6533 215.986 28.7688 215.228 28.7688C213.684 28.7688 212.533 28.3023 211.717 27.3383C210.896 26.3742 210.476 25.0414 210.476 23.3887C210.476 21.736 210.896 20.372 211.717 19.408C212.538 18.4439 213.684 17.973 215.228 17.973C216.772 17.973 217.896 18.4572 218.704 19.408C219.525 20.372 219.935 21.7137 219.935 23.3887C219.935 25.0636 219.52 26.3786 218.704 27.3383Z" fill="#EDEDED"/>
<path d="M253 28.3821C253 30.0614 252.576 31.5897 251.742 32.9225C250.907 34.2598 249.685 35.3216 248.106 36.068C246.553 36.8055 244.692 37.1787 242.569 37.1787C239.374 37.1787 236.688 36.4145 234.591 34.9129C232.602 33.4868 231.446 31.4253 231.143 28.7819H241.025C241.444 30.1281 243.184 30.0037 243.193 29.0396C243.193 28.8041 243.122 28.4487 242.52 28.1066C242.19 27.9156 241.752 27.7112 241.208 27.4891C240.739 27.2936 240.191 27.0848 239.566 26.8671C237.884 26.2762 236.483 25.6942 235.394 25.13C234.234 24.5302 233.226 23.655 232.401 22.5221C231.549 21.3581 231.129 19.8564 231.156 18.066C231.156 16.28 231.633 14.7295 232.566 13.4589C233.494 12.2016 234.77 11.2331 236.358 10.5933C237.915 9.96246 239.691 9.64258 241.623 9.64258C244.898 9.64258 247.552 10.4156 249.511 11.9484C251.403 13.4278 252.456 15.4937 252.648 18.0971H242.703C242.569 16.5688 241.038 16.7465 241.038 17.8217C241.038 18.0438 241.105 18.3814 241.699 18.728C241.859 18.8213 242.047 18.919 242.265 19.0256C242.636 19.2078 243.086 19.4122 243.617 19.6254C243.943 19.7587 244.295 19.8964 244.679 20.043C246.325 20.6561 247.7 21.2515 248.766 21.8157C249.895 22.4066 250.885 23.2418 251.711 24.2947C252.572 25.3921 253.004 26.7738 253.004 28.3998L253 28.3821Z" fill="#EDEDED"/>
<path d="M16.218 44.7002V55.0296C15.0445 54.612 13.8176 54.4076 12.5684 54.4076C6.5318 54.4076 1.61957 59.2946 1.61957 65.3056C1.61957 71.3167 6.52734 76.2081 12.5684 76.2081C13.8221 76.2081 15.049 75.9993 16.218 75.5861V76.2081H24.3961V44.7002H16.218ZM15.0044 68.6155C14.6028 68.7354 14.1835 68.7976 13.7507 68.7976C11.5957 68.7976 9.84231 67.2338 9.84231 65.3101C9.84231 63.3864 11.5957 61.8225 13.7507 61.8225C14.179 61.8225 14.6028 61.8847 15.0044 62.0047V68.6199V68.6155Z" fill="#EDEDED"/>
<path d="M47.5161 59.5881C46.606 58.002 45.321 56.7625 43.6881 55.905C42.0596 55.052 40.1857 54.6211 38.1066 54.6211C36.0275 54.6211 34.1447 55.0565 32.5251 55.9228C30.8922 56.7892 29.6028 58.0553 28.6926 59.6858C27.7869 61.303 27.3274 63.2222 27.3274 65.3903C27.3274 67.5584 27.7869 69.4776 28.6926 71.0992C29.6028 72.7253 30.8922 73.9914 32.5251 74.8578C34.1447 75.7241 36.023 76.1639 38.1066 76.1639C39.8422 76.1639 41.4573 75.8174 42.9073 75.1377C44.3618 74.4579 45.5843 73.5161 46.539 72.3387C47.4581 71.2103 48.0872 69.9175 48.3995 68.5091H39.918C39.7217 69.0422 39.2131 69.7309 37.8969 69.7309C35.7509 69.7309 35.8223 67.1141 35.8223 67.1141H48.7297L48.7699 66.8564C48.8457 66.341 48.8814 65.8079 48.8814 65.217C48.8814 63.0712 48.4218 61.1786 47.5117 59.597L47.5161 59.5881ZM35.7509 63.1423C36.0766 61.8139 36.9689 60.6988 38.2895 60.6988C39.6102 60.6988 40.3106 62.0938 40.4177 63.1423H35.7509Z" fill="#EDEDED"/>
<path d="M86.35 57.7398C87.1442 57.7398 87.8536 57.9442 88.4648 58.344C89.0805 58.7483 89.5623 59.3259 89.9014 60.0634L90.0665 60.4188H99.7036L99.5742 59.6991C99.195 57.5932 98.4231 55.7184 97.2675 54.1279C96.1075 52.5285 94.5817 51.2756 92.7435 50.4004C90.9142 49.5341 88.8128 49.0942 86.4972 49.0942C83.8069 49.0942 81.4288 49.6762 79.43 50.8225C77.4223 51.9731 75.8518 53.6125 74.7721 55.6873C73.7013 57.7443 73.157 60.1167 73.157 62.7379C73.157 65.3591 73.7013 67.736 74.7721 69.7885C75.8518 71.8633 77.4178 73.5027 79.43 74.6533C81.4288 75.7996 83.8069 76.3816 86.4972 76.3816C88.8128 76.3816 90.9142 75.9417 92.7435 75.0754C94.5861 74.2002 96.1075 72.9473 97.2675 71.3479C98.4186 69.7574 99.195 67.8826 99.5742 65.7767L99.7036 65.057H90.0665L89.9014 65.4124C89.5668 66.141 89.0894 66.7186 88.4826 67.1184L88.4648 67.1273C87.8536 67.5316 87.1442 67.7315 86.35 67.7315C85.181 67.7315 84.2887 67.3095 83.615 66.4476C82.9146 65.5502 82.5621 64.2973 82.5621 62.729C82.5621 61.1607 82.9146 59.9123 83.615 59.0149C84.2843 58.1485 85.181 57.7309 86.35 57.7309V57.7398Z" fill="#EDEDED"/>
<path d="M117.041 64.4086C117.041 65.4438 116.805 66.2568 116.341 66.8299C115.904 67.3719 115.217 67.634 114.24 67.634C113.262 67.634 112.602 67.3763 112.201 66.8432C111.763 66.2701 111.545 65.4482 111.545 64.4042V49.3433H102.282V64.4042C102.282 66.9632 102.787 69.1668 103.777 70.9616C104.776 72.7743 106.191 74.1604 107.98 75.0845C109.747 75.9953 111.79 76.4573 114.061 76.4573C116.332 76.4573 118.411 75.9997 120.263 75.0934C122.132 74.1737 123.627 72.7832 124.698 70.9616C125.768 69.149 126.313 66.9454 126.313 64.4042V49.3433H117.05V64.4042L117.041 64.4086Z" fill="#EDEDED"/>
<path d="M139.033 49.3477H129.73V76.2085H139.033V49.3477Z" fill="#EDEDED"/>
<path d="M165.95 55.9669C164.834 53.9944 163.224 52.4305 161.158 51.3243C159.101 50.2136 156.669 49.6538 153.939 49.6538H142.901V75.9015H153.939C156.669 75.9015 159.101 75.3195 161.158 74.1777C163.228 73.0315 164.839 71.441 165.95 69.4418C167.06 67.4559 167.627 65.1901 167.627 62.7066C167.627 60.2231 167.06 57.9306 165.95 55.9669ZM157.325 66.7228C156.826 67.1893 156.228 67.5403 155.541 67.7757C154.854 68.0068 154.073 68.1267 153.207 68.1267H151.588V57.2953H153.207C154.938 57.2953 156.321 57.7663 157.325 58.6992C158.325 59.6233 158.829 60.9739 158.829 62.711C158.829 64.4481 158.325 65.7987 157.325 66.7273V66.7228Z" fill="#EDEDED"/>
<path d="M186.625 49.6538H176.889L167.243 75.9015H176.381L177.652 72.0275H185.79L187.062 75.9015H196.23L186.625 49.6538ZM179.816 65.3722L181.721 59.5345L183.626 65.3722H179.816Z" fill="#EDEDED"/>
<path d="M221.782 55.967C220.667 53.9944 219.056 52.4306 216.986 51.3199C214.929 50.2136 212.502 49.6494 209.767 49.6494H198.733V75.8971H209.767C212.502 75.8971 214.929 75.3151 216.986 74.1733C219.056 73.0271 220.667 71.4366 221.778 69.4374C222.893 67.447 223.455 65.1812 223.455 62.7022C223.455 60.2231 222.893 57.9307 221.778 55.9625L221.782 55.967ZM213.158 66.7229C212.154 67.6514 210.766 68.1268 209.04 68.1268H207.42V57.2954H209.04C210.766 57.2954 212.154 57.7663 213.158 58.6993C214.157 59.6234 214.657 60.974 214.657 62.7111C214.657 64.4482 214.153 65.7988 213.158 66.7273V66.7229Z" fill="#EDEDED"/>
<path d="M251.193 55.7451C249.993 53.7059 248.347 52.0888 246.294 50.947C244.242 49.8008 241.953 49.2188 239.49 49.2188C237.027 49.2188 234.734 49.8008 232.673 50.947C230.612 52.0888 228.952 53.7015 227.734 55.7451C226.525 57.7844 225.909 60.1168 225.909 62.6669C225.909 65.2171 226.525 67.5539 227.734 69.5932C228.947 71.6413 230.607 73.2584 232.668 74.4135C234.73 75.5686 237.027 76.1551 239.49 76.1551C241.953 76.1551 244.215 75.5686 246.276 74.4135C248.338 73.2584 249.993 71.6368 251.193 69.5932C252.389 67.5539 252.996 65.2259 252.996 62.6669C252.996 60.1079 252.389 57.7799 251.193 55.7451ZM242.97 66.621C242.149 67.585 241.016 68.0515 239.495 68.0515C237.973 68.0515 236.804 67.585 235.983 66.621C235.162 65.6569 234.748 64.3241 234.748 62.6714C234.748 61.0187 235.167 59.6547 235.983 58.6907C236.804 57.7266 237.955 57.2557 239.495 57.2557C241.034 57.2557 242.154 57.7222 242.97 58.6862C243.791 59.6503 244.206 60.992 244.206 62.6714C244.206 64.3507 243.787 65.6569 242.97 66.621Z" fill="#EDEDED"/>
</g>
<defs>
<clipPath id="clip0_6_5425">
<rect width="253" height="75.7887" fill="white" transform="translate(0 0.672852)"/>
</clipPath>
</defs>
</svg>
